<?xml version="1.0" encoding="utf-8" standalone="no"?>
<!DOCTYPE svg PUBLIC "-//W3C//DTD SVG 1.1//EN"
  "http://www.w3.org/Graphics/SVG/1.1/DTD/svg11.dtd">
<!-- Created with matplotlib (http://matplotlib.org/) -->
<svg height="576pt" version="1.1" viewBox="0 0 1728 576" width="1728pt" xmlns="http://www.w3.org/2000/svg" xmlns:xlink="http://www.w3.org/1999/xlink">
 <defs>
  <style type="text/css">
*{stroke-linecap:butt;stroke-linejoin:round;}
  </style>
 </defs>
 <g id="figure_1">
  <g id="patch_1">
   <path d="M 0 576 
L 1728 576 
L 1728 0 
L 0 0 
z
" style="fill:#ffffff;"/>
  </g>
  <g id="axes_1">
   <g id="patch_2">
    <path d="M 87.007019 505.4 
L 329.809888 505.4 
L 329.809888 38.86401 
L 87.007019 38.86401 
z
" style="fill:#ffffff;"/>
   </g>
   <g id="matplotlib.axis_1">
    <g id="xtick_1">
     <g id="line2d_1">
      <defs>
       <path d="M 0 0 
L 0 3.5 
" id="m1ce49a693f" style="stroke:#000000;stroke-width:0.8;"/>
      </defs>
      <g>
       <use style="stroke:#000000;stroke-width:0.8;" x="136.145695" xlink:href="#m1ce49a693f" y="505.4"/>
      </g>
     </g>
     <g id="text_1">
      <!-- $-5$ -->
      <defs>
       <path d="M 65.90625 23 
C 67.59375 23 69.40625 23 69.40625 25 
C 69.40625 27 67.59375 27 65.90625 27 
L 11.796875 27 
C 10.09375 27 8.296875 27 8.296875 25 
C 8.296875 23 10.09375 23 11.796875 23 
z
" id="CMSY10-0"/>
       <path d="M 18.09375 58.09375 
L 37.703125 58.09375 
C 39.296875 58.09375 39.703125 58.296875 40 58.984375 
L 43.796875 67.890625 
L 42.90625 68.59375 
C 41.40625 66.5 40.40625 66 38.296875 66 
L 17.40625 66 
L 6.5 42.453125 
C 6.40625 42.265625 6.40625 42.15625 6.40625 41.96875 
C 6.40625 41.46875 6.796875 41.171875 7.59375 41.171875 
C 10.796875 41.171875 14.796875 40.484375 18.90625 39.1875 
C 30.40625 35.53125 35.703125 29.40625 35.703125 19.609375 
C 35.703125 10.109375 29.59375 2.6875 21.796875 2.6875 
C 19.796875 2.6875 18.09375 3.390625 15.09375 5.5625 
C 11.90625 7.84375 9.59375 8.828125 7.5 8.828125 
C 4.59375 8.828125 3.203125 7.640625 3.203125 5.171875 
C 3.203125 1.390625 7.90625 -1 15.40625 -1 
C 23.796875 -1 31 1.6875 36 6.75 
C 40.59375 11.203125 42.703125 16.84375 42.703125 24.359375 
C 42.703125 31.484375 40.796875 36.03125 35.796875 40.96875 
C 31.40625 45.328125 25.703125 47.609375 13.90625 49.6875 
z
" id="Nimbus_Roman_No9_L_Regular-53"/>
      </defs>
      <g transform="translate(123.423505 525.909155)scale(0.2 -0.2)">
       <use transform="scale(0.996264)" xlink:href="#CMSY10-0"/>
       <use transform="translate(77.408707 0)scale(0.996264)" xlink:href="#Nimbus_Roman_No9_L_Regular-53"/>
      </g>
     </g>
    </g>
    <g id="xtick_2">
     <g id="line2d_2">
      <g>
       <use style="stroke:#000000;stroke-width:0.8;" x="208.408453" xlink:href="#m1ce49a693f" y="505.4"/>
      </g>
     </g>
     <g id="text_2">
      <!-- $0$ -->
      <defs>
       <path d="M 25.40625 68 
C 19.90625 68 15.703125 66.296875 12 62.796875 
C 6.203125 57.203125 2.40625 45.6875 2.40625 34 
C 2.40625 23.09375 5.703125 11.390625 10.40625 5.796875 
C 14.09375 1.390625 19.203125 -1 25 -1 
C 30.09375 -1 34.40625 0.6875 38 4.1875 
C 43.796875 9.6875 47.59375 21.296875 47.59375 33.390625 
C 47.59375 53.890625 38.5 68 25.40625 68 
z
M 25.09375 65.390625 
C 33.5 65.390625 38 54.09375 38 33.1875 
C 38 12.296875 33.59375 1.59375 25 1.59375 
C 16.40625 1.59375 12 12.296875 12 33.09375 
C 12 54.296875 16.5 65.390625 25.09375 65.390625 
z
" id="Nimbus_Roman_No9_L_Regular-48"/>
      </defs>
      <g transform="translate(203.427133 525.909155)scale(0.2 -0.2)">
       <use transform="scale(0.996264)" xlink:href="#Nimbus_Roman_No9_L_Regular-48"/>
      </g>
     </g>
    </g>
    <g id="xtick_3">
     <g id="line2d_3">
      <g>
       <use style="stroke:#000000;stroke-width:0.8;" x="280.671212" xlink:href="#m1ce49a693f" y="505.4"/>
      </g>
     </g>
     <g id="text_3">
      <!-- $5$ -->
      <g transform="translate(275.689892 525.909155)scale(0.2 -0.2)">
       <use transform="scale(0.996264)" xlink:href="#Nimbus_Roman_No9_L_Regular-53"/>
      </g>
     </g>
    </g>
    <g id="text_4">
     <!-- tr(J) -->
     <defs>
      <path d="M 25.5 45 
L 15.40625 45 
L 15.40625 56.59375 
C 15.40625 57.59375 15.296875 57.890625 14.703125 57.890625 
C 14 57 13.40625 56.09375 12.703125 55.09375 
C 8.90625 49.59375 4.59375 44.796875 3 44.390625 
C 1.90625 43.6875 1.296875 42.984375 1.296875 42.484375 
C 1.296875 42.1875 1.40625 41.984375 1.703125 41.796875 
L 7 41.796875 
L 7 11.6875 
C 7 3.296875 10 -1 15.90625 -1 
C 20.796875 -1 24.59375 1.390625 27.90625 6.59375 
L 26.59375 7.6875 
C 24.5 5.1875 22.796875 4.1875 20.59375 4.1875 
C 16.90625 4.1875 15.40625 6.890625 15.40625 13.1875 
L 15.40625 41.796875 
L 25.5 41.796875 
z
" id="Nimbus_Roman_No9_L_Regular-116"/>
      <path d="M 0.703125 39 
C 2.09375 39.296875 3 39.390625 4.203125 39.390625 
C 6.703125 39.390625 7.59375 37.796875 7.59375 33.390625 
L 7.59375 8.390625 
C 7.59375 3.390625 6.90625 2.6875 0.5 1.5 
L 0.5 0 
L 24.5 0 
L 24.5 1.5 
C 17.703125 1.796875 16 3.296875 16 9 
L 16 31.5 
C 16 34.6875 20.296875 39.6875 23 39.6875 
C 23.59375 39.6875 24.5 39.1875 25.59375 38.1875 
C 27.203125 36.796875 28.296875 36.1875 29.59375 36.1875 
C 32 36.1875 33.5 37.890625 33.5 40.6875 
C 33.5 43.984375 31.40625 46 28 46 
C 23.796875 46 20.90625 43.6875 16 36.59375 
L 16 45.796875 
L 15.5 46 
C 10.203125 43.796875 6.59375 42.5 0.703125 40.59375 
z
" id="Nimbus_Roman_No9_L_Regular-114"/>
      <path d="M 29.5 68 
C 22.09375 63.1875 19.09375 60.59375 15.40625 55.984375 
C 8.296875 47.296875 4.796875 37.296875 4.796875 25.59375 
C 4.796875 12.890625 8.5 3.09375 17.296875 -7.109375 
C 21.40625 -11.90625 24 -14.109375 29.203125 -17.3125 
L 30.40625 -15.71875 
C 22.40625 -9.40625 19.59375 -5.90625 16.90625 1.59375 
C 14.5 8.28125 13.40625 15.890625 13.40625 25.890625 
C 13.40625 36.390625 14.703125 44.59375 17.40625 50.796875 
C 20.203125 56.984375 23.203125 60.59375 30.40625 66.390625 
z
" id="Nimbus_Roman_No9_L_Regular-40"/>
      <path d="M 27.796875 55.171875 
C 27.796875 62.40625 28.90625 63.5 37 64.09375 
L 37 66 
L 8.296875 66 
L 8.296875 64.09375 
C 16.5 63.5 17.59375 62.40625 17.59375 55.171875 
L 17.59375 9.328125 
C 17.59375 4.875 16.40625 2.796875 13.796875 2.796875 
C 12.40625 2.796875 11.796875 3.578125 11.09375 6.0625 
C 10.09375 9.53125 8.5 11.109375 5.90625 11.109375 
C 3.203125 11.109375 1 8.828125 1 6.15625 
C 1 2 5.09375 -1 10.90625 -1 
C 21.703125 -1 27.796875 6.15625 27.796875 18.53125 
z
" id="Nimbus_Roman_No9_L_Regular-74"/>
      <path d="M 3.796875 -17.3125 
C 11.203125 -12.515625 14.203125 -9.90625 17.90625 -5.3125 
C 25 3.390625 28.5 13.390625 28.5 25.09375 
C 28.5 37.890625 24.796875 47.59375 16 57.796875 
C 11.90625 62.59375 9.296875 64.796875 4.09375 68 
L 2.90625 66.390625 
C 10.90625 60.09375 13.59375 56.59375 16.40625 49.09375 
C 18.796875 42.390625 19.90625 34.796875 19.90625 24.796875 
C 19.90625 14.390625 18.59375 6.09375 15.90625 -0.015625 
C 13.09375 -6.3125 10.09375 -9.90625 2.90625 -15.71875 
z
" id="Nimbus_Roman_No9_L_Regular-41"/>
     </defs>
     <g transform="translate(191.811003 547.731968)scale(0.2 -0.2)">
      <use transform="scale(0.996264)" xlink:href="#Nimbus_Roman_No9_L_Regular-116"/>
      <use transform="translate(27.69517 0)scale(0.996264)" xlink:href="#Nimbus_Roman_No9_L_Regular-114"/>
      <use transform="translate(60.870399 0)scale(0.996264)" xlink:href="#Nimbus_Roman_No9_L_Regular-40"/>
      <use transform="translate(94.045629 0)scale(0.996264)" xlink:href="#Nimbus_Roman_No9_L_Regular-74"/>
      <use transform="translate(132.799335 0)scale(0.996264)" xlink:href="#Nimbus_Roman_No9_L_Regular-41"/>
     </g>
    </g>
   </g>
   <g id="matplotlib.axis_2">
    <g id="ytick_1">
     <g id="line2d_4">
      <defs>
       <path d="M 0 0 
L -3.5 0 
" id="m4cf77027b6" style="stroke:#000000;stroke-width:0.8;"/>
      </defs>
      <g>
       <use style="stroke:#000000;stroke-width:0.8;" x="87.007019" xlink:href="#m4cf77027b6" y="501.18087"/>
      </g>
     </g>
     <g id="text_5">
      <!-- $-30$ -->
      <defs>
       <path d="M 15.296875 33.390625 
C 21.203125 33.390625 23.5 33.1875 25.90625 32.296875 
C 32.09375 30.09375 36 24.390625 36 17.5 
C 36 9.09375 30.296875 2.59375 22.90625 2.59375 
C 20.203125 2.59375 18.203125 3.296875 14.5 5.6875 
C 11.5 7.5 9.796875 8.1875 8.09375 8.1875 
C 5.796875 8.1875 4.296875 6.796875 4.296875 4.6875 
C 4.296875 1.1875 8.59375 -1 15.59375 -1 
C 23.296875 -1 31.203125 1.59375 35.90625 5.6875 
C 40.59375 9.796875 43.203125 15.59375 43.203125 22.296875 
C 43.203125 27.390625 41.59375 32.09375 38.703125 35.1875 
C 36.703125 37.390625 34.796875 38.59375 30.40625 40.5 
C 37.296875 45.1875 39.796875 48.890625 39.796875 54.296875 
C 39.796875 62.390625 33.40625 68 24.203125 68 
C 19.203125 68 14.796875 66.296875 11.203125 63.09375 
C 8.203125 60.390625 6.703125 57.796875 4.5 51.796875 
L 6 51.390625 
C 10.09375 58.703125 14.59375 61.984375 20.90625 61.984375 
C 27.40625 61.984375 31.90625 57.59375 31.90625 51.296875 
C 31.90625 47.6875 30.40625 44.09375 27.90625 41.59375 
C 24.90625 38.59375 22.09375 37.09375 15.296875 34.6875 
z
" id="Nimbus_Roman_No9_L_Regular-51"/>
      </defs>
      <g transform="translate(44.6 507.935447)scale(0.2 -0.2)">
       <use transform="scale(0.996264)" xlink:href="#CMSY10-0"/>
       <use transform="translate(77.408707 0)scale(0.996264)" xlink:href="#Nimbus_Roman_No9_L_Regular-51"/>
       <use transform="translate(127.221908 0)scale(0.996264)" xlink:href="#Nimbus_Roman_No9_L_Regular-48"/>
      </g>
     </g>
    </g>
    <g id="ytick_2">
     <g id="line2d_5">
      <g>
       <use style="stroke:#000000;stroke-width:0.8;" x="87.007019" xlink:href="#m4cf77027b6" y="424.831248"/>
      </g>
     </g>
     <g id="text_6">
      <!-- $-20$ -->
      <defs>
       <path d="M 47.5 13.734375 
L 46.203125 14.25 
C 42.5 8.5 41.203125 7.59375 36.703125 7.59375 
L 12.796875 7.59375 
L 29.59375 25.328125 
C 38.5 34.703125 42.40625 42.359375 42.40625 50.21875 
C 42.40625 60.28125 34.296875 68 23.90625 68 
C 18.40625 68 13.203125 65.796875 9.5 61.796875 
C 6.296875 58.375 4.796875 55.15625 3.09375 48 
L 5.203125 47.484375 
C 9.203125 57.359375 12.796875 60.59375 19.703125 60.59375 
C 28.09375 60.59375 33.796875 54.84375 33.796875 46.390625 
C 33.796875 38.53125 29.203125 29.15625 20.796875 20.1875 
L 3 1.1875 
L 3 0 
L 42 0 
z
" id="Nimbus_Roman_No9_L_Regular-50"/>
      </defs>
      <g transform="translate(44.6 431.585826)scale(0.2 -0.2)">
       <use transform="scale(0.996264)" xlink:href="#CMSY10-0"/>
       <use transform="translate(77.408707 0)scale(0.996264)" xlink:href="#Nimbus_Roman_No9_L_Regular-50"/>
       <use transform="translate(127.221908 0)scale(0.996264)" xlink:href="#Nimbus_Roman_No9_L_Regular-48"/>
      </g>
     </g>
    </g>
    <g id="ytick_3">
     <g id="line2d_6">
      <g>
       <use style="stroke:#000000;stroke-width:0.8;" x="87.007019" xlink:href="#m4cf77027b6" y="348.481626"/>
      </g>
     </g>
     <g id="text_7">
      <!-- $-10$ -->
      <defs>
       <path d="M 29.09375 68 
L 11.09375 59 
L 11.09375 57.59375 
C 12.296875 58.09375 13.40625 58.484375 13.796875 58.6875 
C 15.59375 59.390625 17.296875 59.78125 18.296875 59.78125 
C 20.40625 59.78125 21.296875 58.296875 21.296875 55.078125 
L 21.296875 9.359375 
C 21.296875 6.03125 20.5 3.71875 18.90625 2.796875 
C 17.40625 1.890625 16 1.59375 11.796875 1.5 
L 11.796875 0 
L 39.40625 0 
L 39.40625 1.5 
C 31.5 1.59375 29.90625 2.609375 29.90625 7.453125 
L 29.90625 67.796875 
z
" id="Nimbus_Roman_No9_L_Regular-49"/>
      </defs>
      <g transform="translate(44.6 355.236204)scale(0.2 -0.2)">
       <use transform="scale(0.996264)" xlink:href="#CMSY10-0"/>
       <use transform="translate(77.408707 0)scale(0.996264)" xlink:href="#Nimbus_Roman_No9_L_Regular-49"/>
       <use transform="translate(127.221908 0)scale(0.996264)" xlink:href="#Nimbus_Roman_No9_L_Regular-48"/>
      </g>
     </g>
    </g>
    <g id="ytick_4">
     <g id="line2d_7">
      <g>
       <use style="stroke:#000000;stroke-width:0.8;" x="87.007019" xlink:href="#m4cf77027b6" y="272.132005"/>
      </g>
     </g>
     <g id="text_8">
      <!-- $0$ -->
      <g transform="translate(70.044379 278.886583)scale(0.2 -0.2)">
       <use transform="scale(0.996264)" xlink:href="#Nimbus_Roman_No9_L_Regular-48"/>
      </g>
     </g>
    </g>
    <g id="ytick_5">
     <g id="line2d_8">
      <g>
       <use style="stroke:#000000;stroke-width:0.8;" x="87.007019" xlink:href="#m4cf77027b6" y="195.782383"/>
      </g>
     </g>
     <g id="text_9">
      <!-- $10$ -->
      <g transform="translate(60.081738 202.536961)scale(0.2 -0.2)">
       <use transform="scale(0.996264)" xlink:href="#Nimbus_Roman_No9_L_Regular-49"/>
       <use transform="translate(49.8132 0)scale(0.996264)" xlink:href="#Nimbus_Roman_No9_L_Regular-48"/>
      </g>
     </g>
    </g>
    <g id="ytick_6">
     <g id="line2d_9">
      <g>
       <use style="stroke:#000000;stroke-width:0.8;" x="87.007019" xlink:href="#m4cf77027b6" y="119.432762"/>
      </g>
     </g>
     <g id="text_10">
      <!-- $20$ -->
      <g transform="translate(60.081738 126.18734)scale(0.2 -0.2)">
       <use transform="scale(0.996264)" xlink:href="#Nimbus_Roman_No9_L_Regular-50"/>
       <use transform="translate(49.8132 0)scale(0.996264)" xlink:href="#Nimbus_Roman_No9_L_Regular-48"/>
      </g>
     </g>
    </g>
    <g id="ytick_7">
     <g id="line2d_10">
      <g>
       <use style="stroke:#000000;stroke-width:0.8;" x="87.007019" xlink:href="#m4cf77027b6" y="43.08314"/>
      </g>
     </g>
     <g id="text_11">
      <!-- $30$ -->
      <g transform="translate(60.081738 49.837718)scale(0.2 -0.2)">
       <use transform="scale(0.996264)" xlink:href="#Nimbus_Roman_No9_L_Regular-51"/>
       <use transform="translate(49.8132 0)scale(0.996264)" xlink:href="#Nimbus_Roman_No9_L_Regular-48"/>
      </g>
     </g>
    </g>
    <g id="text_12">
     <!-- det(J) -->
     <defs>
      <path d="M 34.40625 -1 
L 49.09375 4.1875 
L 49.09375 5.796875 
C 47.296875 5.6875 47.09375 5.6875 46.796875 5.6875 
C 43.203125 5.6875 42.40625 6.796875 42.40625 11.390625 
L 42.40625 68.09375 
L 41.90625 68.296875 
C 37.09375 66.59375 33.59375 65.59375 27.203125 63.890625 
L 27.203125 62.296875 
C 28 62.390625 28.59375 62.390625 29.40625 62.390625 
C 33.09375 62.390625 34 61.390625 34 57.296875 
L 34 41.6875 
C 30.203125 44.890625 27.5 46 23.5 46 
C 12 46 2.703125 34.6875 2.703125 20.5 
C 2.703125 7.6875 10.203125 -1 21.203125 -1 
C 26.796875 -1 30.59375 1 34 5.6875 
L 34 -0.703125 
z
M 34 10.1875 
C 34 9.5 33.296875 8.296875 32.296875 7.1875 
C 30.5 5.1875 28 4.1875 25.09375 4.1875 
C 16.796875 4.1875 11.296875 12.1875 11.296875 24.5 
C 11.296875 35.796875 16.203125 43.1875 23.796875 43.1875 
C 29.09375 43.1875 34 38.5 34 33.1875 
z
" id="Nimbus_Roman_No9_L_Regular-100"/>
      <path d="M 40.796875 16.4375 
C 36 8.8125 31.703125 5.890625 25.296875 5.890625 
C 19.59375 5.890625 15.296875 8.8125 12.40625 14.53125 
C 10.59375 18.34375 9.90625 21.65625 9.703125 27.796875 
L 40.5 27.796875 
C 39.703125 34.265625 38.703125 37.140625 36.203125 40.3125 
C 33.203125 43.890625 28.59375 46 23.40625 46 
C 18.40625 46 13.703125 44.1875 9.90625 40.8125 
C 5.203125 36.734375 2.5 29.6875 2.5 21.46875 
C 2.5 7.59375 9.703125 -1 21.203125 -1 
C 30.703125 -1 38.203125 4.890625 42.40625 15.734375 
z
M 9.90625 31 
C 11 38.71875 14.40625 42.390625 20.5 42.390625 
C 26.59375 42.390625 29 39.609375 30.296875 31 
z
" id="Nimbus_Roman_No9_L_Regular-101"/>
     </defs>
     <g transform="translate(36.286342 294.816606)rotate(-90)scale(0.2 -0.2)">
      <use transform="scale(0.996264)" xlink:href="#Nimbus_Roman_No9_L_Regular-100"/>
      <use transform="translate(49.8132 0)scale(0.996264)" xlink:href="#Nimbus_Roman_No9_L_Regular-101"/>
      <use transform="translate(94.046769 0)scale(0.996264)" xlink:href="#Nimbus_Roman_No9_L_Regular-116"/>
      <use transform="translate(121.741939 0)scale(0.996264)" xlink:href="#Nimbus_Roman_No9_L_Regular-40"/>
      <use transform="translate(154.917169 0)scale(0.996264)" xlink:href="#Nimbus_Roman_No9_L_Regular-74"/>
      <use transform="translate(193.670875 0)scale(0.996264)" xlink:href="#Nimbus_Roman_No9_L_Regular-41"/>
     </g>
    </g>
   </g>
   <g id="line2d_11">
    <path clip-path="url(#pc75977fd65)" d="M 87.007019 137.451273 
L 91.962179 148.221244 
L 96.91734 158.542466 
L 101.8725 168.41494 
L 106.827661 177.838664 
L 111.782822 186.81364 
L 116.737982 195.339867 
L 121.693143 203.417346 
L 126.648303 211.046075 
L 131.603464 218.226056 
L 136.558625 224.957288 
L 141.513785 231.239771 
L 146.468946 237.073505 
L 151.424106 242.458491 
L 156.379267 247.394728 
L 161.334428 251.882216 
L 166.289588 255.920955 
L 171.244749 259.510945 
L 176.199909 262.652187 
L 181.15507 265.344679 
L 186.110231 267.588423 
L 191.065391 269.383419 
L 196.020552 270.729665 
L 200.975712 271.627163 
L 205.930873 272.075911 
L 210.886034 272.075911 
L 215.841194 271.627163 
L 220.796355 270.729665 
L 225.751515 269.383419 
L 230.706676 267.588423 
L 235.661837 265.344679 
L 240.616997 262.652187 
L 245.572158 259.510945 
L 250.527318 255.920955 
L 255.482479 251.882216 
L 260.43764 247.394728 
L 265.3928 242.458491 
L 270.347961 237.073505 
L 275.303121 231.239771 
L 280.258282 224.957288 
L 285.213443 218.226056 
L 290.168603 211.046075 
L 295.123764 203.417346 
L 300.078924 195.339867 
L 305.034085 186.81364 
L 309.989246 177.838664 
L 314.944406 168.41494 
L 319.899567 158.542466 
L 324.854727 148.221244 
L 329.809888 137.451273 
" style="fill:none;stroke:#000000;stroke-linecap:square;"/>
   </g>
   <g id="line2d_12">
    <path clip-path="url(#pc75977fd65)" d="M 193.955902 272.132005 
L 194.533281 271.753689 
L 196.256748 270.65974 
L 199.100287 268.971783 
L 203.020542 266.887946 
L 207.956811 264.675987 
L 213.831051 262.663675 
L 220.547874 261.22642 
L 227.994551 260.772159 
L 236.04101 261.723486 
L 244.539833 264.497043 
L 253.326261 269.48015 
L 262.218194 277.004699 
L 271.016185 287.318292 
L 279.503446 300.552632 
L 287.445846 316.689167 
L 294.59191 335.521981 
L 300.672821 356.617942 
L 305.402419 379.274101 
L 308.477199 402.472334 
L 309.576315 424.831248 
L 308.361579 444.555329 
L 304.477455 459.381345 
L 297.55107 466.522001 
L 287.192203 462.606842 
L 272.993294 443.620413 
L 254.529436 404.837664 
L 231.358383 340.756614 
L 203.020542 245.028256 
L 169.03898 110.383725 
" style="fill:none;stroke:#ff0000;stroke-linecap:square;stroke-width:2;"/>
   </g>
   <g id="line2d_13">
    <path clip-path="url(#pc75977fd65)" d="M 87.007019 272.132005 
L 329.809888 272.132005 
" style="fill:none;stroke:#000000;stroke-linecap:square;stroke-width:1.5;"/>
   </g>
   <g id="line2d_14">
    <path clip-path="url(#pc75977fd65)" d="M 208.408453 505.4 
L 208.408453 38.86401 
" style="fill:none;stroke:#000000;stroke-linecap:square;stroke-width:1.5;"/>
   </g>
   <g id="patch_3">
    <path d="M 87.007019 505.4 
L 87.007019 38.86401 
" style="fill:none;stroke:#000000;stroke-linecap:square;stroke-linejoin:miter;stroke-width:0.8;"/>
   </g>
   <g id="patch_4">
    <path d="M 329.809888 505.4 
L 329.809888 38.86401 
" style="fill:none;stroke:#000000;stroke-linecap:square;stroke-linejoin:miter;stroke-width:0.8;"/>
   </g>
   <g id="patch_5">
    <path d="M 87.007019 505.4 
L 329.809888 505.4 
" style="fill:none;stroke:#000000;stroke-linecap:square;stroke-linejoin:miter;stroke-width:0.8;"/>
   </g>
   <g id="patch_6">
    <path d="M 87.007019 38.86401 
L 329.809888 38.86401 
" style="fill:none;stroke:#000000;stroke-linecap:square;stroke-linejoin:miter;stroke-width:0.8;"/>
   </g>
   <g id="text_13">
    <!-- $M = 5, \beta = -1$ -->
    <defs>
     <path d="M 87.296875 65 
L 70.59375 65 
L 37 15.921875 
L 31.5 65 
L 13.40625 65 
L 13.40625 63.390625 
C 18.40625 63.09375 20.796875 62 20.796875 59.71875 
C 20.796875 58.921875 20.40625 57.421875 19.796875 55.625 
C 19.59375 55.234375 19.296875 54.140625 18.90625 52.640625 
C 18.796875 52.34375 18.703125 51.953125 18.59375 51.546875 
L 8 14.53125 
C 4.90625 4.1875 3.40625 2.1875 -1.796875 1.59375 
L -1.796875 0 
L 18 0 
L 18 1.59375 
C 12.90625 2 10.90625 3.1875 10.90625 5.96875 
C 10.90625 6.96875 11.296875 9.5625 11.796875 11.25 
L 23.59375 54.34375 
L 29.703125 0 
L 31.40625 0 
L 69.09375 55.828125 
L 56.203125 9.0625 
C 54.59375 3.78125 52.59375 2.296875 46.09375 1.59375 
L 46.09375 0 
L 73.40625 0 
L 73.40625 1.59375 
C 66.59375 2.1875 65.703125 2.78125 65.703125 5.875 
C 65.703125 7.5625 65.90625 8.859375 66.796875 11.9375 
L 79.09375 56.03125 
C 80.90625 62 81.40625 62.5 87.296875 63.390625 
z
" id="Nimbus_Roman_No9_L_Regular_Italic-77"/>
     <path d="M 68.703125 32.984375 
C 70.203125 32.984375 72.09375 32.984375 72.09375 34.984375 
C 72.09375 37 70.203125 37 68.796875 37 
L 8.90625 37 
C 7.5 37 5.59375 37 5.59375 34.984375 
C 5.59375 32.984375 7.5 32.984375 9 32.984375 
z
M 68.796875 13 
C 70.203125 13 72.09375 13 72.09375 15 
C 72.09375 17 70.203125 17 68.703125 17 
L 9 17 
C 7.5 17 5.59375 17 5.59375 15 
C 5.59375 13 7.5 13 8.90625 13 
z
" id="CMR10-61"/>
     <path d="M 20.296875 0.09375 
C 20.296875 6.6875 17.796875 10.59375 13.90625 10.59375 
C 10.59375 10.59375 8.59375 8.09375 8.59375 5.296875 
C 8.59375 2.59375 10.59375 0 13.90625 0 
C 15.09375 0 16.40625 0.390625 17.40625 1.296875 
C 17.703125 1.5 17.796875 1.59375 17.90625 1.59375 
C 18 1.59375 18.09375 1.5 18.09375 0.09375 
C 18.09375 -7.1875 14.59375 -13.078125 11.296875 -16.3125 
C 10.203125 -17.40625 10.203125 -17.609375 10.203125 -17.90625 
C 10.203125 -18.609375 10.703125 -19 11.203125 -19 
C 12.296875 -19 20.296875 -11.40625 20.296875 0.09375 
z
" id="CMMI10-59"/>
     <path d="M 7.90625 -5.9375 
C 7.90625 -11.265625 7.09375 -18.203125 6.09375 -22.015625 
L 14.296875 -22.015625 
C 15.59375 -19.703125 15.90625 -16.984375 15.90625 -9.15625 
L 15.90625 4.484375 
C 21.203125 0.484375 25.59375 -1.015625 31.40625 -1.015625 
C 43.296875 -1.015625 51.5 7.71875 51.5 20.375 
C 51.5 30.875 46.203125 38.234375 35.203125 42.890625 
C 42.796875 47.015625 46.40625 51.703125 46.40625 57.484375 
C 46.40625 66.53125 37.5 74 26.796875 74 
C 16 74 7.90625 66.84375 7.90625 57.1875 
z
M 15.90625 58.203125 
C 15.90625 65.3125 20.09375 70.296875 26 70.296875 
C 32.296875 70.296875 36.796875 64.390625 36.796875 56.265625 
C 36.796875 50.890625 34 45.09375 31.40625 45.09375 
C 31.09375 45.09375 30.796875 45.09375 29.203125 45.5 
C 27.703125 45.796875 26.90625 45.90625 26.09375 45.90625 
C 23.703125 45.90625 21.796875 44.296875 21.796875 42.390625 
C 21.796875 40.5 23.59375 39.3125 26.203125 39.3125 
C 26.796875 39.3125 27.296875 39.40625 28.296875 39.609375 
C 29.5 39.890625 30.5 40 31.296875 40 
C 32.59375 40 33.296875 39.796875 33.90625 39.203125 
C 38.40625 35.09375 41.09375 27.640625 41.09375 19.59375 
C 41.09375 9.78125 36.703125 4 29.296875 4 
C 24.296875 4 19.296875 6.25 15.90625 10.078125 
z
" id="Standard_Symbols_L-98"/>
    </defs>
    <g transform="translate(92.788039 310.306816)scale(0.1 -0.1)">
     <use transform="scale(0.996264)" xlink:href="#Nimbus_Roman_No9_L_Regular_Italic-77"/>
     <use transform="translate(109.111568 0)scale(0.996264)" xlink:href="#CMR10-61"/>
     <use transform="translate(208.659422 0)scale(0.996264)" xlink:href="#Nimbus_Roman_No9_L_Regular-53"/>
     <use transform="translate(258.472622 0)scale(0.996264)" xlink:href="#CMMI10-59"/>
     <use transform="translate(297.137702 0)scale(0.996264)" xlink:href="#Standard_Symbols_L-98"/>
     <use transform="translate(386.225483 0)scale(0.996264)" xlink:href="#CMR10-61"/>
     <use transform="translate(485.773336 0)scale(0.996264)" xlink:href="#CMSY10-0"/>
     <use transform="translate(563.182043 0)scale(0.996264)" xlink:href="#Nimbus_Roman_No9_L_Regular-49"/>
    </g>
   </g>
   <g id="text_14">
    <!-- $\gamma = 1, K = 2$ -->
    <defs>
     <path d="M 37.703125 49.890625 
L 26.59375 15.484375 
L 23.59375 30.890625 
C 20.59375 46.1875 17.40625 51.1875 10.703125 51.1875 
C 7.703125 51.1875 5 49.796875 3.40625 47.5 
C 1.203125 44.390625 0.703125 41.890625 0.5 33.484375 
L 0.5 32.1875 
L 2.703125 32.1875 
C 2.90625 34.890625 3.09375 36.390625 3.5 37.796875 
C 4.59375 40.984375 7 43 9.90625 43 
C 12.59375 43 14.5 41.296875 16.40625 37.1875 
C 18.796875 31.984375 21.40625 22.890625 22.40625 15.484375 
L 23.59375 7.1875 
C 23.296875 6.1875 22.203125 2.984375 20.296875 -2.40625 
C 18.296875 -7.90625 17.703125 -10.8125 17.703125 -14.21875 
C 17.703125 -18.90625 19.796875 -22.015625 23 -22.015625 
C 27.09375 -22.015625 29.796875 -16.90625 29.796875 -8.90625 
C 29.796875 -5.8125 29.296875 -1.015625 28.09375 6.484375 
L 48.40625 49.890625 
z
" id="Standard_Symbols_L-103"/>
     <path d="M 72.203125 65 
L 50 65 
L 50 63.390625 
C 51.203125 63.296875 52.296875 63.09375 52.703125 63.09375 
C 55.09375 62.890625 56.09375 62.296875 56.09375 61.203125 
C 56.09375 58.8125 50.59375 53.4375 41.703125 47.265625 
L 26.5 36.71875 
L 31.796875 56.03125 
C 33.296875 61 36 62.984375 41.90625 63.390625 
L 41.90625 65 
L 14.59375 65 
L 14.59375 63.390625 
C 20.796875 62.796875 22.296875 62 22.296875 59.109375 
C 22.296875 57.71875 21.90625 55.4375 21.203125 52.953125 
L 8.90625 8.953125 
C 7.09375 2.984375 6.59375 2.484375 0.703125 1.59375 
L 0.703125 0 
L 25.5 0 
L 25.5 1.59375 
C 19.203125 2.296875 18.296875 2.890625 18.296875 5.96875 
C 18.296875 6.96875 18.5 7.859375 19.09375 9.859375 
L 19.703125 11.9375 
L 25.90625 34.640625 
L 38 13.9375 
C 40.40625 9.859375 41.796875 6.375 41.796875 4.484375 
C 41.796875 2.984375 40.40625 2.1875 37.203125 1.890625 
C 36.703125 1.890625 35.59375 1.796875 34.296875 1.59375 
L 34.296875 0 
L 61.796875 0 
L 61.796875 1.59375 
C 55.5 2.1875 54.90625 2.484375 52.09375 7.171875 
L 34.703125 37.328125 
L 64.703125 59.8125 
C 67.5 61.90625 69.796875 62.984375 72.203125 63.390625 
z
" id="Nimbus_Roman_No9_L_Regular_Italic-75"/>
    </defs>
    <g transform="translate(92.788039 386.656437)scale(0.1 -0.1)">
     <use transform="scale(0.996264)" xlink:href="#Standard_Symbols_L-103"/>
     <use transform="translate(71.354157 0)scale(0.996264)" xlink:href="#CMR10-61"/>
     <use transform="translate(170.90201 0)scale(0.996264)" xlink:href="#Nimbus_Roman_No9_L_Regular-49"/>
     <use transform="translate(220.71521 0)scale(0.996264)" xlink:href="#CMMI10-59"/>
     <use transform="translate(259.38029 0)scale(0.996264)" xlink:href="#Nimbus_Roman_No9_L_Regular_Italic-75"/>
     <use transform="translate(353.448175 0)scale(0.996264)" xlink:href="#CMR10-61"/>
     <use transform="translate(452.996028 0)scale(0.996264)" xlink:href="#Nimbus_Roman_No9_L_Regular-50"/>
    </g>
   </g>
   <g id="text_15">
    <!-- $\kappa = 0.1$ -->
    <defs>
     <path d="M 19.703125 28.828125 
L 19.703125 51 
C 16.59375 49.1875 11.5 47.5 3.296875 45.71875 
L 3.296875 43.234375 
C 5.09375 43.421875 6.203125 43.53125 7 43.53125 
C 11 43.53125 11.90625 41.9375 11.90625 35.484375 
L 11.90625 0 
L 19.703125 0 
L 19.703125 24.84375 
L 34.203125 7.359375 
C 36.40625 4.578125 36.5 4.46875 36.5 3.78125 
C 36.5 2.59375 35.796875 2.1875 32.59375 2 
L 32.09375 2 
L 32.09375 0 
L 55.796875 0 
L 55.796875 2.390625 
L 54.90625 2.390625 
C 53 2.390625 51.59375 2.78125 49.90625 3.78125 
C 48.5 4.578125 48.5 4.578125 43.09375 11.03125 
L 27.59375 30.40625 
L 32 34.484375 
C 38.90625 40.84375 40.796875 42.234375 42.59375 42.234375 
C 43.5 42.234375 44.09375 41.9375 45.90625 40.546875 
C 47.5 39.25 48.203125 38.953125 49.796875 38.953125 
C 53.09375 38.953125 55.796875 41.34375 55.796875 44.21875 
C 55.796875 47.5 52.703125 49.796875 48.296875 49.796875 
C 45.90625 49.796875 43.703125 49.09375 41.40625 47.59375 
C 37.90625 45.421875 29.90625 38.5625 24.796875 33.484375 
L 22.90625 31.703125 
z
" id="Standard_Symbols_L-107"/>
     <path d="M 19.203125 5.296875 
C 19.203125 8.1875 16.796875 10.59375 13.90625 10.59375 
C 11 10.59375 8.59375 8.1875 8.59375 5.296875 
C 8.59375 2.390625 11 0 13.90625 0 
C 16.796875 0 19.203125 2.390625 19.203125 5.296875 
z
" id="CMMI10-58"/>
    </defs>
    <g transform="translate(92.788039 463.006059)scale(0.1 -0.1)">
     <use transform="scale(0.996264)" xlink:href="#Standard_Symbols_L-107"/>
     <use transform="translate(85.102542 0)scale(0.996264)" xlink:href="#CMR10-61"/>
     <use transform="translate(184.650395 0)scale(0.996264)" xlink:href="#Nimbus_Roman_No9_L_Regular-48"/>
     <use transform="translate(234.463596 0)scale(0.996264)" xlink:href="#CMMI10-58"/>
     <use transform="translate(262.059103 0)scale(0.996264)" xlink:href="#Nimbus_Roman_No9_L_Regular-49"/>
    </g>
   </g>
   <g id="text_16">
    <!-- $M \beta + 1 &lt; 0, ~ \gamma K / \beta + 1 &lt; 0$ -->
    <defs>
     <path d="M 40.90625 23 
L 68.796875 23 
C 70.203125 23 72.09375 23 72.09375 25 
C 72.09375 27 70.203125 27 68.796875 27 
L 40.90625 27 
L 40.90625 54.703125 
C 40.90625 56.09375 40.90625 58 38.90625 58 
C 36.90625 58 36.90625 56.09375 36.90625 54.703125 
L 36.90625 27 
L 8.90625 27 
C 7.5 27 5.59375 27 5.59375 25 
C 5.59375 23 7.5 23 8.90625 23 
L 36.90625 23 
L 36.90625 -4.8125 
C 36.90625 -6.203125 36.90625 -8.109375 38.90625 -8.109375 
C 40.90625 -8.109375 40.90625 -6.203125 40.90625 -4.8125 
z
" id="CMR10-43"/>
     <path d="M 67.5 49.890625 
C 68.703125 50.484375 69.40625 50.984375 69.40625 52.09375 
C 69.40625 53.1875 68.5 54.09375 67.40625 54.09375 
C 67.09375 54.09375 66.90625 54.09375 65.59375 53.390625 
L 10.203125 27.203125 
C 9.09375 26.703125 8.296875 26.203125 8.296875 24.984375 
C 8.296875 23.78125 9.09375 23.28125 10.203125 22.78125 
L 65.59375 -3.40625 
C 66.90625 -4.109375 67.09375 -4.109375 67.40625 -4.109375 
C 68.5 -4.109375 69.40625 -3.203125 69.40625 -2.109375 
C 69.40625 -1 68.703125 -0.5 67.5 0.09375 
L 15 24.984375 
z
" id="CMMI10-60"/>
     <path d="M 43.90625 71.203125 
C 44.40625 72.5 44.40625 72.890625 44.40625 73 
C 44.40625 74.09375 43.5 75 42.40625 75 
C 41.703125 75 41 74.6875 40.703125 74.09375 
L 6 -21.203125 
C 5.5 -22.5 5.5 -22.90625 5.5 -23 
C 5.5 -24.109375 6.40625 -25 7.5 -25 
C 8.796875 -25 9.09375 -24.3125 9.703125 -22.609375 
z
" id="CMMI10-61"/>
    </defs>
    <g transform="translate(125.294274 32.86401)scale(0.15 -0.15)">
     <use transform="scale(0.996264)" xlink:href="#Nimbus_Roman_No9_L_Regular_Italic-77"/>
     <use transform="translate(86.972422 0)scale(0.996264)" xlink:href="#Standard_Symbols_L-98"/>
     <use transform="translate(167.758023 0)scale(0.996264)" xlink:href="#CMR10-43"/>
     <use transform="translate(259.003696 0)scale(0.996264)" xlink:href="#Nimbus_Roman_No9_L_Regular-49"/>
     <use transform="translate(330.956043 0)scale(0.996264)" xlink:href="#CMMI10-60"/>
     <use transform="translate(430.503897 0)scale(0.996264)" xlink:href="#Nimbus_Roman_No9_L_Regular-48"/>
     <use transform="translate(480.317097 0)scale(0.996264)" xlink:href="#CMMI10-59"/>
     <use transform="translate(543.888777 0)scale(0.996264)" xlink:href="#Standard_Symbols_L-103"/>
     <use transform="translate(593.103787 0)scale(0.996264)" xlink:href="#Nimbus_Roman_No9_L_Regular_Italic-75"/>
     <use transform="translate(665.032526 0)scale(0.996264)" xlink:href="#CMMI10-61"/>
     <use transform="translate(714.845726 0)scale(0.996264)" xlink:href="#Standard_Symbols_L-98"/>
     <use transform="translate(795.631327 0)scale(0.996264)" xlink:href="#CMR10-43"/>
     <use transform="translate(886.877001 0)scale(0.996264)" xlink:href="#Nimbus_Roman_No9_L_Regular-49"/>
     <use transform="translate(958.829347 0)scale(0.996264)" xlink:href="#CMMI10-60"/>
     <use transform="translate(1058.377201 0)scale(0.996264)" xlink:href="#Nimbus_Roman_No9_L_Regular-48"/>
    </g>
   </g>
  </g>
  <g id="axes_2">
   <g id="patch_7">
    <path d="M 430.279547 505.4 
L 673.082416 505.4 
L 673.082416 38.86401 
L 430.279547 38.86401 
z
" style="fill:#ffffff;"/>
   </g>
   <g id="matplotlib.axis_3">
    <g id="xtick_4">
     <g id="line2d_15">
      <g>
       <use style="stroke:#000000;stroke-width:0.8;" x="479.418223" xlink:href="#m1ce49a693f" y="505.4"/>
      </g>
     </g>
     <g id="text_17">
      <!-- $-5$ -->
      <g transform="translate(466.696033 525.909155)scale(0.2 -0.2)">
       <use transform="scale(0.996264)" xlink:href="#CMSY10-0"/>
       <use transform="translate(77.408707 0)scale(0.996264)" xlink:href="#Nimbus_Roman_No9_L_Regular-53"/>
      </g>
     </g>
    </g>
    <g id="xtick_5">
     <g id="line2d_16">
      <g>
       <use style="stroke:#000000;stroke-width:0.8;" x="551.680981" xlink:href="#m1ce49a693f" y="505.4"/>
      </g>
     </g>
     <g id="text_18">
      <!-- $0$ -->
      <g transform="translate(546.699661 525.909155)scale(0.2 -0.2)">
       <use transform="scale(0.996264)" xlink:href="#Nimbus_Roman_No9_L_Regular-48"/>
      </g>
     </g>
    </g>
    <g id="xtick_6">
     <g id="line2d_17">
      <g>
       <use style="stroke:#000000;stroke-width:0.8;" x="623.94374" xlink:href="#m1ce49a693f" y="505.4"/>
      </g>
     </g>
     <g id="text_19">
      <!-- $5$ -->
      <g transform="translate(618.96242 525.909155)scale(0.2 -0.2)">
       <use transform="scale(0.996264)" xlink:href="#Nimbus_Roman_No9_L_Regular-53"/>
      </g>
     </g>
    </g>
    <g id="text_20">
     <!-- tr(J) -->
     <g transform="translate(535.083531 547.731968)scale(0.2 -0.2)">
      <use transform="scale(0.996264)" xlink:href="#Nimbus_Roman_No9_L_Regular-116"/>
      <use transform="translate(27.69517 0)scale(0.996264)" xlink:href="#Nimbus_Roman_No9_L_Regular-114"/>
      <use transform="translate(60.870399 0)scale(0.996264)" xlink:href="#Nimbus_Roman_No9_L_Regular-40"/>
      <use transform="translate(94.045629 0)scale(0.996264)" xlink:href="#Nimbus_Roman_No9_L_Regular-74"/>
      <use transform="translate(132.799335 0)scale(0.996264)" xlink:href="#Nimbus_Roman_No9_L_Regular-41"/>
     </g>
    </g>
   </g>
   <g id="matplotlib.axis_4">
    <g id="ytick_8">
     <g id="line2d_18">
      <g>
       <use style="stroke:#000000;stroke-width:0.8;" x="430.279547" xlink:href="#m4cf77027b6" y="489.134726"/>
      </g>
     </g>
     <g id="text_21">
      <!-- $-60$ -->
      <defs>
       <path d="M 44.59375 68.59375 
C 33.203125 67.59375 27.40625 65.6875 20.09375 60.59375 
C 9.296875 52.890625 3.40625 41.484375 3.40625 28.140625 
C 3.40625 19.5 6.09375 10.75 10.40625 5.765625 
C 14.203125 1.390625 19.59375 -1 25.796875 -1 
C 38.203125 -1 46.796875 8.453125 46.796875 22.1875 
C 46.796875 34.90625 39.5 43 28 43 
C 23.59375 43 21.5 42.296875 15.203125 38.484375 
C 17.90625 53.59375 29.09375 64.390625 44.796875 67 
z
M 24.203125 38.390625 
C 32.796875 38.390625 37.796875 31.234375 37.796875 18.796875 
C 37.796875 7.859375 33.90625 1.796875 26.90625 1.796875 
C 18.09375 1.796875 12.703125 11.140625 12.703125 26.5625 
C 12.703125 31.625 13.5 34.421875 15.5 35.90625 
C 17.59375 37.5 20.703125 38.390625 24.203125 38.390625 
z
" id="Nimbus_Roman_No9_L_Regular-54"/>
      </defs>
      <g transform="translate(387.872528 495.889304)scale(0.2 -0.2)">
       <use transform="scale(0.996264)" xlink:href="#CMSY10-0"/>
       <use transform="translate(77.408707 0)scale(0.996264)" xlink:href="#Nimbus_Roman_No9_L_Regular-54"/>
       <use transform="translate(127.221908 0)scale(0.996264)" xlink:href="#Nimbus_Roman_No9_L_Regular-48"/>
      </g>
     </g>
    </g>
    <g id="ytick_9">
     <g id="line2d_19">
      <g>
       <use style="stroke:#000000;stroke-width:0.8;" x="430.279547" xlink:href="#m4cf77027b6" y="416.800486"/>
      </g>
     </g>
     <g id="text_22">
      <!-- $-40$ -->
      <defs>
       <path d="M 47.203125 23.390625 
L 37 23.390625 
L 37 68 
L 32.59375 68 
L 1.203125 23.390625 
L 1.203125 17 
L 29.296875 17 
L 29.296875 0 
L 37 0 
L 37 17 
L 47.203125 17 
z
M 29.203125 23.390625 
L 5.203125 23.390625 
L 29.203125 57.765625 
z
" id="Nimbus_Roman_No9_L_Regular-52"/>
      </defs>
      <g transform="translate(387.872528 423.555063)scale(0.2 -0.2)">
       <use transform="scale(0.996264)" xlink:href="#CMSY10-0"/>
       <use transform="translate(77.408707 0)scale(0.996264)" xlink:href="#Nimbus_Roman_No9_L_Regular-52"/>
       <use transform="translate(127.221908 0)scale(0.996264)" xlink:href="#Nimbus_Roman_No9_L_Regular-48"/>
      </g>
     </g>
    </g>
    <g id="ytick_10">
     <g id="line2d_20">
      <g>
       <use style="stroke:#000000;stroke-width:0.8;" x="430.279547" xlink:href="#m4cf77027b6" y="344.466245"/>
      </g>
     </g>
     <g id="text_23">
      <!-- $-20$ -->
      <g transform="translate(387.872528 351.220823)scale(0.2 -0.2)">
       <use transform="scale(0.996264)" xlink:href="#CMSY10-0"/>
       <use transform="translate(77.408707 0)scale(0.996264)" xlink:href="#Nimbus_Roman_No9_L_Regular-50"/>
       <use transform="translate(127.221908 0)scale(0.996264)" xlink:href="#Nimbus_Roman_No9_L_Regular-48"/>
      </g>
     </g>
    </g>
    <g id="ytick_11">
     <g id="line2d_21">
      <g>
       <use style="stroke:#000000;stroke-width:0.8;" x="430.279547" xlink:href="#m4cf77027b6" y="272.132005"/>
      </g>
     </g>
     <g id="text_24">
      <!-- $0$ -->
      <g transform="translate(413.316907 278.886583)scale(0.2 -0.2)">
       <use transform="scale(0.996264)" xlink:href="#Nimbus_Roman_No9_L_Regular-48"/>
      </g>
     </g>
    </g>
    <g id="ytick_12">
     <g id="line2d_22">
      <g>
       <use style="stroke:#000000;stroke-width:0.8;" x="430.279547" xlink:href="#m4cf77027b6" y="199.797765"/>
      </g>
     </g>
     <g id="text_25">
      <!-- $20$ -->
      <g transform="translate(403.354266 206.552342)scale(0.2 -0.2)">
       <use transform="scale(0.996264)" xlink:href="#Nimbus_Roman_No9_L_Regular-50"/>
       <use transform="translate(49.8132 0)scale(0.996264)" xlink:href="#Nimbus_Roman_No9_L_Regular-48"/>
      </g>
     </g>
    </g>
    <g id="ytick_13">
     <g id="line2d_23">
      <g>
       <use style="stroke:#000000;stroke-width:0.8;" x="430.279547" xlink:href="#m4cf77027b6" y="127.463524"/>
      </g>
     </g>
     <g id="text_26">
      <!-- $40$ -->
      <g transform="translate(403.354266 134.218102)scale(0.2 -0.2)">
       <use transform="scale(0.996264)" xlink:href="#Nimbus_Roman_No9_L_Regular-52"/>
       <use transform="translate(49.8132 0)scale(0.996264)" xlink:href="#Nimbus_Roman_No9_L_Regular-48"/>
      </g>
     </g>
    </g>
    <g id="ytick_14">
     <g id="line2d_24">
      <g>
       <use style="stroke:#000000;stroke-width:0.8;" x="430.279547" xlink:href="#m4cf77027b6" y="55.129284"/>
      </g>
     </g>
     <g id="text_27">
      <!-- $60$ -->
      <g transform="translate(403.354266 61.883862)scale(0.2 -0.2)">
       <use transform="scale(0.996264)" xlink:href="#Nimbus_Roman_No9_L_Regular-54"/>
       <use transform="translate(49.8132 0)scale(0.996264)" xlink:href="#Nimbus_Roman_No9_L_Regular-48"/>
      </g>
     </g>
    </g>
    <g id="text_28">
     <!-- det(J) -->
     <g transform="translate(379.55887 294.816606)rotate(-90)scale(0.2 -0.2)">
      <use transform="scale(0.996264)" xlink:href="#Nimbus_Roman_No9_L_Regular-100"/>
      <use transform="translate(49.8132 0)scale(0.996264)" xlink:href="#Nimbus_Roman_No9_L_Regular-101"/>
      <use transform="translate(94.046769 0)scale(0.996264)" xlink:href="#Nimbus_Roman_No9_L_Regular-116"/>
      <use transform="translate(121.741939 0)scale(0.996264)" xlink:href="#Nimbus_Roman_No9_L_Regular-40"/>
      <use transform="translate(154.917169 0)scale(0.996264)" xlink:href="#Nimbus_Roman_No9_L_Regular-74"/>
      <use transform="translate(193.670875 0)scale(0.996264)" xlink:href="#Nimbus_Roman_No9_L_Regular-41"/>
     </g>
    </g>
   </g>
   <g id="line2d_25">
    <path clip-path="url(#pe8a591c76f)" d="M 430.279547 208.333205 
L 435.234707 213.434983 
L 440.189868 218.324187 
L 445.145028 223.000817 
L 450.100189 227.464873 
L 455.05535 231.716355 
L 460.01051 235.755263 
L 464.965671 239.581597 
L 469.920831 243.195356 
L 474.875992 246.596542 
L 479.831153 249.785153 
L 484.786313 252.761191 
L 489.741474 255.524654 
L 494.696634 258.075543 
L 499.651795 260.413858 
L 504.606956 262.539599 
L 509.562116 264.452766 
L 514.517277 266.153359 
L 519.472437 267.641377 
L 524.427598 268.916822 
L 529.382759 269.979692 
L 534.337919 270.829989 
L 539.29308 271.467711 
L 544.24824 271.892859 
L 549.203401 272.105433 
L 554.158562 272.105433 
L 559.113722 271.892859 
L 564.068883 271.467711 
L 569.024043 270.829989 
L 573.979204 269.979692 
L 578.934365 268.916822 
L 583.889525 267.641377 
L 588.844686 266.153359 
L 593.799846 264.452766 
L 598.755007 262.539599 
L 603.710168 260.413858 
L 608.665328 258.075543 
L 613.620489 255.524654 
L 618.575649 252.761191 
L 623.53081 249.785153 
L 628.485971 246.596542 
L 633.441131 243.195356 
L 638.396292 239.581597 
L 643.351452 235.755263 
L 648.306613 231.716355 
L 653.261774 227.464873 
L 658.216934 223.000817 
L 663.172095 218.324187 
L 668.127255 213.434983 
L 673.082416 208.333205 
" style="fill:none;stroke:#000000;stroke-linecap:square;"/>
   </g>
   <g id="line2d_26">
    <path clip-path="url(#pe8a591c76f)" d="M 537.22843 272.132005 
L 537.805809 272.133631 
L 539.529276 272.15793 
L 542.372815 272.262516 
L 546.29307 272.541243 
L 551.229339 273.12095 
L 557.103579 274.156901 
L 563.820402 275.82693 
L 571.267079 278.324279 
L 579.313538 281.849132 
L 587.812361 286.598853 
L 596.598789 292.756918 
L 605.490722 300.480546 
L 614.288713 309.887026 
L 622.775974 321.038747 
L 630.718374 333.92692 
L 637.864438 348.454003 
L 643.945349 364.414819 
L 648.674947 381.476378 
L 651.749727 399.15639 
L 652.848843 416.800486 
L 651.634107 433.558121 
L 647.749983 448.357195 
L 640.823598 459.877354 
L 630.464731 466.522001 
L 616.265822 466.388998 
L 597.801964 457.240071 
L 574.630911 436.468909 
L 546.29307 401.067962 
L 512.311508 347.59394 
" style="fill:none;stroke:#ff0000;stroke-linecap:square;stroke-width:2;"/>
   </g>
   <g id="line2d_27">
    <path clip-path="url(#pe8a591c76f)" d="M 430.279547 272.132005 
L 673.082416 272.132005 
" style="fill:none;stroke:#000000;stroke-linecap:square;stroke-width:1.5;"/>
   </g>
   <g id="line2d_28">
    <path clip-path="url(#pe8a591c76f)" d="M 551.680981 505.4 
L 551.680981 38.86401 
" style="fill:none;stroke:#000000;stroke-linecap:square;stroke-width:1.5;"/>
   </g>
   <g id="patch_8">
    <path d="M 430.279547 505.4 
L 430.279547 38.86401 
" style="fill:none;stroke:#000000;stroke-linecap:square;stroke-linejoin:miter;stroke-width:0.8;"/>
   </g>
   <g id="patch_9">
    <path d="M 673.082416 505.4 
L 673.082416 38.86401 
" style="fill:none;stroke:#000000;stroke-linecap:square;stroke-linejoin:miter;stroke-width:0.8;"/>
   </g>
   <g id="patch_10">
    <path d="M 430.279547 505.4 
L 673.082416 505.4 
" style="fill:none;stroke:#000000;stroke-linecap:square;stroke-linejoin:miter;stroke-width:0.8;"/>
   </g>
   <g id="patch_11">
    <path d="M 430.279547 38.86401 
L 673.082416 38.86401 
" style="fill:none;stroke:#000000;stroke-linecap:square;stroke-linejoin:miter;stroke-width:0.8;"/>
   </g>
   <g id="text_29">
    <!-- $M = 5, \beta = -1$ -->
    <g transform="translate(436.060567 290.215565)scale(0.1 -0.1)">
     <use transform="scale(0.996264)" xlink:href="#Nimbus_Roman_No9_L_Regular_Italic-77"/>
     <use transform="translate(109.111568 0)scale(0.996264)" xlink:href="#CMR10-61"/>
     <use transform="translate(208.659422 0)scale(0.996264)" xlink:href="#Nimbus_Roman_No9_L_Regular-53"/>
     <use transform="translate(258.472622 0)scale(0.996264)" xlink:href="#CMMI10-59"/>
     <use transform="translate(297.137702 0)scale(0.996264)" xlink:href="#Standard_Symbols_L-98"/>
     <use transform="translate(386.225483 0)scale(0.996264)" xlink:href="#CMR10-61"/>
     <use transform="translate(485.773336 0)scale(0.996264)" xlink:href="#CMSY10-0"/>
     <use transform="translate(563.182043 0)scale(0.996264)" xlink:href="#Nimbus_Roman_No9_L_Regular-49"/>
    </g>
   </g>
   <g id="text_30">
    <!-- $\gamma = 1, K = 1$ -->
    <g transform="translate(436.060567 326.382685)scale(0.1 -0.1)">
     <use transform="scale(0.996264)" xlink:href="#Standard_Symbols_L-103"/>
     <use transform="translate(71.354157 0)scale(0.996264)" xlink:href="#CMR10-61"/>
     <use transform="translate(170.90201 0)scale(0.996264)" xlink:href="#Nimbus_Roman_No9_L_Regular-49"/>
     <use transform="translate(220.71521 0)scale(0.996264)" xlink:href="#CMMI10-59"/>
     <use transform="translate(259.38029 0)scale(0.996264)" xlink:href="#Nimbus_Roman_No9_L_Regular_Italic-75"/>
     <use transform="translate(353.448175 0)scale(0.996264)" xlink:href="#CMR10-61"/>
     <use transform="translate(452.996028 0)scale(0.996264)" xlink:href="#Nimbus_Roman_No9_L_Regular-49"/>
    </g>
   </g>
   <g id="text_31">
    <!-- $\kappa = 0.1$ -->
    <g transform="translate(436.060567 362.549805)scale(0.1 -0.1)">
     <use transform="scale(0.996264)" xlink:href="#Standard_Symbols_L-107"/>
     <use transform="translate(85.102542 0)scale(0.996264)" xlink:href="#CMR10-61"/>
     <use transform="translate(184.650395 0)scale(0.996264)" xlink:href="#Nimbus_Roman_No9_L_Regular-48"/>
     <use transform="translate(234.463596 0)scale(0.996264)" xlink:href="#CMMI10-58"/>
     <use transform="translate(262.059103 0)scale(0.996264)" xlink:href="#Nimbus_Roman_No9_L_Regular-49"/>
    </g>
   </g>
   <g id="text_32">
    <!-- $M \beta + 1 &lt; 0, ~ \gamma K / \beta + 1 &lt; 0$ -->
    <g transform="translate(468.566802 32.86401)scale(0.15 -0.15)">
     <use transform="scale(0.996264)" xlink:href="#Nimbus_Roman_No9_L_Regular_Italic-77"/>
     <use transform="translate(86.972422 0)scale(0.996264)" xlink:href="#Standard_Symbols_L-98"/>
     <use transform="translate(167.758023 0)scale(0.996264)" xlink:href="#CMR10-43"/>
     <use transform="translate(259.003696 0)scale(0.996264)" xlink:href="#Nimbus_Roman_No9_L_Regular-49"/>
     <use transform="translate(330.956043 0)scale(0.996264)" xlink:href="#CMMI10-60"/>
     <use transform="translate(430.503897 0)scale(0.996264)" xlink:href="#Nimbus_Roman_No9_L_Regular-48"/>
     <use transform="translate(480.317097 0)scale(0.996264)" xlink:href="#CMMI10-59"/>
     <use transform="translate(543.888777 0)scale(0.996264)" xlink:href="#Standard_Symbols_L-103"/>
     <use transform="translate(593.103787 0)scale(0.996264)" xlink:href="#Nimbus_Roman_No9_L_Regular_Italic-75"/>
     <use transform="translate(665.032526 0)scale(0.996264)" xlink:href="#CMMI10-61"/>
     <use transform="translate(714.845726 0)scale(0.996264)" xlink:href="#Standard_Symbols_L-98"/>
     <use transform="translate(795.631327 0)scale(0.996264)" xlink:href="#CMR10-43"/>
     <use transform="translate(886.877001 0)scale(0.996264)" xlink:href="#Nimbus_Roman_No9_L_Regular-49"/>
     <use transform="translate(958.829347 0)scale(0.996264)" xlink:href="#CMMI10-60"/>
     <use transform="translate(1058.377201 0)scale(0.996264)" xlink:href="#Nimbus_Roman_No9_L_Regular-48"/>
    </g>
   </g>
  </g>
  <g id="axes_3">
   <g id="patch_12">
    <path d="M 773.552075 505.4 
L 1016.354944 505.4 
L 1016.354944 38.86401 
L 773.552075 38.86401 
z
" style="fill:#ffffff;"/>
   </g>
   <g id="matplotlib.axis_5">
    <g id="xtick_7">
     <g id="line2d_29">
      <g>
       <use style="stroke:#000000;stroke-width:0.8;" x="822.690751" xlink:href="#m1ce49a693f" y="505.4"/>
      </g>
     </g>
     <g id="text_33">
      <!-- $-5$ -->
      <g transform="translate(809.968561 525.909155)scale(0.2 -0.2)">
       <use transform="scale(0.996264)" xlink:href="#CMSY10-0"/>
       <use transform="translate(77.408707 0)scale(0.996264)" xlink:href="#Nimbus_Roman_No9_L_Regular-53"/>
      </g>
     </g>
    </g>
    <g id="xtick_8">
     <g id="line2d_30">
      <g>
       <use style="stroke:#000000;stroke-width:0.8;" x="894.953509" xlink:href="#m1ce49a693f" y="505.4"/>
      </g>
     </g>
     <g id="text_34">
      <!-- $0$ -->
      <g transform="translate(889.972189 525.909155)scale(0.2 -0.2)">
       <use transform="scale(0.996264)" xlink:href="#Nimbus_Roman_No9_L_Regular-48"/>
      </g>
     </g>
    </g>
    <g id="xtick_9">
     <g id="line2d_31">
      <g>
       <use style="stroke:#000000;stroke-width:0.8;" x="967.216268" xlink:href="#m1ce49a693f" y="505.4"/>
      </g>
     </g>
     <g id="text_35">
      <!-- $5$ -->
      <g transform="translate(962.234948 525.909155)scale(0.2 -0.2)">
       <use transform="scale(0.996264)" xlink:href="#Nimbus_Roman_No9_L_Regular-53"/>
      </g>
     </g>
    </g>
    <g id="text_36">
     <!-- tr(J) -->
     <g transform="translate(878.356059 547.731968)scale(0.2 -0.2)">
      <use transform="scale(0.996264)" xlink:href="#Nimbus_Roman_No9_L_Regular-116"/>
      <use transform="translate(27.69517 0)scale(0.996264)" xlink:href="#Nimbus_Roman_No9_L_Regular-114"/>
      <use transform="translate(60.870399 0)scale(0.996264)" xlink:href="#Nimbus_Roman_No9_L_Regular-40"/>
      <use transform="translate(94.045629 0)scale(0.996264)" xlink:href="#Nimbus_Roman_No9_L_Regular-74"/>
      <use transform="translate(132.799335 0)scale(0.996264)" xlink:href="#Nimbus_Roman_No9_L_Regular-41"/>
     </g>
    </g>
   </g>
   <g id="matplotlib.axis_6">
    <g id="ytick_15">
     <g id="line2d_32">
      <g>
       <use style="stroke:#000000;stroke-width:0.8;" x="773.552075" xlink:href="#m4cf77027b6" y="496.41973"/>
      </g>
     </g>
     <g id="text_37">
      <!-- $-80$ -->
      <defs>
       <path d="M 29 37.5 
C 38.90625 42.796875 42.40625 47 42.40625 53.796875 
C 42.40625 62 35.203125 68 25.203125 68 
C 14.296875 68 6.203125 61.296875 6.203125 52.203125 
C 6.203125 45.6875 8.09375 42.796875 18.59375 33.59375 
C 7.796875 25.390625 5.59375 22.296875 5.59375 15.5 
C 5.59375 5.796875 13.5 -1 24.796875 -1 
C 36.796875 -1 44.5 5.59375 44.5 15.890625 
C 44.5 23.59375 41.09375 28.5 29 37.5 
z
M 27.203125 27.1875 
C 34.5 22 36.90625 18.390625 36.90625 12.796875 
C 36.90625 6.296875 32.40625 1.796875 25.90625 1.796875 
C 18.296875 1.796875 13.203125 7.59375 13.203125 16.296875 
C 13.203125 22.6875 15.40625 26.890625 21.203125 31.59375 
z
M 26.09375 39.296875 
C 17.203125 45.09375 13.59375 49.6875 13.59375 55.296875 
C 13.59375 61.09375 18.09375 65.1875 24.40625 65.1875 
C 31.203125 65.1875 35.5 60.796875 35.5 53.890625 
C 35.5 48.1875 32.703125 43.6875 27 39.890625 
C 26.5 39.59375 26.5 39.59375 26.09375 39.296875 
z
" id="Nimbus_Roman_No9_L_Regular-56"/>
      </defs>
      <g transform="translate(731.145056 503.174307)scale(0.2 -0.2)">
       <use transform="scale(0.996264)" xlink:href="#CMSY10-0"/>
       <use transform="translate(77.408707 0)scale(0.996264)" xlink:href="#Nimbus_Roman_No9_L_Regular-56"/>
       <use transform="translate(127.221908 0)scale(0.996264)" xlink:href="#Nimbus_Roman_No9_L_Regular-48"/>
      </g>
     </g>
    </g>
    <g id="ytick_16">
     <g id="line2d_33">
      <g>
       <use style="stroke:#000000;stroke-width:0.8;" x="773.552075" xlink:href="#m4cf77027b6" y="440.347799"/>
      </g>
     </g>
     <g id="text_38">
      <!-- $-60$ -->
      <g transform="translate(731.145056 447.102376)scale(0.2 -0.2)">
       <use transform="scale(0.996264)" xlink:href="#CMSY10-0"/>
       <use transform="translate(77.408707 0)scale(0.996264)" xlink:href="#Nimbus_Roman_No9_L_Regular-54"/>
       <use transform="translate(127.221908 0)scale(0.996264)" xlink:href="#Nimbus_Roman_No9_L_Regular-48"/>
      </g>
     </g>
    </g>
    <g id="ytick_17">
     <g id="line2d_34">
      <g>
       <use style="stroke:#000000;stroke-width:0.8;" x="773.552075" xlink:href="#m4cf77027b6" y="384.275867"/>
      </g>
     </g>
     <g id="text_39">
      <!-- $-40$ -->
      <g transform="translate(731.145056 391.030445)scale(0.2 -0.2)">
       <use transform="scale(0.996264)" xlink:href="#CMSY10-0"/>
       <use transform="translate(77.408707 0)scale(0.996264)" xlink:href="#Nimbus_Roman_No9_L_Regular-52"/>
       <use transform="translate(127.221908 0)scale(0.996264)" xlink:href="#Nimbus_Roman_No9_L_Regular-48"/>
      </g>
     </g>
    </g>
    <g id="ytick_18">
     <g id="line2d_35">
      <g>
       <use style="stroke:#000000;stroke-width:0.8;" x="773.552075" xlink:href="#m4cf77027b6" y="328.203936"/>
      </g>
     </g>
     <g id="text_40">
      <!-- $-20$ -->
      <g transform="translate(731.145056 334.958514)scale(0.2 -0.2)">
       <use transform="scale(0.996264)" xlink:href="#CMSY10-0"/>
       <use transform="translate(77.408707 0)scale(0.996264)" xlink:href="#Nimbus_Roman_No9_L_Regular-50"/>
       <use transform="translate(127.221908 0)scale(0.996264)" xlink:href="#Nimbus_Roman_No9_L_Regular-48"/>
      </g>
     </g>
    </g>
    <g id="ytick_19">
     <g id="line2d_36">
      <g>
       <use style="stroke:#000000;stroke-width:0.8;" x="773.552075" xlink:href="#m4cf77027b6" y="272.132005"/>
      </g>
     </g>
     <g id="text_41">
      <!-- $0$ -->
      <g transform="translate(756.589435 278.886583)scale(0.2 -0.2)">
       <use transform="scale(0.996264)" xlink:href="#Nimbus_Roman_No9_L_Regular-48"/>
      </g>
     </g>
    </g>
    <g id="ytick_20">
     <g id="line2d_37">
      <g>
       <use style="stroke:#000000;stroke-width:0.8;" x="773.552075" xlink:href="#m4cf77027b6" y="216.060074"/>
      </g>
     </g>
     <g id="text_42">
      <!-- $20$ -->
      <g transform="translate(746.626794 222.814651)scale(0.2 -0.2)">
       <use transform="scale(0.996264)" xlink:href="#Nimbus_Roman_No9_L_Regular-50"/>
       <use transform="translate(49.8132 0)scale(0.996264)" xlink:href="#Nimbus_Roman_No9_L_Regular-48"/>
      </g>
     </g>
    </g>
    <g id="ytick_21">
     <g id="line2d_38">
      <g>
       <use style="stroke:#000000;stroke-width:0.8;" x="773.552075" xlink:href="#m4cf77027b6" y="159.988143"/>
      </g>
     </g>
     <g id="text_43">
      <!-- $40$ -->
      <g transform="translate(746.626794 166.74272)scale(0.2 -0.2)">
       <use transform="scale(0.996264)" xlink:href="#Nimbus_Roman_No9_L_Regular-52"/>
       <use transform="translate(49.8132 0)scale(0.996264)" xlink:href="#Nimbus_Roman_No9_L_Regular-48"/>
      </g>
     </g>
    </g>
    <g id="ytick_22">
     <g id="line2d_39">
      <g>
       <use style="stroke:#000000;stroke-width:0.8;" x="773.552075" xlink:href="#m4cf77027b6" y="103.916211"/>
      </g>
     </g>
     <g id="text_44">
      <!-- $60$ -->
      <g transform="translate(746.626794 110.670789)scale(0.2 -0.2)">
       <use transform="scale(0.996264)" xlink:href="#Nimbus_Roman_No9_L_Regular-54"/>
       <use transform="translate(49.8132 0)scale(0.996264)" xlink:href="#Nimbus_Roman_No9_L_Regular-48"/>
      </g>
     </g>
    </g>
    <g id="ytick_23">
     <g id="line2d_40">
      <g>
       <use style="stroke:#000000;stroke-width:0.8;" x="773.552075" xlink:href="#m4cf77027b6" y="47.84428"/>
      </g>
     </g>
     <g id="text_45">
      <!-- $80$ -->
      <g transform="translate(746.626794 54.598858)scale(0.2 -0.2)">
       <use transform="scale(0.996264)" xlink:href="#Nimbus_Roman_No9_L_Regular-56"/>
       <use transform="translate(49.8132 0)scale(0.996264)" xlink:href="#Nimbus_Roman_No9_L_Regular-48"/>
      </g>
     </g>
    </g>
    <g id="text_46">
     <!-- det(J) -->
     <g transform="translate(722.831398 294.816606)rotate(-90)scale(0.2 -0.2)">
      <use transform="scale(0.996264)" xlink:href="#Nimbus_Roman_No9_L_Regular-100"/>
      <use transform="translate(49.8132 0)scale(0.996264)" xlink:href="#Nimbus_Roman_No9_L_Regular-101"/>
      <use transform="translate(94.046769 0)scale(0.996264)" xlink:href="#Nimbus_Roman_No9_L_Regular-116"/>
      <use transform="translate(121.741939 0)scale(0.996264)" xlink:href="#Nimbus_Roman_No9_L_Regular-40"/>
      <use transform="translate(154.917169 0)scale(0.996264)" xlink:href="#Nimbus_Roman_No9_L_Regular-74"/>
      <use transform="translate(193.670875 0)scale(0.996264)" xlink:href="#Nimbus_Roman_No9_L_Regular-41"/>
     </g>
    </g>
   </g>
   <g id="line2d_41">
    <path clip-path="url(#p6c7b38a91d)" d="M 773.552075 222.676562 
L 778.507235 226.631349 
L 783.462396 230.421354 
L 788.417556 234.046576 
L 793.372717 237.507015 
L 798.327878 240.802672 
L 803.283038 243.933545 
L 808.238199 246.899636 
L 813.193359 249.700944 
L 818.14852 252.337469 
L 823.103681 254.809211 
L 828.058841 257.116171 
L 833.014002 259.258347 
L 837.969162 261.235741 
L 842.924323 263.048352 
L 847.879484 264.69618 
L 852.834644 266.179226 
L 857.789805 267.497488 
L 862.744965 268.650968 
L 867.700126 269.639665 
L 872.655287 270.463579 
L 877.610447 271.12271 
L 882.565608 271.617059 
L 887.520768 271.946624 
L 892.475929 272.111407 
L 897.43109 272.111407 
L 902.38625 271.946624 
L 907.341411 271.617059 
L 912.296571 271.12271 
L 917.251732 270.463579 
L 922.206893 269.639665 
L 927.162053 268.650968 
L 932.117214 267.497488 
L 937.072374 266.179226 
L 942.027535 264.69618 
L 946.982696 263.048352 
L 951.937856 261.235741 
L 956.893017 259.258347 
L 961.848177 257.116171 
L 966.803338 254.809211 
L 971.758499 252.337469 
L 976.713659 249.700944 
L 981.66882 246.899636 
L 986.62398 243.933545 
L 991.579141 240.802672 
L 996.534302 237.507015 
L 1001.489462 234.046576 
L 1006.444623 230.421354 
L 1011.399783 226.631349 
L 1016.354944 222.676562 
" style="fill:none;stroke:#000000;stroke-linecap:square;"/>
   </g>
   <g id="line2d_42">
    <path clip-path="url(#p6c7b38a91d)" d="M 880.500958 272.132005 
L 881.078337 272.203355 
L 882.801804 272.432461 
L 885.645343 272.863983 
L 889.565598 273.570676 
L 894.501867 274.650861 
L 900.376107 276.224897 
L 907.09293 278.430637 
L 914.539607 281.417876 
L 922.586066 285.341794 
L 931.084889 290.355383 
L 939.871317 296.600869 
L 948.76325 304.200126 
L 957.561241 313.244072 
L 966.048502 323.781072 
L 973.990902 335.804311 
L 981.136966 349.238177 
L 987.217877 363.923622 
L 991.947475 379.602519 
L 995.022255 395.901007 
L 996.121372 412.311833 
L 994.906635 428.175674 
L 991.022511 442.661461 
L 984.096126 454.745684 
L 973.737259 463.190696 
L 959.53835 466.522001 
L 941.074492 463.004537 
L 917.903439 450.617949 
L 889.565598 427.030849 
L 855.584036 389.574075 
" style="fill:none;stroke:#ff0000;stroke-linecap:square;stroke-width:2;"/>
   </g>
   <g id="line2d_43">
    <path clip-path="url(#p6c7b38a91d)" d="M 773.552075 272.132005 
L 1016.354944 272.132005 
" style="fill:none;stroke:#000000;stroke-linecap:square;stroke-width:1.5;"/>
   </g>
   <g id="line2d_44">
    <path clip-path="url(#p6c7b38a91d)" d="M 894.953509 505.4 
L 894.953509 38.86401 
" style="fill:none;stroke:#000000;stroke-linecap:square;stroke-width:1.5;"/>
   </g>
   <g id="patch_13">
    <path d="M 773.552075 505.4 
L 773.552075 38.86401 
" style="fill:none;stroke:#000000;stroke-linecap:square;stroke-linejoin:miter;stroke-width:0.8;"/>
   </g>
   <g id="patch_14">
    <path d="M 1016.354944 505.4 
L 1016.354944 38.86401 
" style="fill:none;stroke:#000000;stroke-linecap:square;stroke-linejoin:miter;stroke-width:0.8;"/>
   </g>
   <g id="patch_15">
    <path d="M 773.552075 505.4 
L 1016.354944 505.4 
" style="fill:none;stroke:#000000;stroke-linecap:square;stroke-linejoin:miter;stroke-width:0.8;"/>
   </g>
   <g id="patch_16">
    <path d="M 773.552075 38.86401 
L 1016.354944 38.86401 
" style="fill:none;stroke:#000000;stroke-linecap:square;stroke-linejoin:miter;stroke-width:0.8;"/>
   </g>
   <g id="text_47">
    <!-- $M = 5, \beta = -1$ -->
    <g transform="translate(779.333095 286.149988)scale(0.1 -0.1)">
     <use transform="scale(0.996264)" xlink:href="#Nimbus_Roman_No9_L_Regular_Italic-77"/>
     <use transform="translate(109.111568 0)scale(0.996264)" xlink:href="#CMR10-61"/>
     <use transform="translate(208.659422 0)scale(0.996264)" xlink:href="#Nimbus_Roman_No9_L_Regular-53"/>
     <use transform="translate(258.472622 0)scale(0.996264)" xlink:href="#CMMI10-59"/>
     <use transform="translate(297.137702 0)scale(0.996264)" xlink:href="#Standard_Symbols_L-98"/>
     <use transform="translate(386.225483 0)scale(0.996264)" xlink:href="#CMR10-61"/>
     <use transform="translate(485.773336 0)scale(0.996264)" xlink:href="#CMSY10-0"/>
     <use transform="translate(563.182043 0)scale(0.996264)" xlink:href="#Nimbus_Roman_No9_L_Regular-49"/>
    </g>
   </g>
   <g id="text_48">
    <!-- $\gamma = 1, K = 0.5$ -->
    <g transform="translate(779.333095 314.185953)scale(0.1 -0.1)">
     <use transform="scale(0.996264)" xlink:href="#Standard_Symbols_L-103"/>
     <use transform="translate(71.354157 0)scale(0.996264)" xlink:href="#CMR10-61"/>
     <use transform="translate(170.90201 0)scale(0.996264)" xlink:href="#Nimbus_Roman_No9_L_Regular-49"/>
     <use transform="translate(220.71521 0)scale(0.996264)" xlink:href="#CMMI10-59"/>
     <use transform="translate(259.38029 0)scale(0.996264)" xlink:href="#Nimbus_Roman_No9_L_Regular_Italic-75"/>
     <use transform="translate(353.448175 0)scale(0.996264)" xlink:href="#CMR10-61"/>
     <use transform="translate(452.996028 0)scale(0.996264)" xlink:href="#Nimbus_Roman_No9_L_Regular-48"/>
     <use transform="translate(502.809229 0)scale(0.996264)" xlink:href="#CMMI10-58"/>
     <use transform="translate(530.404735 0)scale(0.996264)" xlink:href="#Nimbus_Roman_No9_L_Regular-53"/>
    </g>
   </g>
   <g id="text_49">
    <!-- $\kappa = 0.1$ -->
    <g transform="translate(779.333095 342.221919)scale(0.1 -0.1)">
     <use transform="scale(0.996264)" xlink:href="#Standard_Symbols_L-107"/>
     <use transform="translate(85.102542 0)scale(0.996264)" xlink:href="#CMR10-61"/>
     <use transform="translate(184.650395 0)scale(0.996264)" xlink:href="#Nimbus_Roman_No9_L_Regular-48"/>
     <use transform="translate(234.463596 0)scale(0.996264)" xlink:href="#CMMI10-58"/>
     <use transform="translate(262.059103 0)scale(0.996264)" xlink:href="#Nimbus_Roman_No9_L_Regular-49"/>
    </g>
   </g>
   <g id="text_50">
    <!-- $M \beta + 1 &lt; 0, ~ \gamma K / \beta + 1 &lt; 0$ -->
    <g transform="translate(811.83933 32.86401)scale(0.15 -0.15)">
     <use transform="scale(0.996264)" xlink:href="#Nimbus_Roman_No9_L_Regular_Italic-77"/>
     <use transform="translate(86.972422 0)scale(0.996264)" xlink:href="#Standard_Symbols_L-98"/>
     <use transform="translate(167.758023 0)scale(0.996264)" xlink:href="#CMR10-43"/>
     <use transform="translate(259.003696 0)scale(0.996264)" xlink:href="#Nimbus_Roman_No9_L_Regular-49"/>
     <use transform="translate(330.956043 0)scale(0.996264)" xlink:href="#CMMI10-60"/>
     <use transform="translate(430.503897 0)scale(0.996264)" xlink:href="#Nimbus_Roman_No9_L_Regular-48"/>
     <use transform="translate(480.317097 0)scale(0.996264)" xlink:href="#CMMI10-59"/>
     <use transform="translate(543.888777 0)scale(0.996264)" xlink:href="#Standard_Symbols_L-103"/>
     <use transform="translate(593.103787 0)scale(0.996264)" xlink:href="#Nimbus_Roman_No9_L_Regular_Italic-75"/>
     <use transform="translate(665.032526 0)scale(0.996264)" xlink:href="#CMMI10-61"/>
     <use transform="translate(714.845726 0)scale(0.996264)" xlink:href="#Standard_Symbols_L-98"/>
     <use transform="translate(795.631327 0)scale(0.996264)" xlink:href="#CMR10-43"/>
     <use transform="translate(886.877001 0)scale(0.996264)" xlink:href="#Nimbus_Roman_No9_L_Regular-49"/>
     <use transform="translate(958.829347 0)scale(0.996264)" xlink:href="#CMMI10-60"/>
     <use transform="translate(1058.377201 0)scale(0.996264)" xlink:href="#Nimbus_Roman_No9_L_Regular-48"/>
    </g>
   </g>
  </g>
  <g id="axes_4">
   <g id="patch_17">
    <path d="M 1116.824603 505.4 
L 1359.627472 505.4 
L 1359.627472 38.86401 
L 1116.824603 38.86401 
z
" style="fill:#ffffff;"/>
   </g>
   <g id="matplotlib.axis_7">
    <g id="xtick_10">
     <g id="line2d_45">
      <g>
       <use style="stroke:#000000;stroke-width:0.8;" x="1165.963279" xlink:href="#m1ce49a693f" y="505.4"/>
      </g>
     </g>
     <g id="text_51">
      <!-- $-5$ -->
      <g transform="translate(1153.241089 525.909155)scale(0.2 -0.2)">
       <use transform="scale(0.996264)" xlink:href="#CMSY10-0"/>
       <use transform="translate(77.408707 0)scale(0.996264)" xlink:href="#Nimbus_Roman_No9_L_Regular-53"/>
      </g>
     </g>
    </g>
    <g id="xtick_11">
     <g id="line2d_46">
      <g>
       <use style="stroke:#000000;stroke-width:0.8;" x="1238.226037" xlink:href="#m1ce49a693f" y="505.4"/>
      </g>
     </g>
     <g id="text_52">
      <!-- $0$ -->
      <g transform="translate(1233.244717 525.909155)scale(0.2 -0.2)">
       <use transform="scale(0.996264)" xlink:href="#Nimbus_Roman_No9_L_Regular-48"/>
      </g>
     </g>
    </g>
    <g id="xtick_12">
     <g id="line2d_47">
      <g>
       <use style="stroke:#000000;stroke-width:0.8;" x="1310.488796" xlink:href="#m1ce49a693f" y="505.4"/>
      </g>
     </g>
     <g id="text_53">
      <!-- $5$ -->
      <g transform="translate(1305.507476 525.909155)scale(0.2 -0.2)">
       <use transform="scale(0.996264)" xlink:href="#Nimbus_Roman_No9_L_Regular-53"/>
      </g>
     </g>
    </g>
    <g id="text_54">
     <!-- tr(J) -->
     <g transform="translate(1221.628587 547.731968)scale(0.2 -0.2)">
      <use transform="scale(0.996264)" xlink:href="#Nimbus_Roman_No9_L_Regular-116"/>
      <use transform="translate(27.69517 0)scale(0.996264)" xlink:href="#Nimbus_Roman_No9_L_Regular-114"/>
      <use transform="translate(60.870399 0)scale(0.996264)" xlink:href="#Nimbus_Roman_No9_L_Regular-40"/>
      <use transform="translate(94.045629 0)scale(0.996264)" xlink:href="#Nimbus_Roman_No9_L_Regular-74"/>
      <use transform="translate(132.799335 0)scale(0.996264)" xlink:href="#Nimbus_Roman_No9_L_Regular-41"/>
     </g>
    </g>
   </g>
   <g id="matplotlib.axis_8">
    <g id="ytick_24">
     <g id="line2d_48">
      <g>
       <use style="stroke:#000000;stroke-width:0.8;" x="1116.824603" xlink:href="#m4cf77027b6" y="450.284173"/>
      </g>
     </g>
     <g id="text_55">
      <!-- $-75$ -->
      <defs>
       <path d="M 44.90625 66 
L 7.90625 66 
L 2 51.296875 
L 3.703125 50.5 
C 8 57.296875 9.796875 58.59375 15.296875 58.59375 
L 37 58.59375 
L 17.203125 -1 
L 23.703125 -1 
L 44.90625 64.390625 
z
" id="Nimbus_Roman_No9_L_Regular-55"/>
      </defs>
      <g transform="translate(1074.417584 457.038751)scale(0.2 -0.2)">
       <use transform="scale(0.996264)" xlink:href="#CMSY10-0"/>
       <use transform="translate(77.408707 0)scale(0.996264)" xlink:href="#Nimbus_Roman_No9_L_Regular-55"/>
       <use transform="translate(127.221908 0)scale(0.996264)" xlink:href="#Nimbus_Roman_No9_L_Regular-53"/>
      </g>
     </g>
    </g>
    <g id="ytick_25">
     <g id="line2d_49">
      <g>
       <use style="stroke:#000000;stroke-width:0.8;" x="1116.824603" xlink:href="#m4cf77027b6" y="390.900117"/>
      </g>
     </g>
     <g id="text_56">
      <!-- $-50$ -->
      <g transform="translate(1074.417584 397.654695)scale(0.2 -0.2)">
       <use transform="scale(0.996264)" xlink:href="#CMSY10-0"/>
       <use transform="translate(77.408707 0)scale(0.996264)" xlink:href="#Nimbus_Roman_No9_L_Regular-53"/>
       <use transform="translate(127.221908 0)scale(0.996264)" xlink:href="#Nimbus_Roman_No9_L_Regular-48"/>
      </g>
     </g>
    </g>
    <g id="ytick_26">
     <g id="line2d_50">
      <g>
       <use style="stroke:#000000;stroke-width:0.8;" x="1116.824603" xlink:href="#m4cf77027b6" y="331.516061"/>
      </g>
     </g>
     <g id="text_57">
      <!-- $-25$ -->
      <g transform="translate(1074.417584 338.270639)scale(0.2 -0.2)">
       <use transform="scale(0.996264)" xlink:href="#CMSY10-0"/>
       <use transform="translate(77.408707 0)scale(0.996264)" xlink:href="#Nimbus_Roman_No9_L_Regular-50"/>
       <use transform="translate(127.221908 0)scale(0.996264)" xlink:href="#Nimbus_Roman_No9_L_Regular-53"/>
      </g>
     </g>
    </g>
    <g id="ytick_27">
     <g id="line2d_51">
      <g>
       <use style="stroke:#000000;stroke-width:0.8;" x="1116.824603" xlink:href="#m4cf77027b6" y="272.132005"/>
      </g>
     </g>
     <g id="text_58">
      <!-- $0$ -->
      <g transform="translate(1099.861963 278.886583)scale(0.2 -0.2)">
       <use transform="scale(0.996264)" xlink:href="#Nimbus_Roman_No9_L_Regular-48"/>
      </g>
     </g>
    </g>
    <g id="ytick_28">
     <g id="line2d_52">
      <g>
       <use style="stroke:#000000;stroke-width:0.8;" x="1116.824603" xlink:href="#m4cf77027b6" y="212.747949"/>
      </g>
     </g>
     <g id="text_59">
      <!-- $25$ -->
      <g transform="translate(1089.899322 219.502527)scale(0.2 -0.2)">
       <use transform="scale(0.996264)" xlink:href="#Nimbus_Roman_No9_L_Regular-50"/>
       <use transform="translate(49.8132 0)scale(0.996264)" xlink:href="#Nimbus_Roman_No9_L_Regular-53"/>
      </g>
     </g>
    </g>
    <g id="ytick_29">
     <g id="line2d_53">
      <g>
       <use style="stroke:#000000;stroke-width:0.8;" x="1116.824603" xlink:href="#m4cf77027b6" y="153.363893"/>
      </g>
     </g>
     <g id="text_60">
      <!-- $50$ -->
      <g transform="translate(1089.899322 160.118471)scale(0.2 -0.2)">
       <use transform="scale(0.996264)" xlink:href="#Nimbus_Roman_No9_L_Regular-53"/>
       <use transform="translate(49.8132 0)scale(0.996264)" xlink:href="#Nimbus_Roman_No9_L_Regular-48"/>
      </g>
     </g>
    </g>
    <g id="ytick_30">
     <g id="line2d_54">
      <g>
       <use style="stroke:#000000;stroke-width:0.8;" x="1116.824603" xlink:href="#m4cf77027b6" y="93.979837"/>
      </g>
     </g>
     <g id="text_61">
      <!-- $75$ -->
      <g transform="translate(1089.899322 100.734415)scale(0.2 -0.2)">
       <use transform="scale(0.996264)" xlink:href="#Nimbus_Roman_No9_L_Regular-55"/>
       <use transform="translate(49.8132 0)scale(0.996264)" xlink:href="#Nimbus_Roman_No9_L_Regular-53"/>
      </g>
     </g>
    </g>
    <g id="text_62">
     <!-- det(J) -->
     <g transform="translate(1066.103926 294.816606)rotate(-90)scale(0.2 -0.2)">
      <use transform="scale(0.996264)" xlink:href="#Nimbus_Roman_No9_L_Regular-100"/>
      <use transform="translate(49.8132 0)scale(0.996264)" xlink:href="#Nimbus_Roman_No9_L_Regular-101"/>
      <use transform="translate(94.046769 0)scale(0.996264)" xlink:href="#Nimbus_Roman_No9_L_Regular-116"/>
      <use transform="translate(121.741939 0)scale(0.996264)" xlink:href="#Nimbus_Roman_No9_L_Regular-40"/>
      <use transform="translate(154.917169 0)scale(0.996264)" xlink:href="#Nimbus_Roman_No9_L_Regular-74"/>
      <use transform="translate(193.670875 0)scale(0.996264)" xlink:href="#Nimbus_Roman_No9_L_Regular-41"/>
     </g>
    </g>
   </g>
   <g id="line2d_55">
    <path clip-path="url(#pd743e9da8f)" d="M 1116.824603 230.230615 
L 1121.779763 233.58133 
L 1126.734924 236.792432 
L 1131.690084 239.863921 
L 1136.645245 242.795797 
L 1141.600406 245.588059 
L 1146.555566 248.240709 
L 1151.510727 250.753745 
L 1156.465887 253.127168 
L 1161.421048 255.360978 
L 1166.376209 257.455175 
L 1171.331369 259.409759 
L 1176.28653 261.224729 
L 1181.24169 262.900087 
L 1186.196851 264.435831 
L 1191.152012 265.831963 
L 1196.107172 267.088481 
L 1201.062333 268.205386 
L 1206.017493 269.182678 
L 1210.972654 270.020356 
L 1215.927815 270.718422 
L 1220.882975 271.276875 
L 1225.838136 271.695714 
L 1230.793296 271.97494 
L 1235.748457 272.114553 
L 1240.703618 272.114553 
L 1245.658778 271.97494 
L 1250.613939 271.695714 
L 1255.569099 271.276875 
L 1260.52426 270.718422 
L 1265.479421 270.020356 
L 1270.434581 269.182678 
L 1275.389742 268.205386 
L 1280.344902 267.088481 
L 1285.300063 265.831963 
L 1290.255224 264.435831 
L 1295.210384 262.900087 
L 1300.165545 261.224729 
L 1305.120705 259.409759 
L 1310.075866 257.455175 
L 1315.031027 255.360978 
L 1319.986187 253.127168 
L 1324.941348 250.753745 
L 1329.896508 248.240709 
L 1334.851669 245.588059 
L 1339.80683 242.795797 
L 1344.76199 239.863921 
L 1349.717151 236.792432 
L 1354.672311 233.58133 
L 1359.627472 230.230615 
" style="fill:none;stroke:#000000;stroke-linecap:square;"/>
   </g>
   <g id="line2d_56">
    <path clip-path="url(#pd743e9da8f)" d="M 1223.773486 272.132005 
L 1224.350865 272.239964 
L 1226.074332 272.576597 
L 1228.917871 273.179743 
L 1232.838126 274.111043 
L 1237.774395 275.453801 
L 1243.648635 277.309991 
L 1250.365458 279.796409 
L 1257.812135 283.039972 
L 1265.858594 287.172156 
L 1274.357417 292.322584 
L 1283.143846 298.611758 
L 1292.035778 306.142936 
L 1300.833769 314.993149 
L 1309.32103 325.203374 
L 1317.26343 336.767838 
L 1324.409494 349.622478 
L 1330.490405 363.632539 
L 1335.220003 378.579322 
L 1338.294783 394.146072 
L 1339.3939 409.903015 
L 1338.179163 425.291537 
L 1334.295039 439.607509 
L 1327.368654 451.983758 
L 1317.009787 461.37168 
L 1302.810878 466.522001 
L 1284.34702 465.96468 
L 1261.175967 457.987961 
L 1232.838126 440.616563 
L 1198.856564 411.589022 
" style="fill:none;stroke:#ff0000;stroke-linecap:square;stroke-width:2;"/>
   </g>
   <g id="line2d_57">
    <path clip-path="url(#pd743e9da8f)" d="M 1116.824603 272.132005 
L 1359.627472 272.132005 
" style="fill:none;stroke:#000000;stroke-linecap:square;stroke-width:1.5;"/>
   </g>
   <g id="line2d_58">
    <path clip-path="url(#pd743e9da8f)" d="M 1238.226037 505.4 
L 1238.226037 38.86401 
" style="fill:none;stroke:#000000;stroke-linecap:square;stroke-width:1.5;"/>
   </g>
   <g id="patch_18">
    <path d="M 1116.824603 505.4 
L 1116.824603 38.86401 
" style="fill:none;stroke:#000000;stroke-linecap:square;stroke-linejoin:miter;stroke-width:0.8;"/>
   </g>
   <g id="patch_19">
    <path d="M 1359.627472 505.4 
L 1359.627472 38.86401 
" style="fill:none;stroke:#000000;stroke-linecap:square;stroke-linejoin:miter;stroke-width:0.8;"/>
   </g>
   <g id="patch_20">
    <path d="M 1116.824603 505.4 
L 1359.627472 505.4 
" style="fill:none;stroke:#000000;stroke-linecap:square;stroke-linejoin:miter;stroke-width:0.8;"/>
   </g>
   <g id="patch_21">
    <path d="M 1116.824603 38.86401 
L 1359.627472 38.86401 
" style="fill:none;stroke:#000000;stroke-linecap:square;stroke-linejoin:miter;stroke-width:0.8;"/>
   </g>
   <g id="text_63">
    <!-- $M = 5, \beta = -1$ -->
    <g transform="translate(1122.605623 284.008816)scale(0.1 -0.1)">
     <use transform="scale(0.996264)" xlink:href="#Nimbus_Roman_No9_L_Regular_Italic-77"/>
     <use transform="translate(109.111568 0)scale(0.996264)" xlink:href="#CMR10-61"/>
     <use transform="translate(208.659422 0)scale(0.996264)" xlink:href="#Nimbus_Roman_No9_L_Regular-53"/>
     <use transform="translate(258.472622 0)scale(0.996264)" xlink:href="#CMMI10-59"/>
     <use transform="translate(297.137702 0)scale(0.996264)" xlink:href="#Standard_Symbols_L-98"/>
     <use transform="translate(386.225483 0)scale(0.996264)" xlink:href="#CMR10-61"/>
     <use transform="translate(485.773336 0)scale(0.996264)" xlink:href="#CMSY10-0"/>
     <use transform="translate(563.182043 0)scale(0.996264)" xlink:href="#Nimbus_Roman_No9_L_Regular-49"/>
    </g>
   </g>
   <g id="text_64">
    <!-- $\gamma = 1, K = 0.1$ -->
    <g transform="translate(1122.605623 307.762439)scale(0.1 -0.1)">
     <use transform="scale(0.996264)" xlink:href="#Standard_Symbols_L-103"/>
     <use transform="translate(71.354157 0)scale(0.996264)" xlink:href="#CMR10-61"/>
     <use transform="translate(170.90201 0)scale(0.996264)" xlink:href="#Nimbus_Roman_No9_L_Regular-49"/>
     <use transform="translate(220.71521 0)scale(0.996264)" xlink:href="#CMMI10-59"/>
     <use transform="translate(259.38029 0)scale(0.996264)" xlink:href="#Nimbus_Roman_No9_L_Regular_Italic-75"/>
     <use transform="translate(353.448175 0)scale(0.996264)" xlink:href="#CMR10-61"/>
     <use transform="translate(452.996028 0)scale(0.996264)" xlink:href="#Nimbus_Roman_No9_L_Regular-48"/>
     <use transform="translate(502.809229 0)scale(0.996264)" xlink:href="#CMMI10-58"/>
     <use transform="translate(530.404735 0)scale(0.996264)" xlink:href="#Nimbus_Roman_No9_L_Regular-49"/>
    </g>
   </g>
   <g id="text_65">
    <!-- $\kappa = 0.1$ -->
    <g transform="translate(1122.605623 331.516061)scale(0.1 -0.1)">
     <use transform="scale(0.996264)" xlink:href="#Standard_Symbols_L-107"/>
     <use transform="translate(85.102542 0)scale(0.996264)" xlink:href="#CMR10-61"/>
     <use transform="translate(184.650395 0)scale(0.996264)" xlink:href="#Nimbus_Roman_No9_L_Regular-48"/>
     <use transform="translate(234.463596 0)scale(0.996264)" xlink:href="#CMMI10-58"/>
     <use transform="translate(262.059103 0)scale(0.996264)" xlink:href="#Nimbus_Roman_No9_L_Regular-49"/>
    </g>
   </g>
   <g id="text_66">
    <!-- $M \beta + 1 &lt; 0, ~ \gamma K / \beta + 1 &lt; 0$ -->
    <g transform="translate(1155.111858 32.86401)scale(0.15 -0.15)">
     <use transform="scale(0.996264)" xlink:href="#Nimbus_Roman_No9_L_Regular_Italic-77"/>
     <use transform="translate(86.972422 0)scale(0.996264)" xlink:href="#Standard_Symbols_L-98"/>
     <use transform="translate(167.758023 0)scale(0.996264)" xlink:href="#CMR10-43"/>
     <use transform="translate(259.003696 0)scale(0.996264)" xlink:href="#Nimbus_Roman_No9_L_Regular-49"/>
     <use transform="translate(330.956043 0)scale(0.996264)" xlink:href="#CMMI10-60"/>
     <use transform="translate(430.503897 0)scale(0.996264)" xlink:href="#Nimbus_Roman_No9_L_Regular-48"/>
     <use transform="translate(480.317097 0)scale(0.996264)" xlink:href="#CMMI10-59"/>
     <use transform="translate(543.888777 0)scale(0.996264)" xlink:href="#Standard_Symbols_L-103"/>
     <use transform="translate(593.103787 0)scale(0.996264)" xlink:href="#Nimbus_Roman_No9_L_Regular_Italic-75"/>
     <use transform="translate(665.032526 0)scale(0.996264)" xlink:href="#CMMI10-61"/>
     <use transform="translate(714.845726 0)scale(0.996264)" xlink:href="#Standard_Symbols_L-98"/>
     <use transform="translate(795.631327 0)scale(0.996264)" xlink:href="#CMR10-43"/>
     <use transform="translate(886.877001 0)scale(0.996264)" xlink:href="#Nimbus_Roman_No9_L_Regular-49"/>
     <use transform="translate(958.829347 0)scale(0.996264)" xlink:href="#CMMI10-60"/>
     <use transform="translate(1058.377201 0)scale(0.996264)" xlink:href="#Nimbus_Roman_No9_L_Regular-48"/>
    </g>
   </g>
  </g>
  <g id="axes_5">
   <g id="patch_22">
    <path d="M 1460.097131 505.4 
L 1702.9 505.4 
L 1702.9 38.86401 
L 1460.097131 38.86401 
z
" style="fill:#ffffff;"/>
   </g>
   <g id="matplotlib.axis_9">
    <g id="xtick_13">
     <g id="line2d_59">
      <g>
       <use style="stroke:#000000;stroke-width:0.8;" x="1509.235807" xlink:href="#m1ce49a693f" y="505.4"/>
      </g>
     </g>
     <g id="text_67">
      <!-- $-5$ -->
      <g transform="translate(1496.513617 525.909155)scale(0.2 -0.2)">
       <use transform="scale(0.996264)" xlink:href="#CMSY10-0"/>
       <use transform="translate(77.408707 0)scale(0.996264)" xlink:href="#Nimbus_Roman_No9_L_Regular-53"/>
      </g>
     </g>
    </g>
    <g id="xtick_14">
     <g id="line2d_60">
      <g>
       <use style="stroke:#000000;stroke-width:0.8;" x="1581.498565" xlink:href="#m1ce49a693f" y="505.4"/>
      </g>
     </g>
     <g id="text_68">
      <!-- $0$ -->
      <g transform="translate(1576.517245 525.909155)scale(0.2 -0.2)">
       <use transform="scale(0.996264)" xlink:href="#Nimbus_Roman_No9_L_Regular-48"/>
      </g>
     </g>
    </g>
    <g id="xtick_15">
     <g id="line2d_61">
      <g>
       <use style="stroke:#000000;stroke-width:0.8;" x="1653.761324" xlink:href="#m1ce49a693f" y="505.4"/>
      </g>
     </g>
     <g id="text_69">
      <!-- $5$ -->
      <g transform="translate(1648.780004 525.909155)scale(0.2 -0.2)">
       <use transform="scale(0.996264)" xlink:href="#Nimbus_Roman_No9_L_Regular-53"/>
      </g>
     </g>
    </g>
    <g id="text_70">
     <!-- tr(J) -->
     <g transform="translate(1564.901115 547.731968)scale(0.2 -0.2)">
      <use transform="scale(0.996264)" xlink:href="#Nimbus_Roman_No9_L_Regular-116"/>
      <use transform="translate(27.69517 0)scale(0.996264)" xlink:href="#Nimbus_Roman_No9_L_Regular-114"/>
      <use transform="translate(60.870399 0)scale(0.996264)" xlink:href="#Nimbus_Roman_No9_L_Regular-40"/>
      <use transform="translate(94.045629 0)scale(0.996264)" xlink:href="#Nimbus_Roman_No9_L_Regular-74"/>
      <use transform="translate(132.799335 0)scale(0.996264)" xlink:href="#Nimbus_Roman_No9_L_Regular-41"/>
     </g>
    </g>
   </g>
   <g id="matplotlib.axis_10">
    <g id="ytick_31">
     <g id="line2d_62">
      <g>
       <use style="stroke:#000000;stroke-width:0.8;" x="1460.097131" xlink:href="#m4cf77027b6" y="501.775932"/>
      </g>
     </g>
     <g id="text_71">
      <!-- $-100$ -->
      <g transform="translate(1407.727472 508.530509)scale(0.2 -0.2)">
       <use transform="scale(0.996264)" xlink:href="#CMSY10-0"/>
       <use transform="translate(77.408707 0)scale(0.996264)" xlink:href="#Nimbus_Roman_No9_L_Regular-49"/>
       <use transform="translate(127.221908 0)scale(0.996264)" xlink:href="#Nimbus_Roman_No9_L_Regular-48"/>
       <use transform="translate(177.035108 0)scale(0.996264)" xlink:href="#Nimbus_Roman_No9_L_Regular-48"/>
      </g>
     </g>
    </g>
    <g id="ytick_32">
     <g id="line2d_63">
      <g>
       <use style="stroke:#000000;stroke-width:0.8;" x="1460.097131" xlink:href="#m4cf77027b6" y="444.36495"/>
      </g>
     </g>
     <g id="text_72">
      <!-- $-75$ -->
      <g transform="translate(1417.690112 451.119528)scale(0.2 -0.2)">
       <use transform="scale(0.996264)" xlink:href="#CMSY10-0"/>
       <use transform="translate(77.408707 0)scale(0.996264)" xlink:href="#Nimbus_Roman_No9_L_Regular-55"/>
       <use transform="translate(127.221908 0)scale(0.996264)" xlink:href="#Nimbus_Roman_No9_L_Regular-53"/>
      </g>
     </g>
    </g>
    <g id="ytick_33">
     <g id="line2d_64">
      <g>
       <use style="stroke:#000000;stroke-width:0.8;" x="1460.097131" xlink:href="#m4cf77027b6" y="386.953968"/>
      </g>
     </g>
     <g id="text_73">
      <!-- $-50$ -->
      <g transform="translate(1417.690112 393.708546)scale(0.2 -0.2)">
       <use transform="scale(0.996264)" xlink:href="#CMSY10-0"/>
       <use transform="translate(77.408707 0)scale(0.996264)" xlink:href="#Nimbus_Roman_No9_L_Regular-53"/>
       <use transform="translate(127.221908 0)scale(0.996264)" xlink:href="#Nimbus_Roman_No9_L_Regular-48"/>
      </g>
     </g>
    </g>
    <g id="ytick_34">
     <g id="line2d_65">
      <g>
       <use style="stroke:#000000;stroke-width:0.8;" x="1460.097131" xlink:href="#m4cf77027b6" y="329.542987"/>
      </g>
     </g>
     <g id="text_74">
      <!-- $-25$ -->
      <g transform="translate(1417.690112 336.297564)scale(0.2 -0.2)">
       <use transform="scale(0.996264)" xlink:href="#CMSY10-0"/>
       <use transform="translate(77.408707 0)scale(0.996264)" xlink:href="#Nimbus_Roman_No9_L_Regular-50"/>
       <use transform="translate(127.221908 0)scale(0.996264)" xlink:href="#Nimbus_Roman_No9_L_Regular-53"/>
      </g>
     </g>
    </g>
    <g id="ytick_35">
     <g id="line2d_66">
      <g>
       <use style="stroke:#000000;stroke-width:0.8;" x="1460.097131" xlink:href="#m4cf77027b6" y="272.132005"/>
      </g>
     </g>
     <g id="text_75">
      <!-- $0$ -->
      <g transform="translate(1443.134491 278.886583)scale(0.2 -0.2)">
       <use transform="scale(0.996264)" xlink:href="#Nimbus_Roman_No9_L_Regular-48"/>
      </g>
     </g>
    </g>
    <g id="ytick_36">
     <g id="line2d_67">
      <g>
       <use style="stroke:#000000;stroke-width:0.8;" x="1460.097131" xlink:href="#m4cf77027b6" y="214.721023"/>
      </g>
     </g>
     <g id="text_76">
      <!-- $25$ -->
      <g transform="translate(1433.17185 221.475601)scale(0.2 -0.2)">
       <use transform="scale(0.996264)" xlink:href="#Nimbus_Roman_No9_L_Regular-50"/>
       <use transform="translate(49.8132 0)scale(0.996264)" xlink:href="#Nimbus_Roman_No9_L_Regular-53"/>
      </g>
     </g>
    </g>
    <g id="ytick_37">
     <g id="line2d_68">
      <g>
       <use style="stroke:#000000;stroke-width:0.8;" x="1460.097131" xlink:href="#m4cf77027b6" y="157.310042"/>
      </g>
     </g>
     <g id="text_77">
      <!-- $50$ -->
      <g transform="translate(1433.17185 164.064619)scale(0.2 -0.2)">
       <use transform="scale(0.996264)" xlink:href="#Nimbus_Roman_No9_L_Regular-53"/>
       <use transform="translate(49.8132 0)scale(0.996264)" xlink:href="#Nimbus_Roman_No9_L_Regular-48"/>
      </g>
     </g>
    </g>
    <g id="ytick_38">
     <g id="line2d_69">
      <g>
       <use style="stroke:#000000;stroke-width:0.8;" x="1460.097131" xlink:href="#m4cf77027b6" y="99.89906"/>
      </g>
     </g>
     <g id="text_78">
      <!-- $75$ -->
      <g transform="translate(1433.17185 106.653637)scale(0.2 -0.2)">
       <use transform="scale(0.996264)" xlink:href="#Nimbus_Roman_No9_L_Regular-55"/>
       <use transform="translate(49.8132 0)scale(0.996264)" xlink:href="#Nimbus_Roman_No9_L_Regular-53"/>
      </g>
     </g>
    </g>
    <g id="ytick_39">
     <g id="line2d_70">
      <g>
       <use style="stroke:#000000;stroke-width:0.8;" x="1460.097131" xlink:href="#m4cf77027b6" y="42.488078"/>
      </g>
     </g>
     <g id="text_79">
      <!-- $100$ -->
      <g transform="translate(1423.20921 49.242656)scale(0.2 -0.2)">
       <use transform="scale(0.996264)" xlink:href="#Nimbus_Roman_No9_L_Regular-49"/>
       <use transform="translate(49.8132 0)scale(0.996264)" xlink:href="#Nimbus_Roman_No9_L_Regular-48"/>
       <use transform="translate(99.626401 0)scale(0.996264)" xlink:href="#Nimbus_Roman_No9_L_Regular-48"/>
      </g>
     </g>
    </g>
    <g id="text_80">
     <!-- det(J) -->
     <g transform="translate(1399.413814 294.816606)rotate(-90)scale(0.2 -0.2)">
      <use transform="scale(0.996264)" xlink:href="#Nimbus_Roman_No9_L_Regular-100"/>
      <use transform="translate(49.8132 0)scale(0.996264)" xlink:href="#Nimbus_Roman_No9_L_Regular-101"/>
      <use transform="translate(94.046769 0)scale(0.996264)" xlink:href="#Nimbus_Roman_No9_L_Regular-116"/>
      <use transform="translate(121.741939 0)scale(0.996264)" xlink:href="#Nimbus_Roman_No9_L_Regular-40"/>
      <use transform="translate(154.917169 0)scale(0.996264)" xlink:href="#Nimbus_Roman_No9_L_Regular-74"/>
      <use transform="translate(193.670875 0)scale(0.996264)" xlink:href="#Nimbus_Roman_No9_L_Regular-41"/>
     </g>
    </g>
   </g>
   <g id="line2d_71">
    <path clip-path="url(#pb1d7acddd7)" d="M 1460.097131 231.622816 
L 1465.052291 234.862202 
L 1470.007452 237.966613 
L 1474.962612 240.936049 
L 1479.917773 243.770511 
L 1484.872934 246.469999 
L 1489.828094 249.034513 
L 1494.783255 251.464052 
L 1499.738415 253.758616 
L 1504.693576 255.918206 
L 1509.648737 257.942822 
L 1514.603897 259.832464 
L 1519.559058 261.587131 
L 1524.514218 263.206823 
L 1529.469379 264.691542 
L 1534.42454 266.041286 
L 1539.3797 267.256055 
L 1544.334861 268.33585 
L 1549.290021 269.280671 
L 1554.245182 270.090517 
L 1559.200343 270.765389 
L 1564.155503 271.305287 
L 1569.110664 271.71021 
L 1574.065824 271.980159 
L 1579.020985 272.115133 
L 1583.976146 272.115133 
L 1588.931306 271.980159 
L 1593.886467 271.71021 
L 1598.841627 271.305287 
L 1603.796788 270.765389 
L 1608.751949 270.090517 
L 1613.707109 269.280671 
L 1618.66227 268.33585 
L 1623.61743 267.256055 
L 1628.572591 266.041286 
L 1633.527752 264.691542 
L 1638.482912 263.206823 
L 1643.438073 261.587131 
L 1648.393233 259.832464 
L 1653.348394 257.942822 
L 1658.303555 255.918206 
L 1663.258715 253.758616 
L 1668.213876 251.464052 
L 1673.169036 249.034513 
L 1678.124197 246.469999 
L 1683.079358 243.770511 
L 1688.034518 240.936049 
L 1692.989679 237.966613 
L 1697.944839 234.862202 
L 1702.9 231.622816 
" style="fill:none;stroke:#000000;stroke-linecap:square;"/>
   </g>
   <g id="line2d_72">
    <path clip-path="url(#pb1d7acddd7)" d="M 1567.046014 272.132005 
L 1567.623393 272.246711 
L 1569.34686 272.603161 
L 1572.190399 273.237937 
L 1576.110654 274.210632 
L 1581.046923 275.601781 
L 1586.921163 277.509972 
L 1593.637986 280.048119 
L 1601.084663 283.338923 
L 1609.131122 287.509489 
L 1617.629945 292.685136 
L 1626.416374 298.982362 
L 1635.308306 306.500993 
L 1644.106297 315.315502 
L 1652.593558 325.465503 
L 1660.535958 336.945415 
L 1667.682022 349.693304 
L 1673.762933 363.578893 
L 1678.492531 378.390748 
L 1681.567311 393.82264 
L 1682.666428 409.459073 
L 1681.451691 424.759994 
L 1677.567567 439.04467 
L 1670.641182 451.474739 
L 1660.282315 461.036438 
L 1646.083406 466.522001 
L 1627.619548 466.51023 
L 1604.448495 459.346244 
L 1576.110654 443.12039 
L 1542.129092 415.646345 
" style="fill:none;stroke:#ff0000;stroke-linecap:square;stroke-width:2;"/>
   </g>
   <g id="line2d_73">
    <path clip-path="url(#pb1d7acddd7)" d="M 1460.097131 272.132005 
L 1702.9 272.132005 
" style="fill:none;stroke:#000000;stroke-linecap:square;stroke-width:1.5;"/>
   </g>
   <g id="line2d_74">
    <path clip-path="url(#pb1d7acddd7)" d="M 1581.498565 505.4 
L 1581.498565 38.86401 
" style="fill:none;stroke:#000000;stroke-linecap:square;stroke-width:1.5;"/>
   </g>
   <g id="patch_23">
    <path d="M 1460.097131 505.4 
L 1460.097131 38.86401 
" style="fill:none;stroke:#000000;stroke-linecap:square;stroke-linejoin:miter;stroke-width:0.8;"/>
   </g>
   <g id="patch_24">
    <path d="M 1702.9 505.4 
L 1702.9 38.86401 
" style="fill:none;stroke:#000000;stroke-linecap:square;stroke-linejoin:miter;stroke-width:0.8;"/>
   </g>
   <g id="patch_25">
    <path d="M 1460.097131 505.4 
L 1702.9 505.4 
" style="fill:none;stroke:#000000;stroke-linecap:square;stroke-linejoin:miter;stroke-width:0.8;"/>
   </g>
   <g id="patch_26">
    <path d="M 1460.097131 38.86401 
L 1702.9 38.86401 
" style="fill:none;stroke:#000000;stroke-linecap:square;stroke-linejoin:miter;stroke-width:0.8;"/>
   </g>
   <g id="text_81">
    <!-- $M = 5, \beta = -1$ -->
    <g transform="translate(1465.878151 283.614201)scale(0.1 -0.1)">
     <use transform="scale(0.996264)" xlink:href="#Nimbus_Roman_No9_L_Regular_Italic-77"/>
     <use transform="translate(109.111568 0)scale(0.996264)" xlink:href="#CMR10-61"/>
     <use transform="translate(208.659422 0)scale(0.996264)" xlink:href="#Nimbus_Roman_No9_L_Regular-53"/>
     <use transform="translate(258.472622 0)scale(0.996264)" xlink:href="#CMMI10-59"/>
     <use transform="translate(297.137702 0)scale(0.996264)" xlink:href="#Standard_Symbols_L-98"/>
     <use transform="translate(386.225483 0)scale(0.996264)" xlink:href="#CMR10-61"/>
     <use transform="translate(485.773336 0)scale(0.996264)" xlink:href="#CMSY10-0"/>
     <use transform="translate(563.182043 0)scale(0.996264)" xlink:href="#Nimbus_Roman_No9_L_Regular-49"/>
    </g>
   </g>
   <g id="text_82">
    <!-- $\gamma = 1, K = 0.01$ -->
    <g transform="translate(1465.878151 306.578594)scale(0.1 -0.1)">
     <use transform="scale(0.996264)" xlink:href="#Standard_Symbols_L-103"/>
     <use transform="translate(71.354157 0)scale(0.996264)" xlink:href="#CMR10-61"/>
     <use transform="translate(170.90201 0)scale(0.996264)" xlink:href="#Nimbus_Roman_No9_L_Regular-49"/>
     <use transform="translate(220.71521 0)scale(0.996264)" xlink:href="#CMMI10-59"/>
     <use transform="translate(259.38029 0)scale(0.996264)" xlink:href="#Nimbus_Roman_No9_L_Regular_Italic-75"/>
     <use transform="translate(353.448175 0)scale(0.996264)" xlink:href="#CMR10-61"/>
     <use transform="translate(452.996028 0)scale(0.996264)" xlink:href="#Nimbus_Roman_No9_L_Regular-48"/>
     <use transform="translate(502.809229 0)scale(0.996264)" xlink:href="#CMMI10-58"/>
     <use transform="translate(530.404735 0)scale(0.996264)" xlink:href="#Nimbus_Roman_No9_L_Regular-48"/>
     <use transform="translate(580.217936 0)scale(0.996264)" xlink:href="#Nimbus_Roman_No9_L_Regular-49"/>
    </g>
   </g>
   <g id="text_83">
    <!-- $\kappa = 0.1$ -->
    <g transform="translate(1465.878151 329.542987)scale(0.1 -0.1)">
     <use transform="scale(0.996264)" xlink:href="#Standard_Symbols_L-107"/>
     <use transform="translate(85.102542 0)scale(0.996264)" xlink:href="#CMR10-61"/>
     <use transform="translate(184.650395 0)scale(0.996264)" xlink:href="#Nimbus_Roman_No9_L_Regular-48"/>
     <use transform="translate(234.463596 0)scale(0.996264)" xlink:href="#CMMI10-58"/>
     <use transform="translate(262.059103 0)scale(0.996264)" xlink:href="#Nimbus_Roman_No9_L_Regular-49"/>
    </g>
   </g>
   <g id="text_84">
    <!-- $M \beta + 1 &lt; 0, ~ \gamma K / \beta + 1 &lt; 0$ -->
    <g transform="translate(1498.384386 32.86401)scale(0.15 -0.15)">
     <use transform="scale(0.996264)" xlink:href="#Nimbus_Roman_No9_L_Regular_Italic-77"/>
     <use transform="translate(86.972422 0)scale(0.996264)" xlink:href="#Standard_Symbols_L-98"/>
     <use transform="translate(167.758023 0)scale(0.996264)" xlink:href="#CMR10-43"/>
     <use transform="translate(259.003696 0)scale(0.996264)" xlink:href="#Nimbus_Roman_No9_L_Regular-49"/>
     <use transform="translate(330.956043 0)scale(0.996264)" xlink:href="#CMMI10-60"/>
     <use transform="translate(430.503897 0)scale(0.996264)" xlink:href="#Nimbus_Roman_No9_L_Regular-48"/>
     <use transform="translate(480.317097 0)scale(0.996264)" xlink:href="#CMMI10-59"/>
     <use transform="translate(543.888777 0)scale(0.996264)" xlink:href="#Standard_Symbols_L-103"/>
     <use transform="translate(593.103787 0)scale(0.996264)" xlink:href="#Nimbus_Roman_No9_L_Regular_Italic-75"/>
     <use transform="translate(665.032526 0)scale(0.996264)" xlink:href="#CMMI10-61"/>
     <use transform="translate(714.845726 0)scale(0.996264)" xlink:href="#Standard_Symbols_L-98"/>
     <use transform="translate(795.631327 0)scale(0.996264)" xlink:href="#CMR10-43"/>
     <use transform="translate(886.877001 0)scale(0.996264)" xlink:href="#Nimbus_Roman_No9_L_Regular-49"/>
     <use transform="translate(958.829347 0)scale(0.996264)" xlink:href="#CMMI10-60"/>
     <use transform="translate(1058.377201 0)scale(0.996264)" xlink:href="#Nimbus_Roman_No9_L_Regular-48"/>
    </g>
   </g>
  </g>
 </g>
 <defs>
  <clipPath id="pc75977fd65">
   <rect height="466.53599" width="242.802869" x="87.007019" y="38.86401"/>
  </clipPath>
  <clipPath id="pe8a591c76f">
   <rect height="466.53599" width="242.802869" x="430.279547" y="38.86401"/>
  </clipPath>
  <clipPath id="p6c7b38a91d">
   <rect height="466.53599" width="242.802869" x="773.552075" y="38.86401"/>
  </clipPath>
  <clipPath id="pd743e9da8f">
   <rect height="466.53599" width="242.802869" x="1116.824603" y="38.86401"/>
  </clipPath>
  <clipPath id="pb1d7acddd7">
   <rect height="466.53599" width="242.802869" x="1460.097131" y="38.86401"/>
  </clipPath>
 </defs>
</svg>
