<?xml version="1.0" encoding="utf-8" standalone="no"?>
<!DOCTYPE svg PUBLIC "-//W3C//DTD SVG 1.1//EN"
  "http://www.w3.org/Graphics/SVG/1.1/DTD/svg11.dtd">
<!-- Created with matplotlib (http://matplotlib.org/) -->
<svg height="432pt" version="1.1" viewBox="0 0 432 432" width="432pt" xmlns="http://www.w3.org/2000/svg" xmlns:xlink="http://www.w3.org/1999/xlink">
 <defs>
  <style type="text/css">
*{stroke-linecap:butt;stroke-linejoin:round;}
  </style>
 </defs>
 <g id="figure_1">
  <g id="patch_1">
   <path d="M 0 432 
L 432 432 
L 432 0 
L 0 0 
z
" style="fill:#ffffff;"/>
  </g>
  <g id="axes_1">
   <g id="patch_2">
    <path d="M 54 378 
L 388.8 378 
L 388.8 51.84 
L 54 51.84 
z
" style="fill:#ffffff;"/>
   </g>
   <g id="matplotlib.axis_1">
    <g id="xtick_1">
     <g id="line2d_1">
      <defs>
       <path d="M 0 0 
L 0 3.5 
" id="md3bc809869" style="stroke:#000000;stroke-width:0.8;"/>
      </defs>
      <g>
       <use style="stroke:#000000;stroke-width:0.8;" x="69.218182" xlink:href="#md3bc809869" y="378"/>
      </g>
     </g>
     <g id="text_1">
      <!-- $0$ -->
      <defs>
       <path d="M 25.40625 68 
C 19.90625 68 15.703125 66.296875 12 62.796875 
C 6.203125 57.203125 2.40625 45.6875 2.40625 34 
C 2.40625 23.09375 5.703125 11.390625 10.40625 5.796875 
C 14.09375 1.390625 19.203125 -1 25 -1 
C 30.09375 -1 34.40625 0.6875 38 4.1875 
C 43.796875 9.6875 47.59375 21.296875 47.59375 33.390625 
C 47.59375 53.890625 38.5 68 25.40625 68 
z
M 25.09375 65.390625 
C 33.5 65.390625 38 54.09375 38 33.1875 
C 38 12.296875 33.59375 1.59375 25 1.59375 
C 16.40625 1.59375 12 12.296875 12 33.09375 
C 12 54.296875 16.5 65.390625 25.09375 65.390625 
z
" id="Nimbus_Roman_No9_L_Regular-48"/>
      </defs>
      <g transform="translate(64.236862 398.509155)scale(0.2 -0.2)">
       <use transform="scale(0.996264)" xlink:href="#Nimbus_Roman_No9_L_Regular-48"/>
      </g>
     </g>
    </g>
    <g id="xtick_2">
     <g id="line2d_2">
      <g>
       <use style="stroke:#000000;stroke-width:0.8;" x="170.672727" xlink:href="#md3bc809869" y="378"/>
      </g>
     </g>
     <g id="text_2">
      <!-- $1$ -->
      <defs>
       <path d="M 29.09375 68 
L 11.09375 59 
L 11.09375 57.59375 
C 12.296875 58.09375 13.40625 58.484375 13.796875 58.6875 
C 15.59375 59.390625 17.296875 59.78125 18.296875 59.78125 
C 20.40625 59.78125 21.296875 58.296875 21.296875 55.078125 
L 21.296875 9.359375 
C 21.296875 6.03125 20.5 3.71875 18.90625 2.796875 
C 17.40625 1.890625 16 1.59375 11.796875 1.5 
L 11.796875 0 
L 39.40625 0 
L 39.40625 1.5 
C 31.5 1.59375 29.90625 2.609375 29.90625 7.453125 
L 29.90625 67.796875 
z
" id="Nimbus_Roman_No9_L_Regular-49"/>
      </defs>
      <g transform="translate(165.691407 398.509155)scale(0.2 -0.2)">
       <use transform="scale(0.996264)" xlink:href="#Nimbus_Roman_No9_L_Regular-49"/>
      </g>
     </g>
    </g>
    <g id="xtick_3">
     <g id="line2d_3">
      <g>
       <use style="stroke:#000000;stroke-width:0.8;" x="272.127273" xlink:href="#md3bc809869" y="378"/>
      </g>
     </g>
     <g id="text_3">
      <!-- $2$ -->
      <defs>
       <path d="M 47.5 13.734375 
L 46.203125 14.25 
C 42.5 8.5 41.203125 7.59375 36.703125 7.59375 
L 12.796875 7.59375 
L 29.59375 25.328125 
C 38.5 34.703125 42.40625 42.359375 42.40625 50.21875 
C 42.40625 60.28125 34.296875 68 23.90625 68 
C 18.40625 68 13.203125 65.796875 9.5 61.796875 
C 6.296875 58.375 4.796875 55.15625 3.09375 48 
L 5.203125 47.484375 
C 9.203125 57.359375 12.796875 60.59375 19.703125 60.59375 
C 28.09375 60.59375 33.796875 54.84375 33.796875 46.390625 
C 33.796875 38.53125 29.203125 29.15625 20.796875 20.1875 
L 3 1.1875 
L 3 0 
L 42 0 
z
" id="Nimbus_Roman_No9_L_Regular-50"/>
      </defs>
      <g transform="translate(267.145953 398.509155)scale(0.2 -0.2)">
       <use transform="scale(0.996264)" xlink:href="#Nimbus_Roman_No9_L_Regular-50"/>
      </g>
     </g>
    </g>
    <g id="xtick_4">
     <g id="line2d_4">
      <g>
       <use style="stroke:#000000;stroke-width:0.8;" x="373.581818" xlink:href="#md3bc809869" y="378"/>
      </g>
     </g>
     <g id="text_4">
      <!-- $3$ -->
      <defs>
       <path d="M 15.296875 33.390625 
C 21.203125 33.390625 23.5 33.1875 25.90625 32.296875 
C 32.09375 30.09375 36 24.390625 36 17.5 
C 36 9.09375 30.296875 2.59375 22.90625 2.59375 
C 20.203125 2.59375 18.203125 3.296875 14.5 5.6875 
C 11.5 7.5 9.796875 8.1875 8.09375 8.1875 
C 5.796875 8.1875 4.296875 6.796875 4.296875 4.6875 
C 4.296875 1.1875 8.59375 -1 15.59375 -1 
C 23.296875 -1 31.203125 1.59375 35.90625 5.6875 
C 40.59375 9.796875 43.203125 15.59375 43.203125 22.296875 
C 43.203125 27.390625 41.59375 32.09375 38.703125 35.1875 
C 36.703125 37.390625 34.796875 38.59375 30.40625 40.5 
C 37.296875 45.1875 39.796875 48.890625 39.796875 54.296875 
C 39.796875 62.390625 33.40625 68 24.203125 68 
C 19.203125 68 14.796875 66.296875 11.203125 63.09375 
C 8.203125 60.390625 6.703125 57.796875 4.5 51.796875 
L 6 51.390625 
C 10.09375 58.703125 14.59375 61.984375 20.90625 61.984375 
C 27.40625 61.984375 31.90625 57.59375 31.90625 51.296875 
C 31.90625 47.6875 30.40625 44.09375 27.90625 41.59375 
C 24.90625 38.59375 22.09375 37.09375 15.296875 34.6875 
z
" id="Nimbus_Roman_No9_L_Regular-51"/>
      </defs>
      <g transform="translate(368.600498 398.509155)scale(0.2 -0.2)">
       <use transform="scale(0.996264)" xlink:href="#Nimbus_Roman_No9_L_Regular-51"/>
      </g>
     </g>
    </g>
    <g id="text_5">
     <!-- Wave number (q) -->
     <defs>
      <path d="M 93.203125 66 
L 73.40625 66 
L 73.40625 64.09375 
C 78.5 63.59375 80.296875 62.5 80.296875 59.8125 
C 80.296875 57.71875 79.703125 55.140625 78.703125 52.34375 
L 66.203125 18.609375 
L 53 52.546875 
C 52.796875 53.046875 51.90625 55.234375 51.796875 55.53125 
C 50.90625 57.625 50.296875 59.515625 50.296875 60.609375 
C 50.296875 63 52.59375 63.984375 58 64.09375 
L 58 66 
L 31.296875 66 
L 31.296875 64.09375 
C 37 63.984375 38 63.09375 41.40625 55.140625 
L 44.703125 46.984375 
L 34 18.90625 
L 19.59375 56.328125 
C 18.90625 58.125 18.5 59.8125 18.5 60.90625 
C 18.5 63.09375 19.90625 63.796875 25 64.09375 
L 25 66 
L 0.5 66 
L 0.5 64.09375 
C 5.59375 63.59375 7.09375 61.8125 10.796875 52.453125 
L 30.09375 -1 
L 31.59375 -1 
L 47 41.109375 
L 63 -1 
L 64.5 -1 
C 73 24.984375 74 27.765625 84.90625 57.03125 
C 86.796875 62.203125 87.90625 63.09375 93.203125 64.09375 
z
" id="Nimbus_Roman_No9_L_Regular-87"/>
      <path d="M 44.203125 6.59375 
C 42.5 5.1875 41.296875 4.6875 39.796875 4.6875 
C 37.5 4.6875 36.796875 6.09375 36.796875 10.5 
L 36.796875 30 
C 36.796875 35.1875 36.296875 38.09375 34.796875 40.5 
C 32.59375 44.09375 28.296875 46 22.40625 46 
C 13 46 5.59375 41.09375 5.59375 34.796875 
C 5.59375 32.5 7.59375 30.5 9.90625 30.5 
C 12.296875 30.5 14.40625 32.5 14.40625 34.6875 
C 14.40625 35.09375 14.296875 35.59375 14.203125 36.296875 
C 14 37.1875 13.90625 38 13.90625 38.6875 
C 13.90625 41.390625 17.09375 43.59375 21.09375 43.59375 
C 26 43.59375 28.703125 40.6875 28.703125 35.296875 
L 28.703125 29.1875 
C 13.296875 23 11.59375 22.1875 7.296875 18.390625 
C 5.09375 16.390625 3.703125 13 3.703125 9.6875 
C 3.703125 3.390625 8.09375 -1 14.203125 -1 
C 18.59375 -1 22.703125 1.09375 28.796875 6.296875 
C 29.296875 1.09375 31.09375 -1 35.203125 -1 
C 38.59375 -1 40.703125 0.1875 44.203125 4 
z
M 28.703125 12.296875 
C 28.703125 9.1875 28.203125 8.296875 26.09375 7.09375 
C 23.703125 5.6875 20.90625 4.796875 18.796875 4.796875 
C 15.296875 4.796875 12.5 8.1875 12.5 12.5 
L 12.5 12.890625 
C 12.5 18.796875 16.59375 22.390625 28.703125 26.796875 
z
" id="Nimbus_Roman_No9_L_Regular-97"/>
      <path d="M 47.703125 45 
L 33.796875 45 
L 33.796875 43.484375 
C 37 43.1875 38.5 42.203125 38.5 40.3125 
C 38.5 39.328125 38.296875 38.34375 37.90625 37.34375 
L 28 11.6875 
L 17.796875 37.046875 
C 17.203125 38.4375 16.90625 39.828125 16.90625 40.71875 
C 16.90625 42.5 18 43.1875 21.5 43.484375 
L 21.5 45 
L 1.90625 45 
L 1.90625 43.484375 
C 5.703125 43.296875 6.40625 42.296875 11 32.09375 
L 23 3.671875 
C 23.203125 3.078125 23.5 2.375 23.796875 1.59375 
C 24.40625 -0.203125 25 -1 25.59375 -1 
C 26.203125 -1 26.90625 0.296875 28.40625 3.96875 
L 41.203125 35.765625 
C 44.09375 42.5 44.703125 43.1875 47.703125 43.484375 
z
" id="Nimbus_Roman_No9_L_Regular-118"/>
      <path d="M 40.796875 16.4375 
C 36 8.8125 31.703125 5.890625 25.296875 5.890625 
C 19.59375 5.890625 15.296875 8.8125 12.40625 14.53125 
C 10.59375 18.34375 9.90625 21.65625 9.703125 27.796875 
L 40.5 27.796875 
C 39.703125 34.265625 38.703125 37.140625 36.203125 40.3125 
C 33.203125 43.890625 28.59375 46 23.40625 46 
C 18.40625 46 13.703125 44.1875 9.90625 40.8125 
C 5.203125 36.734375 2.5 29.6875 2.5 21.46875 
C 2.5 7.59375 9.703125 -1 21.203125 -1 
C 30.703125 -1 38.203125 4.890625 42.40625 15.734375 
z
M 9.90625 31 
C 11 38.71875 14.40625 42.390625 20.5 42.390625 
C 26.59375 42.390625 29 39.609375 30.296875 31 
z
" id="Nimbus_Roman_No9_L_Regular-101"/>
      <path d="M 1.59375 39.796875 
C 2.203125 40.09375 3.203125 40.1875 4.296875 40.1875 
C 7.09375 40.1875 8 38.6875 8 33.796875 
L 8 9 
C 8 3.296875 6.90625 1.890625 1.796875 1.5 
L 1.796875 0 
L 23 0 
L 23 1.5 
C 17.90625 1.890625 16.40625 3.09375 16.40625 6.6875 
L 16.40625 34.796875 
C 21.203125 39.296875 23.40625 40.484375 26.703125 40.484375 
C 31.59375 40.484375 34 37.390625 34 30.796875 
L 34 9.890625 
C 34 3.59375 32.703125 1.890625 27.703125 1.5 
L 27.703125 0 
L 48.5 0 
L 48.5 1.5 
C 43.59375 2 42.40625 3.1875 42.40625 8.09375 
L 42.40625 31 
C 42.40625 40.390625 38 46 30.59375 46 
C 26 46 22.90625 44.296875 16.09375 37.890625 
L 16.09375 45.796875 
L 15.40625 46 
C 10.5 44.1875 7.09375 43.09375 1.59375 41.484375 
z
" id="Nimbus_Roman_No9_L_Regular-110"/>
      <path d="M 47.90625 4.984375 
L 47.40625 4.984375 
C 42.796875 4.984375 41.703125 6.09375 41.703125 10.6875 
L 41.703125 45 
L 25.90625 45 
L 25.90625 43.296875 
C 32.09375 43 33.296875 42 33.296875 37 
L 33.296875 13.5 
C 33.296875 10.6875 32.796875 9.296875 31.40625 8.1875 
C 28.703125 6 25.59375 4.796875 22.59375 4.796875 
C 18.703125 4.796875 15.5 8.1875 15.5 12.390625 
L 15.5 45 
L 0.90625 45 
L 0.90625 43.59375 
C 5.703125 43.296875 7.09375 41.796875 7.09375 37.1875 
L 7.09375 12 
C 7.09375 4.09375 11.90625 -1 19.203125 -1 
C 22.90625 -1 26.796875 0.59375 29.5 3.296875 
L 33.796875 7.59375 
L 33.796875 -0.703125 
L 34.203125 -1 
C 39.203125 1 42.796875 2.09375 47.90625 3.5 
z
" id="Nimbus_Roman_No9_L_Regular-117"/>
      <path d="M 1.90625 39.796875 
C 3.203125 40.09375 4 40.1875 5.09375 40.1875 
C 7.703125 40.1875 8.59375 38.59375 8.59375 33.796875 
L 8.59375 8.5 
C 8.59375 3.09375 7.203125 1.59375 1.59375 1.5 
L 1.59375 0 
L 23.796875 0 
L 23.796875 1.5 
C 18.5 1.6875 17 2.796875 17 6.6875 
L 17 34.890625 
C 17 35.09375 17.796875 36.09375 18.5 36.796875 
C 21 39.09375 25.296875 40.796875 28.796875 40.796875 
C 33.203125 40.796875 35.40625 37.296875 35.40625 30.296875 
L 35.40625 8.59375 
C 35.40625 3 34.296875 1.890625 28.59375 1.5 
L 28.59375 0 
L 51 0 
L 51 1.5 
C 45.296875 1.59375 43.796875 3.296875 43.796875 9.5 
L 43.796875 34.6875 
C 46.796875 39 50.09375 40.796875 54.703125 40.796875 
C 60.40625 40.796875 62.203125 38.09375 62.203125 29.796875 
L 62.203125 8.6875 
C 62.203125 3 61.40625 2.1875 55.59375 1.5 
L 55.59375 0 
L 77.5 0 
L 77.5 1.5 
L 74.90625 1.6875 
C 71.90625 1.890625 70.59375 3.6875 70.59375 7.59375 
L 70.59375 28.1875 
C 70.59375 40 66.703125 46 59 46 
C 53.203125 46 48.09375 43.390625 42.703125 37.59375 
C 40.90625 43.296875 37.5 46 32.09375 46 
C 27.703125 46 24.90625 44.59375 16.59375 38.296875 
L 16.59375 45.796875 
L 15.90625 46 
C 10.796875 44.09375 7.40625 42.984375 1.90625 41.484375 
z
" id="Nimbus_Roman_No9_L_Regular-109"/>
      <path d="M 15.296875 68.09375 
L 14.796875 68.296875 
C 10.59375 66.796875 7.90625 66 3.203125 64.6875 
L 0.296875 63.890625 
L 0.296875 62.296875 
C 0.90625 62.390625 1.296875 62.390625 2 62.390625 
C 6 62.390625 6.90625 61.5 6.90625 57.296875 
L 6.90625 5.390625 
C 6.90625 2.296875 15.40625 -1 23.40625 -1 
C 36.59375 -1 46.796875 9.984375 46.796875 24.296875 
C 46.796875 36.59375 39.203125 46 29.203125 46 
C 23.09375 46 17.296875 42.390625 15.296875 37.484375 
z
M 15.296875 32.1875 
C 15.296875 36.09375 20 39.6875 25.203125 39.6875 
C 33 39.6875 38 31.890625 38 19.6875 
C 38 8.59375 33.203125 2.1875 25 2.1875 
C 19.796875 2.1875 15.296875 4.484375 15.296875 6.984375 
z
" id="Nimbus_Roman_No9_L_Regular-98"/>
      <path d="M 0.703125 39 
C 2.09375 39.296875 3 39.390625 4.203125 39.390625 
C 6.703125 39.390625 7.59375 37.796875 7.59375 33.390625 
L 7.59375 8.390625 
C 7.59375 3.390625 6.90625 2.6875 0.5 1.5 
L 0.5 0 
L 24.5 0 
L 24.5 1.5 
C 17.703125 1.796875 16 3.296875 16 9 
L 16 31.5 
C 16 34.6875 20.296875 39.6875 23 39.6875 
C 23.59375 39.6875 24.5 39.1875 25.59375 38.1875 
C 27.203125 36.796875 28.296875 36.1875 29.59375 36.1875 
C 32 36.1875 33.5 37.890625 33.5 40.6875 
C 33.5 43.984375 31.40625 46 28 46 
C 23.796875 46 20.90625 43.6875 16 36.59375 
L 16 45.796875 
L 15.5 46 
C 10.203125 43.796875 6.59375 42.5 0.703125 40.59375 
z
" id="Nimbus_Roman_No9_L_Regular-114"/>
      <path d="M 29.5 68 
C 22.09375 63.1875 19.09375 60.59375 15.40625 55.984375 
C 8.296875 47.296875 4.796875 37.296875 4.796875 25.59375 
C 4.796875 12.890625 8.5 3.09375 17.296875 -7.109375 
C 21.40625 -11.90625 24 -14.109375 29.203125 -17.3125 
L 30.40625 -15.71875 
C 22.40625 -9.40625 19.59375 -5.90625 16.90625 1.59375 
C 14.5 8.28125 13.40625 15.890625 13.40625 25.890625 
C 13.40625 36.390625 14.703125 44.59375 17.40625 50.796875 
C 20.203125 56.984375 23.203125 60.59375 30.40625 66.390625 
z
" id="Nimbus_Roman_No9_L_Regular-40"/>
      <path d="M 36 42.390625 
C 31.40625 45.09375 28.40625 46 24.5 46 
C 12 46 2.40625 34.8125 2.40625 20.453125 
C 2.40625 7.890625 9 -1 18.40625 -1 
C 24.203125 -1 29.703125 1.59375 34.09375 6.390625 
L 34.09375 -12.40625 
C 34.09375 -18 32.296875 -19.5 25.203125 -20 
L 25.203125 -22 
L 48.796875 -22 
L 48.796875 -20.609375 
C 43.296875 -19.390625 42.5 -18.578125 42.5 -14.3125 
L 42.5 45.59375 
L 41.40625 45.59375 
z
M 34.09375 12.671875 
C 34.09375 10.28125 33.703125 8.984375 32.703125 8.1875 
C 30.5 6.296875 27.203125 5.09375 24.09375 5.09375 
C 21 5.09375 18.296875 6.09375 16.296875 8.078125 
C 13.09375 10.984375 11 17.453125 11 24.046875 
C 11 35.8125 16.296875 43.1875 24.796875 43.1875 
C 31 43.1875 34.09375 39.90625 34.09375 33.21875 
z
" id="Nimbus_Roman_No9_L_Regular-113"/>
      <path d="M 3.796875 -17.3125 
C 11.203125 -12.515625 14.203125 -9.90625 17.90625 -5.3125 
C 25 3.390625 28.5 13.390625 28.5 25.09375 
C 28.5 37.890625 24.796875 47.59375 16 57.796875 
C 11.90625 62.59375 9.296875 64.796875 4.09375 68 
L 2.90625 66.390625 
C 10.90625 60.09375 13.59375 56.59375 16.40625 49.09375 
C 18.796875 42.390625 19.90625 34.796875 19.90625 24.796875 
C 19.90625 14.390625 18.59375 6.09375 15.90625 -0.015625 
C 13.09375 -6.3125 10.09375 -9.90625 2.90625 -15.71875 
z
" id="Nimbus_Roman_No9_L_Regular-41"/>
     </defs>
     <g transform="translate(152.279434 420.331968)scale(0.2 -0.2)">
      <use transform="scale(0.996264)" xlink:href="#Nimbus_Roman_No9_L_Regular-87"/>
      <use transform="translate(86.077326 0)scale(0.996264)" xlink:href="#Nimbus_Roman_No9_L_Regular-97"/>
      <use transform="translate(128.318884 0)scale(0.996264)" xlink:href="#Nimbus_Roman_No9_L_Regular-118"/>
      <use transform="translate(176.638691 0)scale(0.996264)" xlink:href="#Nimbus_Roman_No9_L_Regular-101"/>
      <use transform="translate(245.77886 0)scale(0.996264)" xlink:href="#Nimbus_Roman_No9_L_Regular-110"/>
      <use transform="translate(295.592061 0)scale(0.996264)" xlink:href="#Nimbus_Roman_No9_L_Regular-117"/>
      <use transform="translate(345.405261 0)scale(0.996264)" xlink:href="#Nimbus_Roman_No9_L_Regular-109"/>
      <use transform="translate(422.913631 0)scale(0.996264)" xlink:href="#Nimbus_Roman_No9_L_Regular-98"/>
      <use transform="translate(472.726832 0)scale(0.996264)" xlink:href="#Nimbus_Roman_No9_L_Regular-101"/>
      <use transform="translate(516.960401 0)scale(0.996264)" xlink:href="#Nimbus_Roman_No9_L_Regular-114"/>
      <use transform="translate(575.042231 0)scale(0.996264)" xlink:href="#Nimbus_Roman_No9_L_Regular-40"/>
      <use transform="translate(608.21746 0)scale(0.996264)" xlink:href="#Nimbus_Roman_No9_L_Regular-113"/>
      <use transform="translate(658.030661 0)scale(0.996264)" xlink:href="#Nimbus_Roman_No9_L_Regular-41"/>
     </g>
    </g>
   </g>
   <g id="matplotlib.axis_2">
    <g id="ytick_1">
     <g id="line2d_5">
      <defs>
       <path d="M 0 0 
L -3.5 0 
" id="mf4b66545df" style="stroke:#000000;stroke-width:0.8;"/>
      </defs>
      <g>
       <use style="stroke:#000000;stroke-width:0.8;" x="54" xlink:href="#mf4b66545df" y="338.985863"/>
      </g>
     </g>
     <g id="text_6">
      <!-- $-2$ -->
      <defs>
       <path d="M 65.90625 23 
C 67.59375 23 69.40625 23 69.40625 25 
C 69.40625 27 67.59375 27 65.90625 27 
L 11.796875 27 
C 10.09375 27 8.296875 27 8.296875 25 
C 8.296875 23 10.09375 23 11.796875 23 
z
" id="CMSY10-0"/>
      </defs>
      <g transform="translate(21.555621 345.74044)scale(0.2 -0.2)">
       <use transform="scale(0.996264)" xlink:href="#CMSY10-0"/>
       <use transform="translate(77.408707 0)scale(0.996264)" xlink:href="#Nimbus_Roman_No9_L_Regular-50"/>
      </g>
     </g>
    </g>
    <g id="ytick_2">
     <g id="line2d_6">
      <g>
       <use style="stroke:#000000;stroke-width:0.8;" x="54" xlink:href="#mf4b66545df" y="290.971624"/>
      </g>
     </g>
     <g id="text_7">
      <!-- $0$ -->
      <g transform="translate(37.03736 297.726202)scale(0.2 -0.2)">
       <use transform="scale(0.996264)" xlink:href="#Nimbus_Roman_No9_L_Regular-48"/>
      </g>
     </g>
    </g>
    <g id="ytick_3">
     <g id="line2d_7">
      <g>
       <use style="stroke:#000000;stroke-width:0.8;" x="54" xlink:href="#mf4b66545df" y="242.957386"/>
      </g>
     </g>
     <g id="text_8">
      <!-- $2$ -->
      <g transform="translate(37.03736 249.711964)scale(0.2 -0.2)">
       <use transform="scale(0.996264)" xlink:href="#Nimbus_Roman_No9_L_Regular-50"/>
      </g>
     </g>
    </g>
    <g id="ytick_4">
     <g id="line2d_8">
      <g>
       <use style="stroke:#000000;stroke-width:0.8;" x="54" xlink:href="#mf4b66545df" y="194.943148"/>
      </g>
     </g>
     <g id="text_9">
      <!-- $4$ -->
      <defs>
       <path d="M 47.203125 23.390625 
L 37 23.390625 
L 37 68 
L 32.59375 68 
L 1.203125 23.390625 
L 1.203125 17 
L 29.296875 17 
L 29.296875 0 
L 37 0 
L 37 17 
L 47.203125 17 
z
M 29.203125 23.390625 
L 5.203125 23.390625 
L 29.203125 57.765625 
z
" id="Nimbus_Roman_No9_L_Regular-52"/>
      </defs>
      <g transform="translate(37.03736 201.697725)scale(0.2 -0.2)">
       <use transform="scale(0.996264)" xlink:href="#Nimbus_Roman_No9_L_Regular-52"/>
      </g>
     </g>
    </g>
    <g id="ytick_5">
     <g id="line2d_9">
      <g>
       <use style="stroke:#000000;stroke-width:0.8;" x="54" xlink:href="#mf4b66545df" y="146.928909"/>
      </g>
     </g>
     <g id="text_10">
      <!-- $6$ -->
      <defs>
       <path d="M 44.59375 68.59375 
C 33.203125 67.59375 27.40625 65.6875 20.09375 60.59375 
C 9.296875 52.890625 3.40625 41.484375 3.40625 28.140625 
C 3.40625 19.5 6.09375 10.75 10.40625 5.765625 
C 14.203125 1.390625 19.59375 -1 25.796875 -1 
C 38.203125 -1 46.796875 8.453125 46.796875 22.1875 
C 46.796875 34.90625 39.5 43 28 43 
C 23.59375 43 21.5 42.296875 15.203125 38.484375 
C 17.90625 53.59375 29.09375 64.390625 44.796875 67 
z
M 24.203125 38.390625 
C 32.796875 38.390625 37.796875 31.234375 37.796875 18.796875 
C 37.796875 7.859375 33.90625 1.796875 26.90625 1.796875 
C 18.09375 1.796875 12.703125 11.140625 12.703125 26.5625 
C 12.703125 31.625 13.5 34.421875 15.5 35.90625 
C 17.59375 37.5 20.703125 38.390625 24.203125 38.390625 
z
" id="Nimbus_Roman_No9_L_Regular-54"/>
      </defs>
      <g transform="translate(37.03736 153.683487)scale(0.2 -0.2)">
       <use transform="scale(0.996264)" xlink:href="#Nimbus_Roman_No9_L_Regular-54"/>
      </g>
     </g>
    </g>
    <g id="ytick_6">
     <g id="line2d_10">
      <g>
       <use style="stroke:#000000;stroke-width:0.8;" x="54" xlink:href="#mf4b66545df" y="98.914671"/>
      </g>
     </g>
     <g id="text_11">
      <!-- $8$ -->
      <defs>
       <path d="M 29 37.5 
C 38.90625 42.796875 42.40625 47 42.40625 53.796875 
C 42.40625 62 35.203125 68 25.203125 68 
C 14.296875 68 6.203125 61.296875 6.203125 52.203125 
C 6.203125 45.6875 8.09375 42.796875 18.59375 33.59375 
C 7.796875 25.390625 5.59375 22.296875 5.59375 15.5 
C 5.59375 5.796875 13.5 -1 24.796875 -1 
C 36.796875 -1 44.5 5.59375 44.5 15.890625 
C 44.5 23.59375 41.09375 28.5 29 37.5 
z
M 27.203125 27.1875 
C 34.5 22 36.90625 18.390625 36.90625 12.796875 
C 36.90625 6.296875 32.40625 1.796875 25.90625 1.796875 
C 18.296875 1.796875 13.203125 7.59375 13.203125 16.296875 
C 13.203125 22.6875 15.40625 26.890625 21.203125 31.59375 
z
M 26.09375 39.296875 
C 17.203125 45.09375 13.59375 49.6875 13.59375 55.296875 
C 13.59375 61.09375 18.09375 65.1875 24.40625 65.1875 
C 31.203125 65.1875 35.5 60.796875 35.5 53.890625 
C 35.5 48.1875 32.703125 43.6875 27 39.890625 
C 26.5 39.59375 26.5 39.59375 26.09375 39.296875 
z
" id="Nimbus_Roman_No9_L_Regular-56"/>
      </defs>
      <g transform="translate(37.03736 105.669249)scale(0.2 -0.2)">
       <use transform="scale(0.996264)" xlink:href="#Nimbus_Roman_No9_L_Regular-56"/>
      </g>
     </g>
    </g>
    <g id="text_12">
     <!-- Re($\lambda$) -->
     <defs>
      <path d="M 65.90625 1.890625 
C 62.09375 2.1875 60.09375 3.1875 57.203125 6.578125 
L 36.59375 31.796875 
C 43.296875 33.09375 46.296875 34.28125 49.59375 36.96875 
C 52.796875 39.5625 54.703125 43.75 54.703125 48.4375 
C 54.703125 52.71875 53.40625 56.40625 50.796875 59.296875 
C 47 63.390625 38.703125 66 29.296875 66 
L 1.703125 66 
L 1.703125 64.09375 
C 9.203125 63.296875 10.203125 62.203125 10.203125 55.125 
L 10.203125 11.953125 
C 10.203125 3.6875 9.203125 2.484375 1.703125 1.890625 
L 1.703125 0 
L 29.40625 0 
L 29.40625 1.890625 
C 21.703125 2.390625 20.40625 3.6875 20.40625 10.859375 
L 20.40625 30.5 
L 26 30.703125 
L 49.796875 0 
L 65.90625 0 
z
M 20.40625 58.6875 
C 20.40625 61.484375 21.5 62.296875 25.5 62.296875 
C 38 62.296875 43.796875 57.984375 43.796875 48.59375 
C 43.796875 43.59375 41.703125 39.390625 38.09375 37.484375 
C 33.5 34.890625 30 34.296875 20.40625 34.09375 
z
" id="Nimbus_Roman_No9_L_Regular-82"/>
      <path d="M 7.5 57.03125 
C 8.203125 62.703125 11.09375 66 15.59375 66 
C 18.796875 66 21.5 63.5 23 59.03125 
C 23.703125 57.03125 24.59375 53.75 25.5 49.96875 
L 2.40625 0.296875 
L 11.796875 0.296875 
L 28.796875 35.953125 
C 32 16.546875 33.59375 9.484375 35.40625 5.59375 
C 37.59375 1.296875 40.796875 -1 44.5 -1 
C 48.40625 -1 51.5 1.390625 53.203125 5.796875 
C 54.296875 8.484375 54.703125 11.171875 54.796875 15.84375 
L 52.703125 15.84375 
C 51.90625 10.671875 49.59375 7.796875 46 7.796875 
C 43 7.796875 40.40625 9.6875 38.796875 13.171875 
C 37.5 15.75 36.796875 18.34375 35.40625 25.703125 
L 32.703125 38.53125 
C 32.59375 38.828125 32.5 39.53125 32.296875 40.53125 
C 30 53.359375 26.40625 65.5 24 69.09375 
C 21.796875 72.296875 18.796875 74 15.5 74 
C 9.40625 74 6.203125 68.796875 5.09375 57.03125 
z
" id="Standard_Symbols_L-108"/>
     </defs>
     <g transform="translate(13.241964 239.31826)rotate(-90)scale(0.2 -0.2)">
      <use transform="scale(0.996264)" xlink:href="#Nimbus_Roman_No9_L_Regular-82"/>
      <use transform="translate(66.450031 0)scale(0.996264)" xlink:href="#Nimbus_Roman_No9_L_Regular-101"/>
      <use transform="translate(110.6836 0)scale(0.996264)" xlink:href="#Nimbus_Roman_No9_L_Regular-40"/>
      <use transform="translate(143.85883 0)scale(0.996264)" xlink:href="#Standard_Symbols_L-108"/>
      <use transform="translate(210.807464 0)scale(0.996264)" xlink:href="#Nimbus_Roman_No9_L_Regular-41"/>
     </g>
    </g>
   </g>
   <g id="line2d_11">
    <path clip-path="url(#pd4bc9ce541)" d="M 69.218182 314.978743 
L 72.292562 291.08268 
L 75.366942 291.426361 
L 78.441322 292.038985 
L 81.515702 293.003 
L 84.590083 294.519746 
L 87.664463 297.369946 
L 90.738843 300.826915 
L 93.813223 300.17414 
L 96.887603 299.437081 
L 99.961983 298.616772 
L 103.036364 297.714365 
L 106.110744 296.731136 
L 109.185124 295.668482 
L 112.259504 294.527921 
L 115.333884 293.311093 
L 118.408264 292.019759 
L 121.482645 290.655801 
L 124.557025 289.221225 
L 127.631405 287.718154 
L 130.705785 286.148838 
L 133.780165 284.515642 
L 136.854545 282.821059 
L 139.928926 281.067699 
L 143.003306 279.258295 
L 146.077686 277.395701 
L 149.152066 275.482894 
L 152.226446 273.522969 
L 155.300826 271.519147 
L 158.375207 269.474767 
L 161.449587 267.393292 
L 164.523967 265.278303 
L 167.598347 252.232182 
L 170.672727 242.957386 
L 173.747107 235.195902 
L 176.821488 228.024509 
L 179.895868 221.16371 
L 182.970248 214.490822 
L 186.044628 207.943045 
L 189.119008 201.485983 
L 192.193388 195.100646 
L 195.267769 188.777226 
L 198.342149 182.511788 
L 201.416529 176.304377 
L 204.490909 170.157865 
L 207.565289 164.077218 
L 210.639669 158.069013 
L 213.71405 152.141107 
L 216.78843 146.302409 
L 219.86281 140.562712 
L 222.93719 134.93258 
L 226.01157 129.42326 
L 229.08595 124.046619 
L 232.160331 118.815096 
L 235.234711 113.741673 
L 238.309091 108.839849 
L 241.383471 104.12363 
L 244.457851 99.607516 
L 247.532231 95.306502 
L 250.606612 91.236082 
L 253.680992 87.412257 
L 256.755372 83.851551 
L 259.829752 80.571026 
L 262.904132 77.58831 
L 265.978512 74.921628 
L 269.052893 72.589837 
L 272.127273 70.612478 
L 275.201653 69.009825 
L 278.276033 67.80296 
L 281.350413 67.013851 
L 284.424793 66.665455 
L 287.499174 66.781836 
L 290.573554 67.388323 
L 293.647934 68.511692 
L 296.722314 70.1804 
L 299.796694 72.424887 
L 302.871074 75.277945 
L 305.945455 78.775218 
L 309.019835 82.955844 
L 312.094215 87.863323 
L 315.168595 93.546694 
L 318.242975 100.062198 
L 321.317355 107.475641 
L 324.391736 115.865925 
L 327.466116 125.330467 
L 330.540496 135.993962 
L 333.614876 148.023414 
L 336.689256 161.65596 
L 339.763636 177.256111 
L 342.838017 195.452878 
L 345.912397 217.560266 
L 348.986777 247.740806 
L 352.061157 292.352075 
L 355.135537 300.217587 
L 358.209917 308.520186 
L 361.284298 317.271227 
L 364.358678 326.482189 
L 367.433058 336.164671 
L 370.507438 346.330395 
L 373.581818 356.991202 
" style="fill:none;stroke:#ff0000;stroke-linecap:square;stroke-width:1.5;"/>
   </g>
   <g id="line2d_12">
    <path clip-path="url(#pd4bc9ce541)" d="M 69.218182 290.971624 
L 72.292562 314.779517 
L 75.366942 314.171447 
L 78.441322 313.118579 
L 81.515702 311.539072 
L 84.590083 309.232438 
L 87.664463 305.419045 
L 90.738843 300.826915 
L 93.813223 300.17414 
L 96.887603 299.437081 
L 99.961983 298.616772 
L 103.036364 297.714365 
L 106.110744 296.731136 
L 109.185124 295.668482 
L 112.259504 294.527921 
L 115.333884 293.311093 
L 118.408264 292.019759 
L 121.482645 290.655801 
L 124.557025 289.221225 
L 127.631405 287.718154 
L 130.705785 286.148838 
L 133.780165 284.515642 
L 136.854545 282.821059 
L 139.928926 281.067699 
L 143.003306 279.258295 
L 146.077686 277.395701 
L 149.152066 275.482894 
L 152.226446 273.522969 
L 155.300826 271.519147 
L 158.375207 269.474767 
L 161.449587 267.393292 
L 164.523967 265.278303 
L 167.598347 274.034829 
L 170.672727 278.968065 
L 173.747107 282.343919 
L 176.821488 285.09375 
L 179.895868 287.505436 
L 182.970248 289.710284 
L 186.044628 291.779959 
L 189.119008 293.757968 
L 192.193388 295.672652 
L 195.267769 297.543417 
L 198.342149 299.384034 
L 201.416529 301.20454 
L 204.490909 303.012387 
L 207.565289 304.813176 
L 210.639669 306.61114 
L 213.71405 308.409476 
L 216.78843 310.21057 
L 219.86281 312.016167 
L 222.93719 313.827486 
L 226.01157 315.645303 
L 229.08595 317.470021 
L 232.160331 319.301709 
L 235.234711 321.140139 
L 238.309091 322.984808 
L 241.383471 324.834951 
L 244.457851 326.689549 
L 247.532231 328.547332 
L 250.606612 330.406774 
L 253.680992 332.266084 
L 256.755372 334.123193 
L 259.829752 335.975736 
L 262.904132 337.821024 
L 265.978512 339.656015 
L 269.052893 341.477276 
L 272.127273 343.280937 
L 275.201653 345.062632 
L 278.276033 346.817437 
L 281.350413 348.539778 
L 284.424793 350.223341 
L 287.499174 351.860942 
L 290.573554 353.44438 
L 293.647934 354.964248 
L 296.722314 356.409699 
L 299.796694 357.76815 
L 302.871074 359.024905 
L 305.945455 360.16266 
L 309.019835 361.160862 
L 312.094215 361.994838 
L 315.168595 362.634616 
L 318.242975 363.04327 
L 321.317355 363.174545 
L 324.391736 362.969341 
L 327.466116 362.350282 
L 330.540496 361.212954 
L 333.614876 359.410882 
L 336.689256 356.727699 
L 339.763636 352.819904 
L 342.838017 347.079746 
L 345.912397 338.214715 
L 348.986777 322.084022 
L 352.061157 292.352075 
L 355.135537 300.217587 
L 358.209917 308.520186 
L 361.284298 317.271227 
L 364.358678 326.482189 
L 367.433058 336.164671 
L 370.507438 346.330395 
L 373.581818 356.991202 
" style="fill:none;stroke:#0000ff;stroke-linecap:square;stroke-width:1.5;"/>
   </g>
   <g id="patch_3">
    <path d="M 54 378 
L 54 51.84 
" style="fill:none;stroke:#000000;stroke-linecap:square;stroke-linejoin:miter;stroke-width:0.8;"/>
   </g>
   <g id="patch_4">
    <path d="M 388.8 378 
L 388.8 51.84 
" style="fill:none;stroke:#000000;stroke-linecap:square;stroke-linejoin:miter;stroke-width:0.8;"/>
   </g>
   <g id="patch_5">
    <path d="M 54 378 
L 388.8 378 
" style="fill:none;stroke:#000000;stroke-linecap:square;stroke-linejoin:miter;stroke-width:0.8;"/>
   </g>
   <g id="patch_6">
    <path d="M 54 51.84 
L 388.8 51.84 
" style="fill:none;stroke:#000000;stroke-linecap:square;stroke-linejoin:miter;stroke-width:0.8;"/>
   </g>
   <g id="text_13">
    <!-- Eigenvalue spectrum -->
    <defs>
     <path d="M 59.703125 16.984375 
L 56.90625 16.984375 
C 51.90625 6.109375 47.59375 3.6875 33.296875 3.6875 
L 30.59375 3.6875 
C 25.703125 3.6875 21.5 4.203125 20.796875 4.90625 
C 20.296875 5.203125 20.09375 6.3125 20.09375 8.015625 
L 20.09375 32.890625 
L 35.5 32.890625 
C 43.703125 32.890625 45.203125 31.578125 46.5 23.234375 
L 48.796875 23.234375 
L 48.796875 46.34375 
L 46.5 46.34375 
C 45.796875 42.3125 45.40625 40.828125 44.296875 39.453125 
C 43 37.78125 40.203125 37 35.5 37 
L 20.09375 37 
L 20.09375 58.84375 
C 20.09375 61.59375 20.703125 62.1875 23.40625 62.1875 
L 36.90625 62.1875 
C 48.203125 62.1875 50.40625 60.71875 52.09375 51.859375 
L 54.59375 51.859375 
L 54.296875 66 
L 1.203125 66 
L 1.203125 64.09375 
C 8.59375 63.5 9.90625 62.109375 9.90625 55.125 
L 9.90625 10.859375 
C 9.90625 3.890625 8.5 2.390625 1.203125 1.890625 
L 1.203125 0 
L 55.203125 0 
z
" id="Nimbus_Roman_No9_L_Regular-69"/>
     <path d="M 17.5 46 
L 2 40.5 
L 2 39 
L 2.796875 39.09375 
C 4 39.296875 5.296875 39.390625 6.203125 39.390625 
C 8.59375 39.390625 9.5 37.796875 9.5 33.390625 
L 9.5 10.1875 
C 9.5 3 8.5 1.890625 1.59375 1.5 
L 1.59375 0 
L 25.296875 0 
L 25.296875 1.5 
C 18.703125 2 17.90625 3 17.90625 10.1875 
L 17.90625 45.6875 
z
M 12.796875 68 
C 10.09375 68 7.796875 65.6875 7.796875 62.890625 
C 7.796875 60.09375 10 57.796875 12.796875 57.796875 
C 15.703125 57.796875 18 59.984375 18 62.890625 
C 18 65.6875 15.703125 68 12.796875 68 
z
" id="Nimbus_Roman_No9_L_Regular-105"/>
     <path d="M 47 38.09375 
L 47 42 
L 39.296875 42 
C 37.296875 42 35.796875 42.71875 33.796875 43.6875 
L 31.59375 44.484375 
C 28.90625 45.484375 26.203125 46 23.59375 46 
C 14.296875 46 6.90625 38.09375 6.90625 29.328125 
C 6.90625 23.265625 9.59375 19.609375 16.203125 16.390625 
C 14.296875 14.59375 12.5 12.90625 11.90625 12.40625 
C 8.59375 9.53125 7.296875 7.546875 7.296875 5.5625 
C 7.296875 3.484375 8.5 2.296875 12.59375 0.296875 
C 5.5 -4.9375 2.796875 -8.265625 2.796875 -11.984375 
C 2.796875 -17.3125 10.59375 -21.703125 20.09375 -21.703125 
C 27.59375 -21.703125 35.40625 -19.109375 40.59375 -14.90625 
C 44.40625 -11.78125 46.09375 -8.5625 46.09375 -4.734375 
C 46.09375 1.5 41.40625 5.671875 34 5.96875 
L 21.09375 6.5625 
C 15.796875 6.75 13.296875 7.65625 13.296875 9.234375 
C 13.296875 11.21875 16.59375 14.703125 19.296875 15.5 
C 20.203125 15.390625 20.90625 15.296875 21.203125 15.296875 
C 23.09375 15.09375 24.40625 15 25 15 
C 28.703125 15 32.703125 16.5 35.796875 19.125 
C 39.09375 21.828125 40.59375 25.1875 40.59375 30 
C 40.59375 32.796875 40.09375 35.015625 38.703125 38.09375 
z
M 14.703125 0 
C 18 -0.71875 26 -1.3125 30.90625 -1.3125 
C 40 -1.3125 43.296875 -2.625 43.296875 -6.25 
C 43.296875 -12.078125 35.703125 -16 24.40625 -16 
C 15.59375 -16 9.796875 -13.09375 9.796875 -8.65625 
C 9.796875 -6.34375 10.5 -5.03125 14.703125 0 
z
M 15.203125 33.28125 
C 15.203125 38.984375 18 43.1875 22.59375 43.1875 
C 25.703125 43.1875 28.296875 40.796875 29.90625 37.796875 
C 31.703125 34.4375 32.90625 30 32.90625 26.25 
C 32.90625 20.859375 30 17.5 25.40625 17.5 
C 19.40625 17.5 15.203125 23.75 15.203125 32.984375 
z
" id="Nimbus_Roman_No9_L_Regular-103"/>
     <path d="M 1.90625 62.296875 
L 2.5 62.296875 
C 3.59375 62.390625 4.796875 62.5 5.59375 62.5 
C 8.796875 62.5 9.796875 61.09375 9.796875 56.390625 
L 9.796875 8.6875 
C 9.796875 3.296875 8.40625 2 2.09375 1.5 
L 2.09375 0 
L 25.703125 0 
L 25.703125 1.5 
C 19.40625 1.890625 18.203125 2.890625 18.203125 8.390625 
L 18.203125 68.09375 
L 17.796875 68.296875 
C 12.59375 66.59375 8.796875 65.59375 1.90625 63.890625 
z
" id="Nimbus_Roman_No9_L_Regular-108"/>
     <path d="M 31.5 31.390625 
L 31.09375 45 
L 30 45 
L 29.796875 44.796875 
C 28.90625 44.09375 28.796875 43.984375 28.40625 43.984375 
C 27.796875 43.984375 26.796875 44.1875 25.703125 44.6875 
C 23.5 45.59375 21.296875 46 18.703125 46 
C 10.796875 46 5.09375 40.890625 5.09375 33.671875 
C 5.09375 28.0625 8.296875 24.046875 16.796875 19.234375 
L 22.59375 15.921875 
C 26.09375 13.921875 27.796875 11.515625 27.796875 8.40625 
C 27.796875 4 24.59375 1.1875 19.5 1.1875 
C 16.09375 1.1875 13 2.5 11.09375 4.703125 
C 9 7.203125 8.09375 9.515625 6.796875 15.21875 
L 5.203125 15.21875 
L 5.203125 -0.40625 
L 6.5 -0.40625 
C 7.203125 0.59375 7.59375 0.796875 8.796875 0.796875 
C 9.703125 0.796875 11.09375 0.59375 13.40625 0 
C 16.203125 -0.609375 18.90625 -1 20.703125 -1 
C 28.40625 -1 34.796875 4.796875 34.796875 11.8125 
C 34.796875 16.828125 32.40625 20.140625 26.40625 23.75 
L 15.59375 30.15625 
C 12.796875 31.765625 11.296875 34.265625 11.296875 36.96875 
C 11.296875 40.984375 14.40625 43.796875 19 43.796875 
C 24.703125 43.796875 27.703125 40.390625 30 31.46875 
z
" id="Nimbus_Roman_No9_L_Regular-115"/>
     <path d="M 0.90625 39.296875 
C 1.796875 39.390625 2.5 39.390625 3.40625 39.390625 
C 6.796875 39.390625 7.5 38.390625 7.5 33.703125 
L 7.5 -13.109375 
C 7.5 -18.3125 6.40625 -19.40625 0.5 -20 
L 0.5 -21.703125 
L 24.703125 -21.703125 
L 24.703125 -20 
C 17.203125 -19.90625 15.90625 -18.796875 15.90625 -12.46875 
L 15.90625 3.296875 
C 19.40625 0 21.796875 -1 26 -1 
C 37.796875 -1 47 10.1875 47 24.6875 
C 47 37.09375 40 46 30.296875 46 
C 24.703125 46 20.296875 43.484375 15.90625 38.09375 
L 15.90625 45.796875 
L 15.296875 46 
C 9.90625 43.890625 6.40625 42.59375 0.90625 40.890625 
z
M 15.90625 33.390625 
C 15.90625 36.390625 21.5 39.984375 26.09375 39.984375 
C 33.5 39.984375 38.40625 32.390625 38.40625 20.796875 
C 38.40625 9.6875 33.5 2.1875 26.296875 2.1875 
C 21.59375 2.1875 15.90625 5.796875 15.90625 8.796875 
z
" id="Nimbus_Roman_No9_L_Regular-112"/>
     <path d="M 39.796875 15.59375 
C 35 8.59375 31.40625 6.1875 25.703125 6.1875 
C 16.59375 6.1875 10.203125 14.1875 10.203125 25.6875 
C 10.203125 35.984375 15.703125 43.09375 23.796875 43.09375 
C 27.40625 43.09375 28.703125 41.984375 29.703125 38.296875 
L 30.296875 36.09375 
C 31.09375 33.296875 32.90625 31.484375 35 31.484375 
C 37.59375 31.484375 39.796875 33.390625 39.796875 35.6875 
C 39.796875 41.296875 32.796875 46 24.40625 46 
C 19.5 46 14.40625 43.984375 10.296875 40.390625 
C 5.296875 35.984375 2.5 29.1875 2.5 21.296875 
C 2.5 8.296875 10.40625 -1 21.5 -1 
C 26 -1 30 0.59375 33.59375 3.6875 
C 36.296875 6.09375 38.203125 8.796875 41.203125 14.6875 
z
" id="Nimbus_Roman_No9_L_Regular-99"/>
     <path d="M 25.5 45 
L 15.40625 45 
L 15.40625 56.59375 
C 15.40625 57.59375 15.296875 57.890625 14.703125 57.890625 
C 14 57 13.40625 56.09375 12.703125 55.09375 
C 8.90625 49.59375 4.59375 44.796875 3 44.390625 
C 1.90625 43.6875 1.296875 42.984375 1.296875 42.484375 
C 1.296875 42.1875 1.40625 41.984375 1.703125 41.796875 
L 7 41.796875 
L 7 11.6875 
C 7 3.296875 10 -1 15.90625 -1 
C 20.796875 -1 24.59375 1.390625 27.90625 6.59375 
L 26.59375 7.6875 
C 24.5 5.1875 22.796875 4.1875 20.59375 4.1875 
C 16.90625 4.1875 15.40625 6.890625 15.40625 13.1875 
L 15.40625 41.796875 
L 25.5 41.796875 
z
" id="Nimbus_Roman_No9_L_Regular-116"/>
    </defs>
    <g transform="translate(138.212708 45.84)scale(0.2 -0.2)">
     <use transform="scale(0.996264)" xlink:href="#Nimbus_Roman_No9_L_Regular-69"/>
     <use transform="translate(60.871631 0)scale(0.996264)" xlink:href="#Nimbus_Roman_No9_L_Regular-105"/>
     <use transform="translate(88.5668 0)scale(0.996264)" xlink:href="#Nimbus_Roman_No9_L_Regular-103"/>
     <use transform="translate(138.380001 0)scale(0.996264)" xlink:href="#Nimbus_Roman_No9_L_Regular-101"/>
     <use transform="translate(182.613569 0)scale(0.996264)" xlink:href="#Nimbus_Roman_No9_L_Regular-110"/>
     <use transform="translate(228.442656 0)scale(0.996264)" xlink:href="#Nimbus_Roman_No9_L_Regular-118"/>
     <use transform="translate(275.765227 0)scale(0.996264)" xlink:href="#Nimbus_Roman_No9_L_Regular-97"/>
     <use transform="translate(319.998796 0)scale(0.996264)" xlink:href="#Nimbus_Roman_No9_L_Regular-108"/>
     <use transform="translate(347.693966 0)scale(0.996264)" xlink:href="#Nimbus_Roman_No9_L_Regular-117"/>
     <use transform="translate(397.507166 0)scale(0.996264)" xlink:href="#Nimbus_Roman_No9_L_Regular-101"/>
     <use transform="translate(466.647335 0)scale(0.996264)" xlink:href="#Nimbus_Roman_No9_L_Regular-115"/>
     <use transform="translate(505.401041 0)scale(0.996264)" xlink:href="#Nimbus_Roman_No9_L_Regular-112"/>
     <use transform="translate(555.214242 0)scale(0.996264)" xlink:href="#Nimbus_Roman_No9_L_Regular-101"/>
     <use transform="translate(599.44781 0)scale(0.996264)" xlink:href="#Nimbus_Roman_No9_L_Regular-99"/>
     <use transform="translate(643.681379 0)scale(0.996264)" xlink:href="#Nimbus_Roman_No9_L_Regular-116"/>
     <use transform="translate(671.376549 0)scale(0.996264)" xlink:href="#Nimbus_Roman_No9_L_Regular-114"/>
     <use transform="translate(704.551778 0)scale(0.996264)" xlink:href="#Nimbus_Roman_No9_L_Regular-117"/>
     <use transform="translate(754.364979 0)scale(0.996264)" xlink:href="#Nimbus_Roman_No9_L_Regular-109"/>
    </g>
   </g>
   <g id="legend_1">
    <g id="patch_7">
     <path d="M 68 124.467316 
L 186.21629 124.467316 
Q 190.21629 124.467316 190.21629 120.467316 
L 190.21629 65.84 
Q 190.21629 61.84 186.21629 61.84 
L 68 61.84 
Q 64 61.84 64 65.84 
L 64 120.467316 
Q 64 124.467316 68 124.467316 
z
" style="fill:#ffffff;opacity:0.8;stroke:#cccccc;stroke-linejoin:miter;"/>
    </g>
    <g id="line2d_13">
     <path d="M 72 76.84 
L 112 76.84 
" style="fill:none;stroke:#ff0000;stroke-linecap:square;stroke-width:1.5;"/>
    </g>
    <g id="line2d_14"/>
    <g id="text_14">
     <!-- Re($\lambda_1$) -->
     <g transform="translate(128 83.84)scale(0.2 -0.2)">
      <use transform="translate(0 15.050129)scale(0.996264)" xlink:href="#Nimbus_Roman_No9_L_Regular-82"/>
      <use transform="translate(66.450031 15.050129)scale(0.996264)" xlink:href="#Nimbus_Roman_No9_L_Regular-101"/>
      <use transform="translate(110.6836 15.050129)scale(0.996264)" xlink:href="#Nimbus_Roman_No9_L_Regular-40"/>
      <use transform="translate(143.85883 15.050129)scale(0.996264)" xlink:href="#Standard_Symbols_L-108"/>
      <use transform="translate(198.553596 0)scale(0.737241)" xlink:href="#Nimbus_Roman_No9_L_Regular-49"/>
      <use transform="translate(235.91377 15.050129)scale(0.996264)" xlink:href="#Nimbus_Roman_No9_L_Regular-41"/>
     </g>
    </g>
    <g id="line2d_15">
     <path d="M 72 105.153658 
L 112 105.153658 
" style="fill:none;stroke:#0000ff;stroke-linecap:square;stroke-width:1.5;"/>
    </g>
    <g id="line2d_16"/>
    <g id="text_15">
     <!-- Re($\lambda_2$) -->
     <g transform="translate(128 112.153658)scale(0.2 -0.2)">
      <use transform="translate(0 15.050129)scale(0.996264)" xlink:href="#Nimbus_Roman_No9_L_Regular-82"/>
      <use transform="translate(66.450031 15.050129)scale(0.996264)" xlink:href="#Nimbus_Roman_No9_L_Regular-101"/>
      <use transform="translate(110.6836 15.050129)scale(0.996264)" xlink:href="#Nimbus_Roman_No9_L_Regular-40"/>
      <use transform="translate(143.85883 15.050129)scale(0.996264)" xlink:href="#Standard_Symbols_L-108"/>
      <use transform="translate(198.553596 0)scale(0.737241)" xlink:href="#Nimbus_Roman_No9_L_Regular-50"/>
      <use transform="translate(235.91377 15.050129)scale(0.996264)" xlink:href="#Nimbus_Roman_No9_L_Regular-41"/>
     </g>
    </g>
   </g>
  </g>
 </g>
 <defs>
  <clipPath id="pd4bc9ce541">
   <rect height="326.16" width="334.8" x="54" y="51.84"/>
  </clipPath>
 </defs>
</svg>
