<?xml version="1.0" encoding="utf-8" standalone="no"?>
<!DOCTYPE svg PUBLIC "-//W3C//DTD SVG 1.1//EN"
  "http://www.w3.org/Graphics/SVG/1.1/DTD/svg11.dtd">
<!-- Created with matplotlib (http://matplotlib.org/) -->
<svg height="432pt" version="1.1" viewBox="0 0 432 432" width="432pt" xmlns="http://www.w3.org/2000/svg" xmlns:xlink="http://www.w3.org/1999/xlink">
 <defs>
  <style type="text/css">
*{stroke-linecap:butt;stroke-linejoin:round;}
  </style>
 </defs>
 <g id="figure_1">
  <g id="patch_1">
   <path d="M 0 432 
L 432 432 
L 432 0 
L 0 0 
z
" style="fill:#ffffff;"/>
  </g>
  <g id="axes_1">
   <g id="patch_2">
    <path d="M 54 378 
L 388.8 378 
L 388.8 51.84 
L 54 51.84 
z
" style="fill:#ffffff;"/>
   </g>
   <g id="matplotlib.axis_1">
    <g id="xtick_1">
     <g id="line2d_1">
      <defs>
       <path d="M 0 0 
L 0 3.5 
" id="m11632af07b" style="stroke:#000000;stroke-width:0.8;"/>
      </defs>
      <g>
       <use style="stroke:#000000;stroke-width:0.8;" x="69.218182" xlink:href="#m11632af07b" y="378"/>
      </g>
     </g>
     <g id="text_1">
      <!-- $-10$ -->
      <defs>
       <path d="M 65.90625 23 
C 67.59375 23 69.40625 23 69.40625 25 
C 69.40625 27 67.59375 27 65.90625 27 
L 11.796875 27 
C 10.09375 27 8.296875 27 8.296875 25 
C 8.296875 23 10.09375 23 11.796875 23 
z
" id="CMSY10-0"/>
       <path d="M 29.09375 68 
L 11.09375 59 
L 11.09375 57.59375 
C 12.296875 58.09375 13.40625 58.484375 13.796875 58.6875 
C 15.59375 59.390625 17.296875 59.78125 18.296875 59.78125 
C 20.40625 59.78125 21.296875 58.296875 21.296875 55.078125 
L 21.296875 9.359375 
C 21.296875 6.03125 20.5 3.71875 18.90625 2.796875 
C 17.40625 1.890625 16 1.59375 11.796875 1.5 
L 11.796875 0 
L 39.40625 0 
L 39.40625 1.5 
C 31.5 1.59375 29.90625 2.609375 29.90625 7.453125 
L 29.90625 67.796875 
z
" id="Nimbus_Roman_No9_L_Regular-49"/>
       <path d="M 25.40625 68 
C 19.90625 68 15.703125 66.296875 12 62.796875 
C 6.203125 57.203125 2.40625 45.6875 2.40625 34 
C 2.40625 23.09375 5.703125 11.390625 10.40625 5.796875 
C 14.09375 1.390625 19.203125 -1 25 -1 
C 30.09375 -1 34.40625 0.6875 38 4.1875 
C 43.796875 9.6875 47.59375 21.296875 47.59375 33.390625 
C 47.59375 53.890625 38.5 68 25.40625 68 
z
M 25.09375 65.390625 
C 33.5 65.390625 38 54.09375 38 33.1875 
C 38 12.296875 33.59375 1.59375 25 1.59375 
C 16.40625 1.59375 12 12.296875 12 33.09375 
C 12 54.296875 16.5 65.390625 25.09375 65.390625 
z
" id="Nimbus_Roman_No9_L_Regular-48"/>
      </defs>
      <g transform="translate(51.514673 398.509155)scale(0.2 -0.2)">
       <use transform="scale(0.996264)" xlink:href="#CMSY10-0"/>
       <use transform="translate(77.408707 0)scale(0.996264)" xlink:href="#Nimbus_Roman_No9_L_Regular-49"/>
       <use transform="translate(127.221908 0)scale(0.996264)" xlink:href="#Nimbus_Roman_No9_L_Regular-48"/>
      </g>
     </g>
    </g>
    <g id="xtick_2">
     <g id="line2d_2">
      <g>
       <use style="stroke:#000000;stroke-width:0.8;" x="145.309091" xlink:href="#m11632af07b" y="378"/>
      </g>
     </g>
     <g id="text_2">
      <!-- $-5$ -->
      <defs>
       <path d="M 18.09375 58.09375 
L 37.703125 58.09375 
C 39.296875 58.09375 39.703125 58.296875 40 58.984375 
L 43.796875 67.890625 
L 42.90625 68.59375 
C 41.40625 66.5 40.40625 66 38.296875 66 
L 17.40625 66 
L 6.5 42.453125 
C 6.40625 42.265625 6.40625 42.15625 6.40625 41.96875 
C 6.40625 41.46875 6.796875 41.171875 7.59375 41.171875 
C 10.796875 41.171875 14.796875 40.484375 18.90625 39.1875 
C 30.40625 35.53125 35.703125 29.40625 35.703125 19.609375 
C 35.703125 10.109375 29.59375 2.6875 21.796875 2.6875 
C 19.796875 2.6875 18.09375 3.390625 15.09375 5.5625 
C 11.90625 7.84375 9.59375 8.828125 7.5 8.828125 
C 4.59375 8.828125 3.203125 7.640625 3.203125 5.171875 
C 3.203125 1.390625 7.90625 -1 15.40625 -1 
C 23.796875 -1 31 1.6875 36 6.75 
C 40.59375 11.203125 42.703125 16.84375 42.703125 24.359375 
C 42.703125 31.484375 40.796875 36.03125 35.796875 40.96875 
C 31.40625 45.328125 25.703125 47.609375 13.90625 49.6875 
z
" id="Nimbus_Roman_No9_L_Regular-53"/>
      </defs>
      <g transform="translate(132.586902 398.509155)scale(0.2 -0.2)">
       <use transform="scale(0.996264)" xlink:href="#CMSY10-0"/>
       <use transform="translate(77.408707 0)scale(0.996264)" xlink:href="#Nimbus_Roman_No9_L_Regular-53"/>
      </g>
     </g>
    </g>
    <g id="xtick_3">
     <g id="line2d_3">
      <g>
       <use style="stroke:#000000;stroke-width:0.8;" x="221.4" xlink:href="#m11632af07b" y="378"/>
      </g>
     </g>
     <g id="text_3">
      <!-- $0$ -->
      <g transform="translate(216.41868 398.509155)scale(0.2 -0.2)">
       <use transform="scale(0.996264)" xlink:href="#Nimbus_Roman_No9_L_Regular-48"/>
      </g>
     </g>
    </g>
    <g id="xtick_4">
     <g id="line2d_4">
      <g>
       <use style="stroke:#000000;stroke-width:0.8;" x="297.490909" xlink:href="#m11632af07b" y="378"/>
      </g>
     </g>
     <g id="text_4">
      <!-- $5$ -->
      <g transform="translate(292.509589 398.509155)scale(0.2 -0.2)">
       <use transform="scale(0.996264)" xlink:href="#Nimbus_Roman_No9_L_Regular-53"/>
      </g>
     </g>
    </g>
    <g id="xtick_5">
     <g id="line2d_5">
      <g>
       <use style="stroke:#000000;stroke-width:0.8;" x="373.581818" xlink:href="#m11632af07b" y="378"/>
      </g>
     </g>
     <g id="text_5">
      <!-- $10$ -->
      <g transform="translate(363.619178 398.509155)scale(0.2 -0.2)">
       <use transform="scale(0.996264)" xlink:href="#Nimbus_Roman_No9_L_Regular-49"/>
       <use transform="translate(49.8132 0)scale(0.996264)" xlink:href="#Nimbus_Roman_No9_L_Regular-48"/>
      </g>
     </g>
    </g>
   </g>
   <g id="matplotlib.axis_2">
    <g id="ytick_1">
     <g id="line2d_6">
      <defs>
       <path d="M 0 0 
L -3.5 0 
" id="m87d1560e88" style="stroke:#000000;stroke-width:0.8;"/>
      </defs>
      <g>
       <use style="stroke:#000000;stroke-width:0.8;" x="54" xlink:href="#m87d1560e88" y="363.17565"/>
      </g>
     </g>
     <g id="text_6">
      <!-- $0.0$ -->
      <defs>
       <path d="M 19.203125 5.296875 
C 19.203125 8.1875 16.796875 10.59375 13.90625 10.59375 
C 11 10.59375 8.59375 8.1875 8.59375 5.296875 
C 8.59375 2.390625 11 0 13.90625 0 
C 16.796875 0 19.203125 2.390625 19.203125 5.296875 
z
" id="CMMI10-58"/>
      </defs>
      <g transform="translate(21.555621 369.930228)scale(0.2 -0.2)">
       <use transform="scale(0.996264)" xlink:href="#Nimbus_Roman_No9_L_Regular-48"/>
       <use transform="translate(49.8132 0)scale(0.996264)" xlink:href="#CMMI10-58"/>
       <use transform="translate(77.408707 0)scale(0.996264)" xlink:href="#Nimbus_Roman_No9_L_Regular-48"/>
      </g>
     </g>
    </g>
    <g id="ytick_2">
     <g id="line2d_7">
      <g>
       <use style="stroke:#000000;stroke-width:0.8;" x="54" xlink:href="#m87d1560e88" y="289.048101"/>
      </g>
     </g>
     <g id="text_7">
      <!-- $0.5$ -->
      <g transform="translate(21.555621 295.802679)scale(0.2 -0.2)">
       <use transform="scale(0.996264)" xlink:href="#Nimbus_Roman_No9_L_Regular-48"/>
       <use transform="translate(49.8132 0)scale(0.996264)" xlink:href="#CMMI10-58"/>
       <use transform="translate(77.408707 0)scale(0.996264)" xlink:href="#Nimbus_Roman_No9_L_Regular-53"/>
      </g>
     </g>
    </g>
    <g id="ytick_3">
     <g id="line2d_8">
      <g>
       <use style="stroke:#000000;stroke-width:0.8;" x="54" xlink:href="#m87d1560e88" y="214.920552"/>
      </g>
     </g>
     <g id="text_8">
      <!-- $1.0$ -->
      <g transform="translate(21.555621 221.67513)scale(0.2 -0.2)">
       <use transform="scale(0.996264)" xlink:href="#Nimbus_Roman_No9_L_Regular-49"/>
       <use transform="translate(49.8132 0)scale(0.996264)" xlink:href="#CMMI10-58"/>
       <use transform="translate(77.408707 0)scale(0.996264)" xlink:href="#Nimbus_Roman_No9_L_Regular-48"/>
      </g>
     </g>
    </g>
    <g id="ytick_4">
     <g id="line2d_9">
      <g>
       <use style="stroke:#000000;stroke-width:0.8;" x="54" xlink:href="#m87d1560e88" y="140.793004"/>
      </g>
     </g>
     <g id="text_9">
      <!-- $1.5$ -->
      <g transform="translate(21.555621 147.547581)scale(0.2 -0.2)">
       <use transform="scale(0.996264)" xlink:href="#Nimbus_Roman_No9_L_Regular-49"/>
       <use transform="translate(49.8132 0)scale(0.996264)" xlink:href="#CMMI10-58"/>
       <use transform="translate(77.408707 0)scale(0.996264)" xlink:href="#Nimbus_Roman_No9_L_Regular-53"/>
      </g>
     </g>
    </g>
    <g id="ytick_5">
     <g id="line2d_10">
      <g>
       <use style="stroke:#000000;stroke-width:0.8;" x="54" xlink:href="#m87d1560e88" y="66.665455"/>
      </g>
     </g>
     <g id="text_10">
      <!-- $2.0$ -->
      <defs>
       <path d="M 47.5 13.734375 
L 46.203125 14.25 
C 42.5 8.5 41.203125 7.59375 36.703125 7.59375 
L 12.796875 7.59375 
L 29.59375 25.328125 
C 38.5 34.703125 42.40625 42.359375 42.40625 50.21875 
C 42.40625 60.28125 34.296875 68 23.90625 68 
C 18.40625 68 13.203125 65.796875 9.5 61.796875 
C 6.296875 58.375 4.796875 55.15625 3.09375 48 
L 5.203125 47.484375 
C 9.203125 57.359375 12.796875 60.59375 19.703125 60.59375 
C 28.09375 60.59375 33.796875 54.84375 33.796875 46.390625 
C 33.796875 38.53125 29.203125 29.15625 20.796875 20.1875 
L 3 1.1875 
L 3 0 
L 42 0 
z
" id="Nimbus_Roman_No9_L_Regular-50"/>
      </defs>
      <g transform="translate(21.555621 73.420032)scale(0.2 -0.2)">
       <use transform="scale(0.996264)" xlink:href="#Nimbus_Roman_No9_L_Regular-50"/>
       <use transform="translate(49.8132 0)scale(0.996264)" xlink:href="#CMMI10-58"/>
       <use transform="translate(77.408707 0)scale(0.996264)" xlink:href="#Nimbus_Roman_No9_L_Regular-48"/>
      </g>
     </g>
    </g>
   </g>
   <g id="line2d_11">
    <path clip-path="url(#p641ea8f141)" d="M 69.218182 183.333126 
L 72.261818 179.736757 
L 75.305455 176.143299 
L 78.349091 172.55571 
L 81.392727 168.977 
L 84.436364 165.410226 
L 87.48 161.858484 
L 90.523636 158.324913 
L 93.567273 154.812681 
L 96.610909 151.324988 
L 99.654545 147.865057 
L 102.698182 144.436133 
L 105.741818 141.041472 
L 108.785455 137.684344 
L 111.829091 134.368021 
L 114.872727 131.095774 
L 117.916364 127.870872 
L 120.96 124.696567 
L 124.003636 121.5761 
L 127.047273 118.512687 
L 130.090909 115.509516 
L 133.134545 112.569746 
L 136.178182 109.696492 
L 139.221818 106.892829 
L 142.265455 104.161782 
L 145.309091 101.506321 
L 148.352727 98.929355 
L 151.396364 96.433729 
L 154.44 94.022216 
L 157.483636 91.697515 
L 160.527273 89.462242 
L 163.570909 87.318929 
L 166.614545 85.270018 
L 169.658182 83.317854 
L 172.701818 81.464684 
L 175.745455 79.71265 
L 178.789091 78.063787 
L 181.832727 76.520019 
L 184.876364 75.083152 
L 187.92 73.754873 
L 190.963636 72.53675 
L 194.007273 71.430221 
L 197.050909 70.436598 
L 200.094545 69.557062 
L 203.138182 68.792661 
L 206.181818 68.144305 
L 209.225455 67.612771 
L 212.269091 67.198693 
L 215.312727 66.902568 
L 218.356364 66.724751 
L 221.4 66.665455 
L 224.443636 66.724751 
L 227.487273 66.902568 
L 230.530909 67.198693 
L 233.574545 67.612771 
L 236.618182 68.144305 
L 239.661818 68.792661 
L 242.705455 69.557062 
L 245.749091 70.436598 
L 248.792727 71.430221 
L 251.836364 72.53675 
L 254.88 73.754873 
L 257.923636 75.083152 
L 260.967273 76.520019 
L 264.010909 78.063787 
L 267.054545 79.71265 
L 270.098182 81.464684 
L 273.141818 83.317854 
L 276.185455 85.270018 
L 279.229091 87.318929 
L 282.272727 89.462242 
L 285.316364 91.697515 
L 288.36 94.022216 
L 291.403636 96.433729 
L 294.447273 98.929355 
L 297.490909 101.506321 
L 300.534545 104.161782 
L 303.578182 106.892829 
L 306.621818 109.696492 
L 309.665455 112.569746 
L 312.709091 115.509516 
L 315.752727 118.512687 
L 318.796364 121.5761 
L 321.84 124.696567 
L 324.883636 127.870872 
L 327.927273 131.095774 
L 330.970909 134.368021 
L 334.014545 137.684344 
L 337.058182 141.041472 
L 340.101818 144.436133 
L 343.145455 147.865057 
L 346.189091 151.324988 
L 349.232727 154.812681 
L 352.276364 158.324913 
L 355.32 161.858484 
L 358.363636 165.410226 
L 361.407273 168.977 
L 364.450909 172.55571 
L 367.494545 176.143299 
L 370.538182 179.736757 
L 373.581818 183.333126 
" style="fill:none;stroke:#1f77b4;stroke-linecap:square;stroke-width:1.5;"/>
   </g>
   <g id="line2d_12">
    <path clip-path="url(#p641ea8f141)" d="M 69.218182 289.240178 
L 72.261818 285.059821 
L 75.305455 280.734756 
L 78.349091 276.266843 
L 81.392727 271.658531 
L 84.436364 266.912884 
L 87.48 262.033592 
L 90.523636 257.024993 
L 93.567273 251.892083 
L 96.610909 246.640527 
L 99.654545 241.276665 
L 102.698182 235.807514 
L 105.741818 230.240771 
L 108.785455 224.584803 
L 111.829091 218.848644 
L 114.872727 213.041978 
L 117.916364 207.175124 
L 120.96 201.259015 
L 124.003636 195.305173 
L 127.047273 189.325675 
L 130.090909 183.333126 
L 133.134545 177.340613 
L 136.178182 171.36167 
L 139.221818 165.410226 
L 142.265455 159.500556 
L 145.309091 153.647231 
L 148.352727 147.865057 
L 151.396364 142.169017 
L 154.44 136.574207 
L 157.483636 131.095774 
L 160.527273 125.748846 
L 163.570909 120.548465 
L 166.614545 115.509516 
L 169.658182 110.646662 
L 172.701818 105.974264 
L 175.745455 101.506321 
L 178.789091 97.256394 
L 181.832727 93.237539 
L 184.876364 89.462242 
L 187.92 85.942352 
L 190.963636 82.689023 
L 194.007273 79.71265 
L 197.050909 77.022817 
L 200.094545 74.628247 
L 203.138182 72.53675 
L 206.181818 70.755185 
L 209.225455 69.289421 
L 212.269091 68.144305 
L 215.312727 67.323635 
L 218.356364 66.830137 
L 221.4 66.665455 
L 224.443636 66.830137 
L 227.487273 67.323635 
L 230.530909 68.144305 
L 233.574545 69.289421 
L 236.618182 70.755185 
L 239.661818 72.53675 
L 242.705455 74.628247 
L 245.749091 77.022817 
L 248.792727 79.71265 
L 251.836364 82.689023 
L 254.88 85.942352 
L 257.923636 89.462242 
L 260.967273 93.237539 
L 264.010909 97.256394 
L 267.054545 101.506321 
L 270.098182 105.974264 
L 273.141818 110.646662 
L 276.185455 115.509516 
L 279.229091 120.548465 
L 282.272727 125.748846 
L 285.316364 131.095774 
L 288.36 136.574207 
L 291.403636 142.169017 
L 294.447273 147.865057 
L 297.490909 153.647231 
L 300.534545 159.500556 
L 303.578182 165.410226 
L 306.621818 171.36167 
L 309.665455 177.340613 
L 312.709091 183.333126 
L 315.752727 189.325675 
L 318.796364 195.305173 
L 321.84 201.259015 
L 324.883636 207.175124 
L 327.927273 213.041978 
L 330.970909 218.848644 
L 334.014545 224.584803 
L 337.058182 230.240771 
L 340.101818 235.807514 
L 343.145455 241.276665 
L 346.189091 246.640527 
L 349.232727 251.892083 
L 352.276364 257.024993 
L 355.32 262.033592 
L 358.363636 266.912884 
L 361.407273 271.658531 
L 364.450909 276.266843 
L 367.494545 280.734756 
L 370.538182 285.059821 
L 373.581818 289.240178 
" style="fill:none;stroke:#ff7f0e;stroke-linecap:square;stroke-width:1.5;"/>
   </g>
   <g id="line2d_13">
    <path clip-path="url(#p641ea8f141)" d="M 69.218182 350.147902 
L 72.261818 348.431718 
L 75.305455 346.531121 
L 78.349091 344.432439 
L 81.392727 342.121839 
L 84.436364 339.585445 
L 87.48 336.809484 
L 90.523636 333.780444 
L 93.567273 330.485246 
L 96.610909 326.91143 
L 99.654545 323.047359 
L 102.698182 318.882431 
L 105.741818 314.407297 
L 108.785455 309.614093 
L 111.829091 304.496668 
L 114.872727 299.050823 
L 117.916364 293.274535 
L 120.96 287.168182 
L 124.003636 280.734756 
L 127.047273 273.98006 
L 130.090909 266.912884 
L 133.134545 259.545159 
L 136.178182 251.892083 
L 139.221818 243.972211 
L 142.265455 235.807514 
L 145.309091 227.423391 
L 148.352727 218.848644 
L 151.396364 210.115405 
L 154.44 201.259015 
L 157.483636 192.317855 
L 160.527273 183.333126 
L 163.570909 174.348584 
L 166.614545 165.410226 
L 169.658182 156.56593 
L 172.701818 147.865057 
L 175.745455 139.358012 
L 178.789091 131.095774 
L 181.832727 123.129402 
L 184.876364 115.509516 
L 187.92 108.285771 
L 190.963636 101.506321 
L 194.007273 95.217288 
L 197.050909 89.462242 
L 200.094545 84.2817 
L 203.138182 79.71265 
L 206.181818 75.788114 
L 209.225455 72.53675 
L 212.269091 69.982501 
L 215.312727 68.144305 
L 218.356364 67.035861 
L 221.4 66.665455 
L 224.443636 67.035861 
L 227.487273 68.144305 
L 230.530909 69.982501 
L 233.574545 72.53675 
L 236.618182 75.788114 
L 239.661818 79.71265 
L 242.705455 84.2817 
L 245.749091 89.462242 
L 248.792727 95.217288 
L 251.836364 101.506321 
L 254.88 108.285771 
L 257.923636 115.509516 
L 260.967273 123.129402 
L 264.010909 131.095774 
L 267.054545 139.358012 
L 270.098182 147.865057 
L 273.141818 156.56593 
L 276.185455 165.410226 
L 279.229091 174.348584 
L 282.272727 183.333126 
L 285.316364 192.317855 
L 288.36 201.259015 
L 291.403636 210.115405 
L 294.447273 218.848644 
L 297.490909 227.423391 
L 300.534545 235.807514 
L 303.578182 243.972211 
L 306.621818 251.892083 
L 309.665455 259.545159 
L 312.709091 266.912884 
L 315.752727 273.98006 
L 318.796364 280.734756 
L 321.84 287.168182 
L 324.883636 293.274535 
L 327.927273 299.050823 
L 330.970909 304.496668 
L 334.014545 309.614093 
L 337.058182 314.407297 
L 340.101818 318.882431 
L 343.145455 323.047359 
L 346.189091 326.91143 
L 349.232727 330.485246 
L 352.276364 333.780444 
L 355.32 336.809484 
L 358.363636 339.585445 
L 361.407273 342.121839 
L 364.450909 344.432439 
L 367.494545 346.531121 
L 370.538182 348.431718 
L 373.581818 350.147902 
" style="fill:none;stroke:#2ca02c;stroke-linecap:square;stroke-width:1.5;"/>
   </g>
   <g id="line2d_14">
    <path clip-path="url(#p641ea8f141)" d="M 69.218182 363.174545 
L 72.261818 363.173838 
L 75.305455 363.172706 
L 78.349091 363.170916 
L 81.392727 363.168113 
L 84.436364 363.163771 
L 87.48 363.157112 
L 90.523636 363.14701 
L 93.567273 363.131842 
L 96.610909 363.109308 
L 99.654545 363.076182 
L 102.698182 363.028002 
L 105.741818 362.958664 
L 108.785455 362.859936 
L 111.829091 362.72086 
L 114.872727 362.527037 
L 117.916364 362.259815 
L 120.96 361.895367 
L 124.003636 361.403699 
L 127.047273 360.747617 
L 130.090909 359.88172 
L 133.134545 358.751485 
L 136.178182 357.292564 
L 139.221818 355.430386 
L 142.265455 353.080233 
L 145.309091 350.147902 
L 148.352727 346.531121 
L 151.396364 342.121839 
L 154.44 336.809484 
L 157.483636 330.485246 
L 160.527273 323.047359 
L 163.570909 314.407297 
L 166.614545 304.496668 
L 169.658182 293.274535 
L 172.701818 280.734756 
L 175.745455 266.912884 
L 178.789091 251.892083 
L 181.832727 235.807514 
L 184.876364 218.848644 
L 187.92 201.259015 
L 190.963636 183.333126 
L 194.007273 165.410226 
L 197.050909 147.865057 
L 200.094545 131.095774 
L 203.138182 115.509516 
L 206.181818 101.506321 
L 209.225455 89.462242 
L 212.269091 79.71265 
L 215.312727 72.53675 
L 218.356364 68.144305 
L 221.4 66.665455 
L 224.443636 68.144305 
L 227.487273 72.53675 
L 230.530909 79.71265 
L 233.574545 89.462242 
L 236.618182 101.506321 
L 239.661818 115.509516 
L 242.705455 131.095774 
L 245.749091 147.865057 
L 248.792727 165.410226 
L 251.836364 183.333126 
L 254.88 201.259015 
L 257.923636 218.848644 
L 260.967273 235.807514 
L 264.010909 251.892083 
L 267.054545 266.912884 
L 270.098182 280.734756 
L 273.141818 293.274535 
L 276.185455 304.496668 
L 279.229091 314.407297 
L 282.272727 323.047359 
L 285.316364 330.485246 
L 288.36 336.809484 
L 291.403636 342.121839 
L 294.447273 346.531121 
L 297.490909 350.147902 
L 300.534545 353.080233 
L 303.578182 355.430386 
L 306.621818 357.292564 
L 309.665455 358.751485 
L 312.709091 359.88172 
L 315.752727 360.747617 
L 318.796364 361.403699 
L 321.84 361.895367 
L 324.883636 362.259815 
L 327.927273 362.527037 
L 330.970909 362.72086 
L 334.014545 362.859936 
L 337.058182 362.958664 
L 340.101818 363.028002 
L 343.145455 363.076182 
L 346.189091 363.109308 
L 349.232727 363.131842 
L 352.276364 363.14701 
L 355.32 363.157112 
L 358.363636 363.163771 
L 361.407273 363.168113 
L 364.450909 363.170916 
L 367.494545 363.172706 
L 370.538182 363.173838 
L 373.581818 363.174545 
" style="fill:none;stroke:#d62728;stroke-linecap:square;stroke-width:1.5;"/>
   </g>
   <g id="patch_3">
    <path d="M 54 378 
L 54 51.84 
" style="fill:none;stroke:#000000;stroke-linecap:square;stroke-linejoin:miter;stroke-width:0.8;"/>
   </g>
   <g id="patch_4">
    <path d="M 388.8 378 
L 388.8 51.84 
" style="fill:none;stroke:#000000;stroke-linecap:square;stroke-linejoin:miter;stroke-width:0.8;"/>
   </g>
   <g id="patch_5">
    <path d="M 54 378 
L 388.8 378 
" style="fill:none;stroke:#000000;stroke-linecap:square;stroke-linejoin:miter;stroke-width:0.8;"/>
   </g>
   <g id="patch_6">
    <path d="M 54 51.84 
L 388.8 51.84 
" style="fill:none;stroke:#000000;stroke-linecap:square;stroke-linejoin:miter;stroke-width:0.8;"/>
   </g>
   <g id="legend_1">
    <g id="patch_7">
     <path d="M 154.927321 368 
L 287.872679 368 
Q 291.872679 368 291.872679 364 
L 291.872679 252.745369 
Q 291.872679 248.745369 287.872679 248.745369 
L 154.927321 248.745369 
Q 150.927321 248.745369 150.927321 252.745369 
L 150.927321 364 
Q 150.927321 368 154.927321 368 
z
" style="fill:#ffffff;opacity:0.8;stroke:#cccccc;stroke-linejoin:miter;"/>
    </g>
    <g id="line2d_15">
     <path d="M 158.927321 263.745369 
L 198.927321 263.745369 
" style="fill:none;stroke:#1f77b4;stroke-linecap:square;stroke-width:1.5;"/>
    </g>
    <g id="line2d_16"/>
    <g id="text_11">
     <!-- $\sigma = $10.0 -->
     <defs>
      <path d="M 58.796875 41.296875 
L 58.796875 50 
L 36.09375 50 
C 28.203125 50 22.796875 49.09375 18.203125 47.09375 
C 8.5 42.6875 3 34.890625 3 25.59375 
C 3 19.09375 5.5 12.5 10.09375 7.296875 
C 15.296875 1.296875 21 -1.3125 28.90625 -1.3125 
C 35.703125 -1.3125 41.5 0.796875 46.09375 4.890625 
C 50.59375 9 53.296875 14.6875 53.296875 20.09375 
C 53.296875 27.6875 47.5 35.1875 36.90625 41.296875 
z
M 32.203125 41.296875 
C 40.796875 32.390625 42.703125 28.59375 42.703125 20.390625 
C 42.703125 10 37.703125 3 30.296875 3 
C 21.09375 3 13.5 13.09375 13.5 25.390625 
C 13.5 35 19.703125 41.296875 29.09375 41.296875 
z
" id="Standard_Symbols_L-115"/>
      <path d="M 68.703125 32.984375 
C 70.203125 32.984375 72.09375 32.984375 72.09375 34.984375 
C 72.09375 37 70.203125 37 68.796875 37 
L 8.90625 37 
C 7.5 37 5.59375 37 5.59375 34.984375 
C 5.59375 32.984375 7.5 32.984375 9 32.984375 
z
M 68.796875 13 
C 70.203125 13 72.09375 13 72.09375 15 
C 72.09375 17 70.203125 17 68.703125 17 
L 9 17 
C 7.5 17 5.59375 17 5.59375 15 
C 5.59375 13 7.5 13 8.90625 13 
z
" id="CMR10-61"/>
      <path d="M 12.5 10.09375 
C 9.5 10.09375 7 7.5 7 4.390625 
C 7 1.5 9.5 -1 12.40625 -1 
C 15.5 -1 18.09375 1.5 18.09375 4.390625 
C 18.09375 7.5 15.5 10.09375 12.5 10.09375 
z
" id="Nimbus_Roman_No9_L_Regular-46"/>
     </defs>
     <g transform="translate(214.927321 270.745369)scale(0.2 -0.2)">
      <use transform="scale(0.996264)" xlink:href="#Standard_Symbols_L-115"/>
      <use transform="translate(92.972125 0)scale(0.996264)" xlink:href="#CMR10-61"/>
      <use transform="translate(170.380832 0)scale(0.996264)" xlink:href="#Nimbus_Roman_No9_L_Regular-49"/>
      <use transform="translate(220.194033 0)scale(0.996264)" xlink:href="#Nimbus_Roman_No9_L_Regular-48"/>
      <use transform="translate(270.007233 0)scale(0.996264)" xlink:href="#Nimbus_Roman_No9_L_Regular-46"/>
      <use transform="translate(294.913833 0)scale(0.996264)" xlink:href="#Nimbus_Roman_No9_L_Regular-48"/>
     </g>
    </g>
    <g id="line2d_17">
     <path d="M 158.927321 292.059027 
L 198.927321 292.059027 
" style="fill:none;stroke:#ff7f0e;stroke-linecap:square;stroke-width:1.5;"/>
    </g>
    <g id="line2d_18"/>
    <g id="text_12">
     <!-- $\sigma = $6.0 -->
     <defs>
      <path d="M 44.59375 68.59375 
C 33.203125 67.59375 27.40625 65.6875 20.09375 60.59375 
C 9.296875 52.890625 3.40625 41.484375 3.40625 28.140625 
C 3.40625 19.5 6.09375 10.75 10.40625 5.765625 
C 14.203125 1.390625 19.59375 -1 25.796875 -1 
C 38.203125 -1 46.796875 8.453125 46.796875 22.1875 
C 46.796875 34.90625 39.5 43 28 43 
C 23.59375 43 21.5 42.296875 15.203125 38.484375 
C 17.90625 53.59375 29.09375 64.390625 44.796875 67 
z
M 24.203125 38.390625 
C 32.796875 38.390625 37.796875 31.234375 37.796875 18.796875 
C 37.796875 7.859375 33.90625 1.796875 26.90625 1.796875 
C 18.09375 1.796875 12.703125 11.140625 12.703125 26.5625 
C 12.703125 31.625 13.5 34.421875 15.5 35.90625 
C 17.59375 37.5 20.703125 38.390625 24.203125 38.390625 
z
" id="Nimbus_Roman_No9_L_Regular-54"/>
     </defs>
     <g transform="translate(214.927321 299.059027)scale(0.2 -0.2)">
      <use transform="scale(0.996264)" xlink:href="#Standard_Symbols_L-115"/>
      <use transform="translate(92.972125 0)scale(0.996264)" xlink:href="#CMR10-61"/>
      <use transform="translate(170.380832 0)scale(0.996264)" xlink:href="#Nimbus_Roman_No9_L_Regular-54"/>
      <use transform="translate(220.194033 0)scale(0.996264)" xlink:href="#Nimbus_Roman_No9_L_Regular-46"/>
      <use transform="translate(245.100633 0)scale(0.996264)" xlink:href="#Nimbus_Roman_No9_L_Regular-48"/>
     </g>
    </g>
    <g id="line2d_19">
     <path d="M 158.927321 320.372684 
L 198.927321 320.372684 
" style="fill:none;stroke:#2ca02c;stroke-linecap:square;stroke-width:1.5;"/>
    </g>
    <g id="line2d_20"/>
    <g id="text_13">
     <!-- $\sigma = $4.0 -->
     <defs>
      <path d="M 47.203125 23.390625 
L 37 23.390625 
L 37 68 
L 32.59375 68 
L 1.203125 23.390625 
L 1.203125 17 
L 29.296875 17 
L 29.296875 0 
L 37 0 
L 37 17 
L 47.203125 17 
z
M 29.203125 23.390625 
L 5.203125 23.390625 
L 29.203125 57.765625 
z
" id="Nimbus_Roman_No9_L_Regular-52"/>
     </defs>
     <g transform="translate(214.927321 327.372684)scale(0.2 -0.2)">
      <use transform="scale(0.996264)" xlink:href="#Standard_Symbols_L-115"/>
      <use transform="translate(92.972125 0)scale(0.996264)" xlink:href="#CMR10-61"/>
      <use transform="translate(170.380832 0)scale(0.996264)" xlink:href="#Nimbus_Roman_No9_L_Regular-52"/>
      <use transform="translate(220.194033 0)scale(0.996264)" xlink:href="#Nimbus_Roman_No9_L_Regular-46"/>
      <use transform="translate(245.100633 0)scale(0.996264)" xlink:href="#Nimbus_Roman_No9_L_Regular-48"/>
     </g>
    </g>
    <g id="line2d_21">
     <path d="M 158.927321 348.686342 
L 198.927321 348.686342 
" style="fill:none;stroke:#d62728;stroke-linecap:square;stroke-width:1.5;"/>
    </g>
    <g id="line2d_22"/>
    <g id="text_14">
     <!-- $\sigma = $2.0 -->
     <g transform="translate(214.927321 355.686342)scale(0.2 -0.2)">
      <use transform="scale(0.996264)" xlink:href="#Standard_Symbols_L-115"/>
      <use transform="translate(92.972125 0)scale(0.996264)" xlink:href="#CMR10-61"/>
      <use transform="translate(170.380832 0)scale(0.996264)" xlink:href="#Nimbus_Roman_No9_L_Regular-50"/>
      <use transform="translate(220.194033 0)scale(0.996264)" xlink:href="#Nimbus_Roman_No9_L_Regular-46"/>
      <use transform="translate(245.100633 0)scale(0.996264)" xlink:href="#Nimbus_Roman_No9_L_Regular-48"/>
     </g>
    </g>
   </g>
  </g>
 </g>
 <defs>
  <clipPath id="p641ea8f141">
   <rect height="326.16" width="334.8" x="54" y="51.84"/>
  </clipPath>
 </defs>
</svg>
