<?xml version="1.0" encoding="utf-8" standalone="no"?>
<!DOCTYPE svg PUBLIC "-//W3C//DTD SVG 1.1//EN"
  "http://www.w3.org/Graphics/SVG/1.1/DTD/svg11.dtd">
<!-- Created with matplotlib (http://matplotlib.org/) -->
<svg height="376.305626pt" version="1.1" viewBox="0 0 387.048093 376.305626" width="387.048093pt" xmlns="http://www.w3.org/2000/svg" xmlns:xlink="http://www.w3.org/1999/xlink">
 <defs>
  <style type="text/css">
*{stroke-linecap:butt;stroke-linejoin:round;}
  </style>
 </defs>
 <g id="figure_1">
  <g id="patch_1">
   <path d="M 0 376.305626 
L 387.048093 376.305626 
L 387.048093 0 
L 0 0 
z
" style="fill:#ffffff;"/>
  </g>
  <g id="axes_1">
   <g id="patch_2">
    <path d="M 48.748093 329.66 
L 383.548093 329.66 
L 383.548093 3.5 
L 48.748093 3.5 
z
" style="fill:#ffffff;"/>
   </g>
   <g id="matplotlib.axis_1">
    <g id="xtick_1">
     <g id="line2d_1">
      <defs>
       <path d="M 0 0 
L 0 3.5 
" id="m92b3e87612" style="stroke:#000000;stroke-width:0.8;"/>
      </defs>
      <g>
       <use style="stroke:#000000;stroke-width:0.8;" x="63.966275" xlink:href="#m92b3e87612" y="329.66"/>
      </g>
     </g>
     <g id="text_1">
      <!-- $0$ -->
      <defs>
       <path d="M 25.40625 68 
C 19.90625 68 15.703125 66.296875 12 62.796875 
C 6.203125 57.203125 2.40625 45.6875 2.40625 34 
C 2.40625 23.09375 5.703125 11.390625 10.40625 5.796875 
C 14.09375 1.390625 19.203125 -1 25 -1 
C 30.09375 -1 34.40625 0.6875 38 4.1875 
C 43.796875 9.6875 47.59375 21.296875 47.59375 33.390625 
C 47.59375 53.890625 38.5 68 25.40625 68 
z
M 25.09375 65.390625 
C 33.5 65.390625 38 54.09375 38 33.1875 
C 38 12.296875 33.59375 1.59375 25 1.59375 
C 16.40625 1.59375 12 12.296875 12 33.09375 
C 12 54.296875 16.5 65.390625 25.09375 65.390625 
z
" id="Nimbus_Roman_No9_L_Regular-48"/>
      </defs>
      <g transform="translate(58.984955 350.169155)scale(0.2 -0.2)">
       <use transform="scale(0.996264)" xlink:href="#Nimbus_Roman_No9_L_Regular-48"/>
      </g>
     </g>
    </g>
    <g id="xtick_2">
     <g id="line2d_2">
      <g>
       <use style="stroke:#000000;stroke-width:0.8;" x="140.057184" xlink:href="#m92b3e87612" y="329.66"/>
      </g>
     </g>
     <g id="text_2">
      <!-- $2$ -->
      <defs>
       <path d="M 47.5 13.734375 
L 46.203125 14.25 
C 42.5 8.5 41.203125 7.59375 36.703125 7.59375 
L 12.796875 7.59375 
L 29.59375 25.328125 
C 38.5 34.703125 42.40625 42.359375 42.40625 50.21875 
C 42.40625 60.28125 34.296875 68 23.90625 68 
C 18.40625 68 13.203125 65.796875 9.5 61.796875 
C 6.296875 58.375 4.796875 55.15625 3.09375 48 
L 5.203125 47.484375 
C 9.203125 57.359375 12.796875 60.59375 19.703125 60.59375 
C 28.09375 60.59375 33.796875 54.84375 33.796875 46.390625 
C 33.796875 38.53125 29.203125 29.15625 20.796875 20.1875 
L 3 1.1875 
L 3 0 
L 42 0 
z
" id="Nimbus_Roman_No9_L_Regular-50"/>
      </defs>
      <g transform="translate(135.075864 350.169155)scale(0.2 -0.2)">
       <use transform="scale(0.996264)" xlink:href="#Nimbus_Roman_No9_L_Regular-50"/>
      </g>
     </g>
    </g>
    <g id="xtick_3">
     <g id="line2d_3">
      <g>
       <use style="stroke:#000000;stroke-width:0.8;" x="216.148093" xlink:href="#m92b3e87612" y="329.66"/>
      </g>
     </g>
     <g id="text_3">
      <!-- $4$ -->
      <defs>
       <path d="M 47.203125 23.390625 
L 37 23.390625 
L 37 68 
L 32.59375 68 
L 1.203125 23.390625 
L 1.203125 17 
L 29.296875 17 
L 29.296875 0 
L 37 0 
L 37 17 
L 47.203125 17 
z
M 29.203125 23.390625 
L 5.203125 23.390625 
L 29.203125 57.765625 
z
" id="Nimbus_Roman_No9_L_Regular-52"/>
      </defs>
      <g transform="translate(211.166773 350.169155)scale(0.2 -0.2)">
       <use transform="scale(0.996264)" xlink:href="#Nimbus_Roman_No9_L_Regular-52"/>
      </g>
     </g>
    </g>
    <g id="xtick_4">
     <g id="line2d_4">
      <g>
       <use style="stroke:#000000;stroke-width:0.8;" x="292.239002" xlink:href="#m92b3e87612" y="329.66"/>
      </g>
     </g>
     <g id="text_4">
      <!-- $6$ -->
      <defs>
       <path d="M 44.59375 68.59375 
C 33.203125 67.59375 27.40625 65.6875 20.09375 60.59375 
C 9.296875 52.890625 3.40625 41.484375 3.40625 28.140625 
C 3.40625 19.5 6.09375 10.75 10.40625 5.765625 
C 14.203125 1.390625 19.59375 -1 25.796875 -1 
C 38.203125 -1 46.796875 8.453125 46.796875 22.1875 
C 46.796875 34.90625 39.5 43 28 43 
C 23.59375 43 21.5 42.296875 15.203125 38.484375 
C 17.90625 53.59375 29.09375 64.390625 44.796875 67 
z
M 24.203125 38.390625 
C 32.796875 38.390625 37.796875 31.234375 37.796875 18.796875 
C 37.796875 7.859375 33.90625 1.796875 26.90625 1.796875 
C 18.09375 1.796875 12.703125 11.140625 12.703125 26.5625 
C 12.703125 31.625 13.5 34.421875 15.5 35.90625 
C 17.59375 37.5 20.703125 38.390625 24.203125 38.390625 
z
" id="Nimbus_Roman_No9_L_Regular-54"/>
      </defs>
      <g transform="translate(287.257682 350.169155)scale(0.2 -0.2)">
       <use transform="scale(0.996264)" xlink:href="#Nimbus_Roman_No9_L_Regular-54"/>
      </g>
     </g>
    </g>
    <g id="xtick_5">
     <g id="line2d_5">
      <g>
       <use style="stroke:#000000;stroke-width:0.8;" x="368.329911" xlink:href="#m92b3e87612" y="329.66"/>
      </g>
     </g>
     <g id="text_5">
      <!-- $8$ -->
      <defs>
       <path d="M 29 37.5 
C 38.90625 42.796875 42.40625 47 42.40625 53.796875 
C 42.40625 62 35.203125 68 25.203125 68 
C 14.296875 68 6.203125 61.296875 6.203125 52.203125 
C 6.203125 45.6875 8.09375 42.796875 18.59375 33.59375 
C 7.796875 25.390625 5.59375 22.296875 5.59375 15.5 
C 5.59375 5.796875 13.5 -1 24.796875 -1 
C 36.796875 -1 44.5 5.59375 44.5 15.890625 
C 44.5 23.59375 41.09375 28.5 29 37.5 
z
M 27.203125 27.1875 
C 34.5 22 36.90625 18.390625 36.90625 12.796875 
C 36.90625 6.296875 32.40625 1.796875 25.90625 1.796875 
C 18.296875 1.796875 13.203125 7.59375 13.203125 16.296875 
C 13.203125 22.6875 15.40625 26.890625 21.203125 31.59375 
z
M 26.09375 39.296875 
C 17.203125 45.09375 13.59375 49.6875 13.59375 55.296875 
C 13.59375 61.09375 18.09375 65.1875 24.40625 65.1875 
C 31.203125 65.1875 35.5 60.796875 35.5 53.890625 
C 35.5 48.1875 32.703125 43.6875 27 39.890625 
C 26.5 39.59375 26.5 39.59375 26.09375 39.296875 
z
" id="Nimbus_Roman_No9_L_Regular-56"/>
      </defs>
      <g transform="translate(363.348591 350.169155)scale(0.2 -0.2)">
       <use transform="scale(0.996264)" xlink:href="#Nimbus_Roman_No9_L_Regular-56"/>
      </g>
     </g>
    </g>
    <g id="text_6">
     <!-- Wave number (q) -->
     <defs>
      <path d="M 93.203125 66 
L 73.40625 66 
L 73.40625 64.09375 
C 78.5 63.59375 80.296875 62.5 80.296875 59.8125 
C 80.296875 57.71875 79.703125 55.140625 78.703125 52.34375 
L 66.203125 18.609375 
L 53 52.546875 
C 52.796875 53.046875 51.90625 55.234375 51.796875 55.53125 
C 50.90625 57.625 50.296875 59.515625 50.296875 60.609375 
C 50.296875 63 52.59375 63.984375 58 64.09375 
L 58 66 
L 31.296875 66 
L 31.296875 64.09375 
C 37 63.984375 38 63.09375 41.40625 55.140625 
L 44.703125 46.984375 
L 34 18.90625 
L 19.59375 56.328125 
C 18.90625 58.125 18.5 59.8125 18.5 60.90625 
C 18.5 63.09375 19.90625 63.796875 25 64.09375 
L 25 66 
L 0.5 66 
L 0.5 64.09375 
C 5.59375 63.59375 7.09375 61.8125 10.796875 52.453125 
L 30.09375 -1 
L 31.59375 -1 
L 47 41.109375 
L 63 -1 
L 64.5 -1 
C 73 24.984375 74 27.765625 84.90625 57.03125 
C 86.796875 62.203125 87.90625 63.09375 93.203125 64.09375 
z
" id="Nimbus_Roman_No9_L_Regular-87"/>
      <path d="M 44.203125 6.59375 
C 42.5 5.1875 41.296875 4.6875 39.796875 4.6875 
C 37.5 4.6875 36.796875 6.09375 36.796875 10.5 
L 36.796875 30 
C 36.796875 35.1875 36.296875 38.09375 34.796875 40.5 
C 32.59375 44.09375 28.296875 46 22.40625 46 
C 13 46 5.59375 41.09375 5.59375 34.796875 
C 5.59375 32.5 7.59375 30.5 9.90625 30.5 
C 12.296875 30.5 14.40625 32.5 14.40625 34.6875 
C 14.40625 35.09375 14.296875 35.59375 14.203125 36.296875 
C 14 37.1875 13.90625 38 13.90625 38.6875 
C 13.90625 41.390625 17.09375 43.59375 21.09375 43.59375 
C 26 43.59375 28.703125 40.6875 28.703125 35.296875 
L 28.703125 29.1875 
C 13.296875 23 11.59375 22.1875 7.296875 18.390625 
C 5.09375 16.390625 3.703125 13 3.703125 9.6875 
C 3.703125 3.390625 8.09375 -1 14.203125 -1 
C 18.59375 -1 22.703125 1.09375 28.796875 6.296875 
C 29.296875 1.09375 31.09375 -1 35.203125 -1 
C 38.59375 -1 40.703125 0.1875 44.203125 4 
z
M 28.703125 12.296875 
C 28.703125 9.1875 28.203125 8.296875 26.09375 7.09375 
C 23.703125 5.6875 20.90625 4.796875 18.796875 4.796875 
C 15.296875 4.796875 12.5 8.1875 12.5 12.5 
L 12.5 12.890625 
C 12.5 18.796875 16.59375 22.390625 28.703125 26.796875 
z
" id="Nimbus_Roman_No9_L_Regular-97"/>
      <path d="M 47.703125 45 
L 33.796875 45 
L 33.796875 43.484375 
C 37 43.1875 38.5 42.203125 38.5 40.3125 
C 38.5 39.328125 38.296875 38.34375 37.90625 37.34375 
L 28 11.6875 
L 17.796875 37.046875 
C 17.203125 38.4375 16.90625 39.828125 16.90625 40.71875 
C 16.90625 42.5 18 43.1875 21.5 43.484375 
L 21.5 45 
L 1.90625 45 
L 1.90625 43.484375 
C 5.703125 43.296875 6.40625 42.296875 11 32.09375 
L 23 3.671875 
C 23.203125 3.078125 23.5 2.375 23.796875 1.59375 
C 24.40625 -0.203125 25 -1 25.59375 -1 
C 26.203125 -1 26.90625 0.296875 28.40625 3.96875 
L 41.203125 35.765625 
C 44.09375 42.5 44.703125 43.1875 47.703125 43.484375 
z
" id="Nimbus_Roman_No9_L_Regular-118"/>
      <path d="M 40.796875 16.4375 
C 36 8.8125 31.703125 5.890625 25.296875 5.890625 
C 19.59375 5.890625 15.296875 8.8125 12.40625 14.53125 
C 10.59375 18.34375 9.90625 21.65625 9.703125 27.796875 
L 40.5 27.796875 
C 39.703125 34.265625 38.703125 37.140625 36.203125 40.3125 
C 33.203125 43.890625 28.59375 46 23.40625 46 
C 18.40625 46 13.703125 44.1875 9.90625 40.8125 
C 5.203125 36.734375 2.5 29.6875 2.5 21.46875 
C 2.5 7.59375 9.703125 -1 21.203125 -1 
C 30.703125 -1 38.203125 4.890625 42.40625 15.734375 
z
M 9.90625 31 
C 11 38.71875 14.40625 42.390625 20.5 42.390625 
C 26.59375 42.390625 29 39.609375 30.296875 31 
z
" id="Nimbus_Roman_No9_L_Regular-101"/>
      <path d="M 1.59375 39.796875 
C 2.203125 40.09375 3.203125 40.1875 4.296875 40.1875 
C 7.09375 40.1875 8 38.6875 8 33.796875 
L 8 9 
C 8 3.296875 6.90625 1.890625 1.796875 1.5 
L 1.796875 0 
L 23 0 
L 23 1.5 
C 17.90625 1.890625 16.40625 3.09375 16.40625 6.6875 
L 16.40625 34.796875 
C 21.203125 39.296875 23.40625 40.484375 26.703125 40.484375 
C 31.59375 40.484375 34 37.390625 34 30.796875 
L 34 9.890625 
C 34 3.59375 32.703125 1.890625 27.703125 1.5 
L 27.703125 0 
L 48.5 0 
L 48.5 1.5 
C 43.59375 2 42.40625 3.1875 42.40625 8.09375 
L 42.40625 31 
C 42.40625 40.390625 38 46 30.59375 46 
C 26 46 22.90625 44.296875 16.09375 37.890625 
L 16.09375 45.796875 
L 15.40625 46 
C 10.5 44.1875 7.09375 43.09375 1.59375 41.484375 
z
" id="Nimbus_Roman_No9_L_Regular-110"/>
      <path d="M 47.90625 4.984375 
L 47.40625 4.984375 
C 42.796875 4.984375 41.703125 6.09375 41.703125 10.6875 
L 41.703125 45 
L 25.90625 45 
L 25.90625 43.296875 
C 32.09375 43 33.296875 42 33.296875 37 
L 33.296875 13.5 
C 33.296875 10.6875 32.796875 9.296875 31.40625 8.1875 
C 28.703125 6 25.59375 4.796875 22.59375 4.796875 
C 18.703125 4.796875 15.5 8.1875 15.5 12.390625 
L 15.5 45 
L 0.90625 45 
L 0.90625 43.59375 
C 5.703125 43.296875 7.09375 41.796875 7.09375 37.1875 
L 7.09375 12 
C 7.09375 4.09375 11.90625 -1 19.203125 -1 
C 22.90625 -1 26.796875 0.59375 29.5 3.296875 
L 33.796875 7.59375 
L 33.796875 -0.703125 
L 34.203125 -1 
C 39.203125 1 42.796875 2.09375 47.90625 3.5 
z
" id="Nimbus_Roman_No9_L_Regular-117"/>
      <path d="M 1.90625 39.796875 
C 3.203125 40.09375 4 40.1875 5.09375 40.1875 
C 7.703125 40.1875 8.59375 38.59375 8.59375 33.796875 
L 8.59375 8.5 
C 8.59375 3.09375 7.203125 1.59375 1.59375 1.5 
L 1.59375 0 
L 23.796875 0 
L 23.796875 1.5 
C 18.5 1.6875 17 2.796875 17 6.6875 
L 17 34.890625 
C 17 35.09375 17.796875 36.09375 18.5 36.796875 
C 21 39.09375 25.296875 40.796875 28.796875 40.796875 
C 33.203125 40.796875 35.40625 37.296875 35.40625 30.296875 
L 35.40625 8.59375 
C 35.40625 3 34.296875 1.890625 28.59375 1.5 
L 28.59375 0 
L 51 0 
L 51 1.5 
C 45.296875 1.59375 43.796875 3.296875 43.796875 9.5 
L 43.796875 34.6875 
C 46.796875 39 50.09375 40.796875 54.703125 40.796875 
C 60.40625 40.796875 62.203125 38.09375 62.203125 29.796875 
L 62.203125 8.6875 
C 62.203125 3 61.40625 2.1875 55.59375 1.5 
L 55.59375 0 
L 77.5 0 
L 77.5 1.5 
L 74.90625 1.6875 
C 71.90625 1.890625 70.59375 3.6875 70.59375 7.59375 
L 70.59375 28.1875 
C 70.59375 40 66.703125 46 59 46 
C 53.203125 46 48.09375 43.390625 42.703125 37.59375 
C 40.90625 43.296875 37.5 46 32.09375 46 
C 27.703125 46 24.90625 44.59375 16.59375 38.296875 
L 16.59375 45.796875 
L 15.90625 46 
C 10.796875 44.09375 7.40625 42.984375 1.90625 41.484375 
z
" id="Nimbus_Roman_No9_L_Regular-109"/>
      <path d="M 15.296875 68.09375 
L 14.796875 68.296875 
C 10.59375 66.796875 7.90625 66 3.203125 64.6875 
L 0.296875 63.890625 
L 0.296875 62.296875 
C 0.90625 62.390625 1.296875 62.390625 2 62.390625 
C 6 62.390625 6.90625 61.5 6.90625 57.296875 
L 6.90625 5.390625 
C 6.90625 2.296875 15.40625 -1 23.40625 -1 
C 36.59375 -1 46.796875 9.984375 46.796875 24.296875 
C 46.796875 36.59375 39.203125 46 29.203125 46 
C 23.09375 46 17.296875 42.390625 15.296875 37.484375 
z
M 15.296875 32.1875 
C 15.296875 36.09375 20 39.6875 25.203125 39.6875 
C 33 39.6875 38 31.890625 38 19.6875 
C 38 8.59375 33.203125 2.1875 25 2.1875 
C 19.796875 2.1875 15.296875 4.484375 15.296875 6.984375 
z
" id="Nimbus_Roman_No9_L_Regular-98"/>
      <path d="M 0.703125 39 
C 2.09375 39.296875 3 39.390625 4.203125 39.390625 
C 6.703125 39.390625 7.59375 37.796875 7.59375 33.390625 
L 7.59375 8.390625 
C 7.59375 3.390625 6.90625 2.6875 0.5 1.5 
L 0.5 0 
L 24.5 0 
L 24.5 1.5 
C 17.703125 1.796875 16 3.296875 16 9 
L 16 31.5 
C 16 34.6875 20.296875 39.6875 23 39.6875 
C 23.59375 39.6875 24.5 39.1875 25.59375 38.1875 
C 27.203125 36.796875 28.296875 36.1875 29.59375 36.1875 
C 32 36.1875 33.5 37.890625 33.5 40.6875 
C 33.5 43.984375 31.40625 46 28 46 
C 23.796875 46 20.90625 43.6875 16 36.59375 
L 16 45.796875 
L 15.5 46 
C 10.203125 43.796875 6.59375 42.5 0.703125 40.59375 
z
" id="Nimbus_Roman_No9_L_Regular-114"/>
      <path d="M 29.5 68 
C 22.09375 63.1875 19.09375 60.59375 15.40625 55.984375 
C 8.296875 47.296875 4.796875 37.296875 4.796875 25.59375 
C 4.796875 12.890625 8.5 3.09375 17.296875 -7.109375 
C 21.40625 -11.90625 24 -14.109375 29.203125 -17.3125 
L 30.40625 -15.71875 
C 22.40625 -9.40625 19.59375 -5.90625 16.90625 1.59375 
C 14.5 8.28125 13.40625 15.890625 13.40625 25.890625 
C 13.40625 36.390625 14.703125 44.59375 17.40625 50.796875 
C 20.203125 56.984375 23.203125 60.59375 30.40625 66.390625 
z
" id="Nimbus_Roman_No9_L_Regular-40"/>
      <path d="M 36 42.390625 
C 31.40625 45.09375 28.40625 46 24.5 46 
C 12 46 2.40625 34.8125 2.40625 20.453125 
C 2.40625 7.890625 9 -1 18.40625 -1 
C 24.203125 -1 29.703125 1.59375 34.09375 6.390625 
L 34.09375 -12.40625 
C 34.09375 -18 32.296875 -19.5 25.203125 -20 
L 25.203125 -22 
L 48.796875 -22 
L 48.796875 -20.609375 
C 43.296875 -19.390625 42.5 -18.578125 42.5 -14.3125 
L 42.5 45.59375 
L 41.40625 45.59375 
z
M 34.09375 12.671875 
C 34.09375 10.28125 33.703125 8.984375 32.703125 8.1875 
C 30.5 6.296875 27.203125 5.09375 24.09375 5.09375 
C 21 5.09375 18.296875 6.09375 16.296875 8.078125 
C 13.09375 10.984375 11 17.453125 11 24.046875 
C 11 35.8125 16.296875 43.1875 24.796875 43.1875 
C 31 43.1875 34.09375 39.90625 34.09375 33.21875 
z
" id="Nimbus_Roman_No9_L_Regular-113"/>
      <path d="M 3.796875 -17.3125 
C 11.203125 -12.515625 14.203125 -9.90625 17.90625 -5.3125 
C 25 3.390625 28.5 13.390625 28.5 25.09375 
C 28.5 37.890625 24.796875 47.59375 16 57.796875 
C 11.90625 62.59375 9.296875 64.796875 4.09375 68 
L 2.90625 66.390625 
C 10.90625 60.09375 13.59375 56.59375 16.40625 49.09375 
C 18.796875 42.390625 19.90625 34.796875 19.90625 24.796875 
C 19.90625 14.390625 18.59375 6.09375 15.90625 -0.015625 
C 13.09375 -6.3125 10.09375 -9.90625 2.90625 -15.71875 
z
" id="Nimbus_Roman_No9_L_Regular-41"/>
     </defs>
     <g transform="translate(147.027527 371.991968)scale(0.2 -0.2)">
      <use transform="scale(0.996264)" xlink:href="#Nimbus_Roman_No9_L_Regular-87"/>
      <use transform="translate(86.077326 0)scale(0.996264)" xlink:href="#Nimbus_Roman_No9_L_Regular-97"/>
      <use transform="translate(128.318884 0)scale(0.996264)" xlink:href="#Nimbus_Roman_No9_L_Regular-118"/>
      <use transform="translate(176.638691 0)scale(0.996264)" xlink:href="#Nimbus_Roman_No9_L_Regular-101"/>
      <use transform="translate(245.77886 0)scale(0.996264)" xlink:href="#Nimbus_Roman_No9_L_Regular-110"/>
      <use transform="translate(295.592061 0)scale(0.996264)" xlink:href="#Nimbus_Roman_No9_L_Regular-117"/>
      <use transform="translate(345.405261 0)scale(0.996264)" xlink:href="#Nimbus_Roman_No9_L_Regular-109"/>
      <use transform="translate(422.913631 0)scale(0.996264)" xlink:href="#Nimbus_Roman_No9_L_Regular-98"/>
      <use transform="translate(472.726832 0)scale(0.996264)" xlink:href="#Nimbus_Roman_No9_L_Regular-101"/>
      <use transform="translate(516.960401 0)scale(0.996264)" xlink:href="#Nimbus_Roman_No9_L_Regular-114"/>
      <use transform="translate(575.042231 0)scale(0.996264)" xlink:href="#Nimbus_Roman_No9_L_Regular-40"/>
      <use transform="translate(608.21746 0)scale(0.996264)" xlink:href="#Nimbus_Roman_No9_L_Regular-113"/>
      <use transform="translate(658.030661 0)scale(0.996264)" xlink:href="#Nimbus_Roman_No9_L_Regular-41"/>
     </g>
    </g>
   </g>
   <g id="matplotlib.axis_2">
    <g id="ytick_1">
     <g id="line2d_6">
      <defs>
       <path d="M 0 0 
L -3.5 0 
" id="mdc804bff8c" style="stroke:#000000;stroke-width:0.8;"/>
      </defs>
      <g>
       <use style="stroke:#000000;stroke-width:0.8;" x="48.748093" xlink:href="#mdc804bff8c" y="277.545611"/>
      </g>
     </g>
     <g id="text_7">
      <!-- $0$ -->
      <g transform="translate(31.785453 284.300188)scale(0.2 -0.2)">
       <use transform="scale(0.996264)" xlink:href="#Nimbus_Roman_No9_L_Regular-48"/>
      </g>
     </g>
    </g>
    <g id="ytick_2">
     <g id="line2d_7">
      <g>
       <use style="stroke:#000000;stroke-width:0.8;" x="48.748093" xlink:href="#mdc804bff8c" y="223.534154"/>
      </g>
     </g>
     <g id="text_8">
      <!-- $5$ -->
      <defs>
       <path d="M 18.09375 58.09375 
L 37.703125 58.09375 
C 39.296875 58.09375 39.703125 58.296875 40 58.984375 
L 43.796875 67.890625 
L 42.90625 68.59375 
C 41.40625 66.5 40.40625 66 38.296875 66 
L 17.40625 66 
L 6.5 42.453125 
C 6.40625 42.265625 6.40625 42.15625 6.40625 41.96875 
C 6.40625 41.46875 6.796875 41.171875 7.59375 41.171875 
C 10.796875 41.171875 14.796875 40.484375 18.90625 39.1875 
C 30.40625 35.53125 35.703125 29.40625 35.703125 19.609375 
C 35.703125 10.109375 29.59375 2.6875 21.796875 2.6875 
C 19.796875 2.6875 18.09375 3.390625 15.09375 5.5625 
C 11.90625 7.84375 9.59375 8.828125 7.5 8.828125 
C 4.59375 8.828125 3.203125 7.640625 3.203125 5.171875 
C 3.203125 1.390625 7.90625 -1 15.40625 -1 
C 23.796875 -1 31 1.6875 36 6.75 
C 40.59375 11.203125 42.703125 16.84375 42.703125 24.359375 
C 42.703125 31.484375 40.796875 36.03125 35.796875 40.96875 
C 31.40625 45.328125 25.703125 47.609375 13.90625 49.6875 
z
" id="Nimbus_Roman_No9_L_Regular-53"/>
      </defs>
      <g transform="translate(31.785453 230.288731)scale(0.2 -0.2)">
       <use transform="scale(0.996264)" xlink:href="#Nimbus_Roman_No9_L_Regular-53"/>
      </g>
     </g>
    </g>
    <g id="ytick_3">
     <g id="line2d_8">
      <g>
       <use style="stroke:#000000;stroke-width:0.8;" x="48.748093" xlink:href="#mdc804bff8c" y="169.522696"/>
      </g>
     </g>
     <g id="text_9">
      <!-- $10$ -->
      <defs>
       <path d="M 29.09375 68 
L 11.09375 59 
L 11.09375 57.59375 
C 12.296875 58.09375 13.40625 58.484375 13.796875 58.6875 
C 15.59375 59.390625 17.296875 59.78125 18.296875 59.78125 
C 20.40625 59.78125 21.296875 58.296875 21.296875 55.078125 
L 21.296875 9.359375 
C 21.296875 6.03125 20.5 3.71875 18.90625 2.796875 
C 17.40625 1.890625 16 1.59375 11.796875 1.5 
L 11.796875 0 
L 39.40625 0 
L 39.40625 1.5 
C 31.5 1.59375 29.90625 2.609375 29.90625 7.453125 
L 29.90625 67.796875 
z
" id="Nimbus_Roman_No9_L_Regular-49"/>
      </defs>
      <g transform="translate(21.822813 176.277274)scale(0.2 -0.2)">
       <use transform="scale(0.996264)" xlink:href="#Nimbus_Roman_No9_L_Regular-49"/>
       <use transform="translate(49.8132 0)scale(0.996264)" xlink:href="#Nimbus_Roman_No9_L_Regular-48"/>
      </g>
     </g>
    </g>
    <g id="ytick_4">
     <g id="line2d_9">
      <g>
       <use style="stroke:#000000;stroke-width:0.8;" x="48.748093" xlink:href="#mdc804bff8c" y="115.511239"/>
      </g>
     </g>
     <g id="text_10">
      <!-- $15$ -->
      <g transform="translate(21.822813 122.265817)scale(0.2 -0.2)">
       <use transform="scale(0.996264)" xlink:href="#Nimbus_Roman_No9_L_Regular-49"/>
       <use transform="translate(49.8132 0)scale(0.996264)" xlink:href="#Nimbus_Roman_No9_L_Regular-53"/>
      </g>
     </g>
    </g>
    <g id="ytick_5">
     <g id="line2d_10">
      <g>
       <use style="stroke:#000000;stroke-width:0.8;" x="48.748093" xlink:href="#mdc804bff8c" y="61.499782"/>
      </g>
     </g>
     <g id="text_11">
      <!-- $20$ -->
      <g transform="translate(21.822813 68.254359)scale(0.2 -0.2)">
       <use transform="scale(0.996264)" xlink:href="#Nimbus_Roman_No9_L_Regular-50"/>
       <use transform="translate(49.8132 0)scale(0.996264)" xlink:href="#Nimbus_Roman_No9_L_Regular-48"/>
      </g>
     </g>
    </g>
    <g id="ytick_6">
     <g id="line2d_11">
      <g>
       <use style="stroke:#000000;stroke-width:0.8;" x="48.748093" xlink:href="#mdc804bff8c" y="7.488324"/>
      </g>
     </g>
     <g id="text_12">
      <!-- $25$ -->
      <g transform="translate(21.822813 14.242902)scale(0.2 -0.2)">
       <use transform="scale(0.996264)" xlink:href="#Nimbus_Roman_No9_L_Regular-50"/>
       <use transform="translate(49.8132 0)scale(0.996264)" xlink:href="#Nimbus_Roman_No9_L_Regular-53"/>
      </g>
     </g>
    </g>
    <g id="text_13">
     <!-- Re($\lambda_{max}$) -->
     <defs>
      <path d="M 65.90625 1.890625 
C 62.09375 2.1875 60.09375 3.1875 57.203125 6.578125 
L 36.59375 31.796875 
C 43.296875 33.09375 46.296875 34.28125 49.59375 36.96875 
C 52.796875 39.5625 54.703125 43.75 54.703125 48.4375 
C 54.703125 52.71875 53.40625 56.40625 50.796875 59.296875 
C 47 63.390625 38.703125 66 29.296875 66 
L 1.703125 66 
L 1.703125 64.09375 
C 9.203125 63.296875 10.203125 62.203125 10.203125 55.125 
L 10.203125 11.953125 
C 10.203125 3.6875 9.203125 2.484375 1.703125 1.890625 
L 1.703125 0 
L 29.40625 0 
L 29.40625 1.890625 
C 21.703125 2.390625 20.40625 3.6875 20.40625 10.859375 
L 20.40625 30.5 
L 26 30.703125 
L 49.796875 0 
L 65.90625 0 
z
M 20.40625 58.6875 
C 20.40625 61.484375 21.5 62.296875 25.5 62.296875 
C 38 62.296875 43.796875 57.984375 43.796875 48.59375 
C 43.796875 43.59375 41.703125 39.390625 38.09375 37.484375 
C 33.5 34.890625 30 34.296875 20.40625 34.09375 
z
" id="Nimbus_Roman_No9_L_Regular-82"/>
      <path d="M 7.5 57.03125 
C 8.203125 62.703125 11.09375 66 15.59375 66 
C 18.796875 66 21.5 63.5 23 59.03125 
C 23.703125 57.03125 24.59375 53.75 25.5 49.96875 
L 2.40625 0.296875 
L 11.796875 0.296875 
L 28.796875 35.953125 
C 32 16.546875 33.59375 9.484375 35.40625 5.59375 
C 37.59375 1.296875 40.796875 -1 44.5 -1 
C 48.40625 -1 51.5 1.390625 53.203125 5.796875 
C 54.296875 8.484375 54.703125 11.171875 54.796875 15.84375 
L 52.703125 15.84375 
C 51.90625 10.671875 49.59375 7.796875 46 7.796875 
C 43 7.796875 40.40625 9.6875 38.796875 13.171875 
C 37.5 15.75 36.796875 18.34375 35.40625 25.703125 
L 32.703125 38.53125 
C 32.59375 38.828125 32.5 39.53125 32.296875 40.53125 
C 30 53.359375 26.40625 65.5 24 69.09375 
C 21.796875 72.296875 18.796875 74 15.5 74 
C 9.40625 74 6.203125 68.796875 5.09375 57.03125 
z
" id="Standard_Symbols_L-108"/>
      <path d="M 68.90625 11.59375 
C 67.90625 10.390625 67.09375 9.390625 66.796875 8.984375 
C 64 5.390625 61.90625 3.6875 60.40625 3.6875 
C 59.59375 3.6875 59.09375 4.296875 59.09375 5.296875 
C 59.09375 5.796875 59.5 7.390625 60.09375 9.796875 
L 66.90625 34.890625 
C 67 35.296875 67.203125 37.09375 67.203125 37.6875 
C 67.203125 41.296875 64.703125 44 61.296875 44 
C 59.40625 44 57.40625 43.296875 55 41.796875 
C 50.09375 38.59375 46 33.796875 39.09375 22.796875 
C 41.59375 30.390625 43.09375 36.09375 43.09375 37.984375 
C 43.09375 41.484375 40.796875 44 37.40625 44 
C 31.296875 44 24.296875 37.390625 15.09375 22.890625 
L 20.90625 43.796875 
L 20.59375 44 
C 15 42.796875 12.90625 42.390625 4.59375 40.890625 
L 4.59375 39.296875 
L 7.09375 39.296875 
C 9.703125 39.296875 11 38.59375 11 37.09375 
C 11 35.984375 8.703125 26.890625 5.09375 14.1875 
C 2.796875 6 2.5 5 1.203125 -0.109375 
L 8.703125 -0.109375 
C 13.5 15.796875 15 19.484375 18.40625 24.6875 
C 24 33.1875 30 38.796875 33.40625 38.796875 
C 34.703125 38.796875 35.40625 37.890625 35.40625 36.296875 
C 35.40625 35.390625 32.203125 23.296875 25.90625 -0.109375 
L 33.40625 -0.109375 
C 37.40625 15.484375 39.40625 20.484375 44.5 27.59375 
C 49.40625 34.390625 54.40625 38.796875 57.296875 38.796875 
C 58.40625 38.796875 59.296875 37.796875 59.296875 36.6875 
C 59.296875 36.1875 59.09375 34.984375 58.59375 33.1875 
L 52.796875 10.1875 
C 51.90625 6.5 51.5 4.59375 51.5 3.59375 
C 51.5 0.59375 52.90625 -1 55.5 -1 
C 60.203125 -1 64.59375 2.296875 69.90625 9.6875 
L 70.40625 10.390625 
z
" id="Nimbus_Roman_No9_L_Regular_Italic-109"/>
      <path d="M 46.40625 11.046875 
C 44.90625 9.5625 44.296875 9.0625 43.59375 8.265625 
C 40.59375 5.1875 39.296875 4.1875 38.40625 4.1875 
C 37.59375 4.1875 37 4.78125 37 5.484375 
C 37 7.46875 41.203125 24.484375 45.90625 41.59375 
C 46.203125 42.59375 46.296875 42.796875 46.5 43.6875 
L 45.796875 44 
L 39.703125 43.296875 
L 39.40625 42.984375 
L 38.296875 38.203125 
C 37.5 41.890625 34.59375 44 30.296875 44 
C 17.09375 44 1.703125 25.78125 1.703125 10.0625 
C 1.703125 3.09375 5.5 -1 11.90625 -1 
C 18.90625 -1 23.203125 2.296875 32 14.640625 
C 30 6.875 29.703125 5.578125 29.703125 3.1875 
C 29.703125 0.1875 30.90625 -1 33.703125 -1 
C 37.703125 -1 40.203125 0.890625 47.59375 10 
z
M 30.90625 42 
C 34.296875 41.796875 36.5 39.390625 36.5 35.890625 
C 36.5 27.5 31.5 15.6875 24.59375 8.296875 
C 22.203125 5.59375 18.796875 3.890625 15.90625 3.890625 
C 12.40625 3.890625 10.09375 6.796875 10.09375 11.390625 
C 10.09375 16.796875 13.90625 27.09375 18.203125 33.296875 
C 22.203125 39.09375 26.90625 42.296875 30.90625 42 
z
" id="Nimbus_Roman_No9_L_Regular_Italic-97"/>
      <path d="M 40.203125 11.15625 
C 39.40625 10.265625 38.90625 9.65625 38 8.46875 
C 35.703125 5.484375 34.5 4.5 33.40625 4.5 
C 31.90625 4.5 31 5.78125 30.296875 8.5625 
C 30.09375 9.359375 30 9.96875 29.90625 10.265625 
C 27.40625 20.296875 26.296875 24.875 26.296875 26.359375 
C 30.703125 34.015625 34.296875 38.390625 36.09375 38.390625 
C 36.703125 38.390625 37.5 38.09375 38.5 37.59375 
C 39.703125 36.90625 40.40625 36.703125 41.203125 36.703125 
C 43.296875 36.703125 44.703125 38.1875 44.703125 40.296875 
C 44.703125 42.390625 43 44 40.59375 44 
C 36.203125 44 32.40625 40.390625 25.5 29.75 
L 24.40625 35.21875 
C 23 41.984375 21.90625 44 19.203125 44 
C 17 44 13.59375 43.09375 7.5 41.09375 
L 6.40625 40.6875 
L 6.796875 39.1875 
C 10.59375 40.09375 11.5 40.296875 12.40625 40.296875 
C 14.90625 40.296875 15.5 39.390625 16.90625 33.421875 
L 19.796875 21.203125 
L 11.59375 9.5625 
C 9.59375 6.578125 7.59375 4.796875 6.5 4.796875 
C 5.90625 4.796875 4.90625 5.09375 3.90625 5.6875 
C 2.59375 6.390625 1.5 6.6875 0.703125 6.6875 
C -1.203125 6.6875 -2.703125 5.1875 -2.703125 3.1875 
C -2.703125 0.59375 -0.703125 -1 2.296875 -1 
C 5.40625 -1 6.59375 -0.109375 11.59375 5.984375 
C 14.296875 9.171875 16.40625 11.84375 20.59375 17.609375 
L 23.59375 5.6875 
C 24.90625 0.59375 26.203125 -1 29.40625 -1 
C 33.203125 -1 35.796875 1.390625 41.59375 10.359375 
z
" id="Nimbus_Roman_No9_L_Regular_Italic-120"/>
     </defs>
     <g transform="translate(13.509155 202.306347)rotate(-90)scale(0.2 -0.2)">
      <use transform="translate(0 14.943915)scale(0.996264)" xlink:href="#Nimbus_Roman_No9_L_Regular-82"/>
      <use transform="translate(66.450031 14.943915)scale(0.996264)" xlink:href="#Nimbus_Roman_No9_L_Regular-101"/>
      <use transform="translate(110.6836 14.943915)scale(0.996264)" xlink:href="#Nimbus_Roman_No9_L_Regular-40"/>
      <use transform="translate(143.85883 14.943915)scale(0.996264)" xlink:href="#Standard_Symbols_L-108"/>
      <use transform="translate(198.553596 0)scale(0.737241)" xlink:href="#Nimbus_Roman_No9_L_Regular_Italic-109"/>
      <use transform="translate(251.782181 0)scale(0.737241)" xlink:href="#Nimbus_Roman_No9_L_Regular_Italic-97"/>
      <use transform="translate(288.644223 0)scale(0.737241)" xlink:href="#Nimbus_Roman_No9_L_Regular_Italic-120"/>
      <use transform="translate(322.095851 14.943915)scale(0.996264)" xlink:href="#Nimbus_Roman_No9_L_Regular-41"/>
     </g>
    </g>
   </g>
   <g id="line2d_12">
    <path clip-path="url(#paa170ee3b3)" d="M 63.966275 288.347902 
L 67.040655 277.616149 
L 70.115035 277.827764 
L 73.189415 278.180456 
L 76.263796 278.674225 
L 79.338176 279.30907 
L 82.412556 280.084993 
L 85.486936 281.001992 
L 88.561316 282.060067 
L 91.635696 282.664514 
L 94.710077 281.340126 
L 97.784457 279.880197 
L 100.858837 278.285888 
L 103.933217 276.558472 
L 107.007597 274.699329 
L 110.081977 272.709952 
L 113.156358 270.591944 
L 116.230738 268.347018 
L 119.305118 265.976999 
L 122.379498 263.483821 
L 125.453878 260.86953 
L 128.528258 258.13628 
L 131.602639 255.286338 
L 134.677019 252.322081 
L 137.751399 249.245995 
L 140.825779 246.06068 
L 143.900159 242.768844 
L 146.974539 239.373304 
L 150.04892 235.876991 
L 153.1233 232.282945 
L 156.19768 228.594317 
L 159.27206 224.814367 
L 162.34644 220.946467 
L 165.42082 216.9941 
L 168.495201 212.960857 
L 171.569581 208.850444 
L 174.643961 204.666673 
L 177.718341 200.413468 
L 180.792721 196.094865 
L 183.867101 191.71501 
L 186.941482 187.278158 
L 190.015862 182.788676 
L 193.090242 178.251041 
L 196.164622 173.66984 
L 199.239002 169.049773 
L 202.313382 164.395647 
L 205.387763 159.712383 
L 208.462143 155.00501 
L 211.536523 150.278668 
L 214.610903 145.538608 
L 217.685283 140.790192 
L 220.759663 136.038893 
L 223.834044 131.290291 
L 226.908424 126.550082 
L 229.982804 121.824068 
L 233.057184 117.118164 
L 236.131564 112.438395 
L 239.205944 107.790895 
L 242.280324 103.181911 
L 245.354705 98.6178 
L 248.429085 94.105027 
L 251.503465 89.650171 
L 254.577845 85.259921 
L 257.652225 80.941073 
L 260.726605 76.700538 
L 263.800986 72.545336 
L 266.875366 68.482596 
L 269.949746 64.51956 
L 273.024126 60.663579 
L 276.098506 56.922114 
L 279.172886 53.302738 
L 282.247267 49.813135 
L 285.321647 46.461097 
L 288.396027 43.25453 
L 291.470407 40.201446 
L 294.544787 37.309973 
L 297.619167 34.588344 
L 300.693548 32.044908 
L 303.767928 29.68812 
L 306.842308 27.526548 
L 309.916688 25.56887 
L 312.991068 23.823874 
L 316.065448 22.30046 
L 319.139829 21.007636 
L 322.214209 19.954523 
L 325.288589 19.150352 
L 328.362969 18.604464 
L 331.437349 18.326311 
L 334.511729 18.325455 
L 337.58611 18.611568 
L 340.66049 19.194434 
L 343.73487 20.083948 
L 346.80925 21.290113 
L 349.88363 22.823045 
L 352.95801 24.692969 
L 356.032391 26.910222 
L 359.106771 29.485249 
L 362.181151 32.428609 
L 365.255531 35.750969 
L 368.329911 39.463107 
" style="fill:none;stroke:#fee5d8;stroke-linecap:square;stroke-width:3;"/>
   </g>
   <g id="line2d_13">
    <path clip-path="url(#paa170ee3b3)" d="M 63.966275 288.347902 
L 67.040655 277.761063 
L 70.115035 278.462527 
L 73.189415 279.946305 
L 76.263796 282.947346 
L 79.338176 282.948196 
L 82.412556 282.949741 
L 85.486936 282.952286 
L 88.561316 282.95619 
L 91.635696 282.961867 
L 94.710077 282.969787 
L 97.784457 282.980476 
L 100.858837 282.994513 
L 103.933217 283.012534 
L 107.007597 283.035231 
L 110.081977 283.063349 
L 113.156358 283.09769 
L 116.230738 283.13911 
L 119.305118 283.188523 
L 122.379498 283.246894 
L 125.453878 283.315246 
L 128.528258 283.394658 
L 131.602639 275.893974 
L 134.677019 270.492009 
L 137.751399 266.103184 
L 140.825779 262.045251 
L 143.900159 258.119661 
L 146.974539 254.240024 
L 150.04892 250.361595 
L 153.1233 246.45894 
L 156.19768 242.516877 
L 159.27206 238.526213 
L 162.34644 234.481499 
L 165.42082 230.37977 
L 168.495201 226.219777 
L 171.569581 222.001511 
L 174.643961 217.725885 
L 177.718341 213.394522 
L 180.792721 209.009607 
L 183.867101 204.573783 
L 186.941482 200.090068 
L 190.015862 195.561805 
L 193.090242 190.992615 
L 196.164622 186.386366 
L 199.239002 181.747147 
L 202.313382 177.079247 
L 205.387763 172.387143 
L 208.462143 167.675483 
L 211.536523 162.949079 
L 214.610903 158.2129 
L 217.685283 153.472061 
L 220.759663 148.731821 
L 223.834044 143.997577 
L 226.908424 139.274861 
L 229.982804 134.569339 
L 233.057184 129.886801 
L 236.131564 125.233169 
L 239.205944 120.614486 
L 242.280324 116.036921 
L 245.354705 111.506764 
L 248.429085 107.030424 
L 251.503465 102.614433 
L 254.577845 98.265441 
L 257.652225 93.990213 
L 260.726605 89.795637 
L 263.800986 85.688714 
L 266.875366 81.676563 
L 269.949746 77.766418 
L 273.024126 73.965632 
L 276.098506 70.281669 
L 279.172886 66.722113 
L 282.247267 63.294659 
L 285.321647 60.00712 
L 288.396027 56.867422 
L 291.470407 53.883607 
L 294.544787 51.06383 
L 297.619167 48.416362 
L 300.693548 45.949589 
L 303.767928 43.672009 
L 306.842308 41.592238 
L 309.916688 39.719004 
L 312.991068 38.06115 
L 316.065448 36.627636 
L 319.139829 35.427534 
L 322.214209 34.470032 
L 325.288589 33.764433 
L 328.362969 33.320157 
L 331.437349 33.146737 
L 334.511729 33.253822 
L 337.58611 33.651178 
L 340.66049 34.348685 
L 343.73487 35.356343 
L 346.80925 36.684265 
L 349.88363 38.342683 
L 352.95801 40.341944 
L 356.032391 42.692516 
L 359.106771 45.404982 
L 362.181151 48.490046 
L 365.255531 51.958529 
L 368.329911 55.821373 
" style="fill:none;stroke:#fcbba1;stroke-linecap:square;stroke-width:3;"/>
   </g>
   <g id="line2d_14">
    <path clip-path="url(#paa170ee3b3)" d="M 63.966275 288.347902 
L 67.040655 277.910144 
L 70.115035 279.203421 
L 73.189415 282.946943 
L 76.263796 282.947346 
L 79.338176 282.948196 
L 82.412556 282.949741 
L 85.486936 282.952286 
L 88.561316 282.95619 
L 91.635696 282.961867 
L 94.710077 282.969787 
L 97.784457 282.980476 
L 100.858837 282.994513 
L 103.933217 283.012534 
L 107.007597 283.035231 
L 110.081977 283.063349 
L 113.156358 283.09769 
L 116.230738 283.13911 
L 119.305118 283.188523 
L 122.379498 283.246894 
L 125.453878 283.315246 
L 128.528258 283.394658 
L 131.602639 283.486262 
L 134.677019 283.591247 
L 137.751399 283.710856 
L 140.825779 283.846389 
L 143.900159 283.999199 
L 146.974539 284.170697 
L 150.04892 284.362346 
L 153.1233 271.489758 
L 156.19768 264.383329 
L 159.27206 258.575594 
L 162.34644 253.295093 
L 165.42082 248.284012 
L 168.495201 243.422702 
L 171.569581 238.646293 
L 174.643961 233.916379 
L 177.718341 229.209031 
L 180.792721 224.508955 
L 183.867101 219.80636 
L 186.941482 215.095139 
L 190.015862 210.371766 
L 193.090242 205.634577 
L 196.164622 200.883304 
L 199.239002 196.118747 
L 202.313382 191.342549 
L 205.387763 186.557024 
L 208.462143 181.765046 
L 211.536523 176.96995 
L 214.610903 172.175467 
L 217.685283 167.385671 
L 220.759663 162.604936 
L 223.834044 157.837906 
L 226.908424 153.089465 
L 229.982804 148.364721 
L 233.057184 143.668985 
L 236.131564 139.007761 
L 239.205944 134.386729 
L 242.280324 129.811744 
L 245.354705 125.28882 
L 248.429085 120.824127 
L 251.503465 116.423987 
L 254.577845 112.094867 
L 257.652225 107.843375 
L 260.726605 103.67626 
L 263.800986 99.600403 
L 266.875366 95.622822 
L 269.949746 91.750665 
L 273.024126 87.991207 
L 276.098506 84.351856 
L 279.172886 80.840141 
L 282.247267 77.463721 
L 285.321647 74.230378 
L 288.396027 71.148017 
L 291.470407 68.224667 
L 294.544787 65.468481 
L 297.619167 62.887731 
L 300.693548 60.490815 
L 303.767928 58.286248 
L 306.842308 56.28267 
L 309.916688 54.48884 
L 312.991068 52.913639 
L 316.065448 51.56607 
L 319.139829 50.455256 
L 322.214209 49.590441 
L 325.288589 48.980993 
L 328.362969 48.636398 
L 331.437349 48.566268 
L 334.511729 48.780334 
L 337.58611 49.288452 
L 340.66049 50.1006 
L 343.73487 51.22688 
L 346.80925 52.677519 
L 349.88363 54.462869 
L 352.95801 56.593406 
L 356.032391 59.079735 
L 359.106771 61.932586 
L 362.181151 65.162818 
L 365.255531 68.781421 
L 368.329911 72.799514 
" style="fill:none;stroke:#fc8a6a;stroke-linecap:square;stroke-width:3;"/>
   </g>
   <g id="line2d_15">
    <path clip-path="url(#paa170ee3b3)" d="M 63.966275 288.347902 
L 67.040655 278.063774 
L 70.115035 280.133072 
L 73.189415 282.946943 
L 76.263796 282.947346 
L 79.338176 282.948196 
L 82.412556 282.949741 
L 85.486936 282.952286 
L 88.561316 282.95619 
L 91.635696 282.961867 
L 94.710077 282.969787 
L 97.784457 282.980476 
L 100.858837 282.994513 
L 103.933217 283.012534 
L 107.007597 283.035231 
L 110.081977 283.063349 
L 113.156358 283.09769 
L 116.230738 283.13911 
L 119.305118 283.188523 
L 122.379498 283.246894 
L 125.453878 283.315246 
L 128.528258 283.394658 
L 131.602639 283.486262 
L 134.677019 283.591247 
L 137.751399 283.710856 
L 140.825779 283.846389 
L 143.900159 283.999199 
L 146.974539 284.170697 
L 150.04892 284.362346 
L 153.1233 284.575667 
L 156.19768 284.812234 
L 159.27206 285.07368 
L 162.34644 285.361689 
L 165.42082 285.678003 
L 168.495201 278.729396 
L 171.569581 266.059702 
L 174.643961 258.123145 
L 177.718341 251.430398 
L 180.792721 245.337751 
L 183.867101 239.592217 
L 186.941482 234.067023 
L 190.015862 228.690031 
L 193.090242 223.416984 
L 196.164622 218.219467 
L 199.239002 213.07879 
L 202.313382 207.982603 
L 205.387763 202.922874 
L 208.462143 197.894638 
L 211.536523 192.895171 
L 214.610903 187.92344 
L 217.685283 182.979717 
L 220.759663 178.065303 
L 223.834044 173.182329 
L 226.908424 168.333604 
L 229.982804 163.52251 
L 233.057184 158.752907 
L 236.131564 154.029075 
L 239.205944 149.355654 
L 242.280324 144.737607 
L 245.354705 140.180186 
L 248.429085 135.688902 
L 251.503465 131.269507 
L 254.577845 126.927976 
L 257.652225 122.670487 
L 260.726605 118.503414 
L 263.800986 114.433315 
L 266.875366 110.466924 
L 269.949746 106.611139 
L 273.024126 102.873025 
L 276.098506 99.2598 
L 279.172886 95.778834 
L 282.247267 92.437647 
L 285.321647 89.243904 
L 288.396027 86.205411 
L 291.470407 83.330115 
L 294.544787 80.626102 
L 297.619167 78.101591 
L 300.693548 75.76494 
L 303.767928 73.62464 
L 306.842308 71.689313 
L 309.916688 69.967715 
L 312.991068 68.468735 
L 316.065448 67.20139 
L 319.139829 66.17483 
L 322.214209 65.398337 
L 325.288589 64.881321 
L 328.362969 64.633326 
L 331.437349 64.664027 
L 334.511729 64.983227 
L 337.58611 65.600867 
L 340.66049 66.527016 
L 343.73487 67.771879 
L 346.80925 69.345794 
L 349.88363 71.259236 
L 352.95801 73.522814 
L 356.032391 76.147278 
L 359.106771 79.143513 
L 362.181151 82.522548 
L 365.255531 86.295552 
L 368.329911 90.473841 
" style="fill:none;stroke:#f6583e;stroke-linecap:square;stroke-width:3;"/>
   </g>
   <g id="line2d_16">
    <path clip-path="url(#paa170ee3b3)" d="M 63.966275 288.347902 
L 67.040655 278.222398 
L 70.115035 281.597267 
L 73.189415 282.946943 
L 76.263796 282.947346 
L 79.338176 282.948196 
L 82.412556 282.949741 
L 85.486936 282.952286 
L 88.561316 282.95619 
L 91.635696 282.961867 
L 94.710077 282.969787 
L 97.784457 282.980476 
L 100.858837 282.994513 
L 103.933217 283.012534 
L 107.007597 283.035231 
L 110.081977 283.063349 
L 113.156358 283.09769 
L 116.230738 283.13911 
L 119.305118 283.188523 
L 122.379498 283.246894 
L 125.453878 283.315246 
L 128.528258 283.394658 
L 131.602639 283.486262 
L 134.677019 283.591247 
L 137.751399 283.710856 
L 140.825779 283.846389 
L 143.900159 283.999199 
L 146.974539 284.170697 
L 150.04892 284.362346 
L 153.1233 284.575667 
L 156.19768 284.812234 
L 159.27206 285.07368 
L 162.34644 285.361689 
L 165.42082 285.678003 
L 168.495201 286.024417 
L 171.569581 286.402785 
L 174.643961 286.815011 
L 177.718341 287.26306 
L 180.792721 287.748948 
L 183.867101 281.059666 
L 186.941482 265.135228 
L 190.015862 255.830623 
L 193.090242 248.15927 
L 196.164622 241.291515 
L 199.239002 234.905333 
L 202.313382 228.839736 
L 205.387763 223.002921 
L 208.462143 217.338261 
L 211.536523 211.809076 
L 214.610903 206.390927 
L 217.685283 201.067339 
L 220.759663 195.827267 
L 223.834044 190.663513 
L 226.908424 185.571696 
L 229.982804 180.549548 
L 233.057184 175.596433 
L 236.131564 170.712997 
L 239.205944 165.900917 
L 242.280324 161.16271 
L 245.354705 156.501595 
L 248.429085 151.921377 
L 251.503465 147.426371 
L 254.577845 143.021327 
L 257.652225 138.711381 
L 260.726605 134.502014 
L 263.800986 130.399012 
L 266.875366 126.408443 
L 269.949746 122.536633 
L 273.024126 118.790145 
L 276.098506 115.175763 
L 279.172886 111.700483 
L 282.247267 108.371496 
L 285.321647 105.196184 
L 288.396027 102.182109 
L 291.470407 99.337007 
L 294.544787 96.668783 
L 297.619167 94.185504 
L 300.693548 91.8954 
L 303.767928 89.806855 
L 306.842308 87.928408 
L 309.916688 86.26875 
L 312.991068 84.836719 
L 316.065448 83.641304 
L 319.139829 82.691638 
L 322.214209 81.997002 
L 325.288589 81.566822 
L 328.362969 81.410668 
L 331.437349 81.538255 
L 334.511729 81.959445 
L 337.58611 82.684243 
L 340.66049 83.722801 
L 343.73487 85.085418 
L 346.80925 86.78254 
L 349.88363 88.824762 
L 352.95801 91.22283 
L 356.032391 93.987643 
L 359.106771 97.130252 
L 362.181151 100.661866 
L 365.255531 104.593853 
L 368.329911 108.937739 
" style="fill:none;stroke:#d92523;stroke-linecap:square;stroke-width:3;"/>
   </g>
   <g id="line2d_17">
    <path clip-path="url(#paa170ee3b3)" d="M 63.966275 288.347902 
L 67.040655 278.644468 
L 70.115035 282.946794 
L 73.189415 282.946943 
L 76.263796 282.947346 
L 79.338176 282.948196 
L 82.412556 282.949741 
L 85.486936 282.952286 
L 88.561316 282.95619 
L 91.635696 282.961867 
L 94.710077 282.969787 
L 97.784457 282.980476 
L 100.858837 282.994513 
L 103.933217 283.012534 
L 107.007597 283.035231 
L 110.081977 283.063349 
L 113.156358 283.09769 
L 116.230738 283.13911 
L 119.305118 283.188523 
L 122.379498 283.246894 
L 125.453878 283.315246 
L 128.528258 283.394658 
L 131.602639 283.486262 
L 134.677019 283.591247 
L 137.751399 283.710856 
L 140.825779 283.846389 
L 143.900159 283.999199 
L 146.974539 284.170697 
L 150.04892 284.362346 
L 153.1233 284.575667 
L 156.19768 284.812234 
L 159.27206 285.07368 
L 162.34644 285.361689 
L 165.42082 285.678003 
L 168.495201 286.024417 
L 171.569581 286.402785 
L 174.643961 286.815011 
L 177.718341 287.26306 
L 180.792721 287.748948 
L 183.867101 288.274748 
L 186.941482 288.842588 
L 190.015862 289.454651 
L 193.090242 290.113176 
L 196.164622 290.820457 
L 199.239002 291.578843 
L 202.313382 292.390738 
L 205.387763 293.258602 
L 208.462143 294.18495 
L 211.536523 295.172352 
L 214.610903 296.223434 
L 217.685283 297.340875 
L 220.759663 273.272303 
L 223.834044 259.713844 
L 226.908424 249.64838 
L 229.982804 241.132981 
L 233.057184 233.536945 
L 236.131564 226.566518 
L 239.205944 220.059913 
L 242.280324 213.918937 
L 245.354705 208.080243 
L 248.429085 202.501339 
L 251.503465 197.153064 
L 254.577845 192.015218 
L 257.652225 187.073874 
L 260.726605 182.319652 
L 263.800986 177.746555 
L 266.875366 173.351173 
L 269.949746 169.132112 
L 273.024126 165.089587 
L 276.098506 161.225111 
L 279.172886 157.541269 
L 282.247267 154.041538 
L 285.321647 150.730158 
L 288.396027 147.612016 
L 291.470407 144.692567 
L 294.544787 141.977765 
L 297.619167 139.474008 
L 300.693548 137.188092 
L 303.767928 135.127176 
L 306.842308 133.298755 
L 309.916688 131.710628 
L 312.991068 130.370886 
L 316.065448 129.28789 
L 319.139829 128.470259 
L 322.214209 127.926857 
L 325.288589 127.666786 
L 328.362969 127.699379 
L 331.437349 128.03419 
L 334.511729 128.680994 
L 337.58611 129.649779 
L 340.66049 130.950749 
L 343.73487 132.594317 
L 346.80925 134.591112 
L 349.88363 136.951969 
L 352.95801 139.687942 
L 356.032391 142.810298 
L 359.106771 146.330522 
L 362.181151 150.260322 
L 365.255531 154.611636 
L 368.329911 159.396632 
" style="fill:none;stroke:#ac1117;stroke-linecap:square;stroke-width:3;"/>
   </g>
   <g id="line2d_18">
    <path clip-path="url(#paa170ee3b3)" d="M 63.966275 288.347902 
L 67.040655 279.112723 
L 70.115035 282.946794 
L 73.189415 282.946943 
L 76.263796 282.947346 
L 79.338176 282.948196 
L 82.412556 282.949741 
L 85.486936 282.952286 
L 88.561316 282.95619 
L 91.635696 282.961867 
L 94.710077 282.969787 
L 97.784457 282.980476 
L 100.858837 282.994513 
L 103.933217 283.012534 
L 107.007597 283.035231 
L 110.081977 283.063349 
L 113.156358 283.09769 
L 116.230738 283.13911 
L 119.305118 283.188523 
L 122.379498 283.246894 
L 125.453878 283.315246 
L 128.528258 283.394658 
L 131.602639 283.486262 
L 134.677019 283.591247 
L 137.751399 283.710856 
L 140.825779 283.846389 
L 143.900159 283.999199 
L 146.974539 284.170697 
L 150.04892 284.362346 
L 153.1233 284.575667 
L 156.19768 284.812234 
L 159.27206 285.07368 
L 162.34644 285.361689 
L 165.42082 285.678003 
L 168.495201 286.024417 
L 171.569581 286.402785 
L 174.643961 286.815011 
L 177.718341 287.26306 
L 180.792721 287.748948 
L 183.867101 288.274748 
L 186.941482 288.842588 
L 190.015862 289.454651 
L 193.090242 290.113176 
L 196.164622 290.820457 
L 199.239002 291.578843 
L 202.313382 292.390738 
L 205.387763 293.258602 
L 208.462143 294.18495 
L 211.536523 295.172352 
L 214.610903 296.223434 
L 217.685283 297.340875 
L 220.759663 298.527414 
L 223.834044 299.78584 
L 226.908424 301.119 
L 229.982804 302.529796 
L 233.057184 304.021186 
L 236.131564 305.596181 
L 239.205944 307.25785 
L 242.280324 309.009315 
L 245.354705 310.853754 
L 248.429085 312.794401 
L 251.503465 314.834545 
L 254.577845 285.826314 
L 257.652225 270.822544 
L 260.726605 260.024697 
L 263.800986 251.186444 
L 266.875366 243.558327 
L 269.949746 236.786367 
L 273.024126 230.673639 
L 276.098506 225.099622 
L 279.172886 219.985967 
L 282.247267 215.279723 
L 285.321647 210.944261 
L 288.396027 206.953979 
L 291.470407 203.291031 
L 294.544787 199.943212 
L 297.619167 196.902536 
L 300.693548 194.164255 
L 303.767928 191.726156 
L 306.842308 189.588053 
L 309.916688 187.751411 
L 312.991068 186.219056 
L 316.065448 184.994964 
L 319.139829 184.084088 
L 322.214209 183.492227 
L 325.288589 183.225923 
L 328.362969 183.292379 
L 331.437349 183.699392 
L 334.511729 184.455303 
L 337.58611 185.568951 
L 340.66049 187.049647 
L 343.73487 188.907143 
L 346.80925 191.151613 
L 349.88363 193.793644 
L 352.95801 196.844218 
L 356.032391 200.314714 
L 359.106771 204.216901 
L 362.181151 208.562945 
L 365.255531 213.365408 
L 368.329911 218.63726 
" style="fill:none;stroke:#67000d;stroke-linecap:square;stroke-width:3;"/>
   </g>
   <g id="line2d_19">
    <path clip-path="url(#paa170ee3b3)" d="M 63.966275 277.545611 
L 67.040655 277.545611 
L 70.115035 277.545611 
L 73.189415 277.545611 
L 76.263796 277.545611 
L 79.338176 277.545611 
L 82.412556 277.545611 
L 85.486936 277.545611 
L 88.561316 277.545611 
L 91.635696 277.545611 
L 94.710077 277.545611 
L 97.784457 277.545611 
L 100.858837 277.545611 
L 103.933217 277.545611 
L 107.007597 277.545611 
L 110.081977 277.545611 
L 113.156358 277.545611 
L 116.230738 277.545611 
L 119.305118 277.545611 
L 122.379498 277.545611 
L 125.453878 277.545611 
L 128.528258 277.545611 
L 131.602639 277.545611 
L 134.677019 277.545611 
L 137.751399 277.545611 
L 140.825779 277.545611 
L 143.900159 277.545611 
L 146.974539 277.545611 
L 150.04892 277.545611 
L 153.1233 277.545611 
L 156.19768 277.545611 
L 159.27206 277.545611 
L 162.34644 277.545611 
L 165.42082 277.545611 
L 168.495201 277.545611 
L 171.569581 277.545611 
L 174.643961 277.545611 
L 177.718341 277.545611 
L 180.792721 277.545611 
L 183.867101 277.545611 
L 186.941482 277.545611 
L 190.015862 277.545611 
L 193.090242 277.545611 
L 196.164622 277.545611 
L 199.239002 277.545611 
L 202.313382 277.545611 
L 205.387763 277.545611 
L 208.462143 277.545611 
L 211.536523 277.545611 
L 214.610903 277.545611 
L 217.685283 277.545611 
L 220.759663 277.545611 
L 223.834044 277.545611 
L 226.908424 277.545611 
L 229.982804 277.545611 
L 233.057184 277.545611 
L 236.131564 277.545611 
L 239.205944 277.545611 
L 242.280324 277.545611 
L 245.354705 277.545611 
L 248.429085 277.545611 
L 251.503465 277.545611 
L 254.577845 277.545611 
L 257.652225 277.545611 
L 260.726605 277.545611 
L 263.800986 277.545611 
L 266.875366 277.545611 
L 269.949746 277.545611 
L 273.024126 277.545611 
L 276.098506 277.545611 
L 279.172886 277.545611 
L 282.247267 277.545611 
L 285.321647 277.545611 
L 288.396027 277.545611 
L 291.470407 277.545611 
L 294.544787 277.545611 
L 297.619167 277.545611 
L 300.693548 277.545611 
L 303.767928 277.545611 
L 306.842308 277.545611 
L 309.916688 277.545611 
L 312.991068 277.545611 
L 316.065448 277.545611 
L 319.139829 277.545611 
L 322.214209 277.545611 
L 325.288589 277.545611 
L 328.362969 277.545611 
L 331.437349 277.545611 
L 334.511729 277.545611 
L 337.58611 277.545611 
L 340.66049 277.545611 
L 343.73487 277.545611 
L 346.80925 277.545611 
L 349.88363 277.545611 
L 352.95801 277.545611 
L 356.032391 277.545611 
L 359.106771 277.545611 
L 362.181151 277.545611 
L 365.255531 277.545611 
L 368.329911 277.545611 
" style="fill:none;stroke:#000000;stroke-dasharray:5.55,2.4;stroke-dashoffset:0;stroke-width:1.5;"/>
   </g>
   <g id="patch_3">
    <path d="M 48.748093 329.66 
L 48.748093 3.5 
" style="fill:none;stroke:#000000;stroke-linecap:square;stroke-linejoin:miter;stroke-width:0.8;"/>
   </g>
   <g id="patch_4">
    <path d="M 383.548093 329.66 
L 383.548093 3.5 
" style="fill:none;stroke:#000000;stroke-linecap:square;stroke-linejoin:miter;stroke-width:0.8;"/>
   </g>
   <g id="patch_5">
    <path d="M 48.748093 329.66 
L 383.548093 329.66 
" style="fill:none;stroke:#000000;stroke-linecap:square;stroke-linejoin:miter;stroke-width:0.8;"/>
   </g>
   <g id="patch_6">
    <path d="M 48.748093 3.5 
L 383.548093 3.5 
" style="fill:none;stroke:#000000;stroke-linecap:square;stroke-linejoin:miter;stroke-width:0.8;"/>
   </g>
  </g>
 </g>
 <defs>
  <clipPath id="paa170ee3b3">
   <rect height="326.16" width="334.8" x="48.748093" y="3.5"/>
  </clipPath>
 </defs>
</svg>
