<?xml version="1.0" encoding="utf-8" standalone="no"?>
<!DOCTYPE svg PUBLIC "-//W3C//DTD SVG 1.1//EN"
  "http://www.w3.org/Graphics/SVG/1.1/DTD/svg11.dtd">
<!-- Created with matplotlib (http://matplotlib.org/) -->
<svg height="376.305626pt" version="1.1" viewBox="0 0 620.765314 376.305626" width="620.765314pt" xmlns="http://www.w3.org/2000/svg" xmlns:xlink="http://www.w3.org/1999/xlink">
 <defs>
  <style type="text/css">
*{stroke-linecap:butt;stroke-linejoin:round;}
  </style>
 </defs>
 <g id="figure_1">
  <g id="patch_1">
   <path d="M 0 376.305626 
L 620.765314 376.305626 
L 620.765314 0 
L 0 0 
z
" style="fill:#ffffff;"/>
  </g>
  <g id="axes_1">
   <g id="patch_2">
    <path d="M 38.785453 329.66 
L 373.585453 329.66 
L 373.585453 3.5 
L 38.785453 3.5 
z
" style="fill:#ffffff;"/>
   </g>
   <g id="matplotlib.axis_1">
    <g id="xtick_1">
     <g id="line2d_1">
      <defs>
       <path d="M 0 0 
L 0 3.5 
" id="m2b7bb5a4ac" style="stroke:#000000;stroke-width:0.8;"/>
      </defs>
      <g>
       <use style="stroke:#000000;stroke-width:0.8;" x="54.003635" xlink:href="#m2b7bb5a4ac" y="329.66"/>
      </g>
     </g>
     <g id="text_1">
      <!-- $0$ -->
      <defs>
       <path d="M 25.40625 68 
C 19.90625 68 15.703125 66.296875 12 62.796875 
C 6.203125 57.203125 2.40625 45.6875 2.40625 34 
C 2.40625 23.09375 5.703125 11.390625 10.40625 5.796875 
C 14.09375 1.390625 19.203125 -1 25 -1 
C 30.09375 -1 34.40625 0.6875 38 4.1875 
C 43.796875 9.6875 47.59375 21.296875 47.59375 33.390625 
C 47.59375 53.890625 38.5 68 25.40625 68 
z
M 25.09375 65.390625 
C 33.5 65.390625 38 54.09375 38 33.1875 
C 38 12.296875 33.59375 1.59375 25 1.59375 
C 16.40625 1.59375 12 12.296875 12 33.09375 
C 12 54.296875 16.5 65.390625 25.09375 65.390625 
z
" id="Nimbus_Roman_No9_L_Regular-48"/>
      </defs>
      <g transform="translate(49.022315 350.169155)scale(0.2 -0.2)">
       <use transform="scale(0.996264)" xlink:href="#Nimbus_Roman_No9_L_Regular-48"/>
      </g>
     </g>
    </g>
    <g id="xtick_2">
     <g id="line2d_2">
      <g>
       <use style="stroke:#000000;stroke-width:0.8;" x="175.749089" xlink:href="#m2b7bb5a4ac" y="329.66"/>
      </g>
     </g>
     <g id="text_2">
      <!-- $10$ -->
      <defs>
       <path d="M 29.09375 68 
L 11.09375 59 
L 11.09375 57.59375 
C 12.296875 58.09375 13.40625 58.484375 13.796875 58.6875 
C 15.59375 59.390625 17.296875 59.78125 18.296875 59.78125 
C 20.40625 59.78125 21.296875 58.296875 21.296875 55.078125 
L 21.296875 9.359375 
C 21.296875 6.03125 20.5 3.71875 18.90625 2.796875 
C 17.40625 1.890625 16 1.59375 11.796875 1.5 
L 11.796875 0 
L 39.40625 0 
L 39.40625 1.5 
C 31.5 1.59375 29.90625 2.609375 29.90625 7.453125 
L 29.90625 67.796875 
z
" id="Nimbus_Roman_No9_L_Regular-49"/>
      </defs>
      <g transform="translate(165.786449 350.169155)scale(0.2 -0.2)">
       <use transform="scale(0.996264)" xlink:href="#Nimbus_Roman_No9_L_Regular-49"/>
       <use transform="translate(49.8132 0)scale(0.996264)" xlink:href="#Nimbus_Roman_No9_L_Regular-48"/>
      </g>
     </g>
    </g>
    <g id="xtick_3">
     <g id="line2d_3">
      <g>
       <use style="stroke:#000000;stroke-width:0.8;" x="297.494544" xlink:href="#m2b7bb5a4ac" y="329.66"/>
      </g>
     </g>
     <g id="text_3">
      <!-- $20$ -->
      <defs>
       <path d="M 47.5 13.734375 
L 46.203125 14.25 
C 42.5 8.5 41.203125 7.59375 36.703125 7.59375 
L 12.796875 7.59375 
L 29.59375 25.328125 
C 38.5 34.703125 42.40625 42.359375 42.40625 50.21875 
C 42.40625 60.28125 34.296875 68 23.90625 68 
C 18.40625 68 13.203125 65.796875 9.5 61.796875 
C 6.296875 58.375 4.796875 55.15625 3.09375 48 
L 5.203125 47.484375 
C 9.203125 57.359375 12.796875 60.59375 19.703125 60.59375 
C 28.09375 60.59375 33.796875 54.84375 33.796875 46.390625 
C 33.796875 38.53125 29.203125 29.15625 20.796875 20.1875 
L 3 1.1875 
L 3 0 
L 42 0 
z
" id="Nimbus_Roman_No9_L_Regular-50"/>
      </defs>
      <g transform="translate(287.531904 350.169155)scale(0.2 -0.2)">
       <use transform="scale(0.996264)" xlink:href="#Nimbus_Roman_No9_L_Regular-50"/>
       <use transform="translate(49.8132 0)scale(0.996264)" xlink:href="#Nimbus_Roman_No9_L_Regular-48"/>
      </g>
     </g>
    </g>
    <g id="text_4">
     <!-- K -->
     <defs>
      <path d="M 41.296875 64.09375 
C 42.5 64 43.5 64 43.90625 64 
C 46.90625 63.796875 48.09375 63 48.09375 61 
C 48.09375 58.8125 45.796875 55.828125 40.296875 50.734375 
L 22.59375 34.6875 
L 22.59375 55.125 
C 22.59375 62.40625 23.703125 63.5 31.796875 64.09375 
L 31.796875 66 
L 3.40625 66 
L 3.40625 64.09375 
C 11.203125 63.5 12.40625 62.203125 12.40625 55.125 
L 12.40625 11.953125 
C 12.40625 3.6875 11.296875 2.390625 3.40625 1.890625 
L 3.40625 0 
L 31.59375 0 
L 31.59375 1.890625 
C 23.796875 2.390625 22.59375 3.59375 22.59375 10.859375 
L 22.59375 29.5 
L 25.203125 31.59375 
L 35.796875 21.125 
C 43.40625 13.65625 48.796875 6.578125 48.796875 4.1875 
C 48.796875 2.796875 47.40625 2.09375 44.59375 1.984375 
C 44.09375 1.984375 43 1.984375 41.796875 1.890625 
L 41.796875 0 
L 72.296875 0 
L 72.296875 1.890625 
C 67.09375 1.984375 65.703125 2.984375 56.59375 12.65625 
L 33.296875 37.578125 
L 52.296875 56.328125 
C 59.09375 62.796875 60.703125 63.59375 67.5 64.09375 
L 67.5 66 
L 41.296875 66 
z
" id="Nimbus_Roman_No9_L_Regular-75"/>
     </defs>
     <g transform="translate(198.992456 371.991968)scale(0.2 -0.2)">
      <use transform="scale(0.996264)" xlink:href="#Nimbus_Roman_No9_L_Regular-75"/>
     </g>
    </g>
   </g>
   <g id="matplotlib.axis_2">
    <g id="ytick_1">
     <g id="line2d_4">
      <defs>
       <path d="M 0 0 
L -3.5 0 
" id="m386105dc9e" style="stroke:#000000;stroke-width:0.8;"/>
      </defs>
      <g>
       <use style="stroke:#000000;stroke-width:0.8;" x="38.785453" xlink:href="#m386105dc9e" y="314.834545"/>
      </g>
     </g>
     <g id="text_5">
      <!-- $0$ -->
      <g transform="translate(21.822813 321.589123)scale(0.2 -0.2)">
       <use transform="scale(0.996264)" xlink:href="#Nimbus_Roman_No9_L_Regular-48"/>
      </g>
     </g>
    </g>
    <g id="ytick_2">
     <g id="line2d_5">
      <g>
       <use style="stroke:#000000;stroke-width:0.8;" x="38.785453" xlink:href="#m386105dc9e" y="250.67955"/>
      </g>
     </g>
     <g id="text_6">
      <!-- $1$ -->
      <g transform="translate(21.822813 257.434128)scale(0.2 -0.2)">
       <use transform="scale(0.996264)" xlink:href="#Nimbus_Roman_No9_L_Regular-49"/>
      </g>
     </g>
    </g>
    <g id="ytick_3">
     <g id="line2d_6">
      <g>
       <use style="stroke:#000000;stroke-width:0.8;" x="38.785453" xlink:href="#m386105dc9e" y="186.524555"/>
      </g>
     </g>
     <g id="text_7">
      <!-- $2$ -->
      <g transform="translate(21.822813 193.279132)scale(0.2 -0.2)">
       <use transform="scale(0.996264)" xlink:href="#Nimbus_Roman_No9_L_Regular-50"/>
      </g>
     </g>
    </g>
    <g id="ytick_4">
     <g id="line2d_7">
      <g>
       <use style="stroke:#000000;stroke-width:0.8;" x="38.785453" xlink:href="#m386105dc9e" y="122.369559"/>
      </g>
     </g>
     <g id="text_8">
      <!-- $3$ -->
      <defs>
       <path d="M 15.296875 33.390625 
C 21.203125 33.390625 23.5 33.1875 25.90625 32.296875 
C 32.09375 30.09375 36 24.390625 36 17.5 
C 36 9.09375 30.296875 2.59375 22.90625 2.59375 
C 20.203125 2.59375 18.203125 3.296875 14.5 5.6875 
C 11.5 7.5 9.796875 8.1875 8.09375 8.1875 
C 5.796875 8.1875 4.296875 6.796875 4.296875 4.6875 
C 4.296875 1.1875 8.59375 -1 15.59375 -1 
C 23.296875 -1 31.203125 1.59375 35.90625 5.6875 
C 40.59375 9.796875 43.203125 15.59375 43.203125 22.296875 
C 43.203125 27.390625 41.59375 32.09375 38.703125 35.1875 
C 36.703125 37.390625 34.796875 38.59375 30.40625 40.5 
C 37.296875 45.1875 39.796875 48.890625 39.796875 54.296875 
C 39.796875 62.390625 33.40625 68 24.203125 68 
C 19.203125 68 14.796875 66.296875 11.203125 63.09375 
C 8.203125 60.390625 6.703125 57.796875 4.5 51.796875 
L 6 51.390625 
C 10.09375 58.703125 14.59375 61.984375 20.90625 61.984375 
C 27.40625 61.984375 31.90625 57.59375 31.90625 51.296875 
C 31.90625 47.6875 30.40625 44.09375 27.90625 41.59375 
C 24.90625 38.59375 22.09375 37.09375 15.296875 34.6875 
z
" id="Nimbus_Roman_No9_L_Regular-51"/>
      </defs>
      <g transform="translate(21.822813 129.124137)scale(0.2 -0.2)">
       <use transform="scale(0.996264)" xlink:href="#Nimbus_Roman_No9_L_Regular-51"/>
      </g>
     </g>
    </g>
    <g id="ytick_5">
     <g id="line2d_8">
      <g>
       <use style="stroke:#000000;stroke-width:0.8;" x="38.785453" xlink:href="#m386105dc9e" y="58.214564"/>
      </g>
     </g>
     <g id="text_9">
      <!-- $4$ -->
      <defs>
       <path d="M 47.203125 23.390625 
L 37 23.390625 
L 37 68 
L 32.59375 68 
L 1.203125 23.390625 
L 1.203125 17 
L 29.296875 17 
L 29.296875 0 
L 37 0 
L 37 17 
L 47.203125 17 
z
M 29.203125 23.390625 
L 5.203125 23.390625 
L 29.203125 57.765625 
z
" id="Nimbus_Roman_No9_L_Regular-52"/>
      </defs>
      <g transform="translate(21.822813 64.969141)scale(0.2 -0.2)">
       <use transform="scale(0.996264)" xlink:href="#Nimbus_Roman_No9_L_Regular-52"/>
      </g>
     </g>
    </g>
    <g id="text_10">
     <!-- Dominant wave number ($q_{dominant}$) -->
     <defs>
      <path d="M 10.40625 10.890625 
C 10.40625 3.6875 9.203125 2.390625 1.59375 1.890625 
L 1.59375 0 
L 30 0 
C 41.59375 0 52.09375 3.296875 58.296875 8.875 
C 64.796875 14.75 68.5 23.625 68.5 33.296875 
C 68.5 42.265625 65.5 50.03125 60 55.515625 
C 53.203125 62.390625 42.296875 66 28.59375 66 
L 1.59375 66 
L 1.59375 64.09375 
C 9.5 63.390625 10.40625 62.484375 10.40625 55.09375 
z
M 20.59375 58.40625 
C 20.59375 61.5 21.703125 62.296875 25.796875 62.296875 
C 34.40625 62.296875 40.90625 60.6875 45.703125 57.3125 
C 53.5 51.921875 57.59375 43.359375 57.59375 32.59375 
C 57.59375 20.828125 53.5 12.46875 45.40625 7.78125 
C 40.296875 4.890625 34.5 3.6875 25.796875 3.6875 
C 21.796875 3.6875 20.59375 4.59375 20.59375 7.78125 
z
" id="Nimbus_Roman_No9_L_Regular-68"/>
      <path d="M 25 46 
C 12 46 2.90625 36.390625 2.90625 22.59375 
C 2.90625 9.09375 12.203125 -1 24.796875 -1 
C 37.40625 -1 47 9.59375 47 23.390625 
C 47 36.5 37.796875 46 25 46 
z
M 23.703125 43.1875 
C 32.09375 43.1875 38 33.59375 38 19.890625 
C 38 8.59375 33.5 1.796875 26 1.796875 
C 22.09375 1.796875 18.40625 4.1875 16.296875 8.1875 
C 13.5 13.390625 11.90625 20.390625 11.90625 27.5 
C 11.90625 37 16.59375 43.1875 23.703125 43.1875 
z
" id="Nimbus_Roman_No9_L_Regular-111"/>
      <path d="M 1.90625 39.796875 
C 3.203125 40.09375 4 40.1875 5.09375 40.1875 
C 7.703125 40.1875 8.59375 38.59375 8.59375 33.796875 
L 8.59375 8.5 
C 8.59375 3.09375 7.203125 1.59375 1.59375 1.5 
L 1.59375 0 
L 23.796875 0 
L 23.796875 1.5 
C 18.5 1.6875 17 2.796875 17 6.6875 
L 17 34.890625 
C 17 35.09375 17.796875 36.09375 18.5 36.796875 
C 21 39.09375 25.296875 40.796875 28.796875 40.796875 
C 33.203125 40.796875 35.40625 37.296875 35.40625 30.296875 
L 35.40625 8.59375 
C 35.40625 3 34.296875 1.890625 28.59375 1.5 
L 28.59375 0 
L 51 0 
L 51 1.5 
C 45.296875 1.59375 43.796875 3.296875 43.796875 9.5 
L 43.796875 34.6875 
C 46.796875 39 50.09375 40.796875 54.703125 40.796875 
C 60.40625 40.796875 62.203125 38.09375 62.203125 29.796875 
L 62.203125 8.6875 
C 62.203125 3 61.40625 2.1875 55.59375 1.5 
L 55.59375 0 
L 77.5 0 
L 77.5 1.5 
L 74.90625 1.6875 
C 71.90625 1.890625 70.59375 3.6875 70.59375 7.59375 
L 70.59375 28.1875 
C 70.59375 40 66.703125 46 59 46 
C 53.203125 46 48.09375 43.390625 42.703125 37.59375 
C 40.90625 43.296875 37.5 46 32.09375 46 
C 27.703125 46 24.90625 44.59375 16.59375 38.296875 
L 16.59375 45.796875 
L 15.90625 46 
C 10.796875 44.09375 7.40625 42.984375 1.90625 41.484375 
z
" id="Nimbus_Roman_No9_L_Regular-109"/>
      <path d="M 17.5 46 
L 2 40.5 
L 2 39 
L 2.796875 39.09375 
C 4 39.296875 5.296875 39.390625 6.203125 39.390625 
C 8.59375 39.390625 9.5 37.796875 9.5 33.390625 
L 9.5 10.1875 
C 9.5 3 8.5 1.890625 1.59375 1.5 
L 1.59375 0 
L 25.296875 0 
L 25.296875 1.5 
C 18.703125 2 17.90625 3 17.90625 10.1875 
L 17.90625 45.6875 
z
M 12.796875 68 
C 10.09375 68 7.796875 65.6875 7.796875 62.890625 
C 7.796875 60.09375 10 57.796875 12.796875 57.796875 
C 15.703125 57.796875 18 59.984375 18 62.890625 
C 18 65.6875 15.703125 68 12.796875 68 
z
" id="Nimbus_Roman_No9_L_Regular-105"/>
      <path d="M 1.59375 39.796875 
C 2.203125 40.09375 3.203125 40.1875 4.296875 40.1875 
C 7.09375 40.1875 8 38.6875 8 33.796875 
L 8 9 
C 8 3.296875 6.90625 1.890625 1.796875 1.5 
L 1.796875 0 
L 23 0 
L 23 1.5 
C 17.90625 1.890625 16.40625 3.09375 16.40625 6.6875 
L 16.40625 34.796875 
C 21.203125 39.296875 23.40625 40.484375 26.703125 40.484375 
C 31.59375 40.484375 34 37.390625 34 30.796875 
L 34 9.890625 
C 34 3.59375 32.703125 1.890625 27.703125 1.5 
L 27.703125 0 
L 48.5 0 
L 48.5 1.5 
C 43.59375 2 42.40625 3.1875 42.40625 8.09375 
L 42.40625 31 
C 42.40625 40.390625 38 46 30.59375 46 
C 26 46 22.90625 44.296875 16.09375 37.890625 
L 16.09375 45.796875 
L 15.40625 46 
C 10.5 44.1875 7.09375 43.09375 1.59375 41.484375 
z
" id="Nimbus_Roman_No9_L_Regular-110"/>
      <path d="M 44.203125 6.59375 
C 42.5 5.1875 41.296875 4.6875 39.796875 4.6875 
C 37.5 4.6875 36.796875 6.09375 36.796875 10.5 
L 36.796875 30 
C 36.796875 35.1875 36.296875 38.09375 34.796875 40.5 
C 32.59375 44.09375 28.296875 46 22.40625 46 
C 13 46 5.59375 41.09375 5.59375 34.796875 
C 5.59375 32.5 7.59375 30.5 9.90625 30.5 
C 12.296875 30.5 14.40625 32.5 14.40625 34.6875 
C 14.40625 35.09375 14.296875 35.59375 14.203125 36.296875 
C 14 37.1875 13.90625 38 13.90625 38.6875 
C 13.90625 41.390625 17.09375 43.59375 21.09375 43.59375 
C 26 43.59375 28.703125 40.6875 28.703125 35.296875 
L 28.703125 29.1875 
C 13.296875 23 11.59375 22.1875 7.296875 18.390625 
C 5.09375 16.390625 3.703125 13 3.703125 9.6875 
C 3.703125 3.390625 8.09375 -1 14.203125 -1 
C 18.59375 -1 22.703125 1.09375 28.796875 6.296875 
C 29.296875 1.09375 31.09375 -1 35.203125 -1 
C 38.59375 -1 40.703125 0.1875 44.203125 4 
z
M 28.703125 12.296875 
C 28.703125 9.1875 28.203125 8.296875 26.09375 7.09375 
C 23.703125 5.6875 20.90625 4.796875 18.796875 4.796875 
C 15.296875 4.796875 12.5 8.1875 12.5 12.5 
L 12.5 12.890625 
C 12.5 18.796875 16.59375 22.390625 28.703125 26.796875 
z
" id="Nimbus_Roman_No9_L_Regular-97"/>
      <path d="M 25.5 45 
L 15.40625 45 
L 15.40625 56.59375 
C 15.40625 57.59375 15.296875 57.890625 14.703125 57.890625 
C 14 57 13.40625 56.09375 12.703125 55.09375 
C 8.90625 49.59375 4.59375 44.796875 3 44.390625 
C 1.90625 43.6875 1.296875 42.984375 1.296875 42.484375 
C 1.296875 42.1875 1.40625 41.984375 1.703125 41.796875 
L 7 41.796875 
L 7 11.6875 
C 7 3.296875 10 -1 15.90625 -1 
C 20.796875 -1 24.59375 1.390625 27.90625 6.59375 
L 26.59375 7.6875 
C 24.5 5.1875 22.796875 4.1875 20.59375 4.1875 
C 16.90625 4.1875 15.40625 6.890625 15.40625 13.1875 
L 15.40625 41.796875 
L 25.5 41.796875 
z
" id="Nimbus_Roman_No9_L_Regular-116"/>
      <path d="M 57.09375 45 
L 57.09375 43.484375 
C 60.5 42.796875 61.5 42.109375 61.5 40.421875 
C 61.5 38.9375 60.90625 36.5625 59.796875 33.875 
L 50.796875 11.890625 
L 42.40625 34.078125 
C 40.703125 38.640625 40.703125 38.640625 40.703125 39.921875 
C 40.703125 42.109375 41.796875 42.796875 46.5 43.484375 
L 46.5 45 
L 26.203125 45 
L 26.203125 43.484375 
C 29.90625 43.09375 31.09375 42 33.09375 36.65625 
C 33.796875 34.765625 34.5 32.890625 35.09375 31.109375 
L 26 11.390625 
L 16.09375 37.25 
C 15.703125 38.234375 15.5 39.234375 15.5 40.21875 
C 15.5 42.296875 16.703125 43.09375 20.09375 43.484375 
L 20.09375 45 
L 2.09375 45 
L 2.09375 43.484375 
C 4.40625 43.296875 5.203125 42.296875 7.40625 37.25 
L 20.90625 3.375 
C 22.09375 0.390625 22.90625 -1 23.5 -1 
C 24 -1 24.796875 0.296875 26 2.875 
L 37.203125 26.65625 
L 46.296875 3.265625 
C 47.703125 -0.40625 48.09375 -1 48.703125 -1 
C 49.40625 -1 49.90625 -0.109375 51.5 3.859375 
L 65.296875 38.140625 
C 67.09375 42.296875 67.40625 42.796875 69.40625 43.484375 
L 69.40625 45 
z
" id="Nimbus_Roman_No9_L_Regular-119"/>
      <path d="M 47.703125 45 
L 33.796875 45 
L 33.796875 43.484375 
C 37 43.1875 38.5 42.203125 38.5 40.3125 
C 38.5 39.328125 38.296875 38.34375 37.90625 37.34375 
L 28 11.6875 
L 17.796875 37.046875 
C 17.203125 38.4375 16.90625 39.828125 16.90625 40.71875 
C 16.90625 42.5 18 43.1875 21.5 43.484375 
L 21.5 45 
L 1.90625 45 
L 1.90625 43.484375 
C 5.703125 43.296875 6.40625 42.296875 11 32.09375 
L 23 3.671875 
C 23.203125 3.078125 23.5 2.375 23.796875 1.59375 
C 24.40625 -0.203125 25 -1 25.59375 -1 
C 26.203125 -1 26.90625 0.296875 28.40625 3.96875 
L 41.203125 35.765625 
C 44.09375 42.5 44.703125 43.1875 47.703125 43.484375 
z
" id="Nimbus_Roman_No9_L_Regular-118"/>
      <path d="M 40.796875 16.4375 
C 36 8.8125 31.703125 5.890625 25.296875 5.890625 
C 19.59375 5.890625 15.296875 8.8125 12.40625 14.53125 
C 10.59375 18.34375 9.90625 21.65625 9.703125 27.796875 
L 40.5 27.796875 
C 39.703125 34.265625 38.703125 37.140625 36.203125 40.3125 
C 33.203125 43.890625 28.59375 46 23.40625 46 
C 18.40625 46 13.703125 44.1875 9.90625 40.8125 
C 5.203125 36.734375 2.5 29.6875 2.5 21.46875 
C 2.5 7.59375 9.703125 -1 21.203125 -1 
C 30.703125 -1 38.203125 4.890625 42.40625 15.734375 
z
M 9.90625 31 
C 11 38.71875 14.40625 42.390625 20.5 42.390625 
C 26.59375 42.390625 29 39.609375 30.296875 31 
z
" id="Nimbus_Roman_No9_L_Regular-101"/>
      <path d="M 47.90625 4.984375 
L 47.40625 4.984375 
C 42.796875 4.984375 41.703125 6.09375 41.703125 10.6875 
L 41.703125 45 
L 25.90625 45 
L 25.90625 43.296875 
C 32.09375 43 33.296875 42 33.296875 37 
L 33.296875 13.5 
C 33.296875 10.6875 32.796875 9.296875 31.40625 8.1875 
C 28.703125 6 25.59375 4.796875 22.59375 4.796875 
C 18.703125 4.796875 15.5 8.1875 15.5 12.390625 
L 15.5 45 
L 0.90625 45 
L 0.90625 43.59375 
C 5.703125 43.296875 7.09375 41.796875 7.09375 37.1875 
L 7.09375 12 
C 7.09375 4.09375 11.90625 -1 19.203125 -1 
C 22.90625 -1 26.796875 0.59375 29.5 3.296875 
L 33.796875 7.59375 
L 33.796875 -0.703125 
L 34.203125 -1 
C 39.203125 1 42.796875 2.09375 47.90625 3.5 
z
" id="Nimbus_Roman_No9_L_Regular-117"/>
      <path d="M 15.296875 68.09375 
L 14.796875 68.296875 
C 10.59375 66.796875 7.90625 66 3.203125 64.6875 
L 0.296875 63.890625 
L 0.296875 62.296875 
C 0.90625 62.390625 1.296875 62.390625 2 62.390625 
C 6 62.390625 6.90625 61.5 6.90625 57.296875 
L 6.90625 5.390625 
C 6.90625 2.296875 15.40625 -1 23.40625 -1 
C 36.59375 -1 46.796875 9.984375 46.796875 24.296875 
C 46.796875 36.59375 39.203125 46 29.203125 46 
C 23.09375 46 17.296875 42.390625 15.296875 37.484375 
z
M 15.296875 32.1875 
C 15.296875 36.09375 20 39.6875 25.203125 39.6875 
C 33 39.6875 38 31.890625 38 19.6875 
C 38 8.59375 33.203125 2.1875 25 2.1875 
C 19.796875 2.1875 15.296875 4.484375 15.296875 6.984375 
z
" id="Nimbus_Roman_No9_L_Regular-98"/>
      <path d="M 0.703125 39 
C 2.09375 39.296875 3 39.390625 4.203125 39.390625 
C 6.703125 39.390625 7.59375 37.796875 7.59375 33.390625 
L 7.59375 8.390625 
C 7.59375 3.390625 6.90625 2.6875 0.5 1.5 
L 0.5 0 
L 24.5 0 
L 24.5 1.5 
C 17.703125 1.796875 16 3.296875 16 9 
L 16 31.5 
C 16 34.6875 20.296875 39.6875 23 39.6875 
C 23.59375 39.6875 24.5 39.1875 25.59375 38.1875 
C 27.203125 36.796875 28.296875 36.1875 29.59375 36.1875 
C 32 36.1875 33.5 37.890625 33.5 40.6875 
C 33.5 43.984375 31.40625 46 28 46 
C 23.796875 46 20.90625 43.6875 16 36.59375 
L 16 45.796875 
L 15.5 46 
C 10.203125 43.796875 6.59375 42.5 0.703125 40.59375 
z
" id="Nimbus_Roman_No9_L_Regular-114"/>
      <path d="M 29.5 68 
C 22.09375 63.1875 19.09375 60.59375 15.40625 55.984375 
C 8.296875 47.296875 4.796875 37.296875 4.796875 25.59375 
C 4.796875 12.890625 8.5 3.09375 17.296875 -7.109375 
C 21.40625 -11.90625 24 -14.109375 29.203125 -17.3125 
L 30.40625 -15.71875 
C 22.40625 -9.40625 19.59375 -5.90625 16.90625 1.59375 
C 14.5 8.28125 13.40625 15.890625 13.40625 25.890625 
C 13.40625 36.390625 14.703125 44.59375 17.40625 50.796875 
C 20.203125 56.984375 23.203125 60.59375 30.40625 66.390625 
z
" id="Nimbus_Roman_No9_L_Regular-40"/>
      <path d="M 39.09375 -19 
L 37.40625 -19 
C 33.703125 -19 31.59375 -18 31.703125 -16.109375 
C 31.703125 -15.8125 31.796875 -15.40625 31.90625 -15 
L 48.296875 42.484375 
L 41 42.484375 
L 39.5 37.8125 
C 37.90625 42.390625 35.90625 44 31.796875 44 
C 18.59375 44 2.5 25.671875 2.5 10.5625 
C 2.5 3.5 6.40625 -1 12.703125 -1 
C 19.796875 -1 24.40625 2.6875 33.296875 15.328125 
L 24.40625 -13.90625 
C 23.09375 -17.90625 21.5 -18.703125 15 -19.203125 
L 15 -20.8125 
L 39.09375 -20.8125 
z
M 32.09375 41.796875 
C 35.40625 41.796875 38 39.109375 38 35.71875 
C 38 27.46875 31.203125 13.34375 24.40625 7.671875 
C 21.796875 5.484375 19.09375 4.296875 16.703125 4.296875 
C 13.296875 4.296875 11.09375 7.28125 11.09375 11.953125 
C 11.09375 19.3125 16.296875 30.359375 22.796875 36.921875 
C 25.90625 40 29.203125 41.796875 32.09375 41.796875 
z
" id="Nimbus_Roman_No9_L_Regular_Italic-113"/>
      <path d="M 46.296875 11.15625 
C 40.90625 4.984375 39.796875 4.09375 38.09375 4.09375 
C 37.09375 4.09375 36.296875 4.984375 36.296875 6.078125 
C 36.296875 7.46875 39.5 19.609375 42.796875 30.546875 
C 45.5 39.703125 47.59375 47.6875 52.703125 67.6875 
L 52.203125 68.1875 
C 46.90625 67.09375 43.296875 66.5 36.90625 65.890625 
L 36.90625 64.1875 
C 42.40625 64 43.09375 63.6875 43.09375 61.59375 
C 43.09375 60.296875 43 59.6875 41.59375 54.59375 
L 37.203125 38.203125 
C 36.40625 42.390625 34.59375 44 30.703125 44 
C 17.703125 44 1.5 25.28125 1.5 10.359375 
C 1.5 3.296875 5.5 -1 12 -1 
C 18.796875 -1 23.203125 2.1875 30 12.140625 
C 28.90625 7.078125 28.703125 5.578125 28.703125 3.296875 
C 28.703125 0.796875 30.40625 -1 32.90625 -1 
C 37.09375 -1 42.296875 3.09375 47.5 10.390625 
z
M 31.09375 41.890625 
C 34.09375 41.6875 35.59375 39.796875 35.59375 36.1875 
C 35.59375 21 25.203125 3.796875 16 3.796875 
C 12.59375 3.796875 10.203125 6.5 10.203125 10.390625 
C 10.203125 18.6875 15.203125 30.296875 21.796875 37.296875 
C 24.59375 40.1875 28.296875 42.09375 31.09375 41.890625 
z
" id="Nimbus_Roman_No9_L_Regular_Italic-100"/>
      <path d="M 32.5 44 
C 17.5 44 2.703125 28.5625 2.703125 12.9375 
C 2.703125 4.375 8.296875 -1 17.40625 -1 
C 24 -1 30.40625 1.984375 36.203125 7.65625 
C 42.796875 14.125 46.796875 22.59375 46.796875 30.046875 
C 46.796875 38.3125 41 44 32.5 44 
z
M 31.296875 41.890625 
C 35.59375 41.890625 38.40625 38.21875 38.40625 32.546875 
C 38.40625 25.28125 35.09375 15.328125 30.703125 8.859375 
C 27 3.578125 23.203125 1.09375 18.90625 1.09375 
C 14.203125 1.09375 11.09375 4.671875 11.09375 10.15625 
C 11.09375 17.515625 14 26.265625 18.90625 33.34375 
C 22.796875 38.90625 27 41.890625 31.296875 41.890625 
z
" id="Nimbus_Roman_No9_L_Regular_Italic-111"/>
      <path d="M 68.90625 11.59375 
C 67.90625 10.390625 67.09375 9.390625 66.796875 8.984375 
C 64 5.390625 61.90625 3.6875 60.40625 3.6875 
C 59.59375 3.6875 59.09375 4.296875 59.09375 5.296875 
C 59.09375 5.796875 59.5 7.390625 60.09375 9.796875 
L 66.90625 34.890625 
C 67 35.296875 67.203125 37.09375 67.203125 37.6875 
C 67.203125 41.296875 64.703125 44 61.296875 44 
C 59.40625 44 57.40625 43.296875 55 41.796875 
C 50.09375 38.59375 46 33.796875 39.09375 22.796875 
C 41.59375 30.390625 43.09375 36.09375 43.09375 37.984375 
C 43.09375 41.484375 40.796875 44 37.40625 44 
C 31.296875 44 24.296875 37.390625 15.09375 22.890625 
L 20.90625 43.796875 
L 20.59375 44 
C 15 42.796875 12.90625 42.390625 4.59375 40.890625 
L 4.59375 39.296875 
L 7.09375 39.296875 
C 9.703125 39.296875 11 38.59375 11 37.09375 
C 11 35.984375 8.703125 26.890625 5.09375 14.1875 
C 2.796875 6 2.5 5 1.203125 -0.109375 
L 8.703125 -0.109375 
C 13.5 15.796875 15 19.484375 18.40625 24.6875 
C 24 33.1875 30 38.796875 33.40625 38.796875 
C 34.703125 38.796875 35.40625 37.890625 35.40625 36.296875 
C 35.40625 35.390625 32.203125 23.296875 25.90625 -0.109375 
L 33.40625 -0.109375 
C 37.40625 15.484375 39.40625 20.484375 44.5 27.59375 
C 49.40625 34.390625 54.40625 38.796875 57.296875 38.796875 
C 58.40625 38.796875 59.296875 37.796875 59.296875 36.6875 
C 59.296875 36.1875 59.09375 34.984375 58.59375 33.1875 
L 52.796875 10.1875 
C 51.90625 6.5 51.5 4.59375 51.5 3.59375 
C 51.5 0.59375 52.90625 -1 55.5 -1 
C 60.203125 -1 64.59375 2.296875 69.90625 9.6875 
L 70.40625 10.390625 
z
" id="Nimbus_Roman_No9_L_Regular_Italic-109"/>
      <path d="M 22.203125 11.453125 
C 19.796875 8.265625 19.09375 7.46875 18.09375 6.375 
C 16.40625 4.6875 14.90625 3.6875 14 3.6875 
C 13.203125 3.6875 12.40625 4.484375 12.40625 5.1875 
C 12.40625 6.171875 12.703125 7.671875 13.40625 9.5625 
C 13.40625 9.859375 13.703125 10.5625 13.90625 11.359375 
L 13.90625 11.546875 
L 14 11.75 
L 22.796875 43.796875 
L 22.5 44 
C 12.40625 42.09375 10.40625 41.796875 6.5 41.484375 
L 6.5 39.90625 
C 11.796875 39.796875 12.796875 39.5 12.796875 37.515625 
C 12.796875 36.71875 12.5 35.125 11.90625 33.140625 
L 7.09375 15.53125 
C 5.5 9.765625 4.90625 6.671875 4.90625 4.6875 
C 4.90625 1 6.5 -1 9.5 -1 
C 14.09375 -1 17.796875 2 23.5 10.359375 
z
M 21.40625 65 
C 18.703125 65 16.703125 62.703125 16.703125 59.75 
C 16.703125 56.59375 18.59375 54.53125 21.5 54.53125 
C 24.09375 54.53125 26.40625 56.796875 26.40625 59.546875 
C 26.40625 62.40625 24.09375 65 21.40625 65 
z
" id="Nimbus_Roman_No9_L_Regular_Italic-105"/>
      <path d="M 46 11.59375 
L 43.90625 8.984375 
C 41 5.296875 39.203125 3.6875 37.796875 3.6875 
C 37 3.6875 36.203125 4.5 36.203125 5.296875 
C 36.203125 6 36.203125 6 37.59375 11.59375 
L 43.296875 32.1875 
C 43.796875 34.296875 44.203125 36.484375 44.203125 37.890625 
C 44.203125 41.484375 41.5 44 37.59375 44 
C 31.203125 44 24.90625 37.984375 14.59375 21.984375 
L 21.296875 43.796875 
L 21 44 
C 15.59375 42.890625 13.5 42.484375 4.796875 40.890625 
L 4.796875 39.296875 
C 9.90625 39.1875 11.203125 38.59375 11.203125 36.59375 
C 11.203125 35.984375 11.09375 35.390625 11 34.890625 
L 1.40625 -0.109375 
L 8.90625 -0.109375 
C 13.59375 15.6875 14.5 17.890625 18.90625 24.6875 
C 24.90625 33.890625 30 38.890625 33.703125 38.890625 
C 35.203125 38.890625 36.09375 37.796875 36.09375 35.984375 
C 36.09375 34.796875 35.5 31.484375 34.703125 28.390625 
L 30.296875 11.890625 
C 29 6.796875 28.703125 5.390625 28.703125 4.390625 
C 28.703125 0.59375 30.09375 -1 33.40625 -1 
C 37.90625 -1 40.5 1.09375 47.40625 10.296875 
z
" id="Nimbus_Roman_No9_L_Regular_Italic-110"/>
      <path d="M 46.40625 11.046875 
C 44.90625 9.5625 44.296875 9.0625 43.59375 8.265625 
C 40.59375 5.1875 39.296875 4.1875 38.40625 4.1875 
C 37.59375 4.1875 37 4.78125 37 5.484375 
C 37 7.46875 41.203125 24.484375 45.90625 41.59375 
C 46.203125 42.59375 46.296875 42.796875 46.5 43.6875 
L 45.796875 44 
L 39.703125 43.296875 
L 39.40625 42.984375 
L 38.296875 38.203125 
C 37.5 41.890625 34.59375 44 30.296875 44 
C 17.09375 44 1.703125 25.78125 1.703125 10.0625 
C 1.703125 3.09375 5.5 -1 11.90625 -1 
C 18.90625 -1 23.203125 2.296875 32 14.640625 
C 30 6.875 29.703125 5.578125 29.703125 3.1875 
C 29.703125 0.1875 30.90625 -1 33.703125 -1 
C 37.703125 -1 40.203125 0.890625 47.59375 10 
z
M 30.90625 42 
C 34.296875 41.796875 36.5 39.390625 36.5 35.890625 
C 36.5 27.5 31.5 15.6875 24.59375 8.296875 
C 22.203125 5.59375 18.796875 3.890625 15.90625 3.890625 
C 12.40625 3.890625 10.09375 6.796875 10.09375 11.390625 
C 10.09375 16.796875 13.90625 27.09375 18.203125 33.296875 
C 22.203125 39.09375 26.90625 42.296875 30.90625 42 
z
" id="Nimbus_Roman_No9_L_Regular_Italic-97"/>
      <path d="M 29.59375 43 
L 21.59375 43 
L 24.40625 53.296875 
C 24.5 53.5 24.5 53.6875 24.5 53.796875 
C 24.5 54.5 24.203125 54.796875 23.703125 54.796875 
C 23.09375 54.796875 22.796875 54.6875 22.203125 53.890625 
C 18.296875 48.796875 12.09375 43.796875 8.90625 42.890625 
C 6.40625 42.09375 5.703125 41.484375 5.703125 40.390625 
C 5.703125 40.296875 5.703125 40.09375 5.796875 39.796875 
L 13.203125 39.796875 
L 6 12.21875 
C 5.796875 11.3125 5.703125 11.015625 5.40625 10.109375 
C 4.5 7.09375 3.703125 3.59375 3.703125 2.796875 
C 3.703125 0.59375 5.796875 -1 8.5 -1 
C 13.09375 -1 16.40625 1.796875 22.703125 11.109375 
L 21.40625 11.8125 
C 16.5 5.5 14.90625 3.890625 13.296875 3.890625 
C 12.40625 3.890625 11.796875 4.6875 11.796875 5.890625 
C 11.796875 6 11.796875 6.09375 11.90625 6.40625 
L 20.703125 39.796875 
L 29.09375 39.796875 
z
" id="Nimbus_Roman_No9_L_Regular_Italic-116"/>
      <path d="M 3.796875 -17.3125 
C 11.203125 -12.515625 14.203125 -9.90625 17.90625 -5.3125 
C 25 3.390625 28.5 13.390625 28.5 25.09375 
C 28.5 37.890625 24.796875 47.59375 16 57.796875 
C 11.90625 62.59375 9.296875 64.796875 4.09375 68 
L 2.90625 66.390625 
C 10.90625 60.09375 13.59375 56.59375 16.40625 49.09375 
C 18.796875 42.390625 19.90625 34.796875 19.90625 24.796875 
C 19.90625 14.390625 18.59375 6.09375 15.90625 -0.015625 
C 13.09375 -6.3125 10.09375 -9.90625 2.90625 -15.71875 
z
" id="Nimbus_Roman_No9_L_Regular-41"/>
     </defs>
     <g transform="translate(13.509155 305.329153)rotate(-90)scale(0.2 -0.2)">
      <use transform="translate(0 16.487732)scale(0.996264)" xlink:href="#Nimbus_Roman_No9_L_Regular-68"/>
      <use transform="translate(71.929985 16.487732)scale(0.996264)" xlink:href="#Nimbus_Roman_No9_L_Regular-111"/>
      <use transform="translate(121.743185 16.487732)scale(0.996264)" xlink:href="#Nimbus_Roman_No9_L_Regular-109"/>
      <use transform="translate(199.251555 16.487732)scale(0.996264)" xlink:href="#Nimbus_Roman_No9_L_Regular-105"/>
      <use transform="translate(226.946725 16.487732)scale(0.996264)" xlink:href="#Nimbus_Roman_No9_L_Regular-110"/>
      <use transform="translate(276.759926 16.487732)scale(0.996264)" xlink:href="#Nimbus_Roman_No9_L_Regular-97"/>
      <use transform="translate(320.993494 16.487732)scale(0.996264)" xlink:href="#Nimbus_Roman_No9_L_Regular-110"/>
      <use transform="translate(370.806695 16.487732)scale(0.996264)" xlink:href="#Nimbus_Roman_No9_L_Regular-116"/>
      <use transform="translate(423.408465 16.487732)scale(0.996264)" xlink:href="#Nimbus_Roman_No9_L_Regular-119"/>
      <use transform="translate(494.342353 16.487732)scale(0.996264)" xlink:href="#Nimbus_Roman_No9_L_Regular-97"/>
      <use transform="translate(536.58391 16.487732)scale(0.996264)" xlink:href="#Nimbus_Roman_No9_L_Regular-118"/>
      <use transform="translate(584.903718 16.487732)scale(0.996264)" xlink:href="#Nimbus_Roman_No9_L_Regular-101"/>
      <use transform="translate(654.043887 16.487732)scale(0.996264)" xlink:href="#Nimbus_Roman_No9_L_Regular-110"/>
      <use transform="translate(703.857087 16.487732)scale(0.996264)" xlink:href="#Nimbus_Roman_No9_L_Regular-117"/>
      <use transform="translate(753.670288 16.487732)scale(0.996264)" xlink:href="#Nimbus_Roman_No9_L_Regular-109"/>
      <use transform="translate(831.178658 16.487732)scale(0.996264)" xlink:href="#Nimbus_Roman_No9_L_Regular-98"/>
      <use transform="translate(880.991859 16.487732)scale(0.996264)" xlink:href="#Nimbus_Roman_No9_L_Regular-101"/>
      <use transform="translate(925.225427 16.487732)scale(0.996264)" xlink:href="#Nimbus_Roman_No9_L_Regular-114"/>
      <use transform="translate(983.307257 16.487732)scale(0.996264)" xlink:href="#Nimbus_Roman_No9_L_Regular-40"/>
      <use transform="translate(1016.482487 16.487732)scale(0.996264)" xlink:href="#Nimbus_Roman_No9_L_Regular_Italic-113"/>
      <use transform="translate(1066.295687 0)scale(0.737241)" xlink:href="#Nimbus_Roman_No9_L_Regular_Italic-100"/>
      <use transform="translate(1106.990676 0)scale(0.737241)" xlink:href="#Nimbus_Roman_No9_L_Regular_Italic-111"/>
      <use transform="translate(1143.852718 0)scale(0.737241)" xlink:href="#Nimbus_Roman_No9_L_Regular_Italic-109"/>
      <use transform="translate(1197.081303 0)scale(0.737241)" xlink:href="#Nimbus_Roman_No9_L_Regular_Italic-105"/>
      <use transform="translate(1217.575875 0)scale(0.737241)" xlink:href="#Nimbus_Roman_No9_L_Regular_Italic-110"/>
      <use transform="translate(1254.437917 0)scale(0.737241)" xlink:href="#Nimbus_Roman_No9_L_Regular_Italic-97"/>
      <use transform="translate(1291.299959 0)scale(0.737241)" xlink:href="#Nimbus_Roman_No9_L_Regular_Italic-110"/>
      <use transform="translate(1326.318922 0)scale(0.737241)" xlink:href="#Nimbus_Roman_No9_L_Regular_Italic-116"/>
      <use transform="translate(1352.324292 16.487732)scale(0.996264)" xlink:href="#Nimbus_Roman_No9_L_Regular-41"/>
     </g>
    </g>
   </g>
   <g id="line2d_9">
    <path clip-path="url(#p35eee7a547)" d="M 78.352726 166.577761 
L 90.527271 148.045658 
L 102.701817 133.882891 
L 114.876362 122.262761 
L 127.050908 112.328482 
L 151.399998 95.794209 
L 175.749089 82.196788 
L 200.09818 70.586194 
L 224.447271 60.344037 
L 248.796362 51.167969 
L 297.494544 35.174723 
L 358.367271 18.325455 
" style="fill:none;stroke:#ff0000;stroke-linecap:square;stroke-width:3;"/>
   </g>
   <g id="line2d_10">
    <path clip-path="url(#p35eee7a547)" d="M 54.003635 314.834545 
L 60.090908 314.834545 
" style="fill:none;stroke:#ff0000;stroke-linecap:square;stroke-width:3;"/>
   </g>
   <g id="line2d_11">
    <defs>
     <path d="M 0 3 
C 0.795609 3 1.55874 2.683901 2.12132 2.12132 
C 2.683901 1.55874 3 0.795609 3 0 
C 3 -0.795609 2.683901 -1.55874 2.12132 -2.12132 
C 1.55874 -2.683901 0.795609 -3 0 -3 
C -0.795609 -3 -1.55874 -2.683901 -2.12132 -2.12132 
C -2.683901 -1.55874 -3 -0.795609 -3 0 
C -3 0.795609 -2.683901 1.55874 -2.12132 2.12132 
C -1.55874 2.683901 -0.795609 3 0 3 
z
" id="m540c6179e7" style="stroke:#000000;"/>
    </defs>
    <g clip-path="url(#p35eee7a547)">
     <use style="stroke:#000000;" x="66.17818" xlink:href="#m540c6179e7" y="199.558527"/>
     <use style="stroke:#000000;" x="72.265453" xlink:href="#m540c6179e7" y="184.684202"/>
     <use style="stroke:#000000;" x="78.352726" xlink:href="#m540c6179e7" y="168.119613"/>
     <use style="stroke:#000000;" x="90.527271" xlink:href="#m540c6179e7" y="150.154519"/>
     <use style="stroke:#000000;" x="102.701817" xlink:href="#m540c6179e7" y="131.44088"/>
     <use style="stroke:#000000;" x="114.876362" xlink:href="#m540c6179e7" y="118.021831"/>
     <use style="stroke:#000000;" x="127.050908" xlink:href="#m540c6179e7" y="113.101514"/>
     <use style="stroke:#000000;" x="151.399998" xlink:href="#m540c6179e7" y="96.744781"/>
     <use style="stroke:#000000;" x="175.749089" xlink:href="#m540c6179e7" y="77.501567"/>
     <use style="stroke:#000000;" x="200.09818" xlink:href="#m540c6179e7" y="54.533859"/>
     <use style="stroke:#000000;" x="224.447271" xlink:href="#m540c6179e7" y="139.414518"/>
     <use style="stroke:#000000;" x="248.796362" xlink:href="#m540c6179e7" y="184.684202"/>
     <use style="stroke:#000000;" x="297.494544" xlink:href="#m540c6179e7" y="170.739523"/>
     <use style="stroke:#000000;" x="358.367271" xlink:href="#m540c6179e7" y="162.583201"/>
    </g>
   </g>
   <g id="line2d_12">
    <g clip-path="url(#p35eee7a547)">
     <use style="stroke:#000000;" x="54.003635" xlink:href="#m540c6179e7" y="314.834545"/>
     <use style="stroke:#000000;" x="60.090908" xlink:href="#m540c6179e7" y="314.834545"/>
    </g>
   </g>
   <g id="patch_3">
    <path d="M 38.785453 329.66 
L 38.785453 3.5 
" style="fill:none;stroke:#000000;stroke-linecap:square;stroke-linejoin:miter;stroke-width:0.8;"/>
   </g>
   <g id="patch_4">
    <path d="M 373.585453 329.66 
L 373.585453 3.5 
" style="fill:none;stroke:#000000;stroke-linecap:square;stroke-linejoin:miter;stroke-width:0.8;"/>
   </g>
   <g id="patch_5">
    <path d="M 38.785453 329.66 
L 373.585453 329.66 
" style="fill:none;stroke:#000000;stroke-linecap:square;stroke-linejoin:miter;stroke-width:0.8;"/>
   </g>
   <g id="patch_6">
    <path d="M 38.785453 3.5 
L 373.585453 3.5 
" style="fill:none;stroke:#000000;stroke-linecap:square;stroke-linejoin:miter;stroke-width:0.8;"/>
   </g>
   <g id="legend_1">
    <g id="patch_7">
     <path d="M 387.585453 312.049658 
L 616.765314 312.049658 
Q 620.765314 312.049658 620.765314 308.049658 
L 620.765314 253.422342 
Q 620.765314 249.422342 616.765314 249.422342 
L 387.585453 249.422342 
Q 383.585453 249.422342 383.585453 253.422342 
L 383.585453 308.049658 
Q 383.585453 312.049658 387.585453 312.049658 
z
" style="fill:#ffffff;opacity:0.8;stroke:#cccccc;stroke-linejoin:miter;"/>
    </g>
    <g id="line2d_13">
     <path d="M 391.585453 264.422342 
L 431.585453 264.422342 
" style="fill:none;stroke:#ff0000;stroke-linecap:square;stroke-width:3;"/>
    </g>
    <g id="line2d_14"/>
    <g id="text_11">
     <!-- Lyapunov functional -->
     <defs>
      <path d="M 57.296875 17.34375 
C 55.59375 13.5625 54.203125 11.265625 52.703125 9.578125 
C 49.203125 5.6875 43.703125 3.890625 35.40625 3.890625 
L 28.703125 3.890625 
C 21.40625 3.890625 20.09375 4.484375 20.09375 7.984375 
L 20.09375 55.125 
C 20.09375 62.203125 21.5 63.59375 29.40625 64.09375 
L 29.40625 66 
L 1.203125 66 
L 1.203125 64.09375 
C 8.59375 63.5 9.90625 62.09375 9.90625 55.125 
L 9.90625 10.875 
C 9.90625 3.890625 8.5 2.390625 1.203125 1.890625 
L 1.203125 0 
L 55 0 
L 59.796875 17.390625 
z
" id="Nimbus_Roman_No9_L_Regular-76"/>
      <path d="M 47.5 45 
L 34 45 
L 34 43.484375 
C 37.203125 43.484375 38.796875 42.59375 38.796875 40.984375 
C 38.796875 40.578125 38.703125 39.984375 38.40625 39.28125 
L 28.703125 11.578125 
L 17.203125 36.96875 
C 16.59375 38.375 16.203125 39.6875 16.203125 40.78125 
C 16.203125 42.59375 17.703125 43.296875 22 43.484375 
L 22 45 
L 1.40625 45 
L 1.40625 43.59375 
C 4 43.1875 5.703125 42.09375 6.5 40.390625 
L 17.90625 15.703125 
L 18.203125 14.890625 
L 19.703125 11.890625 
C 22.5 6.859375 24.09375 3.25 24.09375 1.75 
C 24.09375 0.234375 21.796875 -6.078125 20.09375 -9.09375 
C 18.703125 -11.703125 16.5 -13.609375 15.09375 -13.609375 
C 14.5 -13.609375 13.59375 -13.40625 12.59375 -12.90625 
C 10.703125 -12.203125 9 -11.796875 7.296875 -11.796875 
C 5 -11.796875 3 -13.8125 3 -16.203125 
C 3 -19.5 6.203125 -22 10.40625 -22 
C 17.09375 -22 21.90625 -16.40625 27.296875 -1.96875 
L 42.703125 38.984375 
C 44 42.1875 45.09375 43.1875 47.5 43.484375 
z
" id="Nimbus_Roman_No9_L_Regular-121"/>
      <path d="M 0.90625 39.296875 
C 1.796875 39.390625 2.5 39.390625 3.40625 39.390625 
C 6.796875 39.390625 7.5 38.390625 7.5 33.703125 
L 7.5 -13.109375 
C 7.5 -18.3125 6.40625 -19.40625 0.5 -20 
L 0.5 -21.703125 
L 24.703125 -21.703125 
L 24.703125 -20 
C 17.203125 -19.90625 15.90625 -18.796875 15.90625 -12.46875 
L 15.90625 3.296875 
C 19.40625 0 21.796875 -1 26 -1 
C 37.796875 -1 47 10.1875 47 24.6875 
C 47 37.09375 40 46 30.296875 46 
C 24.703125 46 20.296875 43.484375 15.90625 38.09375 
L 15.90625 45.796875 
L 15.296875 46 
C 9.90625 43.890625 6.40625 42.59375 0.90625 40.890625 
z
M 15.90625 33.390625 
C 15.90625 36.390625 21.5 39.984375 26.09375 39.984375 
C 33.5 39.984375 38.40625 32.390625 38.40625 20.796875 
C 38.40625 9.6875 33.5 2.1875 26.296875 2.1875 
C 21.59375 2.1875 15.90625 5.796875 15.90625 8.796875 
z
" id="Nimbus_Roman_No9_L_Regular-112"/>
      <path d="M 30.90625 45 
L 18.59375 45 
L 18.59375 56.421875 
C 18.59375 62.140625 20.5 65.1875 24.296875 65.1875 
C 26.40625 65.1875 27.796875 64.203125 29.59375 61.34375 
C 31.203125 58.78125 32.40625 57.796875 34.09375 57.796875 
C 36.40625 57.796875 38.296875 59.578125 38.296875 61.84375 
C 38.296875 65.390625 33.90625 68 27.90625 68 
C 21.703125 68 16.40625 65.296875 13.796875 60.765625 
C 11.203125 56.421875 10.40625 52.875 10.296875 45 
L 2.09375 45 
L 2.09375 41.796875 
L 10.296875 41.796875 
L 10.296875 10.390625 
C 10.296875 3.09375 9.203125 1.890625 2 1.5 
L 2 0 
L 28 0 
L 28 1.5 
C 19.796875 1.796875 18.703125 2.890625 18.703125 10.390625 
L 18.703125 41.796875 
L 30.90625 41.796875 
z
" id="Nimbus_Roman_No9_L_Regular-102"/>
      <path d="M 39.796875 15.59375 
C 35 8.59375 31.40625 6.1875 25.703125 6.1875 
C 16.59375 6.1875 10.203125 14.1875 10.203125 25.6875 
C 10.203125 35.984375 15.703125 43.09375 23.796875 43.09375 
C 27.40625 43.09375 28.703125 41.984375 29.703125 38.296875 
L 30.296875 36.09375 
C 31.09375 33.296875 32.90625 31.484375 35 31.484375 
C 37.59375 31.484375 39.796875 33.390625 39.796875 35.6875 
C 39.796875 41.296875 32.796875 46 24.40625 46 
C 19.5 46 14.40625 43.984375 10.296875 40.390625 
C 5.296875 35.984375 2.5 29.1875 2.5 21.296875 
C 2.5 8.296875 10.40625 -1 21.5 -1 
C 26 -1 30 0.59375 33.59375 3.6875 
C 36.296875 6.09375 38.203125 8.796875 41.203125 14.6875 
z
" id="Nimbus_Roman_No9_L_Regular-99"/>
      <path d="M 1.90625 62.296875 
L 2.5 62.296875 
C 3.59375 62.390625 4.796875 62.5 5.59375 62.5 
C 8.796875 62.5 9.796875 61.09375 9.796875 56.390625 
L 9.796875 8.6875 
C 9.796875 3.296875 8.40625 2 2.09375 1.5 
L 2.09375 0 
L 25.703125 0 
L 25.703125 1.5 
C 19.40625 1.890625 18.203125 2.890625 18.203125 8.390625 
L 18.203125 68.09375 
L 17.796875 68.296875 
C 12.59375 66.59375 8.796875 65.59375 1.90625 63.890625 
z
" id="Nimbus_Roman_No9_L_Regular-108"/>
     </defs>
     <g transform="translate(447.585453 271.422342)scale(0.2 -0.2)">
      <use transform="scale(0.996264)" xlink:href="#Nimbus_Roman_No9_L_Regular-76"/>
      <use transform="translate(55.392908 0)scale(0.996264)" xlink:href="#Nimbus_Roman_No9_L_Regular-121"/>
      <use transform="translate(105.206109 0)scale(0.996264)" xlink:href="#Nimbus_Roman_No9_L_Regular-97"/>
      <use transform="translate(149.439678 0)scale(0.996264)" xlink:href="#Nimbus_Roman_No9_L_Regular-112"/>
      <use transform="translate(199.252878 0)scale(0.996264)" xlink:href="#Nimbus_Roman_No9_L_Regular-117"/>
      <use transform="translate(249.066078 0)scale(0.996264)" xlink:href="#Nimbus_Roman_No9_L_Regular-110"/>
      <use transform="translate(298.879279 0)scale(0.996264)" xlink:href="#Nimbus_Roman_No9_L_Regular-111"/>
      <use transform="translate(347.199087 0)scale(0.996264)" xlink:href="#Nimbus_Roman_No9_L_Regular-118"/>
      <use transform="translate(421.918888 0)scale(0.996264)" xlink:href="#Nimbus_Roman_No9_L_Regular-102"/>
      <use transform="translate(455.094117 0)scale(0.996264)" xlink:href="#Nimbus_Roman_No9_L_Regular-117"/>
      <use transform="translate(504.907318 0)scale(0.996264)" xlink:href="#Nimbus_Roman_No9_L_Regular-110"/>
      <use transform="translate(554.720518 0)scale(0.996264)" xlink:href="#Nimbus_Roman_No9_L_Regular-99"/>
      <use transform="translate(598.954087 0)scale(0.996264)" xlink:href="#Nimbus_Roman_No9_L_Regular-116"/>
      <use transform="translate(626.649257 0)scale(0.996264)" xlink:href="#Nimbus_Roman_No9_L_Regular-105"/>
      <use transform="translate(654.344426 0)scale(0.996264)" xlink:href="#Nimbus_Roman_No9_L_Regular-111"/>
      <use transform="translate(704.157627 0)scale(0.996264)" xlink:href="#Nimbus_Roman_No9_L_Regular-110"/>
      <use transform="translate(753.970827 0)scale(0.996264)" xlink:href="#Nimbus_Roman_No9_L_Regular-97"/>
      <use transform="translate(798.204396 0)scale(0.996264)" xlink:href="#Nimbus_Roman_No9_L_Regular-108"/>
     </g>
    </g>
    <g id="line2d_15"/>
    <g id="line2d_16">
     <g>
      <use style="stroke:#000000;" x="411.585453" xlink:href="#m540c6179e7" y="292.736"/>
     </g>
    </g>
    <g id="text_12">
     <!-- Simulations -->
     <defs>
      <path d="M 44.703125 67.390625 
L 42.59375 67.390625 
C 42.203125 65.09375 41.09375 63.984375 39.40625 63.984375 
C 38.40625 63.984375 36.703125 64.390625 35 65.1875 
C 31.296875 67.1875 27.59375 68 24.40625 68 
C 20.09375 68 15.703125 66.296875 12.40625 63.390625 
C 8.90625 60.296875 7.09375 56.09375 7.09375 50.890625 
C 7.09375 42.890625 11.5 37.296875 22.703125 31.390625 
C 29.90625 27.59375 35.09375 23.5 37.59375 19.6875 
C 38.5 18.390625 39 16.296875 39 13.890625 
C 39 7.1875 34 2.59375 26.703125 2.59375 
C 17.796875 2.59375 11.5 8.09375 6.5 20.296875 
L 4.203125 20.296875 
L 7.203125 -0.90625 
L 9.40625 -0.90625 
C 9.5 0.59375 10.703125 2 12.203125 2 
C 13.296875 2 15 1.59375 16.90625 0.890625 
C 20.703125 -0.203125 24.703125 -1 28.703125 -1 
C 40.203125 -1 49.09375 6.890625 49.09375 17.1875 
C 49.09375 25.390625 43.59375 31.890625 30.40625 39 
C 19.90625 44.796875 15.703125 49.1875 15.703125 54.59375 
C 15.703125 60.09375 19.90625 63.890625 26.09375 63.890625 
C 30.59375 63.890625 34.796875 62 38.296875 58.390625 
C 41.40625 55.203125 42.796875 52.59375 44.40625 46.6875 
L 46.90625 46.6875 
z
" id="Nimbus_Roman_No9_L_Regular-83"/>
      <path d="M 31.5 31.390625 
L 31.09375 45 
L 30 45 
L 29.796875 44.796875 
C 28.90625 44.09375 28.796875 43.984375 28.40625 43.984375 
C 27.796875 43.984375 26.796875 44.1875 25.703125 44.6875 
C 23.5 45.59375 21.296875 46 18.703125 46 
C 10.796875 46 5.09375 40.890625 5.09375 33.671875 
C 5.09375 28.0625 8.296875 24.046875 16.796875 19.234375 
L 22.59375 15.921875 
C 26.09375 13.921875 27.796875 11.515625 27.796875 8.40625 
C 27.796875 4 24.59375 1.1875 19.5 1.1875 
C 16.09375 1.1875 13 2.5 11.09375 4.703125 
C 9 7.203125 8.09375 9.515625 6.796875 15.21875 
L 5.203125 15.21875 
L 5.203125 -0.40625 
L 6.5 -0.40625 
C 7.203125 0.59375 7.59375 0.796875 8.796875 0.796875 
C 9.703125 0.796875 11.09375 0.59375 13.40625 0 
C 16.203125 -0.609375 18.90625 -1 20.703125 -1 
C 28.40625 -1 34.796875 4.796875 34.796875 11.8125 
C 34.796875 16.828125 32.40625 20.140625 26.40625 23.75 
L 15.59375 30.15625 
C 12.796875 31.765625 11.296875 34.265625 11.296875 36.96875 
C 11.296875 40.984375 14.40625 43.796875 19 43.796875 
C 24.703125 43.796875 27.703125 40.390625 30 31.46875 
z
" id="Nimbus_Roman_No9_L_Regular-115"/>
     </defs>
     <g transform="translate(447.585453 299.736)scale(0.2 -0.2)">
      <use transform="scale(0.996264)" xlink:href="#Nimbus_Roman_No9_L_Regular-83"/>
      <use transform="translate(55.391677 0)scale(0.996264)" xlink:href="#Nimbus_Roman_No9_L_Regular-105"/>
      <use transform="translate(83.086847 0)scale(0.996264)" xlink:href="#Nimbus_Roman_No9_L_Regular-109"/>
      <use transform="translate(160.595217 0)scale(0.996264)" xlink:href="#Nimbus_Roman_No9_L_Regular-117"/>
      <use transform="translate(210.408417 0)scale(0.996264)" xlink:href="#Nimbus_Roman_No9_L_Regular-108"/>
      <use transform="translate(238.103587 0)scale(0.996264)" xlink:href="#Nimbus_Roman_No9_L_Regular-97"/>
      <use transform="translate(282.337155 0)scale(0.996264)" xlink:href="#Nimbus_Roman_No9_L_Regular-116"/>
      <use transform="translate(310.032325 0)scale(0.996264)" xlink:href="#Nimbus_Roman_No9_L_Regular-105"/>
      <use transform="translate(337.727495 0)scale(0.996264)" xlink:href="#Nimbus_Roman_No9_L_Regular-111"/>
      <use transform="translate(387.540695 0)scale(0.996264)" xlink:href="#Nimbus_Roman_No9_L_Regular-110"/>
      <use transform="translate(437.353896 0)scale(0.996264)" xlink:href="#Nimbus_Roman_No9_L_Regular-115"/>
     </g>
    </g>
   </g>
  </g>
 </g>
 <defs>
  <clipPath id="p35eee7a547">
   <rect height="326.16" width="334.8" x="38.785453" y="3.5"/>
  </clipPath>
 </defs>
</svg>
