<?xml version="1.0" encoding="utf-8" standalone="no"?>
<!DOCTYPE svg PUBLIC "-//W3C//DTD SVG 1.1//EN"
  "http://www.w3.org/Graphics/SVG/1.1/DTD/svg11.dtd">
<!-- Created with matplotlib (http://matplotlib.org/) -->
<svg height="427.22923pt" version="1.1" viewBox="0 0 663.08535 427.22923" width="663.08535pt" xmlns="http://www.w3.org/2000/svg" xmlns:xlink="http://www.w3.org/1999/xlink">
 <defs>
  <style type="text/css">
*{stroke-linecap:butt;stroke-linejoin:round;}
  </style>
 </defs>
 <g id="figure_1">
  <g id="patch_1">
   <path d="M 0 427.22923 
L 663.08535 427.22923 
L 663.08535 -0 
L 0 -0 
z
" style="fill:#ffffff;"/>
  </g>
  <g id="axes_1">
   <g id="patch_2">
    <path d="M 64.229831 380.583604 
L 510.629831 380.583604 
L 510.629831 54.423604 
L 64.229831 54.423604 
z
" style="fill:#ffffff;"/>
   </g>
   <g id="matplotlib.axis_1">
    <g id="xtick_1">
     <g id="line2d_1">
      <defs>
       <path d="M 0 0 
L 0 3.5 
" id="m5144c98829" style="stroke:#000000;stroke-width:0.8;"/>
      </defs>
      <g>
       <use style="stroke:#000000;stroke-width:0.8;" x="74.061509" xlink:href="#m5144c98829" y="380.583604"/>
      </g>
     </g>
     <g id="text_1">
      <!-- $0$ -->
      <defs>
       <path d="M 25.40625 68 
C 19.90625 68 15.703125 66.296875 12 62.796875 
C 6.203125 57.203125 2.40625 45.6875 2.40625 34 
C 2.40625 23.09375 5.703125 11.390625 10.40625 5.796875 
C 14.09375 1.390625 19.203125 -1 25 -1 
C 30.09375 -1 34.40625 0.6875 38 4.1875 
C 43.796875 9.6875 47.59375 21.296875 47.59375 33.390625 
C 47.59375 53.890625 38.5 68 25.40625 68 
z
M 25.09375 65.390625 
C 33.5 65.390625 38 54.09375 38 33.1875 
C 38 12.296875 33.59375 1.59375 25 1.59375 
C 16.40625 1.59375 12 12.296875 12 33.09375 
C 12 54.296875 16.5 65.390625 25.09375 65.390625 
z
" id="Nimbus_Roman_No9_L_Regular-48"/>
      </defs>
      <g transform="translate(69.080189 401.092759)scale(0.2 -0.2)">
       <use transform="scale(0.996264)" xlink:href="#Nimbus_Roman_No9_L_Regular-48"/>
      </g>
     </g>
    </g>
    <g id="xtick_2">
     <g id="line2d_2">
      <g>
       <use style="stroke:#000000;stroke-width:0.8;" x="157.81182" xlink:href="#m5144c98829" y="380.583604"/>
      </g>
     </g>
     <g id="text_2">
      <!-- $1$ -->
      <defs>
       <path d="M 29.09375 68 
L 11.09375 59 
L 11.09375 57.59375 
C 12.296875 58.09375 13.40625 58.484375 13.796875 58.6875 
C 15.59375 59.390625 17.296875 59.78125 18.296875 59.78125 
C 20.40625 59.78125 21.296875 58.296875 21.296875 55.078125 
L 21.296875 9.359375 
C 21.296875 6.03125 20.5 3.71875 18.90625 2.796875 
C 17.40625 1.890625 16 1.59375 11.796875 1.5 
L 11.796875 0 
L 39.40625 0 
L 39.40625 1.5 
C 31.5 1.59375 29.90625 2.609375 29.90625 7.453125 
L 29.90625 67.796875 
z
" id="Nimbus_Roman_No9_L_Regular-49"/>
      </defs>
      <g transform="translate(152.8305 401.092759)scale(0.2 -0.2)">
       <use transform="scale(0.996264)" xlink:href="#Nimbus_Roman_No9_L_Regular-49"/>
      </g>
     </g>
    </g>
    <g id="xtick_3">
     <g id="line2d_3">
      <g>
       <use style="stroke:#000000;stroke-width:0.8;" x="241.56213" xlink:href="#m5144c98829" y="380.583604"/>
      </g>
     </g>
     <g id="text_3">
      <!-- $2$ -->
      <defs>
       <path d="M 47.5 13.734375 
L 46.203125 14.25 
C 42.5 8.5 41.203125 7.59375 36.703125 7.59375 
L 12.796875 7.59375 
L 29.59375 25.328125 
C 38.5 34.703125 42.40625 42.359375 42.40625 50.21875 
C 42.40625 60.28125 34.296875 68 23.90625 68 
C 18.40625 68 13.203125 65.796875 9.5 61.796875 
C 6.296875 58.375 4.796875 55.15625 3.09375 48 
L 5.203125 47.484375 
C 9.203125 57.359375 12.796875 60.59375 19.703125 60.59375 
C 28.09375 60.59375 33.796875 54.84375 33.796875 46.390625 
C 33.796875 38.53125 29.203125 29.15625 20.796875 20.1875 
L 3 1.1875 
L 3 0 
L 42 0 
z
" id="Nimbus_Roman_No9_L_Regular-50"/>
      </defs>
      <g transform="translate(236.58081 401.092759)scale(0.2 -0.2)">
       <use transform="scale(0.996264)" xlink:href="#Nimbus_Roman_No9_L_Regular-50"/>
      </g>
     </g>
    </g>
    <g id="xtick_4">
     <g id="line2d_4">
      <g>
       <use style="stroke:#000000;stroke-width:0.8;" x="325.312441" xlink:href="#m5144c98829" y="380.583604"/>
      </g>
     </g>
     <g id="text_4">
      <!-- $3$ -->
      <defs>
       <path d="M 15.296875 33.390625 
C 21.203125 33.390625 23.5 33.1875 25.90625 32.296875 
C 32.09375 30.09375 36 24.390625 36 17.5 
C 36 9.09375 30.296875 2.59375 22.90625 2.59375 
C 20.203125 2.59375 18.203125 3.296875 14.5 5.6875 
C 11.5 7.5 9.796875 8.1875 8.09375 8.1875 
C 5.796875 8.1875 4.296875 6.796875 4.296875 4.6875 
C 4.296875 1.1875 8.59375 -1 15.59375 -1 
C 23.296875 -1 31.203125 1.59375 35.90625 5.6875 
C 40.59375 9.796875 43.203125 15.59375 43.203125 22.296875 
C 43.203125 27.390625 41.59375 32.09375 38.703125 35.1875 
C 36.703125 37.390625 34.796875 38.59375 30.40625 40.5 
C 37.296875 45.1875 39.796875 48.890625 39.796875 54.296875 
C 39.796875 62.390625 33.40625 68 24.203125 68 
C 19.203125 68 14.796875 66.296875 11.203125 63.09375 
C 8.203125 60.390625 6.703125 57.796875 4.5 51.796875 
L 6 51.390625 
C 10.09375 58.703125 14.59375 61.984375 20.90625 61.984375 
C 27.40625 61.984375 31.90625 57.59375 31.90625 51.296875 
C 31.90625 47.6875 30.40625 44.09375 27.90625 41.59375 
C 24.90625 38.59375 22.09375 37.09375 15.296875 34.6875 
z
" id="Nimbus_Roman_No9_L_Regular-51"/>
      </defs>
      <g transform="translate(320.331121 401.092759)scale(0.2 -0.2)">
       <use transform="scale(0.996264)" xlink:href="#Nimbus_Roman_No9_L_Regular-51"/>
      </g>
     </g>
    </g>
    <g id="xtick_5">
     <g id="line2d_5">
      <g>
       <use style="stroke:#000000;stroke-width:0.8;" x="409.062752" xlink:href="#m5144c98829" y="380.583604"/>
      </g>
     </g>
     <g id="text_5">
      <!-- $4$ -->
      <defs>
       <path d="M 47.203125 23.390625 
L 37 23.390625 
L 37 68 
L 32.59375 68 
L 1.203125 23.390625 
L 1.203125 17 
L 29.296875 17 
L 29.296875 0 
L 37 0 
L 37 17 
L 47.203125 17 
z
M 29.203125 23.390625 
L 5.203125 23.390625 
L 29.203125 57.765625 
z
" id="Nimbus_Roman_No9_L_Regular-52"/>
      </defs>
      <g transform="translate(404.081432 401.092759)scale(0.2 -0.2)">
       <use transform="scale(0.996264)" xlink:href="#Nimbus_Roman_No9_L_Regular-52"/>
      </g>
     </g>
    </g>
    <g id="xtick_6">
     <g id="line2d_6">
      <g>
       <use style="stroke:#000000;stroke-width:0.8;" x="492.813062" xlink:href="#m5144c98829" y="380.583604"/>
      </g>
     </g>
     <g id="text_6">
      <!-- $5$ -->
      <defs>
       <path d="M 18.09375 58.09375 
L 37.703125 58.09375 
C 39.296875 58.09375 39.703125 58.296875 40 58.984375 
L 43.796875 67.890625 
L 42.90625 68.59375 
C 41.40625 66.5 40.40625 66 38.296875 66 
L 17.40625 66 
L 6.5 42.453125 
C 6.40625 42.265625 6.40625 42.15625 6.40625 41.96875 
C 6.40625 41.46875 6.796875 41.171875 7.59375 41.171875 
C 10.796875 41.171875 14.796875 40.484375 18.90625 39.1875 
C 30.40625 35.53125 35.703125 29.40625 35.703125 19.609375 
C 35.703125 10.109375 29.59375 2.6875 21.796875 2.6875 
C 19.796875 2.6875 18.09375 3.390625 15.09375 5.5625 
C 11.90625 7.84375 9.59375 8.828125 7.5 8.828125 
C 4.59375 8.828125 3.203125 7.640625 3.203125 5.171875 
C 3.203125 1.390625 7.90625 -1 15.40625 -1 
C 23.796875 -1 31 1.6875 36 6.75 
C 40.59375 11.203125 42.703125 16.84375 42.703125 24.359375 
C 42.703125 31.484375 40.796875 36.03125 35.796875 40.96875 
C 31.40625 45.328125 25.703125 47.609375 13.90625 49.6875 
z
" id="Nimbus_Roman_No9_L_Regular-53"/>
      </defs>
      <g transform="translate(487.831742 401.092759)scale(0.2 -0.2)">
       <use transform="scale(0.996264)" xlink:href="#Nimbus_Roman_No9_L_Regular-53"/>
      </g>
     </g>
    </g>
    <g id="text_7">
     <!-- Distance from center -->
     <defs>
      <path d="M 10.40625 10.890625 
C 10.40625 3.6875 9.203125 2.390625 1.59375 1.890625 
L 1.59375 0 
L 30 0 
C 41.59375 0 52.09375 3.296875 58.296875 8.875 
C 64.796875 14.75 68.5 23.625 68.5 33.296875 
C 68.5 42.265625 65.5 50.03125 60 55.515625 
C 53.203125 62.390625 42.296875 66 28.59375 66 
L 1.59375 66 
L 1.59375 64.09375 
C 9.5 63.390625 10.40625 62.484375 10.40625 55.09375 
z
M 20.59375 58.40625 
C 20.59375 61.5 21.703125 62.296875 25.796875 62.296875 
C 34.40625 62.296875 40.90625 60.6875 45.703125 57.3125 
C 53.5 51.921875 57.59375 43.359375 57.59375 32.59375 
C 57.59375 20.828125 53.5 12.46875 45.40625 7.78125 
C 40.296875 4.890625 34.5 3.6875 25.796875 3.6875 
C 21.796875 3.6875 20.59375 4.59375 20.59375 7.78125 
z
" id="Nimbus_Roman_No9_L_Regular-68"/>
      <path d="M 17.5 46 
L 2 40.5 
L 2 39 
L 2.796875 39.09375 
C 4 39.296875 5.296875 39.390625 6.203125 39.390625 
C 8.59375 39.390625 9.5 37.796875 9.5 33.390625 
L 9.5 10.1875 
C 9.5 3 8.5 1.890625 1.59375 1.5 
L 1.59375 0 
L 25.296875 0 
L 25.296875 1.5 
C 18.703125 2 17.90625 3 17.90625 10.1875 
L 17.90625 45.6875 
z
M 12.796875 68 
C 10.09375 68 7.796875 65.6875 7.796875 62.890625 
C 7.796875 60.09375 10 57.796875 12.796875 57.796875 
C 15.703125 57.796875 18 59.984375 18 62.890625 
C 18 65.6875 15.703125 68 12.796875 68 
z
" id="Nimbus_Roman_No9_L_Regular-105"/>
      <path d="M 31.5 31.390625 
L 31.09375 45 
L 30 45 
L 29.796875 44.796875 
C 28.90625 44.09375 28.796875 43.984375 28.40625 43.984375 
C 27.796875 43.984375 26.796875 44.1875 25.703125 44.6875 
C 23.5 45.59375 21.296875 46 18.703125 46 
C 10.796875 46 5.09375 40.890625 5.09375 33.671875 
C 5.09375 28.0625 8.296875 24.046875 16.796875 19.234375 
L 22.59375 15.921875 
C 26.09375 13.921875 27.796875 11.515625 27.796875 8.40625 
C 27.796875 4 24.59375 1.1875 19.5 1.1875 
C 16.09375 1.1875 13 2.5 11.09375 4.703125 
C 9 7.203125 8.09375 9.515625 6.796875 15.21875 
L 5.203125 15.21875 
L 5.203125 -0.40625 
L 6.5 -0.40625 
C 7.203125 0.59375 7.59375 0.796875 8.796875 0.796875 
C 9.703125 0.796875 11.09375 0.59375 13.40625 0 
C 16.203125 -0.609375 18.90625 -1 20.703125 -1 
C 28.40625 -1 34.796875 4.796875 34.796875 11.8125 
C 34.796875 16.828125 32.40625 20.140625 26.40625 23.75 
L 15.59375 30.15625 
C 12.796875 31.765625 11.296875 34.265625 11.296875 36.96875 
C 11.296875 40.984375 14.40625 43.796875 19 43.796875 
C 24.703125 43.796875 27.703125 40.390625 30 31.46875 
z
" id="Nimbus_Roman_No9_L_Regular-115"/>
      <path d="M 25.5 45 
L 15.40625 45 
L 15.40625 56.59375 
C 15.40625 57.59375 15.296875 57.890625 14.703125 57.890625 
C 14 57 13.40625 56.09375 12.703125 55.09375 
C 8.90625 49.59375 4.59375 44.796875 3 44.390625 
C 1.90625 43.6875 1.296875 42.984375 1.296875 42.484375 
C 1.296875 42.1875 1.40625 41.984375 1.703125 41.796875 
L 7 41.796875 
L 7 11.6875 
C 7 3.296875 10 -1 15.90625 -1 
C 20.796875 -1 24.59375 1.390625 27.90625 6.59375 
L 26.59375 7.6875 
C 24.5 5.1875 22.796875 4.1875 20.59375 4.1875 
C 16.90625 4.1875 15.40625 6.890625 15.40625 13.1875 
L 15.40625 41.796875 
L 25.5 41.796875 
z
" id="Nimbus_Roman_No9_L_Regular-116"/>
      <path d="M 44.203125 6.59375 
C 42.5 5.1875 41.296875 4.6875 39.796875 4.6875 
C 37.5 4.6875 36.796875 6.09375 36.796875 10.5 
L 36.796875 30 
C 36.796875 35.1875 36.296875 38.09375 34.796875 40.5 
C 32.59375 44.09375 28.296875 46 22.40625 46 
C 13 46 5.59375 41.09375 5.59375 34.796875 
C 5.59375 32.5 7.59375 30.5 9.90625 30.5 
C 12.296875 30.5 14.40625 32.5 14.40625 34.6875 
C 14.40625 35.09375 14.296875 35.59375 14.203125 36.296875 
C 14 37.1875 13.90625 38 13.90625 38.6875 
C 13.90625 41.390625 17.09375 43.59375 21.09375 43.59375 
C 26 43.59375 28.703125 40.6875 28.703125 35.296875 
L 28.703125 29.1875 
C 13.296875 23 11.59375 22.1875 7.296875 18.390625 
C 5.09375 16.390625 3.703125 13 3.703125 9.6875 
C 3.703125 3.390625 8.09375 -1 14.203125 -1 
C 18.59375 -1 22.703125 1.09375 28.796875 6.296875 
C 29.296875 1.09375 31.09375 -1 35.203125 -1 
C 38.59375 -1 40.703125 0.1875 44.203125 4 
z
M 28.703125 12.296875 
C 28.703125 9.1875 28.203125 8.296875 26.09375 7.09375 
C 23.703125 5.6875 20.90625 4.796875 18.796875 4.796875 
C 15.296875 4.796875 12.5 8.1875 12.5 12.5 
L 12.5 12.890625 
C 12.5 18.796875 16.59375 22.390625 28.703125 26.796875 
z
" id="Nimbus_Roman_No9_L_Regular-97"/>
      <path d="M 1.59375 39.796875 
C 2.203125 40.09375 3.203125 40.1875 4.296875 40.1875 
C 7.09375 40.1875 8 38.6875 8 33.796875 
L 8 9 
C 8 3.296875 6.90625 1.890625 1.796875 1.5 
L 1.796875 0 
L 23 0 
L 23 1.5 
C 17.90625 1.890625 16.40625 3.09375 16.40625 6.6875 
L 16.40625 34.796875 
C 21.203125 39.296875 23.40625 40.484375 26.703125 40.484375 
C 31.59375 40.484375 34 37.390625 34 30.796875 
L 34 9.890625 
C 34 3.59375 32.703125 1.890625 27.703125 1.5 
L 27.703125 0 
L 48.5 0 
L 48.5 1.5 
C 43.59375 2 42.40625 3.1875 42.40625 8.09375 
L 42.40625 31 
C 42.40625 40.390625 38 46 30.59375 46 
C 26 46 22.90625 44.296875 16.09375 37.890625 
L 16.09375 45.796875 
L 15.40625 46 
C 10.5 44.1875 7.09375 43.09375 1.59375 41.484375 
z
" id="Nimbus_Roman_No9_L_Regular-110"/>
      <path d="M 39.796875 15.59375 
C 35 8.59375 31.40625 6.1875 25.703125 6.1875 
C 16.59375 6.1875 10.203125 14.1875 10.203125 25.6875 
C 10.203125 35.984375 15.703125 43.09375 23.796875 43.09375 
C 27.40625 43.09375 28.703125 41.984375 29.703125 38.296875 
L 30.296875 36.09375 
C 31.09375 33.296875 32.90625 31.484375 35 31.484375 
C 37.59375 31.484375 39.796875 33.390625 39.796875 35.6875 
C 39.796875 41.296875 32.796875 46 24.40625 46 
C 19.5 46 14.40625 43.984375 10.296875 40.390625 
C 5.296875 35.984375 2.5 29.1875 2.5 21.296875 
C 2.5 8.296875 10.40625 -1 21.5 -1 
C 26 -1 30 0.59375 33.59375 3.6875 
C 36.296875 6.09375 38.203125 8.796875 41.203125 14.6875 
z
" id="Nimbus_Roman_No9_L_Regular-99"/>
      <path d="M 40.796875 16.4375 
C 36 8.8125 31.703125 5.890625 25.296875 5.890625 
C 19.59375 5.890625 15.296875 8.8125 12.40625 14.53125 
C 10.59375 18.34375 9.90625 21.65625 9.703125 27.796875 
L 40.5 27.796875 
C 39.703125 34.265625 38.703125 37.140625 36.203125 40.3125 
C 33.203125 43.890625 28.59375 46 23.40625 46 
C 18.40625 46 13.703125 44.1875 9.90625 40.8125 
C 5.203125 36.734375 2.5 29.6875 2.5 21.46875 
C 2.5 7.59375 9.703125 -1 21.203125 -1 
C 30.703125 -1 38.203125 4.890625 42.40625 15.734375 
z
M 9.90625 31 
C 11 38.71875 14.40625 42.390625 20.5 42.390625 
C 26.59375 42.390625 29 39.609375 30.296875 31 
z
" id="Nimbus_Roman_No9_L_Regular-101"/>
      <path d="M 30.90625 45 
L 18.59375 45 
L 18.59375 56.421875 
C 18.59375 62.140625 20.5 65.1875 24.296875 65.1875 
C 26.40625 65.1875 27.796875 64.203125 29.59375 61.34375 
C 31.203125 58.78125 32.40625 57.796875 34.09375 57.796875 
C 36.40625 57.796875 38.296875 59.578125 38.296875 61.84375 
C 38.296875 65.390625 33.90625 68 27.90625 68 
C 21.703125 68 16.40625 65.296875 13.796875 60.765625 
C 11.203125 56.421875 10.40625 52.875 10.296875 45 
L 2.09375 45 
L 2.09375 41.796875 
L 10.296875 41.796875 
L 10.296875 10.390625 
C 10.296875 3.09375 9.203125 1.890625 2 1.5 
L 2 0 
L 28 0 
L 28 1.5 
C 19.796875 1.796875 18.703125 2.890625 18.703125 10.390625 
L 18.703125 41.796875 
L 30.90625 41.796875 
z
" id="Nimbus_Roman_No9_L_Regular-102"/>
      <path d="M 0.703125 39 
C 2.09375 39.296875 3 39.390625 4.203125 39.390625 
C 6.703125 39.390625 7.59375 37.796875 7.59375 33.390625 
L 7.59375 8.390625 
C 7.59375 3.390625 6.90625 2.6875 0.5 1.5 
L 0.5 0 
L 24.5 0 
L 24.5 1.5 
C 17.703125 1.796875 16 3.296875 16 9 
L 16 31.5 
C 16 34.6875 20.296875 39.6875 23 39.6875 
C 23.59375 39.6875 24.5 39.1875 25.59375 38.1875 
C 27.203125 36.796875 28.296875 36.1875 29.59375 36.1875 
C 32 36.1875 33.5 37.890625 33.5 40.6875 
C 33.5 43.984375 31.40625 46 28 46 
C 23.796875 46 20.90625 43.6875 16 36.59375 
L 16 45.796875 
L 15.5 46 
C 10.203125 43.796875 6.59375 42.5 0.703125 40.59375 
z
" id="Nimbus_Roman_No9_L_Regular-114"/>
      <path d="M 25 46 
C 12 46 2.90625 36.390625 2.90625 22.59375 
C 2.90625 9.09375 12.203125 -1 24.796875 -1 
C 37.40625 -1 47 9.59375 47 23.390625 
C 47 36.5 37.796875 46 25 46 
z
M 23.703125 43.1875 
C 32.09375 43.1875 38 33.59375 38 19.890625 
C 38 8.59375 33.5 1.796875 26 1.796875 
C 22.09375 1.796875 18.40625 4.1875 16.296875 8.1875 
C 13.5 13.390625 11.90625 20.390625 11.90625 27.5 
C 11.90625 37 16.59375 43.1875 23.703125 43.1875 
z
" id="Nimbus_Roman_No9_L_Regular-111"/>
      <path d="M 1.90625 39.796875 
C 3.203125 40.09375 4 40.1875 5.09375 40.1875 
C 7.703125 40.1875 8.59375 38.59375 8.59375 33.796875 
L 8.59375 8.5 
C 8.59375 3.09375 7.203125 1.59375 1.59375 1.5 
L 1.59375 0 
L 23.796875 0 
L 23.796875 1.5 
C 18.5 1.6875 17 2.796875 17 6.6875 
L 17 34.890625 
C 17 35.09375 17.796875 36.09375 18.5 36.796875 
C 21 39.09375 25.296875 40.796875 28.796875 40.796875 
C 33.203125 40.796875 35.40625 37.296875 35.40625 30.296875 
L 35.40625 8.59375 
C 35.40625 3 34.296875 1.890625 28.59375 1.5 
L 28.59375 0 
L 51 0 
L 51 1.5 
C 45.296875 1.59375 43.796875 3.296875 43.796875 9.5 
L 43.796875 34.6875 
C 46.796875 39 50.09375 40.796875 54.703125 40.796875 
C 60.40625 40.796875 62.203125 38.09375 62.203125 29.796875 
L 62.203125 8.6875 
C 62.203125 3 61.40625 2.1875 55.59375 1.5 
L 55.59375 0 
L 77.5 0 
L 77.5 1.5 
L 74.90625 1.6875 
C 71.90625 1.890625 70.59375 3.6875 70.59375 7.59375 
L 70.59375 28.1875 
C 70.59375 40 66.703125 46 59 46 
C 53.203125 46 48.09375 43.390625 42.703125 37.59375 
C 40.90625 43.296875 37.5 46 32.09375 46 
C 27.703125 46 24.90625 44.59375 16.59375 38.296875 
L 16.59375 45.796875 
L 15.90625 46 
C 10.796875 44.09375 7.40625 42.984375 1.90625 41.484375 
z
" id="Nimbus_Roman_No9_L_Regular-109"/>
     </defs>
     <g transform="translate(203.884119 422.915572)scale(0.2 -0.2)">
      <use transform="scale(0.996264)" xlink:href="#Nimbus_Roman_No9_L_Regular-68"/>
      <use transform="translate(71.929985 0)scale(0.996264)" xlink:href="#Nimbus_Roman_No9_L_Regular-105"/>
      <use transform="translate(99.625154 0)scale(0.996264)" xlink:href="#Nimbus_Roman_No9_L_Regular-115"/>
      <use transform="translate(138.378861 0)scale(0.996264)" xlink:href="#Nimbus_Roman_No9_L_Regular-116"/>
      <use transform="translate(166.07403 0)scale(0.996264)" xlink:href="#Nimbus_Roman_No9_L_Regular-97"/>
      <use transform="translate(210.307599 0)scale(0.996264)" xlink:href="#Nimbus_Roman_No9_L_Regular-110"/>
      <use transform="translate(260.120799 0)scale(0.996264)" xlink:href="#Nimbus_Roman_No9_L_Regular-99"/>
      <use transform="translate(304.354368 0)scale(0.996264)" xlink:href="#Nimbus_Roman_No9_L_Regular-101"/>
      <use transform="translate(373.494537 0)scale(0.996264)" xlink:href="#Nimbus_Roman_No9_L_Regular-102"/>
      <use transform="translate(406.669767 0)scale(0.996264)" xlink:href="#Nimbus_Roman_No9_L_Regular-114"/>
      <use transform="translate(439.844997 0)scale(0.996264)" xlink:href="#Nimbus_Roman_No9_L_Regular-111"/>
      <use transform="translate(489.658197 0)scale(0.996264)" xlink:href="#Nimbus_Roman_No9_L_Regular-109"/>
      <use transform="translate(592.073167 0)scale(0.996264)" xlink:href="#Nimbus_Roman_No9_L_Regular-99"/>
      <use transform="translate(636.306736 0)scale(0.996264)" xlink:href="#Nimbus_Roman_No9_L_Regular-101"/>
      <use transform="translate(680.540305 0)scale(0.996264)" xlink:href="#Nimbus_Roman_No9_L_Regular-110"/>
      <use transform="translate(730.353505 0)scale(0.996264)" xlink:href="#Nimbus_Roman_No9_L_Regular-116"/>
      <use transform="translate(758.048675 0)scale(0.996264)" xlink:href="#Nimbus_Roman_No9_L_Regular-101"/>
      <use transform="translate(802.282244 0)scale(0.996264)" xlink:href="#Nimbus_Roman_No9_L_Regular-114"/>
     </g>
    </g>
   </g>
   <g id="matplotlib.axis_2">
    <g id="ytick_1">
     <g id="line2d_7">
      <defs>
       <path d="M 0 0 
L -3.5 0 
" id="m5268cbc298" style="stroke:#000000;stroke-width:0.8;"/>
      </defs>
      <g>
       <use style="stroke:#000000;stroke-width:0.8;" x="64.229831" xlink:href="#m5268cbc298" y="350.046588"/>
      </g>
     </g>
     <g id="text_8">
      <!-- $0.00$ -->
      <defs>
       <path d="M 19.203125 5.296875 
C 19.203125 8.1875 16.796875 10.59375 13.90625 10.59375 
C 11 10.59375 8.59375 8.1875 8.59375 5.296875 
C 8.59375 2.390625 11 0 13.90625 0 
C 16.796875 0 19.203125 2.390625 19.203125 5.296875 
z
" id="CMMI10-58"/>
      </defs>
      <g transform="translate(21.822813 356.801166)scale(0.2 -0.2)">
       <use transform="scale(0.996264)" xlink:href="#Nimbus_Roman_No9_L_Regular-48"/>
       <use transform="translate(49.8132 0)scale(0.996264)" xlink:href="#CMMI10-58"/>
       <use transform="translate(77.408707 0)scale(0.996264)" xlink:href="#Nimbus_Roman_No9_L_Regular-48"/>
       <use transform="translate(127.221908 0)scale(0.996264)" xlink:href="#Nimbus_Roman_No9_L_Regular-48"/>
      </g>
     </g>
    </g>
    <g id="ytick_2">
     <g id="line2d_8">
      <g>
       <use style="stroke:#000000;stroke-width:0.8;" x="64.229831" xlink:href="#m5268cbc298" y="304.291548"/>
      </g>
     </g>
     <g id="text_9">
      <!-- $0.25$ -->
      <g transform="translate(21.822813 311.046126)scale(0.2 -0.2)">
       <use transform="scale(0.996264)" xlink:href="#Nimbus_Roman_No9_L_Regular-48"/>
       <use transform="translate(49.8132 0)scale(0.996264)" xlink:href="#CMMI10-58"/>
       <use transform="translate(77.408707 0)scale(0.996264)" xlink:href="#Nimbus_Roman_No9_L_Regular-50"/>
       <use transform="translate(127.221908 0)scale(0.996264)" xlink:href="#Nimbus_Roman_No9_L_Regular-53"/>
      </g>
     </g>
    </g>
    <g id="ytick_3">
     <g id="line2d_9">
      <g>
       <use style="stroke:#000000;stroke-width:0.8;" x="64.229831" xlink:href="#m5268cbc298" y="258.536509"/>
      </g>
     </g>
     <g id="text_10">
      <!-- $0.50$ -->
      <g transform="translate(21.822813 265.291086)scale(0.2 -0.2)">
       <use transform="scale(0.996264)" xlink:href="#Nimbus_Roman_No9_L_Regular-48"/>
       <use transform="translate(49.8132 0)scale(0.996264)" xlink:href="#CMMI10-58"/>
       <use transform="translate(77.408707 0)scale(0.996264)" xlink:href="#Nimbus_Roman_No9_L_Regular-53"/>
       <use transform="translate(127.221908 0)scale(0.996264)" xlink:href="#Nimbus_Roman_No9_L_Regular-48"/>
      </g>
     </g>
    </g>
    <g id="ytick_4">
     <g id="line2d_10">
      <g>
       <use style="stroke:#000000;stroke-width:0.8;" x="64.229831" xlink:href="#m5268cbc298" y="212.781469"/>
      </g>
     </g>
     <g id="text_11">
      <!-- $0.75$ -->
      <defs>
       <path d="M 44.90625 66 
L 7.90625 66 
L 2 51.296875 
L 3.703125 50.5 
C 8 57.296875 9.796875 58.59375 15.296875 58.59375 
L 37 58.59375 
L 17.203125 -1 
L 23.703125 -1 
L 44.90625 64.390625 
z
" id="Nimbus_Roman_No9_L_Regular-55"/>
      </defs>
      <g transform="translate(21.822813 219.536046)scale(0.2 -0.2)">
       <use transform="scale(0.996264)" xlink:href="#Nimbus_Roman_No9_L_Regular-48"/>
       <use transform="translate(49.8132 0)scale(0.996264)" xlink:href="#CMMI10-58"/>
       <use transform="translate(77.408707 0)scale(0.996264)" xlink:href="#Nimbus_Roman_No9_L_Regular-55"/>
       <use transform="translate(127.221908 0)scale(0.996264)" xlink:href="#Nimbus_Roman_No9_L_Regular-53"/>
      </g>
     </g>
    </g>
    <g id="ytick_5">
     <g id="line2d_11">
      <g>
       <use style="stroke:#000000;stroke-width:0.8;" x="64.229831" xlink:href="#m5268cbc298" y="167.026429"/>
      </g>
     </g>
     <g id="text_12">
      <!-- $1.00$ -->
      <g transform="translate(21.822813 173.781007)scale(0.2 -0.2)">
       <use transform="scale(0.996264)" xlink:href="#Nimbus_Roman_No9_L_Regular-49"/>
       <use transform="translate(49.8132 0)scale(0.996264)" xlink:href="#CMMI10-58"/>
       <use transform="translate(77.408707 0)scale(0.996264)" xlink:href="#Nimbus_Roman_No9_L_Regular-48"/>
       <use transform="translate(127.221908 0)scale(0.996264)" xlink:href="#Nimbus_Roman_No9_L_Regular-48"/>
      </g>
     </g>
    </g>
    <g id="ytick_6">
     <g id="line2d_12">
      <g>
       <use style="stroke:#000000;stroke-width:0.8;" x="64.229831" xlink:href="#m5268cbc298" y="121.271389"/>
      </g>
     </g>
     <g id="text_13">
      <!-- $1.25$ -->
      <g transform="translate(21.822813 128.025967)scale(0.2 -0.2)">
       <use transform="scale(0.996264)" xlink:href="#Nimbus_Roman_No9_L_Regular-49"/>
       <use transform="translate(49.8132 0)scale(0.996264)" xlink:href="#CMMI10-58"/>
       <use transform="translate(77.408707 0)scale(0.996264)" xlink:href="#Nimbus_Roman_No9_L_Regular-50"/>
       <use transform="translate(127.221908 0)scale(0.996264)" xlink:href="#Nimbus_Roman_No9_L_Regular-53"/>
      </g>
     </g>
    </g>
    <g id="ytick_7">
     <g id="line2d_13">
      <g>
       <use style="stroke:#000000;stroke-width:0.8;" x="64.229831" xlink:href="#m5268cbc298" y="75.516349"/>
      </g>
     </g>
     <g id="text_14">
      <!-- $1.50$ -->
      <g transform="translate(21.822813 82.270927)scale(0.2 -0.2)">
       <use transform="scale(0.996264)" xlink:href="#Nimbus_Roman_No9_L_Regular-49"/>
       <use transform="translate(49.8132 0)scale(0.996264)" xlink:href="#CMMI10-58"/>
       <use transform="translate(77.408707 0)scale(0.996264)" xlink:href="#Nimbus_Roman_No9_L_Regular-53"/>
       <use transform="translate(127.221908 0)scale(0.996264)" xlink:href="#Nimbus_Roman_No9_L_Regular-48"/>
      </g>
     </g>
    </g>
    <g id="text_15">
     <!-- Radial Distribution Function -->
     <defs>
      <path d="M 65.90625 1.890625 
C 62.09375 2.1875 60.09375 3.1875 57.203125 6.578125 
L 36.59375 31.796875 
C 43.296875 33.09375 46.296875 34.28125 49.59375 36.96875 
C 52.796875 39.5625 54.703125 43.75 54.703125 48.4375 
C 54.703125 52.71875 53.40625 56.40625 50.796875 59.296875 
C 47 63.390625 38.703125 66 29.296875 66 
L 1.703125 66 
L 1.703125 64.09375 
C 9.203125 63.296875 10.203125 62.203125 10.203125 55.125 
L 10.203125 11.953125 
C 10.203125 3.6875 9.203125 2.484375 1.703125 1.890625 
L 1.703125 0 
L 29.40625 0 
L 29.40625 1.890625 
C 21.703125 2.390625 20.40625 3.6875 20.40625 10.859375 
L 20.40625 30.5 
L 26 30.703125 
L 49.796875 0 
L 65.90625 0 
z
M 20.40625 58.6875 
C 20.40625 61.484375 21.5 62.296875 25.5 62.296875 
C 38 62.296875 43.796875 57.984375 43.796875 48.59375 
C 43.796875 43.59375 41.703125 39.390625 38.09375 37.484375 
C 33.5 34.890625 30 34.296875 20.40625 34.09375 
z
" id="Nimbus_Roman_No9_L_Regular-82"/>
      <path d="M 34.40625 -1 
L 49.09375 4.1875 
L 49.09375 5.796875 
C 47.296875 5.6875 47.09375 5.6875 46.796875 5.6875 
C 43.203125 5.6875 42.40625 6.796875 42.40625 11.390625 
L 42.40625 68.09375 
L 41.90625 68.296875 
C 37.09375 66.59375 33.59375 65.59375 27.203125 63.890625 
L 27.203125 62.296875 
C 28 62.390625 28.59375 62.390625 29.40625 62.390625 
C 33.09375 62.390625 34 61.390625 34 57.296875 
L 34 41.6875 
C 30.203125 44.890625 27.5 46 23.5 46 
C 12 46 2.703125 34.6875 2.703125 20.5 
C 2.703125 7.6875 10.203125 -1 21.203125 -1 
C 26.796875 -1 30.59375 1 34 5.6875 
L 34 -0.703125 
z
M 34 10.1875 
C 34 9.5 33.296875 8.296875 32.296875 7.1875 
C 30.5 5.1875 28 4.1875 25.09375 4.1875 
C 16.796875 4.1875 11.296875 12.1875 11.296875 24.5 
C 11.296875 35.796875 16.203125 43.1875 23.796875 43.1875 
C 29.09375 43.1875 34 38.5 34 33.1875 
z
" id="Nimbus_Roman_No9_L_Regular-100"/>
      <path d="M 1.90625 62.296875 
L 2.5 62.296875 
C 3.59375 62.390625 4.796875 62.5 5.59375 62.5 
C 8.796875 62.5 9.796875 61.09375 9.796875 56.390625 
L 9.796875 8.6875 
C 9.796875 3.296875 8.40625 2 2.09375 1.5 
L 2.09375 0 
L 25.703125 0 
L 25.703125 1.5 
C 19.40625 1.890625 18.203125 2.890625 18.203125 8.390625 
L 18.203125 68.09375 
L 17.796875 68.296875 
C 12.59375 66.59375 8.796875 65.59375 1.90625 63.890625 
z
" id="Nimbus_Roman_No9_L_Regular-108"/>
      <path d="M 15.296875 68.09375 
L 14.796875 68.296875 
C 10.59375 66.796875 7.90625 66 3.203125 64.6875 
L 0.296875 63.890625 
L 0.296875 62.296875 
C 0.90625 62.390625 1.296875 62.390625 2 62.390625 
C 6 62.390625 6.90625 61.5 6.90625 57.296875 
L 6.90625 5.390625 
C 6.90625 2.296875 15.40625 -1 23.40625 -1 
C 36.59375 -1 46.796875 9.984375 46.796875 24.296875 
C 46.796875 36.59375 39.203125 46 29.203125 46 
C 23.09375 46 17.296875 42.390625 15.296875 37.484375 
z
M 15.296875 32.1875 
C 15.296875 36.09375 20 39.6875 25.203125 39.6875 
C 33 39.6875 38 31.890625 38 19.6875 
C 38 8.59375 33.203125 2.1875 25 2.1875 
C 19.796875 2.1875 15.296875 4.484375 15.296875 6.984375 
z
" id="Nimbus_Roman_No9_L_Regular-98"/>
      <path d="M 47.90625 4.984375 
L 47.40625 4.984375 
C 42.796875 4.984375 41.703125 6.09375 41.703125 10.6875 
L 41.703125 45 
L 25.90625 45 
L 25.90625 43.296875 
C 32.09375 43 33.296875 42 33.296875 37 
L 33.296875 13.5 
C 33.296875 10.6875 32.796875 9.296875 31.40625 8.1875 
C 28.703125 6 25.59375 4.796875 22.59375 4.796875 
C 18.703125 4.796875 15.5 8.1875 15.5 12.390625 
L 15.5 45 
L 0.90625 45 
L 0.90625 43.59375 
C 5.703125 43.296875 7.09375 41.796875 7.09375 37.1875 
L 7.09375 12 
C 7.09375 4.09375 11.90625 -1 19.203125 -1 
C 22.90625 -1 26.796875 0.59375 29.5 3.296875 
L 33.796875 7.59375 
L 33.796875 -0.703125 
L 34.203125 -1 
C 39.203125 1 42.796875 2.09375 47.90625 3.5 
z
" id="Nimbus_Roman_No9_L_Regular-117"/>
      <path d="M 47.90625 23.296875 
L 47.90625 46.34375 
L 45.59375 46.34375 
C 44.40625 38.46875 42.59375 37 34.59375 37 
L 20.09375 37 
L 20.09375 58.84375 
C 20.09375 61.59375 20.59375 62.1875 23.296875 62.1875 
L 36.90625 62.1875 
C 48.203125 62.1875 50.40625 60.71875 52.09375 51.859375 
L 54.59375 51.859375 
L 54.296875 66 
L 1.203125 66 
L 1.203125 64.09375 
C 8.59375 63.5 9.90625 62.125 9.90625 55.21875 
L 9.90625 12.0625 
C 9.90625 3.703125 8.796875 2.390625 1.203125 1.890625 
L 1.203125 0 
L 29.203125 0 
L 29.203125 1.890625 
C 21.5 2.296875 20.09375 3.703125 20.09375 10.953125 
L 20.09375 32.890625 
L 34.59375 32.890625 
C 42.703125 32.890625 44.40625 31.375 45.59375 23.234375 
z
" id="Nimbus_Roman_No9_L_Regular-70"/>
     </defs>
     <g transform="translate(13.509155 331.883343)rotate(-90)scale(0.2 -0.2)">
      <use transform="scale(0.996264)" xlink:href="#Nimbus_Roman_No9_L_Regular-82"/>
      <use transform="translate(66.450031 0)scale(0.996264)" xlink:href="#Nimbus_Roman_No9_L_Regular-97"/>
      <use transform="translate(110.6836 0)scale(0.996264)" xlink:href="#Nimbus_Roman_No9_L_Regular-100"/>
      <use transform="translate(160.4968 0)scale(0.996264)" xlink:href="#Nimbus_Roman_No9_L_Regular-105"/>
      <use transform="translate(188.19197 0)scale(0.996264)" xlink:href="#Nimbus_Roman_No9_L_Regular-97"/>
      <use transform="translate(232.425539 0)scale(0.996264)" xlink:href="#Nimbus_Roman_No9_L_Regular-108"/>
      <use transform="translate(285.027308 0)scale(0.996264)" xlink:href="#Nimbus_Roman_No9_L_Regular-68"/>
      <use transform="translate(356.957293 0)scale(0.996264)" xlink:href="#Nimbus_Roman_No9_L_Regular-105"/>
      <use transform="translate(384.652463 0)scale(0.996264)" xlink:href="#Nimbus_Roman_No9_L_Regular-115"/>
      <use transform="translate(423.406169 0)scale(0.996264)" xlink:href="#Nimbus_Roman_No9_L_Regular-116"/>
      <use transform="translate(451.101339 0)scale(0.996264)" xlink:href="#Nimbus_Roman_No9_L_Regular-114"/>
      <use transform="translate(484.276568 0)scale(0.996264)" xlink:href="#Nimbus_Roman_No9_L_Regular-105"/>
      <use transform="translate(511.971738 0)scale(0.996264)" xlink:href="#Nimbus_Roman_No9_L_Regular-98"/>
      <use transform="translate(559.792927 0)scale(0.996264)" xlink:href="#Nimbus_Roman_No9_L_Regular-117"/>
      <use transform="translate(609.606128 0)scale(0.996264)" xlink:href="#Nimbus_Roman_No9_L_Regular-116"/>
      <use transform="translate(637.301298 0)scale(0.996264)" xlink:href="#Nimbus_Roman_No9_L_Regular-105"/>
      <use transform="translate(664.996467 0)scale(0.996264)" xlink:href="#Nimbus_Roman_No9_L_Regular-111"/>
      <use transform="translate(714.809668 0)scale(0.996264)" xlink:href="#Nimbus_Roman_No9_L_Regular-110"/>
      <use transform="translate(789.529468 0)scale(0.996264)" xlink:href="#Nimbus_Roman_No9_L_Regular-70"/>
      <use transform="translate(844.921145 0)scale(0.996264)" xlink:href="#Nimbus_Roman_No9_L_Regular-117"/>
      <use transform="translate(894.734346 0)scale(0.996264)" xlink:href="#Nimbus_Roman_No9_L_Regular-110"/>
      <use transform="translate(944.547546 0)scale(0.996264)" xlink:href="#Nimbus_Roman_No9_L_Regular-99"/>
      <use transform="translate(988.781115 0)scale(0.996264)" xlink:href="#Nimbus_Roman_No9_L_Regular-116"/>
      <use transform="translate(1016.476285 0)scale(0.996264)" xlink:href="#Nimbus_Roman_No9_L_Regular-105"/>
      <use transform="translate(1044.171454 0)scale(0.996264)" xlink:href="#Nimbus_Roman_No9_L_Regular-111"/>
      <use transform="translate(1093.984655 0)scale(0.996264)" xlink:href="#Nimbus_Roman_No9_L_Regular-110"/>
     </g>
    </g>
   </g>
   <g id="line2d_14">
    <path clip-path="url(#p4878ce8fae)" d="M 84.520741 80.561052 
L 88.704433 71.861557 
L 92.888126 69.249059 
L 97.071818 71.347599 
L 101.255511 90.05463 
L 105.439204 94.114703 
L 109.622896 101.721769 
L 113.806589 116.20897 
L 117.990281 125.932381 
L 122.173974 132.346737 
L 126.357667 146.089672 
L 130.541359 154.408882 
L 134.725052 163.409433 
L 138.908744 175.561957 
L 143.092437 186.322326 
L 147.27613 194.009264 
L 151.459822 204.900048 
L 155.643515 217.375687 
L 159.827207 227.255045 
L 164.0109 238.037605 
L 168.194593 249.508358 
L 172.378285 259.682186 
L 176.561978 268.481797 
L 180.74567 278.021897 
L 184.929363 287.826915 
L 189.113055 296.753629 
L 193.296748 305.105425 
L 197.480441 313.698874 
L 201.664133 321.095349 
L 205.847826 327.576742 
L 210.031518 333.944825 
L 214.215211 339.724405 
L 218.398904 344.579749 
L 222.582596 348.98332 
L 226.766289 352.847297 
L 230.949981 356.149851 
L 235.133674 358.917701 
L 239.317367 361.25225 
L 243.501059 363.326481 
L 247.684752 364.625474 
L 251.868444 365.388099 
L 256.052137 365.75815 
L 260.23583 365.353347 
L 264.419522 364.12688 
L 268.603215 362.669251 
L 272.786907 360.719951 
L 276.9706 358.184721 
L 281.154293 355.520191 
L 285.337985 352.620283 
L 289.521678 349.467484 
L 293.70537 346.305529 
L 297.889063 343.121862 
L 302.072756 339.832718 
L 306.256448 336.704545 
L 310.440141 333.642947 
L 314.623833 330.605804 
L 318.807526 327.490885 
L 322.991219 324.431166 
L 327.174911 321.338746 
L 331.358604 318.261851 
L 335.542296 315.012768 
L 339.725989 312.069651 
L 343.909682 309.160733 
L 348.093374 306.101001 
L 352.277067 303.320077 
L 356.460759 301.064448 
L 360.644452 298.92032 
L 364.828145 296.841648 
L 369.011837 295.267687 
L 373.19553 294.167179 
L 377.379222 292.857867 
L 381.562915 292.001417 
L 385.746607 291.815131 
L 389.9303 291.886225 
L 394.113993 291.732538 
L 398.297685 292.493068 
L 402.481378 293.242356 
L 406.66507 294.433593 
L 410.848763 295.610772 
L 415.032456 297.260515 
L 419.216148 298.834009 
L 423.399841 300.541879 
L 427.583533 302.18471 
L 431.767226 304.126163 
L 435.950919 306.133102 
L 440.134611 308.278023 
L 444.318304 310.512063 
L 448.501996 312.660824 
L 452.685689 315.152007 
L 456.869382 317.387148 
L 461.053074 319.682348 
L 465.236767 322.080763 
L 469.420459 324.446627 
L 473.604152 326.496939 
L 477.787845 328.764937 
L 481.971537 330.833716 
L 486.15523 332.998848 
L 490.338922 334.799361 
" style="fill:none;stroke:#fee5d8;stroke-linecap:square;stroke-width:1.5;"/>
   </g>
   <g id="line2d_15">
    <path clip-path="url(#p4878ce8fae)" d="M 84.520741 99.077848 
L 88.704433 91.539386 
L 92.888126 89.619697 
L 97.071818 92.322532 
L 101.255511 110.599319 
L 105.439204 115.524005 
L 109.622896 123.843772 
L 113.806589 138.760899 
L 117.990281 149.506007 
L 122.173974 157.343313 
L 126.357667 171.714293 
L 130.541359 181.249661 
L 134.725052 191.293211 
L 138.908744 203.817568 
L 143.092437 215.117681 
L 147.27613 223.761148 
L 151.459822 234.967286 
L 155.643515 247.328491 
L 159.827207 257.385417 
L 164.0109 267.931826 
L 168.194593 278.764687 
L 172.378285 288.258129 
L 176.561978 296.43534 
L 180.74567 304.793693 
L 184.929363 312.868297 
L 189.113055 319.996981 
L 193.296748 326.337252 
L 197.480441 332.302038 
L 201.664133 337.056989 
L 205.847826 340.851989 
L 210.031518 344.127539 
L 214.215211 346.462868 
L 218.398904 347.928022 
L 222.582596 348.859008 
L 226.766289 349.089511 
L 230.949981 348.731377 
L 235.133674 348.082943 
L 239.317367 347.089611 
L 243.501059 345.577264 
L 247.684752 343.897779 
L 251.868444 342.02328 
L 256.052137 339.617181 
L 260.23583 337.085219 
L 264.419522 334.635744 
L 268.603215 331.707378 
L 272.786907 328.637749 
L 276.9706 325.75465 
L 281.154293 322.430647 
L 285.337985 318.875987 
L 289.521678 315.710568 
L 293.70537 312.354933 
L 297.889063 308.756345 
L 302.072756 305.558605 
L 306.256448 302.579835 
L 310.440141 299.433348 
L 314.623833 296.705068 
L 318.807526 294.354235 
L 322.991219 291.936169 
L 327.174911 289.959259 
L 331.358604 288.671283 
L 335.542296 287.271232 
L 339.725989 286.492417 
L 343.909682 286.274304 
L 348.093374 285.922766 
L 352.277067 285.85491 
L 356.460759 286.665746 
L 360.644452 287.531012 
L 364.828145 288.362147 
L 369.011837 289.597991 
L 373.19553 291.092741 
L 377.379222 292.132626 
L 381.562915 293.509338 
L 385.746607 295.392589 
L 389.9303 297.416447 
L 394.113993 299.181385 
L 398.297685 301.716718 
L 402.481378 304.121886 
L 406.66507 306.781455 
L 410.848763 309.377753 
L 415.032456 312.223368 
L 419.216148 314.882676 
L 423.399841 317.530144 
L 427.583533 319.975976 
L 431.767226 322.588966 
L 435.950919 325.084277 
L 440.134611 327.483435 
L 444.318304 329.747295 
L 448.501996 331.762488 
L 452.685689 333.645965 
L 456.869382 335.172649 
L 461.053074 336.49226 
L 465.236767 337.65797 
L 469.420459 338.574054 
L 473.604152 339.116703 
L 477.787845 339.563777 
L 481.971537 339.753528 
L 486.15523 339.904944 
L 490.338922 339.671944 
" style="fill:none;stroke:#fdd3c1;stroke-linecap:square;stroke-width:1.5;"/>
   </g>
   <g id="line2d_16">
    <path clip-path="url(#p4878ce8fae)" d="M 84.520741 104.007515 
L 88.704433 97.032721 
L 92.888126 95.498796 
L 97.071818 98.508951 
L 101.255511 116.793218 
L 105.439204 122.193132 
L 109.622896 130.981532 
L 113.806589 146.310066 
L 117.990281 157.672072 
L 122.173974 166.226913 
L 126.357667 181.085137 
L 130.541359 191.410345 
L 134.725052 202.325614 
L 138.908744 215.592564 
L 143.092437 227.782609 
L 147.27613 237.569453 
L 151.459822 249.722627 
L 155.643515 262.830713 
L 159.827207 273.777196 
L 164.0109 284.989687 
L 168.194593 296.141006 
L 172.378285 305.719848 
L 176.561978 313.883803 
L 180.74567 321.682013 
L 184.929363 328.760819 
L 189.113055 334.83247 
L 193.296748 339.96251 
L 197.480441 344.335362 
L 201.664133 347.699448 
L 205.847826 350.199264 
L 210.031518 352.026974 
L 214.215211 352.985796 
L 218.398904 353.285208 
L 222.582596 352.935384 
L 226.766289 351.854546 
L 230.949981 350.115934 
L 235.133674 347.944724 
L 239.317367 345.28048 
L 243.501059 341.945483 
L 247.684752 338.458347 
L 251.868444 334.797916 
L 256.052137 330.52588 
L 260.23583 326.280589 
L 264.419522 322.292231 
L 268.603215 317.777417 
L 272.786907 313.334736 
L 276.9706 309.510869 
L 281.154293 305.410532 
L 285.337985 301.360786 
L 289.521678 298.251623 
L 293.70537 295.204579 
L 297.889063 292.12625 
L 302.072756 289.823883 
L 306.256448 288.048258 
L 310.440141 286.29101 
L 314.623833 285.167164 
L 318.807526 284.6047 
L 322.991219 284.087301 
L 327.174911 284.089872 
L 331.358604 284.792404 
L 335.542296 285.431938 
L 339.725989 286.685276 
L 343.909682 288.392418 
L 348.093374 289.951203 
L 352.277067 291.664717 
L 356.460759 294.118639 
L 360.644452 296.545227 
L 364.828145 298.996577 
L 369.011837 301.712076 
L 373.19553 304.622687 
L 377.379222 307.218513 
L 381.562915 309.984112 
L 385.746607 313.010111 
L 389.9303 316.052968 
L 394.113993 318.763331 
L 398.297685 321.744023 
L 402.481378 324.476126 
L 406.66507 327.13494 
L 410.848763 329.594365 
L 415.032456 332.031854 
L 419.216148 334.1541 
L 423.399841 336.037199 
L 427.583533 337.662992 
L 431.767226 339.205202 
L 435.950919 340.42279 
L 440.134611 341.454506 
L 444.318304 342.348932 
L 448.501996 342.898345 
L 452.685689 343.212378 
L 456.869382 343.316138 
L 461.053074 343.192927 
L 465.236767 342.771406 
L 469.420459 342.222869 
L 473.604152 341.451286 
L 477.787845 340.516188 
L 481.971537 339.459251 
L 486.15523 338.360045 
L 490.338922 337.206574 
" style="fill:none;stroke:#fcbea5;stroke-linecap:square;stroke-width:1.5;"/>
   </g>
   <g id="line2d_17">
    <path clip-path="url(#p4878ce8fae)" d="M 84.520741 108.508958 
L 88.704433 103.234347 
L 92.888126 103.052045 
L 97.071818 107.863046 
L 101.255511 127.782272 
L 105.439204 135.365021 
L 109.622896 146.035096 
L 113.806589 162.924509 
L 117.990281 175.977884 
L 122.173974 186.293719 
L 126.357667 202.253845 
L 130.541359 214.181439 
L 134.725052 226.667408 
L 138.908744 240.849625 
L 143.092437 253.960438 
L 147.27613 264.74638 
L 151.459822 276.936883 
L 155.643515 289.315173 
L 159.827207 299.529161 
L 164.0109 309.441676 
L 168.194593 318.815534 
L 172.378285 326.496528 
L 176.561978 332.7031 
L 180.74567 338.151457 
L 184.929363 342.547043 
L 189.113055 345.824566 
L 193.296748 347.951448 
L 197.480441 349.111178 
L 201.664133 349.213053 
L 205.847826 348.42162 
L 210.031518 346.819297 
L 214.215211 344.461878 
L 218.398904 341.359703 
L 222.582596 337.826738 
L 226.766289 333.672062 
L 230.949981 329.271602 
L 235.133674 324.878606 
L 239.317367 320.442828 
L 243.501059 315.49387 
L 247.684752 311.089655 
L 251.868444 306.816506 
L 256.052137 301.847086 
L 260.23583 297.559926 
L 264.419522 294.078178 
L 268.603215 289.963403 
L 272.786907 286.257598 
L 276.9706 283.960988 
L 281.154293 281.451499 
L 285.337985 279.226967 
L 289.521678 278.508867 
L 293.70537 278.044369 
L 297.889063 277.672338 
L 302.072756 278.305964 
L 306.256448 279.635712 
L 310.440141 281.039385 
L 314.623833 283.125323 
L 318.807526 285.781494 
L 322.991219 288.512545 
L 327.174911 291.665829 
L 331.358604 295.371024 
L 335.542296 299.019953 
L 339.725989 303.017333 
L 343.909682 307.208298 
L 348.093374 311.14507 
L 352.277067 314.947845 
L 356.460759 318.976845 
L 360.644452 322.72571 
L 364.828145 326.257221 
L 369.011837 329.647239 
L 373.19553 332.781704 
L 377.379222 335.451549 
L 381.562915 337.857945 
L 385.746607 339.99682 
L 389.9303 341.768036 
L 394.113993 343.122676 
L 398.297685 344.220971 
L 402.481378 344.842482 
L 406.66507 345.082941 
L 410.848763 344.980607 
L 415.032456 344.477086 
L 419.216148 343.555567 
L 423.399841 342.312298 
L 427.583533 340.835782 
L 431.767226 338.996072 
L 435.950919 337.013402 
L 440.134611 334.977421 
L 444.318304 332.798988 
L 448.501996 330.459177 
L 452.685689 328.398034 
L 456.869382 326.192952 
L 461.053074 324.14475 
L 465.236767 322.424306 
L 469.420459 320.873458 
L 473.604152 319.252759 
L 477.787845 318.14481 
L 481.971537 317.263397 
L 486.15523 316.261107 
L 490.338922 316.130457 
" style="fill:none;stroke:#fca98c;stroke-linecap:square;stroke-width:1.5;"/>
   </g>
   <g id="line2d_18">
    <path clip-path="url(#p4878ce8fae)" d="M 84.520741 116.286037 
L 88.704433 111.623134 
L 92.888126 112.206792 
L 97.071818 117.607695 
L 101.255511 137.679905 
L 105.439204 146.179489 
L 109.622896 157.882161 
L 113.806589 175.781436 
L 117.990281 190.189912 
L 122.173974 202.15081 
L 126.357667 219.238464 
L 130.541359 232.434777 
L 134.725052 246.024225 
L 138.908744 260.694844 
L 143.092437 274.065838 
L 147.27613 285.171238 
L 151.459822 296.901737 
L 155.643515 308.111272 
L 159.827207 317.137118 
L 164.0109 325.417188 
L 168.194593 332.61425 
L 172.378285 338.134092 
L 176.561978 342.247143 
L 180.74567 345.265616 
L 184.929363 347.188328 
L 189.113055 348.092461 
L 193.296748 347.511987 
L 197.480441 345.98022 
L 201.664133 343.562066 
L 205.847826 340.121934 
L 210.031518 335.730144 
L 214.215211 331.253746 
L 218.398904 325.929835 
L 222.582596 320.454365 
L 226.766289 314.743794 
L 230.949981 309.325905 
L 235.133674 303.980355 
L 239.317367 299.104996 
L 243.501059 294.048822 
L 247.684752 290.026122 
L 251.868444 286.46067 
L 256.052137 282.517948 
L 260.23583 279.948032 
L 264.419522 278.534856 
L 268.603215 276.671598 
L 272.786907 275.531416 
L 276.9706 276.221104 
L 281.154293 276.617745 
L 285.337985 277.410832 
L 289.521678 279.814949 
L 293.70537 282.414733 
L 297.889063 285.016182 
L 302.072756 288.55165 
L 306.256448 292.601742 
L 310.440141 296.421129 
L 314.623833 300.738117 
L 318.807526 305.36168 
L 322.991219 309.61037 
L 327.174911 313.874658 
L 331.358604 318.337582 
L 335.542296 322.257155 
L 339.725989 325.978619 
L 343.909682 329.672328 
L 348.093374 332.786822 
L 352.277067 335.419203 
L 356.460759 337.978888 
L 360.644452 340.031896 
L 364.828145 341.454519 
L 369.011837 342.574075 
L 373.19553 343.239236 
L 377.379222 343.188634 
L 381.562915 342.793404 
L 385.746607 342.139721 
L 389.9303 340.947076 
L 394.113993 339.39068 
L 398.297685 337.805455 
L 402.481378 335.890631 
L 406.66507 333.942697 
L 410.848763 331.92436 
L 415.032456 329.90458 
L 419.216148 327.83383 
L 423.399841 325.775176 
L 427.583533 323.758771 
L 431.767226 321.893799 
L 435.950919 320.239196 
L 440.134611 318.830503 
L 444.318304 317.652979 
L 448.501996 316.55857 
L 452.685689 315.995469 
L 456.869382 315.427228 
L 461.053074 315.181718 
L 465.236767 315.327746 
L 469.420459 315.815485 
L 473.604152 316.235702 
L 477.787845 317.256907 
L 481.971537 318.503943 
L 486.15523 319.70588 
L 490.338922 321.661078 
" style="fill:none;stroke:#fc9272;stroke-linecap:square;stroke-width:1.5;"/>
   </g>
   <g id="line2d_19">
    <path clip-path="url(#p4878ce8fae)" d="M 84.520741 138.199653 
L 88.704433 134.230272 
L 92.888126 135.253679 
L 97.071818 140.583007 
L 101.255511 159.120143 
L 105.439204 167.070722 
L 109.622896 177.664189 
L 113.806589 193.634156 
L 117.990281 206.1462 
L 122.173974 216.266111 
L 126.357667 231.019351 
L 130.541359 242.349917 
L 134.725052 253.995979 
L 138.908744 266.802935 
L 143.092437 278.550742 
L 147.27613 288.086272 
L 151.459822 298.236431 
L 155.643515 308.028346 
L 159.827207 315.624542 
L 164.0109 322.366156 
L 168.194593 328.086134 
L 172.378285 331.969828 
L 176.561978 334.182571 
L 180.74567 335.431957 
L 184.929363 335.696157 
L 189.113055 334.734071 
L 193.296748 332.70797 
L 197.480441 330.325228 
L 201.664133 326.8505 
L 205.847826 322.752272 
L 210.031518 318.385467 
L 214.215211 313.87527 
L 218.398904 308.466628 
L 222.582596 303.605911 
L 226.766289 298.301399 
L 230.949981 293.340691 
L 235.133674 288.790416 
L 239.317367 284.899426 
L 243.501059 280.613354 
L 247.684752 277.943295 
L 251.868444 275.983263 
L 256.052137 273.708884 
L 260.23583 272.928958 
L 264.419522 273.673583 
L 268.603215 273.860682 
L 272.786907 274.689032 
L 276.9706 277.275937 
L 281.154293 279.522587 
L 285.337985 282.009743 
L 289.521678 285.870706 
L 293.70537 289.760693 
L 297.889063 293.489993 
L 302.072756 297.884175 
L 306.256448 302.5092 
L 310.440141 306.884277 
L 314.623833 311.377491 
L 318.807526 316.004948 
L 322.991219 320.200313 
L 327.174911 324.138197 
L 331.358604 327.797454 
L 335.542296 330.965834 
L 339.725989 333.550398 
L 343.909682 335.60166 
L 348.093374 337.062664 
L 352.277067 337.945422 
L 356.460759 338.4263 
L 360.644452 338.459105 
L 364.828145 338.103344 
L 369.011837 337.268878 
L 373.19553 336.133095 
L 377.379222 334.5214 
L 381.562915 332.656026 
L 385.746607 330.622635 
L 389.9303 328.472329 
L 394.113993 326.024765 
L 398.297685 323.759483 
L 402.481378 321.417976 
L 406.66507 319.314372 
L 410.848763 317.125593 
L 415.032456 315.309903 
L 419.216148 313.676819 
L 423.399841 312.336251 
L 427.583533 311.198013 
L 431.767226 310.552986 
L 435.950919 310.288344 
L 440.134611 310.387794 
L 444.318304 310.773953 
L 448.501996 311.364425 
L 452.685689 312.576499 
L 456.869382 313.703735 
L 461.053074 315.108452 
L 465.236767 316.841699 
L 469.420459 318.703397 
L 473.604152 320.30549 
L 477.787845 322.3533 
L 481.971537 324.346657 
L 486.15523 326.431177 
L 490.338922 328.477598 
" style="fill:none;stroke:#fb7b5b;stroke-linecap:square;stroke-width:1.5;"/>
   </g>
   <g id="line2d_20">
    <path clip-path="url(#p4878ce8fae)" d="M 84.520741 119.437139 
L 88.704433 115.044995 
L 92.888126 116.269122 
L 97.071818 122.609871 
L 101.255511 143.754781 
L 105.439204 154.008464 
L 109.622896 167.546973 
L 113.806589 187.320387 
L 117.990281 203.685639 
L 122.173974 217.587519 
L 126.357667 235.952963 
L 130.541359 250.593078 
L 134.725052 265.136646 
L 138.908744 280.077933 
L 143.092437 293.592038 
L 147.27613 304.587393 
L 151.459822 315.456916 
L 155.643515 325.453536 
L 159.827207 333.060632 
L 164.0109 339.213488 
L 168.194593 344.043495 
L 172.378285 346.762498 
L 176.561978 347.664154 
L 180.74567 347.264669 
L 184.929363 345.532737 
L 189.113055 342.150038 
L 193.296748 337.880624 
L 197.480441 332.981225 
L 201.664133 326.588136 
L 205.847826 319.845971 
L 210.031518 313.165432 
L 214.215211 306.01612 
L 218.398904 298.350394 
L 222.582596 292.112505 
L 226.766289 285.529604 
L 230.949981 279.772341 
L 235.133674 275.378898 
L 239.317367 272.062274 
L 243.501059 268.538427 
L 247.684752 267.394282 
L 251.868444 267.193853 
L 256.052137 266.621868 
L 260.23583 267.868797 
L 264.419522 270.856616 
L 268.603215 273.086503 
L 272.786907 276.03448 
L 276.9706 280.828846 
L 281.154293 285.094536 
L 285.337985 289.512865 
L 289.521678 295.182428 
L 293.70537 300.739706 
L 297.889063 306.072056 
L 302.072756 311.618211 
L 306.256448 317.187162 
L 310.440141 322.16937 
L 314.623833 326.965357 
L 318.807526 331.236046 
L 322.991219 335.014706 
L 327.174911 338.08481 
L 331.358604 340.54055 
L 335.542296 342.131129 
L 339.725989 343.173604 
L 343.909682 343.49507 
L 348.093374 343.014635 
L 352.277067 342.058135 
L 356.460759 340.677568 
L 360.644452 338.804085 
L 364.828145 336.40328 
L 369.011837 333.814518 
L 373.19553 331.044731 
L 377.379222 327.829525 
L 381.562915 324.655057 
L 385.746607 321.734914 
L 389.9303 318.792411 
L 394.113993 315.844776 
L 398.297685 313.623973 
L 402.481378 311.508736 
L 406.66507 309.931356 
L 410.848763 308.705783 
L 415.032456 308.080332 
L 419.216148 307.677125 
L 423.399841 307.755437 
L 427.583533 308.161009 
L 431.767226 309.060448 
L 435.950919 310.293195 
L 440.134611 311.937812 
L 444.318304 313.890604 
L 448.501996 315.894518 
L 452.685689 318.385298 
L 456.869382 320.830745 
L 461.053074 323.401255 
L 465.236767 326.066431 
L 469.420459 328.753885 
L 473.604152 331.124699 
L 477.787845 333.548161 
L 481.971537 335.711211 
L 486.15523 337.917365 
L 490.338922 339.633477 
" style="fill:none;stroke:#fa6547;stroke-linecap:square;stroke-width:1.5;"/>
   </g>
   <g id="line2d_21">
    <path clip-path="url(#p4878ce8fae)" d="M 84.520741 146.116025 
L 88.704433 144.02009 
L 92.888126 146.743935 
L 97.071818 153.912923 
L 101.255511 173.806932 
L 105.439204 183.983082 
L 109.622896 196.595835 
L 113.806589 214.316813 
L 117.990281 228.835144 
L 122.173974 241.035391 
L 126.357667 256.853435 
L 130.541359 269.492709 
L 134.725052 281.758332 
L 138.908744 294.028263 
L 143.092437 304.763254 
L 147.27613 312.972611 
L 151.459822 320.586306 
L 155.643515 327.155098 
L 159.827207 331.370758 
L 164.0109 334.080501 
L 168.194593 335.493458 
L 172.378285 335.114043 
L 176.561978 333.106286 
L 180.74567 330.408498 
L 184.929363 327.055068 
L 189.113055 322.275309 
L 193.296748 317.159869 
L 197.480441 312.375594 
L 201.664133 306.204296 
L 205.847826 300.12691 
L 210.031518 294.916278 
L 214.215211 289.584363 
L 218.398904 283.766885 
L 222.582596 279.995905 
L 226.766289 275.991523 
L 230.949981 273.006222 
L 235.133674 271.508283 
L 239.317367 271.212813 
L 243.501059 270.796986 
L 247.684752 272.664036 
L 251.868444 275.307063 
L 256.052137 277.608011 
L 260.23583 281.361344 
L 264.419522 286.39799 
L 268.603215 290.614574 
L 272.786907 295.143033 
L 276.9706 300.806422 
L 281.154293 305.670699 
L 285.337985 310.255957 
L 289.521678 315.299942 
L 293.70537 319.825536 
L 297.889063 323.761134 
L 302.072756 327.356819 
L 306.256448 330.609573 
L 310.440141 333.078298 
L 314.623833 335.145009 
L 318.807526 336.509329 
L 322.991219 337.299491 
L 327.174911 337.398392 
L 331.358604 337.001603 
L 335.542296 335.73969 
L 339.725989 334.188087 
L 343.909682 332.246687 
L 348.093374 329.714864 
L 352.277067 327.01123 
L 356.460759 324.459439 
L 360.644452 321.791851 
L 364.828145 318.976713 
L 369.011837 316.518871 
L 373.19553 314.438435 
L 377.379222 312.154176 
L 381.562915 310.433627 
L 385.746607 309.388033 
L 389.9303 308.54902 
L 394.113993 307.880488 
L 398.297685 308.244414 
L 402.481378 308.748062 
L 406.66507 309.821773 
L 410.848763 311.399925 
L 415.032456 313.419917 
L 419.216148 315.484097 
L 423.399841 317.761467 
L 427.583533 320.086054 
L 431.767226 322.465209 
L 435.950919 324.829844 
L 440.134611 327.19865 
L 444.318304 329.501557 
L 448.501996 331.471483 
L 452.685689 333.411552 
L 456.869382 335.022392 
L 461.053074 336.347596 
L 465.236767 337.439407 
L 469.420459 338.216478 
L 473.604152 338.56495 
L 477.787845 338.695947 
L 481.971537 338.562788 
L 486.15523 338.332473 
L 490.338922 337.795656 
" style="fill:none;stroke:#f34a36;stroke-linecap:square;stroke-width:1.5;"/>
   </g>
   <g id="line2d_22">
    <path clip-path="url(#p4878ce8fae)" d="M 84.520741 153.070571 
L 88.704433 151.539245 
L 92.888126 154.782084 
L 97.071818 162.312983 
L 101.255511 182.16297 
L 105.439204 192.898148 
L 109.622896 205.917634 
L 113.806589 223.791986 
L 117.990281 238.563487 
L 122.173974 250.991815 
L 126.357667 266.368882 
L 130.541359 278.449443 
L 134.725052 289.938699 
L 138.908744 301.035239 
L 143.092437 310.228477 
L 147.27613 316.819883 
L 151.459822 322.549627 
L 155.643515 326.95337 
L 159.827207 328.991921 
L 164.0109 329.54152 
L 168.194593 328.666615 
L 172.378285 326.100509 
L 176.561978 321.861063 
L 180.74567 317.071876 
L 184.929363 312.045282 
L 189.113055 305.903322 
L 193.296748 299.42896 
L 197.480441 294.093663 
L 201.664133 287.799783 
L 205.847826 281.824012 
L 210.031518 277.201964 
L 214.215211 273.504299 
L 218.398904 269.381227 
L 222.582596 267.757357 
L 226.766289 266.315619 
L 230.949981 266.278503 
L 235.133674 267.598162 
L 239.317367 270.311265 
L 243.501059 272.892861 
L 247.684752 277.489838 
L 251.868444 282.562088 
L 256.052137 287.194578 
L 260.23583 292.778067 
L 264.419522 299.107489 
L 268.603215 304.412966 
L 272.786907 309.593623 
L 276.9706 315.223905 
L 281.154293 319.732661 
L 285.337985 323.526783 
L 289.521678 327.090928 
L 293.70537 329.71368 
L 297.889063 331.425341 
L 302.072756 332.545258 
L 306.256448 333.008846 
L 310.440141 332.589017 
L 314.623833 331.649156 
L 318.807526 330.12383 
L 322.991219 327.980812 
L 327.174911 325.464889 
L 331.358604 322.874603 
L 335.542296 319.788704 
L 339.725989 316.829833 
L 343.909682 314.002375 
L 348.093374 311.018682 
L 352.277067 308.309475 
L 356.460759 306.351896 
L 360.644452 304.699069 
L 364.828145 303.361404 
L 369.011837 302.78635 
L 373.19553 302.940973 
L 377.379222 303.121826 
L 381.562915 304.029966 
L 385.746607 305.714327 
L 389.9303 307.668552 
L 394.113993 309.611842 
L 398.297685 312.329781 
L 402.481378 314.950056 
L 406.66507 317.768577 
L 410.848763 320.66549 
L 415.032456 323.581819 
L 419.216148 326.182285 
L 423.399841 328.599548 
L 427.583533 330.632617 
L 431.767226 332.338804 
L 435.950919 333.69724 
L 440.134611 334.706438 
L 444.318304 335.25669 
L 448.501996 335.284096 
L 452.685689 335.068225 
L 456.869382 334.303629 
L 461.053074 333.22066 
L 465.236767 331.991838 
L 469.420459 330.591862 
L 473.604152 328.881826 
L 477.787845 327.362257 
L 481.971537 325.908314 
L 486.15523 324.297782 
L 490.338922 323.247328 
" style="fill:none;stroke:#e63328;stroke-linecap:square;stroke-width:1.5;"/>
   </g>
   <g id="line2d_23">
    <path clip-path="url(#p4878ce8fae)" d="M 84.520741 159.424015 
L 88.704433 158.203083 
L 92.888126 161.431469 
L 97.071818 168.980046 
L 101.255511 188.445851 
L 105.439204 199.14087 
L 109.622896 212.066666 
L 113.806589 229.606543 
L 117.990281 244.031927 
L 122.173974 255.988454 
L 126.357667 270.630416 
L 130.541359 281.954181 
L 134.725052 292.450016 
L 138.908744 302.442702 
L 143.092437 310.557518 
L 147.27613 315.826596 
L 151.459822 320.186273 
L 155.643515 323.298185 
L 159.827207 323.992153 
L 164.0109 323.186764 
L 168.194593 321.247024 
L 172.378285 317.684271 
L 176.561978 312.534473 
L 180.74567 307.129241 
L 184.929363 301.774039 
L 189.113055 295.260799 
L 193.296748 288.738532 
L 197.480441 283.732859 
L 201.664133 277.801259 
L 205.847826 272.497428 
L 210.031518 269.081919 
L 214.215211 266.742069 
L 218.398904 264.094173 
L 222.582596 264.27332 
L 226.766289 264.715773 
L 230.949981 266.578795 
L 235.133674 269.677379 
L 239.317367 273.984899 
L 243.501059 278.125045 
L 247.684752 283.930129 
L 251.868444 289.870705 
L 256.052137 295.233807 
L 260.23583 301.204039 
L 264.419522 307.414326 
L 268.603215 312.398213 
L 272.786907 316.951828 
L 276.9706 321.563402 
L 281.154293 324.890705 
L 285.337985 327.31415 
L 289.521678 329.322932 
L 293.70537 330.304565 
L 297.889063 330.232715 
L 302.072756 329.528725 
L 306.256448 328.145227 
L 310.440141 325.878849 
L 314.623833 323.123089 
L 318.807526 320.08309 
L 322.991219 316.585474 
L 327.174911 313.078789 
L 331.358604 309.928219 
L 335.542296 306.64366 
L 339.725989 303.832656 
L 343.909682 301.62456 
L 348.093374 299.648982 
L 352.277067 298.228949 
L 356.460759 297.948267 
L 360.644452 298.197262 
L 364.828145 298.918819 
L 369.011837 300.374974 
L 373.19553 302.501888 
L 377.379222 304.652522 
L 381.562915 307.293336 
L 385.746607 310.453082 
L 389.9303 313.800133 
L 394.113993 316.870917 
L 398.297685 320.253758 
L 402.481378 323.321424 
L 406.66507 326.218664 
L 410.848763 328.725231 
L 415.032456 330.929936 
L 419.216148 332.564515 
L 423.399841 333.687524 
L 427.583533 334.185834 
L 431.767226 334.177385 
L 435.950919 333.720797 
L 440.134611 332.84992 
L 444.318304 331.497763 
L 448.501996 329.771041 
L 452.685689 328.020675 
L 456.869382 325.814188 
L 461.053074 323.598205 
L 465.236767 321.569756 
L 469.420459 319.612386 
L 473.604152 317.529641 
L 477.787845 316.059053 
L 481.971537 314.867534 
L 486.15523 313.574267 
L 490.338922 313.334825 
" style="fill:none;stroke:#d21f20;stroke-linecap:square;stroke-width:1.5;"/>
   </g>
   <g id="line2d_24">
    <path clip-path="url(#p4878ce8fae)" d="M 84.520741 171.20969 
L 88.704433 166.43644 
L 92.888126 165.508619 
L 97.071818 168.21098 
L 101.255511 182.159244 
L 105.439204 186.768473 
L 109.622896 193.738044 
L 113.806589 205.379927 
L 117.990281 213.858677 
L 122.173974 220.074178 
L 126.357667 230.61431 
L 130.541359 237.719354 
L 134.725052 244.86902 
L 138.908744 253.5001 
L 143.092437 261.073351 
L 147.27613 266.456213 
L 151.459822 273.130034 
L 155.643515 280.292391 
L 159.827207 285.466342 
L 164.0109 290.535812 
L 168.194593 295.511614 
L 172.378285 299.309401 
L 176.561978 301.914189 
L 180.74567 304.694726 
L 184.929363 307.430044 
L 189.113055 309.193439 
L 193.296748 310.53636 
L 197.480441 312.257788 
L 201.664133 312.810587 
L 205.847826 312.977401 
L 210.031518 313.473797 
L 214.215211 313.633488 
L 218.398904 312.888637 
L 222.582596 312.742939 
L 226.766289 311.975155 
L 230.949981 311.190548 
L 235.133674 310.577551 
L 239.317367 310.085605 
L 243.501059 308.900648 
L 247.684752 308.360793 
L 251.868444 307.802 
L 256.052137 306.491322 
L 260.23583 305.642844 
L 264.419522 305.373158 
L 268.603215 304.293597 
L 272.786907 303.334454 
L 276.9706 303.21267 
L 281.154293 302.50259 
L 285.337985 301.712888 
L 289.521678 301.723317 
L 293.70537 301.500835 
L 297.889063 300.979452 
L 302.072756 300.958047 
L 306.256448 301.068395 
L 310.440141 300.835646 
L 314.623833 300.853959 
L 318.807526 301.04953 
L 322.991219 300.909553 
L 327.174911 300.919518 
L 331.358604 301.292183 
L 335.542296 301.330476 
L 339.725989 301.655487 
L 343.909682 302.254707 
L 348.093374 302.541994 
L 352.277067 302.889413 
L 356.460759 303.818156 
L 360.644452 304.655696 
L 364.828145 305.318882 
L 369.011837 306.251248 
L 373.19553 307.319169 
L 377.379222 307.929709 
L 381.562915 308.719164 
L 385.746607 309.876964 
L 389.9303 310.979511 
L 394.113993 311.804214 
L 398.297685 313.126003 
L 402.481378 314.219804 
L 406.66507 315.422481 
L 410.848763 316.557158 
L 415.032456 317.793862 
L 419.216148 318.861722 
L 423.399841 319.933785 
L 427.583533 320.864031 
L 431.767226 321.818576 
L 435.950919 322.747234 
L 440.134611 323.661122 
L 444.318304 324.434498 
L 448.501996 325.005713 
L 452.685689 325.701648 
L 456.869382 326.040196 
L 461.053074 326.295179 
L 465.236767 326.595891 
L 469.420459 326.79441 
L 473.604152 326.673543 
L 477.787845 326.788223 
L 481.971537 326.860527 
L 486.15523 326.876771 
L 490.338922 327.11497 
" style="fill:none;stroke:#be151a;stroke-linecap:square;stroke-width:1.5;"/>
   </g>
   <g id="line2d_25">
    <path clip-path="url(#p4878ce8fae)" d="M 84.520741 154.772668 
L 88.704433 148.587544 
L 92.888126 146.797252 
L 97.071818 148.685106 
L 101.255511 162.814401 
L 105.439204 166.493215 
L 109.622896 172.769613 
L 113.806589 184.141895 
L 117.990281 192.092774 
L 122.173974 197.63644 
L 126.357667 208.367144 
L 130.541359 215.313764 
L 134.725052 222.652912 
L 138.908744 232.044562 
L 143.092437 240.403449 
L 147.27613 246.47501 
L 151.459822 254.51933 
L 155.643515 263.485244 
L 159.827207 270.483913 
L 164.0109 277.797335 
L 168.194593 285.329133 
L 172.378285 291.702626 
L 176.561978 296.885734 
L 180.74567 302.311013 
L 184.929363 307.739753 
L 189.113055 312.343397 
L 193.296748 316.386535 
L 197.480441 320.534878 
L 201.664133 323.61014 
L 205.847826 326.003404 
L 210.031518 328.295019 
L 214.215211 330.094831 
L 218.398904 331.015794 
L 222.582596 331.911793 
L 226.766289 332.210436 
L 230.949981 332.24373 
L 235.133674 332.08222 
L 239.317367 331.791731 
L 243.501059 331.02751 
L 247.684752 330.347967 
L 251.868444 329.479455 
L 256.052137 328.054719 
L 260.23583 326.648928 
L 264.419522 325.284348 
L 268.603215 323.363672 
L 272.786907 321.333373 
L 276.9706 319.668342 
L 281.154293 317.647439 
L 285.337985 315.479254 
L 289.521678 313.752127 
L 293.70537 311.926996 
L 297.889063 309.915666 
L 302.072756 308.20517 
L 306.256448 306.750249 
L 310.440141 305.170377 
L 314.623833 303.837243 
L 318.807526 302.658236 
L 322.991219 301.3986 
L 327.174911 300.349107 
L 331.358604 299.690809 
L 335.542296 298.84163 
L 339.725989 298.434951 
L 343.909682 298.318342 
L 348.093374 297.963397 
L 352.277067 297.772734 
L 356.460759 298.273405 
L 360.644452 298.794681 
L 364.828145 299.225095 
L 369.011837 300.12455 
L 373.19553 301.320644 
L 377.379222 302.092537 
L 381.562915 303.190649 
L 385.746607 304.799147 
L 389.9303 306.34539 
L 394.113993 307.637606 
L 398.297685 309.600756 
L 402.481378 311.333772 
L 406.66507 313.249348 
L 410.848763 315.242895 
L 415.032456 317.393658 
L 419.216148 319.391558 
L 423.399841 321.493756 
L 427.583533 323.443374 
L 431.767226 325.377495 
L 435.950919 327.31356 
L 440.134611 329.19893 
L 444.318304 330.91502 
L 448.501996 332.473551 
L 452.685689 334.08873 
L 456.869382 335.355895 
L 461.053074 336.481438 
L 465.236767 337.559887 
L 469.420459 338.424238 
L 473.604152 338.973252 
L 477.787845 339.53159 
L 481.971537 339.939186 
L 486.15523 340.263216 
L 490.338922 340.523336 
" style="fill:none;stroke:#a91016;stroke-linecap:square;stroke-width:1.5;"/>
   </g>
   <g id="line2d_26">
    <path clip-path="url(#p4878ce8fae)" d="M 84.520741 169.652677 
L 88.704433 163.474388 
L 92.888126 161.381863 
L 97.071818 162.789524 
L 101.255511 175.692747 
L 105.439204 179.080257 
L 109.622896 185.091561 
L 113.806589 196.024732 
L 117.990281 203.846201 
L 122.173974 209.439595 
L 126.357667 219.737387 
L 130.541359 226.437019 
L 134.725052 233.441993 
L 138.908744 242.295186 
L 143.092437 250.197463 
L 147.27613 256.080653 
L 151.459822 263.778722 
L 155.643515 272.240081 
L 159.827207 278.841837 
L 164.0109 285.639586 
L 168.194593 292.42455 
L 172.378285 298.003517 
L 176.561978 302.359972 
L 180.74567 306.779937 
L 184.929363 311.060551 
L 189.113055 314.541466 
L 193.296748 317.43484 
L 197.480441 320.486782 
L 201.664133 322.584307 
L 205.847826 324.100502 
L 210.031518 325.591962 
L 214.215211 326.794382 
L 218.398904 327.142269 
L 222.582596 327.539333 
L 226.766289 327.389857 
L 230.949981 327.037445 
L 235.133674 326.493804 
L 239.317367 325.845553 
L 243.501059 324.690429 
L 247.684752 323.700064 
L 251.868444 322.506198 
L 256.052137 320.635147 
L 260.23583 318.890111 
L 264.419522 317.298099 
L 268.603215 315.060187 
L 272.786907 312.791048 
L 276.9706 311.07955 
L 281.154293 308.940909 
L 285.337985 306.669961 
L 289.521678 304.998422 
L 293.70537 303.189323 
L 297.889063 301.156881 
L 302.072756 299.575355 
L 306.256448 298.317123 
L 310.440141 296.890572 
L 314.623833 295.880228 
L 318.807526 295.195186 
L 322.991219 294.447637 
L 327.174911 294.047184 
L 331.358604 294.244327 
L 335.542296 294.28146 
L 339.725989 294.846023 
L 343.909682 295.85089 
L 348.093374 296.609783 
L 352.277067 297.529016 
L 356.460759 299.205262 
L 360.644452 300.875138 
L 364.828145 302.366448 
L 369.011837 304.361768 
L 373.19553 306.554089 
L 377.379222 308.21559 
L 381.562915 310.092647 
L 385.746607 312.42563 
L 389.9303 314.50501 
L 394.113993 316.342506 
L 398.297685 318.719975 
L 402.481378 320.773394 
L 406.66507 322.835273 
L 410.848763 324.938991 
L 415.032456 326.978206 
L 419.216148 328.781323 
L 423.399841 330.615361 
L 427.583533 332.173052 
L 431.767226 333.526651 
L 435.950919 334.816008 
L 440.134611 335.921945 
L 444.318304 336.648582 
L 448.501996 337.172249 
L 452.685689 337.665537 
L 456.869382 337.687402 
L 461.053074 337.54114 
L 465.236767 337.424829 
L 469.420459 337.061603 
L 473.604152 336.392507 
L 477.787845 335.867448 
L 481.971537 335.262107 
L 486.15523 334.535974 
L 490.338922 333.978705 
" style="fill:none;stroke:#880811;stroke-linecap:square;stroke-width:1.5;"/>
   </g>
   <g id="line2d_27">
    <path clip-path="url(#p4878ce8fae)" d="M 84.520741 182.450522 
L 88.704433 176.588389 
L 92.888126 174.521371 
L 97.071818 175.676889 
L 101.255511 187.402721 
L 105.439204 190.173908 
L 109.622896 195.285669 
L 113.806589 204.906859 
L 117.990281 211.515468 
L 122.173974 216.004367 
L 126.357667 225.025083 
L 130.541359 230.700528 
L 134.725052 236.611298 
L 138.908744 244.311474 
L 143.092437 251.080924 
L 147.27613 255.729696 
L 151.459822 262.108563 
L 155.643515 269.302157 
L 159.827207 274.678292 
L 164.0109 280.267662 
L 168.194593 286.062309 
L 172.378285 290.779524 
L 176.561978 294.317607 
L 180.74567 298.080104 
L 184.929363 301.878965 
L 189.113055 304.672903 
L 193.296748 306.943754 
L 197.480441 309.548318 
L 201.664133 310.879222 
L 205.847826 311.614855 
L 210.031518 312.473187 
L 214.215211 312.86686 
L 218.398904 312.172605 
L 222.582596 311.96911 
L 226.766289 311.067515 
L 230.949981 310.125272 
L 235.133674 309.231055 
L 239.317367 308.405397 
L 243.501059 306.834528 
L 247.684752 305.817926 
L 251.868444 304.675827 
L 256.052137 302.679253 
L 260.23583 301.066046 
L 264.419522 299.897316 
L 268.603215 297.834341 
L 272.786907 295.812835 
L 276.9706 294.681319 
L 281.154293 292.947169 
L 285.337985 291.067062 
L 289.521678 290.057289 
L 293.70537 288.873852 
L 297.889063 287.407652 
L 302.072756 286.547196 
L 306.256448 286.059285 
L 310.440141 285.403329 
L 314.623833 285.189771 
L 318.807526 285.292636 
L 322.991219 285.228011 
L 327.174911 285.466074 
L 331.358604 286.216581 
L 335.542296 286.741639 
L 339.725989 287.720376 
L 343.909682 288.995986 
L 348.093374 289.971924 
L 352.277067 290.996659 
L 356.460759 292.666828 
L 360.644452 294.253813 
L 364.828145 295.760569 
L 369.011837 297.525916 
L 373.19553 299.48795 
L 377.379222 300.962303 
L 381.562915 302.598765 
L 385.746607 304.511719 
L 389.9303 306.34747 
L 394.113993 307.759238 
L 398.297685 309.621925 
L 402.481378 311.19658 
L 406.66507 312.831376 
L 410.848763 314.309675 
L 415.032456 315.840234 
L 419.216148 317.072987 
L 423.399841 318.173312 
L 427.583533 319.042281 
L 431.767226 319.807886 
L 435.950919 320.411766 
L 440.134611 320.911833 
L 444.318304 321.204449 
L 448.501996 321.198005 
L 452.685689 321.332498 
L 456.869382 321.052005 
L 461.053074 320.699013 
L 465.236767 320.399466 
L 469.420459 319.964934 
L 473.604152 319.125716 
L 477.787845 318.565571 
L 481.971537 317.919572 
L 486.15523 317.180942 
L 490.338922 316.68683 
" style="fill:none;stroke:#67000d;stroke-linecap:square;stroke-width:1.5;"/>
   </g>
   <g id="patch_3">
    <path d="M 64.229831 380.583604 
L 64.229831 54.423604 
" style="fill:none;stroke:#000000;stroke-linecap:square;stroke-linejoin:miter;stroke-width:0.8;"/>
   </g>
   <g id="patch_4">
    <path d="M 510.629831 380.583604 
L 510.629831 54.423604 
" style="fill:none;stroke:#000000;stroke-linecap:square;stroke-linejoin:miter;stroke-width:0.8;"/>
   </g>
   <g id="patch_5">
    <path d="M 64.229831 380.583604 
L 510.629831 380.583604 
" style="fill:none;stroke:#000000;stroke-linecap:square;stroke-linejoin:miter;stroke-width:0.8;"/>
   </g>
   <g id="patch_6">
    <path d="M 64.229831 54.423604 
L 510.629831 54.423604 
" style="fill:none;stroke:#000000;stroke-linecap:square;stroke-linejoin:miter;stroke-width:0.8;"/>
   </g>
   <g id="legend_1">
    <g id="patch_7">
     <path d="M 524.629831 402.391209 
L 659.08535 402.391209 
Q 663.08535 402.391209 663.08535 398.391209 
L 663.08535 4 
Q 663.08535 -0 659.08535 -0 
L 524.629831 -0 
Q 520.629831 -0 520.629831 4 
L 520.629831 398.391209 
Q 520.629831 402.391209 524.629831 402.391209 
z
" style="fill:#ffffff;opacity:0.8;stroke:#cccccc;stroke-linejoin:miter;"/>
    </g>
    <g id="line2d_28">
     <path d="M 528.629831 15 
L 568.629831 15 
" style="fill:none;stroke:#fee5d8;stroke-linecap:square;stroke-width:1.5;"/>
    </g>
    <g id="line2d_29"/>
    <g id="text_16">
     <!-- K = 1.0 -->
     <defs>
      <path d="M 41.296875 64.09375 
C 42.5 64 43.5 64 43.90625 64 
C 46.90625 63.796875 48.09375 63 48.09375 61 
C 48.09375 58.8125 45.796875 55.828125 40.296875 50.734375 
L 22.59375 34.6875 
L 22.59375 55.125 
C 22.59375 62.40625 23.703125 63.5 31.796875 64.09375 
L 31.796875 66 
L 3.40625 66 
L 3.40625 64.09375 
C 11.203125 63.5 12.40625 62.203125 12.40625 55.125 
L 12.40625 11.953125 
C 12.40625 3.6875 11.296875 2.390625 3.40625 1.890625 
L 3.40625 0 
L 31.59375 0 
L 31.59375 1.890625 
C 23.796875 2.390625 22.59375 3.59375 22.59375 10.859375 
L 22.59375 29.5 
L 25.203125 31.59375 
L 35.796875 21.125 
C 43.40625 13.65625 48.796875 6.578125 48.796875 4.1875 
C 48.796875 2.796875 47.40625 2.09375 44.59375 1.984375 
C 44.09375 1.984375 43 1.984375 41.796875 1.890625 
L 41.796875 0 
L 72.296875 0 
L 72.296875 1.890625 
C 67.09375 1.984375 65.703125 2.984375 56.59375 12.65625 
L 33.296875 37.578125 
L 52.296875 56.328125 
C 59.09375 62.796875 60.703125 63.59375 67.5 64.09375 
L 67.5 66 
L 41.296875 66 
z
" id="Nimbus_Roman_No9_L_Regular-75"/>
      <path d="M 53.40625 38.59375 
L 3 38.59375 
L 3 32 
L 53.40625 32 
z
M 53.40625 18.59375 
L 3 18.59375 
L 3 12 
L 53.40625 12 
z
" id="Nimbus_Roman_No9_L_Regular-61"/>
      <path d="M 12.5 10.09375 
C 9.5 10.09375 7 7.5 7 4.390625 
C 7 1.5 9.5 -1 12.40625 -1 
C 15.5 -1 18.09375 1.5 18.09375 4.390625 
C 18.09375 7.5 15.5 10.09375 12.5 10.09375 
z
" id="Nimbus_Roman_No9_L_Regular-46"/>
     </defs>
     <g transform="translate(584.629831 22)scale(0.2 -0.2)">
      <use transform="scale(0.996264)" xlink:href="#Nimbus_Roman_No9_L_Regular-75"/>
      <use transform="translate(96.836585 0)scale(0.996264)" xlink:href="#Nimbus_Roman_No9_L_Regular-61"/>
      <use transform="translate(177.931436 0)scale(0.996264)" xlink:href="#Nimbus_Roman_No9_L_Regular-49"/>
      <use transform="translate(227.744636 0)scale(0.996264)" xlink:href="#Nimbus_Roman_No9_L_Regular-46"/>
      <use transform="translate(252.651236 0)scale(0.996264)" xlink:href="#Nimbus_Roman_No9_L_Regular-48"/>
     </g>
    </g>
    <g id="line2d_30">
     <path d="M 528.629831 43.313658 
L 568.629831 43.313658 
" style="fill:none;stroke:#fdd3c1;stroke-linecap:square;stroke-width:1.5;"/>
    </g>
    <g id="line2d_31"/>
    <g id="text_17">
     <!-- K = 1.5 -->
     <g transform="translate(584.629831 50.313658)scale(0.2 -0.2)">
      <use transform="scale(0.996264)" xlink:href="#Nimbus_Roman_No9_L_Regular-75"/>
      <use transform="translate(96.836585 0)scale(0.996264)" xlink:href="#Nimbus_Roman_No9_L_Regular-61"/>
      <use transform="translate(177.931436 0)scale(0.996264)" xlink:href="#Nimbus_Roman_No9_L_Regular-49"/>
      <use transform="translate(227.744636 0)scale(0.996264)" xlink:href="#Nimbus_Roman_No9_L_Regular-46"/>
      <use transform="translate(252.651236 0)scale(0.996264)" xlink:href="#Nimbus_Roman_No9_L_Regular-53"/>
     </g>
    </g>
    <g id="line2d_32">
     <path d="M 528.629831 71.627316 
L 568.629831 71.627316 
" style="fill:none;stroke:#fcbea5;stroke-linecap:square;stroke-width:1.5;"/>
    </g>
    <g id="line2d_33"/>
    <g id="text_18">
     <!-- K = 2.0 -->
     <g transform="translate(584.629831 78.627316)scale(0.2 -0.2)">
      <use transform="scale(0.996264)" xlink:href="#Nimbus_Roman_No9_L_Regular-75"/>
      <use transform="translate(96.836585 0)scale(0.996264)" xlink:href="#Nimbus_Roman_No9_L_Regular-61"/>
      <use transform="translate(177.931436 0)scale(0.996264)" xlink:href="#Nimbus_Roman_No9_L_Regular-50"/>
      <use transform="translate(227.744636 0)scale(0.996264)" xlink:href="#Nimbus_Roman_No9_L_Regular-46"/>
      <use transform="translate(252.651236 0)scale(0.996264)" xlink:href="#Nimbus_Roman_No9_L_Regular-48"/>
     </g>
    </g>
    <g id="line2d_34">
     <path d="M 528.629831 99.940973 
L 568.629831 99.940973 
" style="fill:none;stroke:#fca98c;stroke-linecap:square;stroke-width:1.5;"/>
    </g>
    <g id="line2d_35"/>
    <g id="text_19">
     <!-- K = 3.0 -->
     <g transform="translate(584.629831 106.940973)scale(0.2 -0.2)">
      <use transform="scale(0.996264)" xlink:href="#Nimbus_Roman_No9_L_Regular-75"/>
      <use transform="translate(96.836585 0)scale(0.996264)" xlink:href="#Nimbus_Roman_No9_L_Regular-61"/>
      <use transform="translate(177.931436 0)scale(0.996264)" xlink:href="#Nimbus_Roman_No9_L_Regular-51"/>
      <use transform="translate(227.744636 0)scale(0.996264)" xlink:href="#Nimbus_Roman_No9_L_Regular-46"/>
      <use transform="translate(252.651236 0)scale(0.996264)" xlink:href="#Nimbus_Roman_No9_L_Regular-48"/>
     </g>
    </g>
    <g id="line2d_36">
     <path d="M 528.629831 128.254631 
L 568.629831 128.254631 
" style="fill:none;stroke:#fc9272;stroke-linecap:square;stroke-width:1.5;"/>
    </g>
    <g id="line2d_37"/>
    <g id="text_20">
     <!-- K = 4.0 -->
     <g transform="translate(584.629831 135.254631)scale(0.2 -0.2)">
      <use transform="scale(0.996264)" xlink:href="#Nimbus_Roman_No9_L_Regular-75"/>
      <use transform="translate(96.836585 0)scale(0.996264)" xlink:href="#Nimbus_Roman_No9_L_Regular-61"/>
      <use transform="translate(177.931436 0)scale(0.996264)" xlink:href="#Nimbus_Roman_No9_L_Regular-52"/>
      <use transform="translate(227.744636 0)scale(0.996264)" xlink:href="#Nimbus_Roman_No9_L_Regular-46"/>
      <use transform="translate(252.651236 0)scale(0.996264)" xlink:href="#Nimbus_Roman_No9_L_Regular-48"/>
     </g>
    </g>
    <g id="line2d_38">
     <path d="M 528.629831 156.568289 
L 568.629831 156.568289 
" style="fill:none;stroke:#fb7b5b;stroke-linecap:square;stroke-width:1.5;"/>
    </g>
    <g id="line2d_39"/>
    <g id="text_21">
     <!-- K = 5.0 -->
     <g transform="translate(584.629831 163.568289)scale(0.2 -0.2)">
      <use transform="scale(0.996264)" xlink:href="#Nimbus_Roman_No9_L_Regular-75"/>
      <use transform="translate(96.836585 0)scale(0.996264)" xlink:href="#Nimbus_Roman_No9_L_Regular-61"/>
      <use transform="translate(177.931436 0)scale(0.996264)" xlink:href="#Nimbus_Roman_No9_L_Regular-53"/>
      <use transform="translate(227.744636 0)scale(0.996264)" xlink:href="#Nimbus_Roman_No9_L_Regular-46"/>
      <use transform="translate(252.651236 0)scale(0.996264)" xlink:href="#Nimbus_Roman_No9_L_Regular-48"/>
     </g>
    </g>
    <g id="line2d_40">
     <path d="M 528.629831 184.881947 
L 568.629831 184.881947 
" style="fill:none;stroke:#fa6547;stroke-linecap:square;stroke-width:1.5;"/>
    </g>
    <g id="line2d_41"/>
    <g id="text_22">
     <!-- K = 6.0 -->
     <defs>
      <path d="M 44.59375 68.59375 
C 33.203125 67.59375 27.40625 65.6875 20.09375 60.59375 
C 9.296875 52.890625 3.40625 41.484375 3.40625 28.140625 
C 3.40625 19.5 6.09375 10.75 10.40625 5.765625 
C 14.203125 1.390625 19.59375 -1 25.796875 -1 
C 38.203125 -1 46.796875 8.453125 46.796875 22.1875 
C 46.796875 34.90625 39.5 43 28 43 
C 23.59375 43 21.5 42.296875 15.203125 38.484375 
C 17.90625 53.59375 29.09375 64.390625 44.796875 67 
z
M 24.203125 38.390625 
C 32.796875 38.390625 37.796875 31.234375 37.796875 18.796875 
C 37.796875 7.859375 33.90625 1.796875 26.90625 1.796875 
C 18.09375 1.796875 12.703125 11.140625 12.703125 26.5625 
C 12.703125 31.625 13.5 34.421875 15.5 35.90625 
C 17.59375 37.5 20.703125 38.390625 24.203125 38.390625 
z
" id="Nimbus_Roman_No9_L_Regular-54"/>
     </defs>
     <g transform="translate(584.629831 191.881947)scale(0.2 -0.2)">
      <use transform="scale(0.996264)" xlink:href="#Nimbus_Roman_No9_L_Regular-75"/>
      <use transform="translate(96.836585 0)scale(0.996264)" xlink:href="#Nimbus_Roman_No9_L_Regular-61"/>
      <use transform="translate(177.931436 0)scale(0.996264)" xlink:href="#Nimbus_Roman_No9_L_Regular-54"/>
      <use transform="translate(227.744636 0)scale(0.996264)" xlink:href="#Nimbus_Roman_No9_L_Regular-46"/>
      <use transform="translate(252.651236 0)scale(0.996264)" xlink:href="#Nimbus_Roman_No9_L_Regular-48"/>
     </g>
    </g>
    <g id="line2d_42">
     <path d="M 528.629831 213.195604 
L 568.629831 213.195604 
" style="fill:none;stroke:#f34a36;stroke-linecap:square;stroke-width:1.5;"/>
    </g>
    <g id="line2d_43"/>
    <g id="text_23">
     <!-- K = 8.0 -->
     <defs>
      <path d="M 29 37.5 
C 38.90625 42.796875 42.40625 47 42.40625 53.796875 
C 42.40625 62 35.203125 68 25.203125 68 
C 14.296875 68 6.203125 61.296875 6.203125 52.203125 
C 6.203125 45.6875 8.09375 42.796875 18.59375 33.59375 
C 7.796875 25.390625 5.59375 22.296875 5.59375 15.5 
C 5.59375 5.796875 13.5 -1 24.796875 -1 
C 36.796875 -1 44.5 5.59375 44.5 15.890625 
C 44.5 23.59375 41.09375 28.5 29 37.5 
z
M 27.203125 27.1875 
C 34.5 22 36.90625 18.390625 36.90625 12.796875 
C 36.90625 6.296875 32.40625 1.796875 25.90625 1.796875 
C 18.296875 1.796875 13.203125 7.59375 13.203125 16.296875 
C 13.203125 22.6875 15.40625 26.890625 21.203125 31.59375 
z
M 26.09375 39.296875 
C 17.203125 45.09375 13.59375 49.6875 13.59375 55.296875 
C 13.59375 61.09375 18.09375 65.1875 24.40625 65.1875 
C 31.203125 65.1875 35.5 60.796875 35.5 53.890625 
C 35.5 48.1875 32.703125 43.6875 27 39.890625 
C 26.5 39.59375 26.5 39.59375 26.09375 39.296875 
z
" id="Nimbus_Roman_No9_L_Regular-56"/>
     </defs>
     <g transform="translate(584.629831 220.195604)scale(0.2 -0.2)">
      <use transform="scale(0.996264)" xlink:href="#Nimbus_Roman_No9_L_Regular-75"/>
      <use transform="translate(96.836585 0)scale(0.996264)" xlink:href="#Nimbus_Roman_No9_L_Regular-61"/>
      <use transform="translate(177.931436 0)scale(0.996264)" xlink:href="#Nimbus_Roman_No9_L_Regular-56"/>
      <use transform="translate(227.744636 0)scale(0.996264)" xlink:href="#Nimbus_Roman_No9_L_Regular-46"/>
      <use transform="translate(252.651236 0)scale(0.996264)" xlink:href="#Nimbus_Roman_No9_L_Regular-48"/>
     </g>
    </g>
    <g id="line2d_44">
     <path d="M 528.629831 241.509262 
L 568.629831 241.509262 
" style="fill:none;stroke:#e63328;stroke-linecap:square;stroke-width:1.5;"/>
    </g>
    <g id="line2d_45"/>
    <g id="text_24">
     <!-- K = 10.0 -->
     <g transform="translate(584.629831 248.509262)scale(0.2 -0.2)">
      <use transform="scale(0.996264)" xlink:href="#Nimbus_Roman_No9_L_Regular-75"/>
      <use transform="translate(96.836585 0)scale(0.996264)" xlink:href="#Nimbus_Roman_No9_L_Regular-61"/>
      <use transform="translate(177.931436 0)scale(0.996264)" xlink:href="#Nimbus_Roman_No9_L_Regular-49"/>
      <use transform="translate(227.744636 0)scale(0.996264)" xlink:href="#Nimbus_Roman_No9_L_Regular-48"/>
      <use transform="translate(277.557837 0)scale(0.996264)" xlink:href="#Nimbus_Roman_No9_L_Regular-46"/>
      <use transform="translate(302.464437 0)scale(0.996264)" xlink:href="#Nimbus_Roman_No9_L_Regular-48"/>
     </g>
    </g>
    <g id="line2d_46">
     <path d="M 528.629831 269.82292 
L 568.629831 269.82292 
" style="fill:none;stroke:#d21f20;stroke-linecap:square;stroke-width:1.5;"/>
    </g>
    <g id="line2d_47"/>
    <g id="text_25">
     <!-- K = 12.0 -->
     <g transform="translate(584.629831 276.82292)scale(0.2 -0.2)">
      <use transform="scale(0.996264)" xlink:href="#Nimbus_Roman_No9_L_Regular-75"/>
      <use transform="translate(96.836585 0)scale(0.996264)" xlink:href="#Nimbus_Roman_No9_L_Regular-61"/>
      <use transform="translate(177.931436 0)scale(0.996264)" xlink:href="#Nimbus_Roman_No9_L_Regular-49"/>
      <use transform="translate(227.744636 0)scale(0.996264)" xlink:href="#Nimbus_Roman_No9_L_Regular-50"/>
      <use transform="translate(277.557837 0)scale(0.996264)" xlink:href="#Nimbus_Roman_No9_L_Regular-46"/>
      <use transform="translate(302.464437 0)scale(0.996264)" xlink:href="#Nimbus_Roman_No9_L_Regular-48"/>
     </g>
    </g>
    <g id="line2d_48">
     <path d="M 528.629831 298.136578 
L 568.629831 298.136578 
" style="fill:none;stroke:#be151a;stroke-linecap:square;stroke-width:1.5;"/>
    </g>
    <g id="line2d_49"/>
    <g id="text_26">
     <!-- K = 14.0 -->
     <g transform="translate(584.629831 305.136578)scale(0.2 -0.2)">
      <use transform="scale(0.996264)" xlink:href="#Nimbus_Roman_No9_L_Regular-75"/>
      <use transform="translate(96.836585 0)scale(0.996264)" xlink:href="#Nimbus_Roman_No9_L_Regular-61"/>
      <use transform="translate(177.931436 0)scale(0.996264)" xlink:href="#Nimbus_Roman_No9_L_Regular-49"/>
      <use transform="translate(227.744636 0)scale(0.996264)" xlink:href="#Nimbus_Roman_No9_L_Regular-52"/>
      <use transform="translate(277.557837 0)scale(0.996264)" xlink:href="#Nimbus_Roman_No9_L_Regular-46"/>
      <use transform="translate(302.464437 0)scale(0.996264)" xlink:href="#Nimbus_Roman_No9_L_Regular-48"/>
     </g>
    </g>
    <g id="line2d_50">
     <path d="M 528.629831 326.450235 
L 568.629831 326.450235 
" style="fill:none;stroke:#a91016;stroke-linecap:square;stroke-width:1.5;"/>
    </g>
    <g id="line2d_51"/>
    <g id="text_27">
     <!-- K = 16.0 -->
     <g transform="translate(584.629831 333.450235)scale(0.2 -0.2)">
      <use transform="scale(0.996264)" xlink:href="#Nimbus_Roman_No9_L_Regular-75"/>
      <use transform="translate(96.836585 0)scale(0.996264)" xlink:href="#Nimbus_Roman_No9_L_Regular-61"/>
      <use transform="translate(177.931436 0)scale(0.996264)" xlink:href="#Nimbus_Roman_No9_L_Regular-49"/>
      <use transform="translate(227.744636 0)scale(0.996264)" xlink:href="#Nimbus_Roman_No9_L_Regular-54"/>
      <use transform="translate(277.557837 0)scale(0.996264)" xlink:href="#Nimbus_Roman_No9_L_Regular-46"/>
      <use transform="translate(302.464437 0)scale(0.996264)" xlink:href="#Nimbus_Roman_No9_L_Regular-48"/>
     </g>
    </g>
    <g id="line2d_52">
     <path d="M 528.629831 354.763893 
L 568.629831 354.763893 
" style="fill:none;stroke:#880811;stroke-linecap:square;stroke-width:1.5;"/>
    </g>
    <g id="line2d_53"/>
    <g id="text_28">
     <!-- K = 20.0 -->
     <g transform="translate(584.629831 361.763893)scale(0.2 -0.2)">
      <use transform="scale(0.996264)" xlink:href="#Nimbus_Roman_No9_L_Regular-75"/>
      <use transform="translate(96.836585 0)scale(0.996264)" xlink:href="#Nimbus_Roman_No9_L_Regular-61"/>
      <use transform="translate(177.931436 0)scale(0.996264)" xlink:href="#Nimbus_Roman_No9_L_Regular-50"/>
      <use transform="translate(227.744636 0)scale(0.996264)" xlink:href="#Nimbus_Roman_No9_L_Regular-48"/>
      <use transform="translate(277.557837 0)scale(0.996264)" xlink:href="#Nimbus_Roman_No9_L_Regular-46"/>
      <use transform="translate(302.464437 0)scale(0.996264)" xlink:href="#Nimbus_Roman_No9_L_Regular-48"/>
     </g>
    </g>
    <g id="line2d_54">
     <path d="M 528.629831 383.077551 
L 568.629831 383.077551 
" style="fill:none;stroke:#67000d;stroke-linecap:square;stroke-width:1.5;"/>
    </g>
    <g id="line2d_55"/>
    <g id="text_29">
     <!-- K = 25.0 -->
     <g transform="translate(584.629831 390.077551)scale(0.2 -0.2)">
      <use transform="scale(0.996264)" xlink:href="#Nimbus_Roman_No9_L_Regular-75"/>
      <use transform="translate(96.836585 0)scale(0.996264)" xlink:href="#Nimbus_Roman_No9_L_Regular-61"/>
      <use transform="translate(177.931436 0)scale(0.996264)" xlink:href="#Nimbus_Roman_No9_L_Regular-50"/>
      <use transform="translate(227.744636 0)scale(0.996264)" xlink:href="#Nimbus_Roman_No9_L_Regular-53"/>
      <use transform="translate(277.557837 0)scale(0.996264)" xlink:href="#Nimbus_Roman_No9_L_Regular-46"/>
      <use transform="translate(302.464437 0)scale(0.996264)" xlink:href="#Nimbus_Roman_No9_L_Regular-48"/>
     </g>
    </g>
   </g>
  </g>
 </g>
 <defs>
  <clipPath id="p4878ce8fae">
   <rect height="326.16" width="446.4" x="64.229831" y="54.423604"/>
  </clipPath>
 </defs>
</svg>
