<?xml version="1.0" encoding="utf-8" standalone="no"?>
<!DOCTYPE svg PUBLIC "-//W3C//DTD SVG 1.1//EN"
  "http://www.w3.org/Graphics/SVG/1.1/DTD/svg11.dtd">
<!-- Created with matplotlib (http://matplotlib.org/) -->
<svg height="378.408093pt" version="1.1" viewBox="0 0 377.085453 378.408093" width="377.085453pt" xmlns="http://www.w3.org/2000/svg" xmlns:xlink="http://www.w3.org/1999/xlink">
 <defs>
  <style type="text/css">
*{stroke-linecap:butt;stroke-linejoin:round;}
  </style>
 </defs>
 <g id="figure_1">
  <g id="patch_1">
   <path d="M 0 378.408093 
L 377.085453 378.408093 
L 377.085453 0 
L 0 0 
z
" style="fill:#ffffff;"/>
  </g>
  <g id="axes_1">
   <g id="patch_2">
    <path d="M 38.785453 329.66 
L 373.585453 329.66 
L 373.585453 3.5 
L 38.785453 3.5 
z
" style="fill:#ffffff;"/>
   </g>
   <g id="matplotlib.axis_1">
    <g id="xtick_1">
     <g id="line2d_1">
      <defs>
       <path d="M 0 0 
L 0 3.5 
" id="me73f9c9608" style="stroke:#000000;stroke-width:0.8;"/>
      </defs>
      <g>
       <use style="stroke:#000000;stroke-width:0.8;" x="41.321817" xlink:href="#me73f9c9608" y="329.66"/>
      </g>
     </g>
     <g id="text_1">
      <!-- $0$ -->
      <defs>
       <path d="M 25.40625 68 
C 19.90625 68 15.703125 66.296875 12 62.796875 
C 6.203125 57.203125 2.40625 45.6875 2.40625 34 
C 2.40625 23.09375 5.703125 11.390625 10.40625 5.796875 
C 14.09375 1.390625 19.203125 -1 25 -1 
C 30.09375 -1 34.40625 0.6875 38 4.1875 
C 43.796875 9.6875 47.59375 21.296875 47.59375 33.390625 
C 47.59375 53.890625 38.5 68 25.40625 68 
z
M 25.09375 65.390625 
C 33.5 65.390625 38 54.09375 38 33.1875 
C 38 12.296875 33.59375 1.59375 25 1.59375 
C 16.40625 1.59375 12 12.296875 12 33.09375 
C 12 54.296875 16.5 65.390625 25.09375 65.390625 
z
" id="Nimbus_Roman_No9_L_Regular-48"/>
      </defs>
      <g transform="translate(36.340497 350.169155)scale(0.2 -0.2)">
       <use transform="scale(0.996264)" xlink:href="#Nimbus_Roman_No9_L_Regular-48"/>
      </g>
     </g>
    </g>
    <g id="xtick_2">
     <g id="line2d_2">
      <g>
       <use style="stroke:#000000;stroke-width:0.8;" x="168.139998" xlink:href="#me73f9c9608" y="329.66"/>
      </g>
     </g>
     <g id="text_2">
      <!-- $10$ -->
      <defs>
       <path d="M 29.09375 68 
L 11.09375 59 
L 11.09375 57.59375 
C 12.296875 58.09375 13.40625 58.484375 13.796875 58.6875 
C 15.59375 59.390625 17.296875 59.78125 18.296875 59.78125 
C 20.40625 59.78125 21.296875 58.296875 21.296875 55.078125 
L 21.296875 9.359375 
C 21.296875 6.03125 20.5 3.71875 18.90625 2.796875 
C 17.40625 1.890625 16 1.59375 11.796875 1.5 
L 11.796875 0 
L 39.40625 0 
L 39.40625 1.5 
C 31.5 1.59375 29.90625 2.609375 29.90625 7.453125 
L 29.90625 67.796875 
z
" id="Nimbus_Roman_No9_L_Regular-49"/>
      </defs>
      <g transform="translate(158.177358 350.169155)scale(0.2 -0.2)">
       <use transform="scale(0.996264)" xlink:href="#Nimbus_Roman_No9_L_Regular-49"/>
       <use transform="translate(49.8132 0)scale(0.996264)" xlink:href="#Nimbus_Roman_No9_L_Regular-48"/>
      </g>
     </g>
    </g>
    <g id="xtick_3">
     <g id="line2d_3">
      <g>
       <use style="stroke:#000000;stroke-width:0.8;" x="294.95818" xlink:href="#me73f9c9608" y="329.66"/>
      </g>
     </g>
     <g id="text_3">
      <!-- $20$ -->
      <defs>
       <path d="M 47.5 13.734375 
L 46.203125 14.25 
C 42.5 8.5 41.203125 7.59375 36.703125 7.59375 
L 12.796875 7.59375 
L 29.59375 25.328125 
C 38.5 34.703125 42.40625 42.359375 42.40625 50.21875 
C 42.40625 60.28125 34.296875 68 23.90625 68 
C 18.40625 68 13.203125 65.796875 9.5 61.796875 
C 6.296875 58.375 4.796875 55.15625 3.09375 48 
L 5.203125 47.484375 
C 9.203125 57.359375 12.796875 60.59375 19.703125 60.59375 
C 28.09375 60.59375 33.796875 54.84375 33.796875 46.390625 
C 33.796875 38.53125 29.203125 29.15625 20.796875 20.1875 
L 3 1.1875 
L 3 0 
L 42 0 
z
" id="Nimbus_Roman_No9_L_Regular-50"/>
      </defs>
      <g transform="translate(284.99554 350.169155)scale(0.2 -0.2)">
       <use transform="scale(0.996264)" xlink:href="#Nimbus_Roman_No9_L_Regular-50"/>
       <use transform="translate(49.8132 0)scale(0.996264)" xlink:href="#Nimbus_Roman_No9_L_Regular-48"/>
      </g>
     </g>
    </g>
    <g id="text_4">
     <!-- $\chi K / |\beta| - 1$ -->
     <defs>
      <path d="M 39.09375 49.6875 
L 26.203125 25.984375 
L 22.59375 40.90625 
C 21.09375 47.1875 17.296875 51 12.40625 51 
C 6.40625 51 2.203125 44.296875 1.203125 33.25 
L 3.90625 33.25 
C 4.59375 39.21875 7.59375 43.09375 11.296875 43.09375 
C 13.703125 43.09375 16.296875 41.5 17.90625 39.109375 
C 18.703125 37.828125 19.59375 35.53125 20.203125 32.84375 
L 23.203125 20.515625 
L 1.40625 -19.109375 
L 12 -19.109375 
L 26.203125 7.1875 
L 27.796875 -1.46875 
C 29.296875 -8.921875 29.59375 -10.3125 30.296875 -12.3125 
C 32.40625 -17.90625 35.796875 -21 39.90625 -21 
C 43.5 -21 47.09375 -18.40625 49.296875 -14.5 
C 51 -11.40625 51.90625 -7.734375 52.203125 -2.5625 
L 49.796875 -2.5625 
C 48.796875 -6.03125 48.40625 -7.03125 47.703125 -8.03125 
C 46.296875 -10.421875 43.90625 -11.703125 41.296875 -11.703125 
C 36.59375 -11.703125 34.09375 -7.625 31.09375 4.703125 
L 29.203125 12.5625 
L 49.5 49.6875 
z
" id="Standard_Symbols_L-99"/>
      <path d="M 72.203125 65 
L 50 65 
L 50 63.390625 
C 51.203125 63.296875 52.296875 63.09375 52.703125 63.09375 
C 55.09375 62.890625 56.09375 62.296875 56.09375 61.203125 
C 56.09375 58.8125 50.59375 53.4375 41.703125 47.265625 
L 26.5 36.71875 
L 31.796875 56.03125 
C 33.296875 61 36 62.984375 41.90625 63.390625 
L 41.90625 65 
L 14.59375 65 
L 14.59375 63.390625 
C 20.796875 62.796875 22.296875 62 22.296875 59.109375 
C 22.296875 57.71875 21.90625 55.4375 21.203125 52.953125 
L 8.90625 8.953125 
C 7.09375 2.984375 6.59375 2.484375 0.703125 1.59375 
L 0.703125 0 
L 25.5 0 
L 25.5 1.59375 
C 19.203125 2.296875 18.296875 2.890625 18.296875 5.96875 
C 18.296875 6.96875 18.5 7.859375 19.09375 9.859375 
L 19.703125 11.9375 
L 25.90625 34.640625 
L 38 13.9375 
C 40.40625 9.859375 41.796875 6.375 41.796875 4.484375 
C 41.796875 2.984375 40.40625 2.1875 37.203125 1.890625 
C 36.703125 1.890625 35.59375 1.796875 34.296875 1.59375 
L 34.296875 0 
L 61.796875 0 
L 61.796875 1.59375 
C 55.5 2.1875 54.90625 2.484375 52.09375 7.171875 
L 34.703125 37.328125 
L 64.703125 59.8125 
C 67.5 61.90625 69.796875 62.984375 72.203125 63.390625 
z
" id="Nimbus_Roman_No9_L_Regular_Italic-75"/>
      <path d="M 43.90625 71.203125 
C 44.40625 72.5 44.40625 72.890625 44.40625 73 
C 44.40625 74.09375 43.5 75 42.40625 75 
C 41.703125 75 41 74.6875 40.703125 74.09375 
L 6 -21.203125 
C 5.5 -22.5 5.5 -22.90625 5.5 -23 
C 5.5 -24.109375 6.40625 -25 7.5 -25 
C 8.796875 -25 9.09375 -24.3125 9.703125 -22.609375 
z
" id="CMMI10-61"/>
      <path d="M 15.90625 71.390625 
C 15.90625 73.1875 15.90625 75 13.90625 75 
C 11.90625 75 11.90625 73.1875 11.90625 71.390625 
L 11.90625 -21.40625 
C 11.90625 -23.203125 11.90625 -25 13.90625 -25 
C 15.90625 -25 15.90625 -23.203125 15.90625 -21.40625 
z
" id="CMSY10-106"/>
      <path d="M 7.90625 -5.9375 
C 7.90625 -11.265625 7.09375 -18.203125 6.09375 -22.015625 
L 14.296875 -22.015625 
C 15.59375 -19.703125 15.90625 -16.984375 15.90625 -9.15625 
L 15.90625 4.484375 
C 21.203125 0.484375 25.59375 -1.015625 31.40625 -1.015625 
C 43.296875 -1.015625 51.5 7.71875 51.5 20.375 
C 51.5 30.875 46.203125 38.234375 35.203125 42.890625 
C 42.796875 47.015625 46.40625 51.703125 46.40625 57.484375 
C 46.40625 66.53125 37.5 74 26.796875 74 
C 16 74 7.90625 66.84375 7.90625 57.1875 
z
M 15.90625 58.203125 
C 15.90625 65.3125 20.09375 70.296875 26 70.296875 
C 32.296875 70.296875 36.796875 64.390625 36.796875 56.265625 
C 36.796875 50.890625 34 45.09375 31.40625 45.09375 
C 31.09375 45.09375 30.796875 45.09375 29.203125 45.5 
C 27.703125 45.796875 26.90625 45.90625 26.09375 45.90625 
C 23.703125 45.90625 21.796875 44.296875 21.796875 42.390625 
C 21.796875 40.5 23.59375 39.3125 26.203125 39.3125 
C 26.796875 39.3125 27.296875 39.40625 28.296875 39.609375 
C 29.5 39.890625 30.5 40 31.296875 40 
C 32.59375 40 33.296875 39.796875 33.90625 39.203125 
C 38.40625 35.09375 41.09375 27.640625 41.09375 19.59375 
C 41.09375 9.78125 36.703125 4 29.296875 4 
C 24.296875 4 19.296875 6.25 15.90625 10.078125 
z
" id="Standard_Symbols_L-98"/>
      <path d="M 65.90625 23 
C 67.59375 23 69.40625 23 69.40625 25 
C 69.40625 27 67.59375 27 65.90625 27 
L 11.796875 27 
C 10.09375 27 8.296875 27 8.296875 25 
C 8.296875 23 10.09375 23 11.796875 23 
z
" id="CMSY10-0"/>
     </defs>
     <g transform="translate(160.011407 373.426773)scale(0.2 -0.2)">
      <use transform="scale(0.996264)" xlink:href="#Standard_Symbols_L-99"/>
      <use transform="translate(62.963502 0)scale(0.996264)" xlink:href="#Nimbus_Roman_No9_L_Regular_Italic-75"/>
      <use transform="translate(134.892241 0)scale(0.996264)" xlink:href="#CMMI10-61"/>
      <use transform="translate(184.705441 0)scale(0.996264)" xlink:href="#CMSY10-106"/>
      <use transform="translate(212.300948 0)scale(0.996264)" xlink:href="#Standard_Symbols_L-98"/>
      <use transform="translate(279.249582 0)scale(0.996264)" xlink:href="#CMSY10-106"/>
      <use transform="translate(320.682055 0)scale(0.996264)" xlink:href="#CMSY10-0"/>
      <use transform="translate(411.927729 0)scale(0.996264)" xlink:href="#Nimbus_Roman_No9_L_Regular-49"/>
     </g>
    </g>
   </g>
   <g id="matplotlib.axis_2">
    <g id="ytick_1">
     <g id="line2d_4">
      <defs>
       <path d="M 0 0 
L -3.5 0 
" id="m43e5f90ddd" style="stroke:#000000;stroke-width:0.8;"/>
      </defs>
      <g>
       <use style="stroke:#000000;stroke-width:0.8;" x="38.785453" xlink:href="#m43e5f90ddd" y="314.834545"/>
      </g>
     </g>
     <g id="text_5">
      <!-- $0$ -->
      <g transform="translate(21.822813 321.589123)scale(0.2 -0.2)">
       <use transform="scale(0.996264)" xlink:href="#Nimbus_Roman_No9_L_Regular-48"/>
      </g>
     </g>
    </g>
    <g id="ytick_2">
     <g id="line2d_5">
      <g>
       <use style="stroke:#000000;stroke-width:0.8;" x="38.785453" xlink:href="#m43e5f90ddd" y="254.309881"/>
      </g>
     </g>
     <g id="text_6">
      <!-- $1$ -->
      <g transform="translate(21.822813 261.064458)scale(0.2 -0.2)">
       <use transform="scale(0.996264)" xlink:href="#Nimbus_Roman_No9_L_Regular-49"/>
      </g>
     </g>
    </g>
    <g id="ytick_3">
     <g id="line2d_6">
      <g>
       <use style="stroke:#000000;stroke-width:0.8;" x="38.785453" xlink:href="#m43e5f90ddd" y="193.785216"/>
      </g>
     </g>
     <g id="text_7">
      <!-- $2$ -->
      <g transform="translate(21.822813 200.539794)scale(0.2 -0.2)">
       <use transform="scale(0.996264)" xlink:href="#Nimbus_Roman_No9_L_Regular-50"/>
      </g>
     </g>
    </g>
    <g id="ytick_4">
     <g id="line2d_7">
      <g>
       <use style="stroke:#000000;stroke-width:0.8;" x="38.785453" xlink:href="#m43e5f90ddd" y="133.260551"/>
      </g>
     </g>
     <g id="text_8">
      <!-- $3$ -->
      <defs>
       <path d="M 15.296875 33.390625 
C 21.203125 33.390625 23.5 33.1875 25.90625 32.296875 
C 32.09375 30.09375 36 24.390625 36 17.5 
C 36 9.09375 30.296875 2.59375 22.90625 2.59375 
C 20.203125 2.59375 18.203125 3.296875 14.5 5.6875 
C 11.5 7.5 9.796875 8.1875 8.09375 8.1875 
C 5.796875 8.1875 4.296875 6.796875 4.296875 4.6875 
C 4.296875 1.1875 8.59375 -1 15.59375 -1 
C 23.296875 -1 31.203125 1.59375 35.90625 5.6875 
C 40.59375 9.796875 43.203125 15.59375 43.203125 22.296875 
C 43.203125 27.390625 41.59375 32.09375 38.703125 35.1875 
C 36.703125 37.390625 34.796875 38.59375 30.40625 40.5 
C 37.296875 45.1875 39.796875 48.890625 39.796875 54.296875 
C 39.796875 62.390625 33.40625 68 24.203125 68 
C 19.203125 68 14.796875 66.296875 11.203125 63.09375 
C 8.203125 60.390625 6.703125 57.796875 4.5 51.796875 
L 6 51.390625 
C 10.09375 58.703125 14.59375 61.984375 20.90625 61.984375 
C 27.40625 61.984375 31.90625 57.59375 31.90625 51.296875 
C 31.90625 47.6875 30.40625 44.09375 27.90625 41.59375 
C 24.90625 38.59375 22.09375 37.09375 15.296875 34.6875 
z
" id="Nimbus_Roman_No9_L_Regular-51"/>
      </defs>
      <g transform="translate(21.822813 140.015129)scale(0.2 -0.2)">
       <use transform="scale(0.996264)" xlink:href="#Nimbus_Roman_No9_L_Regular-51"/>
      </g>
     </g>
    </g>
    <g id="ytick_5">
     <g id="line2d_8">
      <g>
       <use style="stroke:#000000;stroke-width:0.8;" x="38.785453" xlink:href="#m43e5f90ddd" y="72.735887"/>
      </g>
     </g>
     <g id="text_9">
      <!-- $4$ -->
      <defs>
       <path d="M 47.203125 23.390625 
L 37 23.390625 
L 37 68 
L 32.59375 68 
L 1.203125 23.390625 
L 1.203125 17 
L 29.296875 17 
L 29.296875 0 
L 37 0 
L 37 17 
L 47.203125 17 
z
M 29.203125 23.390625 
L 5.203125 23.390625 
L 29.203125 57.765625 
z
" id="Nimbus_Roman_No9_L_Regular-52"/>
      </defs>
      <g transform="translate(21.822813 79.490464)scale(0.2 -0.2)">
       <use transform="scale(0.996264)" xlink:href="#Nimbus_Roman_No9_L_Regular-52"/>
      </g>
     </g>
    </g>
    <g id="ytick_6">
     <g id="line2d_9">
      <g>
       <use style="stroke:#000000;stroke-width:0.8;" x="38.785453" xlink:href="#m43e5f90ddd" y="12.211222"/>
      </g>
     </g>
     <g id="text_10">
      <!-- $5$ -->
      <defs>
       <path d="M 18.09375 58.09375 
L 37.703125 58.09375 
C 39.296875 58.09375 39.703125 58.296875 40 58.984375 
L 43.796875 67.890625 
L 42.90625 68.59375 
C 41.40625 66.5 40.40625 66 38.296875 66 
L 17.40625 66 
L 6.5 42.453125 
C 6.40625 42.265625 6.40625 42.15625 6.40625 41.96875 
C 6.40625 41.46875 6.796875 41.171875 7.59375 41.171875 
C 10.796875 41.171875 14.796875 40.484375 18.90625 39.1875 
C 30.40625 35.53125 35.703125 29.40625 35.703125 19.609375 
C 35.703125 10.109375 29.59375 2.6875 21.796875 2.6875 
C 19.796875 2.6875 18.09375 3.390625 15.09375 5.5625 
C 11.90625 7.84375 9.59375 8.828125 7.5 8.828125 
C 4.59375 8.828125 3.203125 7.640625 3.203125 5.171875 
C 3.203125 1.390625 7.90625 -1 15.40625 -1 
C 23.796875 -1 31 1.6875 36 6.75 
C 40.59375 11.203125 42.703125 16.84375 42.703125 24.359375 
C 42.703125 31.484375 40.796875 36.03125 35.796875 40.96875 
C 31.40625 45.328125 25.703125 47.609375 13.90625 49.6875 
z
" id="Nimbus_Roman_No9_L_Regular-53"/>
      </defs>
      <g transform="translate(21.822813 18.965799)scale(0.2 -0.2)">
       <use transform="scale(0.996264)" xlink:href="#Nimbus_Roman_No9_L_Regular-53"/>
      </g>
     </g>
    </g>
    <g id="text_11">
     <!-- Shortest unstable wave number ($q_{short}$) -->
     <defs>
      <path d="M 44.703125 67.390625 
L 42.59375 67.390625 
C 42.203125 65.09375 41.09375 63.984375 39.40625 63.984375 
C 38.40625 63.984375 36.703125 64.390625 35 65.1875 
C 31.296875 67.1875 27.59375 68 24.40625 68 
C 20.09375 68 15.703125 66.296875 12.40625 63.390625 
C 8.90625 60.296875 7.09375 56.09375 7.09375 50.890625 
C 7.09375 42.890625 11.5 37.296875 22.703125 31.390625 
C 29.90625 27.59375 35.09375 23.5 37.59375 19.6875 
C 38.5 18.390625 39 16.296875 39 13.890625 
C 39 7.1875 34 2.59375 26.703125 2.59375 
C 17.796875 2.59375 11.5 8.09375 6.5 20.296875 
L 4.203125 20.296875 
L 7.203125 -0.90625 
L 9.40625 -0.90625 
C 9.5 0.59375 10.703125 2 12.203125 2 
C 13.296875 2 15 1.59375 16.90625 0.890625 
C 20.703125 -0.203125 24.703125 -1 28.703125 -1 
C 40.203125 -1 49.09375 6.890625 49.09375 17.1875 
C 49.09375 25.390625 43.59375 31.890625 30.40625 39 
C 19.90625 44.796875 15.703125 49.1875 15.703125 54.59375 
C 15.703125 60.09375 19.90625 63.890625 26.09375 63.890625 
C 30.59375 63.890625 34.796875 62 38.296875 58.390625 
C 41.40625 55.203125 42.796875 52.59375 44.40625 46.6875 
L 46.90625 46.6875 
z
" id="Nimbus_Roman_No9_L_Regular-83"/>
      <path d="M 15.703125 34.296875 
C 19.90625 38.890625 22.90625 40.59375 26.796875 40.59375 
C 31.796875 40.59375 34.296875 37 34.296875 30 
L 34.296875 10.1875 
C 34.296875 3.390625 33.296875 2.09375 27.5 1.5 
L 27.5 0 
L 48.703125 0 
L 48.703125 1.5 
C 43.296875 2.5 42.703125 3.296875 42.703125 10.1875 
L 42.703125 30.09375 
C 42.703125 40.59375 38.5 46 30.40625 46 
C 24.5 46 20.296875 43.59375 15.703125 37.59375 
L 15.703125 68 
L 15.203125 68.296875 
C 11.796875 67.09375 9.296875 66.296875 3.703125 64.6875 
L 1 63.890625 
L 1 62.296875 
C 1.40625 62.390625 1.703125 62.390625 2.203125 62.390625 
C 6.5 62.390625 7.296875 61.59375 7.296875 57.296875 
L 7.296875 10.1875 
C 7.296875 3.1875 6.703125 2.296875 0.90625 1.5 
L 0.90625 0 
L 22.5 0 
L 22.5 1.5 
C 16.703125 2.09375 15.703125 3.296875 15.703125 10.1875 
z
" id="Nimbus_Roman_No9_L_Regular-104"/>
      <path d="M 25 46 
C 12 46 2.90625 36.390625 2.90625 22.59375 
C 2.90625 9.09375 12.203125 -1 24.796875 -1 
C 37.40625 -1 47 9.59375 47 23.390625 
C 47 36.5 37.796875 46 25 46 
z
M 23.703125 43.1875 
C 32.09375 43.1875 38 33.59375 38 19.890625 
C 38 8.59375 33.5 1.796875 26 1.796875 
C 22.09375 1.796875 18.40625 4.1875 16.296875 8.1875 
C 13.5 13.390625 11.90625 20.390625 11.90625 27.5 
C 11.90625 37 16.59375 43.1875 23.703125 43.1875 
z
" id="Nimbus_Roman_No9_L_Regular-111"/>
      <path d="M 0.703125 39 
C 2.09375 39.296875 3 39.390625 4.203125 39.390625 
C 6.703125 39.390625 7.59375 37.796875 7.59375 33.390625 
L 7.59375 8.390625 
C 7.59375 3.390625 6.90625 2.6875 0.5 1.5 
L 0.5 0 
L 24.5 0 
L 24.5 1.5 
C 17.703125 1.796875 16 3.296875 16 9 
L 16 31.5 
C 16 34.6875 20.296875 39.6875 23 39.6875 
C 23.59375 39.6875 24.5 39.1875 25.59375 38.1875 
C 27.203125 36.796875 28.296875 36.1875 29.59375 36.1875 
C 32 36.1875 33.5 37.890625 33.5 40.6875 
C 33.5 43.984375 31.40625 46 28 46 
C 23.796875 46 20.90625 43.6875 16 36.59375 
L 16 45.796875 
L 15.5 46 
C 10.203125 43.796875 6.59375 42.5 0.703125 40.59375 
z
" id="Nimbus_Roman_No9_L_Regular-114"/>
      <path d="M 25.5 45 
L 15.40625 45 
L 15.40625 56.59375 
C 15.40625 57.59375 15.296875 57.890625 14.703125 57.890625 
C 14 57 13.40625 56.09375 12.703125 55.09375 
C 8.90625 49.59375 4.59375 44.796875 3 44.390625 
C 1.90625 43.6875 1.296875 42.984375 1.296875 42.484375 
C 1.296875 42.1875 1.40625 41.984375 1.703125 41.796875 
L 7 41.796875 
L 7 11.6875 
C 7 3.296875 10 -1 15.90625 -1 
C 20.796875 -1 24.59375 1.390625 27.90625 6.59375 
L 26.59375 7.6875 
C 24.5 5.1875 22.796875 4.1875 20.59375 4.1875 
C 16.90625 4.1875 15.40625 6.890625 15.40625 13.1875 
L 15.40625 41.796875 
L 25.5 41.796875 
z
" id="Nimbus_Roman_No9_L_Regular-116"/>
      <path d="M 40.796875 16.4375 
C 36 8.8125 31.703125 5.890625 25.296875 5.890625 
C 19.59375 5.890625 15.296875 8.8125 12.40625 14.53125 
C 10.59375 18.34375 9.90625 21.65625 9.703125 27.796875 
L 40.5 27.796875 
C 39.703125 34.265625 38.703125 37.140625 36.203125 40.3125 
C 33.203125 43.890625 28.59375 46 23.40625 46 
C 18.40625 46 13.703125 44.1875 9.90625 40.8125 
C 5.203125 36.734375 2.5 29.6875 2.5 21.46875 
C 2.5 7.59375 9.703125 -1 21.203125 -1 
C 30.703125 -1 38.203125 4.890625 42.40625 15.734375 
z
M 9.90625 31 
C 11 38.71875 14.40625 42.390625 20.5 42.390625 
C 26.59375 42.390625 29 39.609375 30.296875 31 
z
" id="Nimbus_Roman_No9_L_Regular-101"/>
      <path d="M 31.5 31.390625 
L 31.09375 45 
L 30 45 
L 29.796875 44.796875 
C 28.90625 44.09375 28.796875 43.984375 28.40625 43.984375 
C 27.796875 43.984375 26.796875 44.1875 25.703125 44.6875 
C 23.5 45.59375 21.296875 46 18.703125 46 
C 10.796875 46 5.09375 40.890625 5.09375 33.671875 
C 5.09375 28.0625 8.296875 24.046875 16.796875 19.234375 
L 22.59375 15.921875 
C 26.09375 13.921875 27.796875 11.515625 27.796875 8.40625 
C 27.796875 4 24.59375 1.1875 19.5 1.1875 
C 16.09375 1.1875 13 2.5 11.09375 4.703125 
C 9 7.203125 8.09375 9.515625 6.796875 15.21875 
L 5.203125 15.21875 
L 5.203125 -0.40625 
L 6.5 -0.40625 
C 7.203125 0.59375 7.59375 0.796875 8.796875 0.796875 
C 9.703125 0.796875 11.09375 0.59375 13.40625 0 
C 16.203125 -0.609375 18.90625 -1 20.703125 -1 
C 28.40625 -1 34.796875 4.796875 34.796875 11.8125 
C 34.796875 16.828125 32.40625 20.140625 26.40625 23.75 
L 15.59375 30.15625 
C 12.796875 31.765625 11.296875 34.265625 11.296875 36.96875 
C 11.296875 40.984375 14.40625 43.796875 19 43.796875 
C 24.703125 43.796875 27.703125 40.390625 30 31.46875 
z
" id="Nimbus_Roman_No9_L_Regular-115"/>
      <path d="M 47.90625 4.984375 
L 47.40625 4.984375 
C 42.796875 4.984375 41.703125 6.09375 41.703125 10.6875 
L 41.703125 45 
L 25.90625 45 
L 25.90625 43.296875 
C 32.09375 43 33.296875 42 33.296875 37 
L 33.296875 13.5 
C 33.296875 10.6875 32.796875 9.296875 31.40625 8.1875 
C 28.703125 6 25.59375 4.796875 22.59375 4.796875 
C 18.703125 4.796875 15.5 8.1875 15.5 12.390625 
L 15.5 45 
L 0.90625 45 
L 0.90625 43.59375 
C 5.703125 43.296875 7.09375 41.796875 7.09375 37.1875 
L 7.09375 12 
C 7.09375 4.09375 11.90625 -1 19.203125 -1 
C 22.90625 -1 26.796875 0.59375 29.5 3.296875 
L 33.796875 7.59375 
L 33.796875 -0.703125 
L 34.203125 -1 
C 39.203125 1 42.796875 2.09375 47.90625 3.5 
z
" id="Nimbus_Roman_No9_L_Regular-117"/>
      <path d="M 1.59375 39.796875 
C 2.203125 40.09375 3.203125 40.1875 4.296875 40.1875 
C 7.09375 40.1875 8 38.6875 8 33.796875 
L 8 9 
C 8 3.296875 6.90625 1.890625 1.796875 1.5 
L 1.796875 0 
L 23 0 
L 23 1.5 
C 17.90625 1.890625 16.40625 3.09375 16.40625 6.6875 
L 16.40625 34.796875 
C 21.203125 39.296875 23.40625 40.484375 26.703125 40.484375 
C 31.59375 40.484375 34 37.390625 34 30.796875 
L 34 9.890625 
C 34 3.59375 32.703125 1.890625 27.703125 1.5 
L 27.703125 0 
L 48.5 0 
L 48.5 1.5 
C 43.59375 2 42.40625 3.1875 42.40625 8.09375 
L 42.40625 31 
C 42.40625 40.390625 38 46 30.59375 46 
C 26 46 22.90625 44.296875 16.09375 37.890625 
L 16.09375 45.796875 
L 15.40625 46 
C 10.5 44.1875 7.09375 43.09375 1.59375 41.484375 
z
" id="Nimbus_Roman_No9_L_Regular-110"/>
      <path d="M 44.203125 6.59375 
C 42.5 5.1875 41.296875 4.6875 39.796875 4.6875 
C 37.5 4.6875 36.796875 6.09375 36.796875 10.5 
L 36.796875 30 
C 36.796875 35.1875 36.296875 38.09375 34.796875 40.5 
C 32.59375 44.09375 28.296875 46 22.40625 46 
C 13 46 5.59375 41.09375 5.59375 34.796875 
C 5.59375 32.5 7.59375 30.5 9.90625 30.5 
C 12.296875 30.5 14.40625 32.5 14.40625 34.6875 
C 14.40625 35.09375 14.296875 35.59375 14.203125 36.296875 
C 14 37.1875 13.90625 38 13.90625 38.6875 
C 13.90625 41.390625 17.09375 43.59375 21.09375 43.59375 
C 26 43.59375 28.703125 40.6875 28.703125 35.296875 
L 28.703125 29.1875 
C 13.296875 23 11.59375 22.1875 7.296875 18.390625 
C 5.09375 16.390625 3.703125 13 3.703125 9.6875 
C 3.703125 3.390625 8.09375 -1 14.203125 -1 
C 18.59375 -1 22.703125 1.09375 28.796875 6.296875 
C 29.296875 1.09375 31.09375 -1 35.203125 -1 
C 38.59375 -1 40.703125 0.1875 44.203125 4 
z
M 28.703125 12.296875 
C 28.703125 9.1875 28.203125 8.296875 26.09375 7.09375 
C 23.703125 5.6875 20.90625 4.796875 18.796875 4.796875 
C 15.296875 4.796875 12.5 8.1875 12.5 12.5 
L 12.5 12.890625 
C 12.5 18.796875 16.59375 22.390625 28.703125 26.796875 
z
" id="Nimbus_Roman_No9_L_Regular-97"/>
      <path d="M 15.296875 68.09375 
L 14.796875 68.296875 
C 10.59375 66.796875 7.90625 66 3.203125 64.6875 
L 0.296875 63.890625 
L 0.296875 62.296875 
C 0.90625 62.390625 1.296875 62.390625 2 62.390625 
C 6 62.390625 6.90625 61.5 6.90625 57.296875 
L 6.90625 5.390625 
C 6.90625 2.296875 15.40625 -1 23.40625 -1 
C 36.59375 -1 46.796875 9.984375 46.796875 24.296875 
C 46.796875 36.59375 39.203125 46 29.203125 46 
C 23.09375 46 17.296875 42.390625 15.296875 37.484375 
z
M 15.296875 32.1875 
C 15.296875 36.09375 20 39.6875 25.203125 39.6875 
C 33 39.6875 38 31.890625 38 19.6875 
C 38 8.59375 33.203125 2.1875 25 2.1875 
C 19.796875 2.1875 15.296875 4.484375 15.296875 6.984375 
z
" id="Nimbus_Roman_No9_L_Regular-98"/>
      <path d="M 1.90625 62.296875 
L 2.5 62.296875 
C 3.59375 62.390625 4.796875 62.5 5.59375 62.5 
C 8.796875 62.5 9.796875 61.09375 9.796875 56.390625 
L 9.796875 8.6875 
C 9.796875 3.296875 8.40625 2 2.09375 1.5 
L 2.09375 0 
L 25.703125 0 
L 25.703125 1.5 
C 19.40625 1.890625 18.203125 2.890625 18.203125 8.390625 
L 18.203125 68.09375 
L 17.796875 68.296875 
C 12.59375 66.59375 8.796875 65.59375 1.90625 63.890625 
z
" id="Nimbus_Roman_No9_L_Regular-108"/>
      <path d="M 57.09375 45 
L 57.09375 43.484375 
C 60.5 42.796875 61.5 42.109375 61.5 40.421875 
C 61.5 38.9375 60.90625 36.5625 59.796875 33.875 
L 50.796875 11.890625 
L 42.40625 34.078125 
C 40.703125 38.640625 40.703125 38.640625 40.703125 39.921875 
C 40.703125 42.109375 41.796875 42.796875 46.5 43.484375 
L 46.5 45 
L 26.203125 45 
L 26.203125 43.484375 
C 29.90625 43.09375 31.09375 42 33.09375 36.65625 
C 33.796875 34.765625 34.5 32.890625 35.09375 31.109375 
L 26 11.390625 
L 16.09375 37.25 
C 15.703125 38.234375 15.5 39.234375 15.5 40.21875 
C 15.5 42.296875 16.703125 43.09375 20.09375 43.484375 
L 20.09375 45 
L 2.09375 45 
L 2.09375 43.484375 
C 4.40625 43.296875 5.203125 42.296875 7.40625 37.25 
L 20.90625 3.375 
C 22.09375 0.390625 22.90625 -1 23.5 -1 
C 24 -1 24.796875 0.296875 26 2.875 
L 37.203125 26.65625 
L 46.296875 3.265625 
C 47.703125 -0.40625 48.09375 -1 48.703125 -1 
C 49.40625 -1 49.90625 -0.109375 51.5 3.859375 
L 65.296875 38.140625 
C 67.09375 42.296875 67.40625 42.796875 69.40625 43.484375 
L 69.40625 45 
z
" id="Nimbus_Roman_No9_L_Regular-119"/>
      <path d="M 47.703125 45 
L 33.796875 45 
L 33.796875 43.484375 
C 37 43.1875 38.5 42.203125 38.5 40.3125 
C 38.5 39.328125 38.296875 38.34375 37.90625 37.34375 
L 28 11.6875 
L 17.796875 37.046875 
C 17.203125 38.4375 16.90625 39.828125 16.90625 40.71875 
C 16.90625 42.5 18 43.1875 21.5 43.484375 
L 21.5 45 
L 1.90625 45 
L 1.90625 43.484375 
C 5.703125 43.296875 6.40625 42.296875 11 32.09375 
L 23 3.671875 
C 23.203125 3.078125 23.5 2.375 23.796875 1.59375 
C 24.40625 -0.203125 25 -1 25.59375 -1 
C 26.203125 -1 26.90625 0.296875 28.40625 3.96875 
L 41.203125 35.765625 
C 44.09375 42.5 44.703125 43.1875 47.703125 43.484375 
z
" id="Nimbus_Roman_No9_L_Regular-118"/>
      <path d="M 1.90625 39.796875 
C 3.203125 40.09375 4 40.1875 5.09375 40.1875 
C 7.703125 40.1875 8.59375 38.59375 8.59375 33.796875 
L 8.59375 8.5 
C 8.59375 3.09375 7.203125 1.59375 1.59375 1.5 
L 1.59375 0 
L 23.796875 0 
L 23.796875 1.5 
C 18.5 1.6875 17 2.796875 17 6.6875 
L 17 34.890625 
C 17 35.09375 17.796875 36.09375 18.5 36.796875 
C 21 39.09375 25.296875 40.796875 28.796875 40.796875 
C 33.203125 40.796875 35.40625 37.296875 35.40625 30.296875 
L 35.40625 8.59375 
C 35.40625 3 34.296875 1.890625 28.59375 1.5 
L 28.59375 0 
L 51 0 
L 51 1.5 
C 45.296875 1.59375 43.796875 3.296875 43.796875 9.5 
L 43.796875 34.6875 
C 46.796875 39 50.09375 40.796875 54.703125 40.796875 
C 60.40625 40.796875 62.203125 38.09375 62.203125 29.796875 
L 62.203125 8.6875 
C 62.203125 3 61.40625 2.1875 55.59375 1.5 
L 55.59375 0 
L 77.5 0 
L 77.5 1.5 
L 74.90625 1.6875 
C 71.90625 1.890625 70.59375 3.6875 70.59375 7.59375 
L 70.59375 28.1875 
C 70.59375 40 66.703125 46 59 46 
C 53.203125 46 48.09375 43.390625 42.703125 37.59375 
C 40.90625 43.296875 37.5 46 32.09375 46 
C 27.703125 46 24.90625 44.59375 16.59375 38.296875 
L 16.59375 45.796875 
L 15.90625 46 
C 10.796875 44.09375 7.40625 42.984375 1.90625 41.484375 
z
" id="Nimbus_Roman_No9_L_Regular-109"/>
      <path d="M 29.5 68 
C 22.09375 63.1875 19.09375 60.59375 15.40625 55.984375 
C 8.296875 47.296875 4.796875 37.296875 4.796875 25.59375 
C 4.796875 12.890625 8.5 3.09375 17.296875 -7.109375 
C 21.40625 -11.90625 24 -14.109375 29.203125 -17.3125 
L 30.40625 -15.71875 
C 22.40625 -9.40625 19.59375 -5.90625 16.90625 1.59375 
C 14.5 8.28125 13.40625 15.890625 13.40625 25.890625 
C 13.40625 36.390625 14.703125 44.59375 17.40625 50.796875 
C 20.203125 56.984375 23.203125 60.59375 30.40625 66.390625 
z
" id="Nimbus_Roman_No9_L_Regular-40"/>
      <path d="M 39.09375 -19 
L 37.40625 -19 
C 33.703125 -19 31.59375 -18 31.703125 -16.109375 
C 31.703125 -15.8125 31.796875 -15.40625 31.90625 -15 
L 48.296875 42.484375 
L 41 42.484375 
L 39.5 37.8125 
C 37.90625 42.390625 35.90625 44 31.796875 44 
C 18.59375 44 2.5 25.671875 2.5 10.5625 
C 2.5 3.5 6.40625 -1 12.703125 -1 
C 19.796875 -1 24.40625 2.6875 33.296875 15.328125 
L 24.40625 -13.90625 
C 23.09375 -17.90625 21.5 -18.703125 15 -19.203125 
L 15 -20.8125 
L 39.09375 -20.8125 
z
M 32.09375 41.796875 
C 35.40625 41.796875 38 39.109375 38 35.71875 
C 38 27.46875 31.203125 13.34375 24.40625 7.671875 
C 21.796875 5.484375 19.09375 4.296875 16.703125 4.296875 
C 13.296875 4.296875 11.09375 7.28125 11.09375 11.953125 
C 11.09375 19.3125 16.296875 30.359375 22.796875 36.921875 
C 25.90625 40 29.203125 41.796875 32.09375 41.796875 
z
" id="Nimbus_Roman_No9_L_Regular_Italic-113"/>
      <path d="M 3.59375 14.890625 
L 1.59375 -1 
L 3.203125 -1 
C 4 0.59375 4.59375 1.09375 5.59375 1.09375 
C 6.703125 1.09375 8.5 0.6875 10.5 0.1875 
C 12.703125 -0.703125 14.40625 -1 16 -1 
C 24.40625 -1 30.40625 4.375 30.40625 11.9375 
C 30.40625 15.71875 28.296875 20.09375 23.59375 25.875 
C 19.796875 30.546875 18.203125 33.625 18.203125 36.3125 
C 18.203125 39.59375 20.296875 41.6875 23.796875 41.6875 
C 29 41.6875 32 38 33 30.25 
L 34.59375 30.25 
L 36.59375 44 
L 35.203125 44 
C 34.40625 42.59375 33.59375 42.1875 32.203125 42.1875 
C 31.5 42.1875 30.5 42.390625 28.59375 42.890625 
C 26.09375 43.796875 24.59375 44 23 44 
C 15.703125 44 10.90625 39.703125 10.90625 33.03125 
C 10.90625 29.84375 13 25.5625 17.203125 20.203125 
C 21.09375 15.125 22.796875 11.640625 22.796875 8.75 
C 22.796875 4.28125 19.796875 1.09375 15.40625 1.09375 
C 9.90625 1.09375 6.796875 5.171875 5.203125 14.625 
z
" id="Nimbus_Roman_No9_L_Regular_Italic-115"/>
      <path d="M 46.5 11.59375 
C 41.09375 4.796875 39.90625 3.6875 38.296875 3.6875 
C 37.40625 3.6875 36.703125 4.59375 36.703125 5.5 
C 36.703125 6.5 38.296875 12.796875 40 17.984375 
C 42.90625 27.484375 44.796875 34.890625 44.796875 37.296875 
C 44.796875 41.296875 42.09375 44 38.203125 44 
C 31.703125 44 24.59375 37.390625 15.296875 22.890625 
L 27.296875 67.6875 
L 26.796875 68.1875 
C 21 66.890625 17.09375 66.1875 11.09375 65.5 
L 11.09375 64 
L 13.703125 64 
C 13.796875 64 13.90625 64 14 64.09375 
C 15.40625 64.6875 17.796875 63 17.796875 61.59375 
C 17.796875 60.1875 17.296875 57.6875 16.40625 54.796875 
C 16.296875 54.6875 16 53.296875 15.40625 51.09375 
L 1.90625 -0.109375 
L 9.40625 -0.109375 
C 13.40625 15.296875 14.703125 18.6875 18.703125 24.796875 
C 23.90625 32.6875 30.703125 38.890625 34.203125 38.890625 
C 35.703125 38.890625 37 37.6875 37 36.390625 
C 37 35.984375 36.703125 34.6875 36.296875 33.09375 
L 30.796875 12.390625 
C 29.5 7.484375 28.796875 4.390625 28.796875 3.1875 
C 28.796875 0.59375 30.5 -1 33.203125 -1 
C 38.296875 -1 41.796875 1.6875 47.796875 10.390625 
z
" id="Nimbus_Roman_No9_L_Regular_Italic-104"/>
      <path d="M 32.5 44 
C 17.5 44 2.703125 28.5625 2.703125 12.9375 
C 2.703125 4.375 8.296875 -1 17.40625 -1 
C 24 -1 30.40625 1.984375 36.203125 7.65625 
C 42.796875 14.125 46.796875 22.59375 46.796875 30.046875 
C 46.796875 38.3125 41 44 32.5 44 
z
M 31.296875 41.890625 
C 35.59375 41.890625 38.40625 38.21875 38.40625 32.546875 
C 38.40625 25.28125 35.09375 15.328125 30.703125 8.859375 
C 27 3.578125 23.203125 1.09375 18.90625 1.09375 
C 14.203125 1.09375 11.09375 4.671875 11.09375 10.15625 
C 11.09375 17.515625 14 26.265625 18.90625 33.34375 
C 22.796875 38.90625 27 41.890625 31.296875 41.890625 
z
" id="Nimbus_Roman_No9_L_Regular_Italic-111"/>
      <path d="M 12.09375 0 
C 17.296875 16.953125 19 21.25 23.59375 28.828125 
C 26.90625 34.40625 29.703125 37.5 31.40625 37.5 
C 32 37.5 32.5 37.109375 33 36.109375 
C 33.796875 34.40625 34.59375 33.90625 36.59375 33.90625 
C 39.5 33.90625 41.203125 35.703125 41.203125 38.796875 
C 41.203125 41.890625 39.296875 44 36.5 44 
C 34.203125 44 31.5 42.484375 28.90625 39.796875 
C 24.796875 35.609375 20.796875 29.71875 19.203125 25.734375 
L 17.796875 22.140625 
L 23.09375 43.796875 
L 22.796875 44 
C 15.5 42.6875 14.59375 42.484375 7.296875 41.296875 
L 7.296875 39.59375 
C 9.703125 40.09375 10 40.09375 10.703125 40.09375 
C 12.90625 40.09375 14.203125 39.09375 14.203125 37.296875 
C 14.203125 35.90625 14.203125 35.90625 12.59375 29.125 
L 4.5 0 
z
" id="Nimbus_Roman_No9_L_Regular_Italic-114"/>
      <path d="M 29.59375 43 
L 21.59375 43 
L 24.40625 53.296875 
C 24.5 53.5 24.5 53.6875 24.5 53.796875 
C 24.5 54.5 24.203125 54.796875 23.703125 54.796875 
C 23.09375 54.796875 22.796875 54.6875 22.203125 53.890625 
C 18.296875 48.796875 12.09375 43.796875 8.90625 42.890625 
C 6.40625 42.09375 5.703125 41.484375 5.703125 40.390625 
C 5.703125 40.296875 5.703125 40.09375 5.796875 39.796875 
L 13.203125 39.796875 
L 6 12.21875 
C 5.796875 11.3125 5.703125 11.015625 5.40625 10.109375 
C 4.5 7.09375 3.703125 3.59375 3.703125 2.796875 
C 3.703125 0.59375 5.796875 -1 8.5 -1 
C 13.09375 -1 16.40625 1.796875 22.703125 11.109375 
L 21.40625 11.8125 
C 16.5 5.5 14.90625 3.890625 13.296875 3.890625 
C 12.40625 3.890625 11.796875 4.6875 11.796875 5.890625 
C 11.796875 6 11.796875 6.09375 11.90625 6.40625 
L 20.703125 39.796875 
L 29.09375 39.796875 
z
" id="Nimbus_Roman_No9_L_Regular_Italic-116"/>
      <path d="M 3.796875 -17.3125 
C 11.203125 -12.515625 14.203125 -9.90625 17.90625 -5.3125 
C 25 3.390625 28.5 13.390625 28.5 25.09375 
C 28.5 37.890625 24.796875 47.59375 16 57.796875 
C 11.90625 62.59375 9.296875 64.796875 4.09375 68 
L 2.90625 66.390625 
C 10.90625 60.09375 13.59375 56.59375 16.40625 49.09375 
C 18.796875 42.390625 19.90625 34.796875 19.90625 24.796875 
C 19.90625 14.390625 18.59375 6.09375 15.90625 -0.015625 
C 13.09375 -6.3125 10.09375 -9.90625 2.90625 -15.71875 
z
" id="Nimbus_Roman_No9_L_Regular-41"/>
     </defs>
     <g transform="translate(13.509155 320.922701)rotate(-90)scale(0.2 -0.2)">
      <use transform="translate(0 16.487732)scale(0.996264)" xlink:href="#Nimbus_Roman_No9_L_Regular-83"/>
      <use transform="translate(55.391677 16.487732)scale(0.996264)" xlink:href="#Nimbus_Roman_No9_L_Regular-104"/>
      <use transform="translate(105.204877 16.487732)scale(0.996264)" xlink:href="#Nimbus_Roman_No9_L_Regular-111"/>
      <use transform="translate(155.018078 16.487732)scale(0.996264)" xlink:href="#Nimbus_Roman_No9_L_Regular-114"/>
      <use transform="translate(188.193308 16.487732)scale(0.996264)" xlink:href="#Nimbus_Roman_No9_L_Regular-116"/>
      <use transform="translate(215.888477 16.487732)scale(0.996264)" xlink:href="#Nimbus_Roman_No9_L_Regular-101"/>
      <use transform="translate(260.122046 16.487732)scale(0.996264)" xlink:href="#Nimbus_Roman_No9_L_Regular-115"/>
      <use transform="translate(298.875752 16.487732)scale(0.996264)" xlink:href="#Nimbus_Roman_No9_L_Regular-116"/>
      <use transform="translate(351.477522 16.487732)scale(0.996264)" xlink:href="#Nimbus_Roman_No9_L_Regular-117"/>
      <use transform="translate(401.290723 16.487732)scale(0.996264)" xlink:href="#Nimbus_Roman_No9_L_Regular-110"/>
      <use transform="translate(451.103923 16.487732)scale(0.996264)" xlink:href="#Nimbus_Roman_No9_L_Regular-115"/>
      <use transform="translate(489.857629 16.487732)scale(0.996264)" xlink:href="#Nimbus_Roman_No9_L_Regular-116"/>
      <use transform="translate(517.552799 16.487732)scale(0.996264)" xlink:href="#Nimbus_Roman_No9_L_Regular-97"/>
      <use transform="translate(561.786368 16.487732)scale(0.996264)" xlink:href="#Nimbus_Roman_No9_L_Regular-98"/>
      <use transform="translate(611.599568 16.487732)scale(0.996264)" xlink:href="#Nimbus_Roman_No9_L_Regular-108"/>
      <use transform="translate(639.294738 16.487732)scale(0.996264)" xlink:href="#Nimbus_Roman_No9_L_Regular-101"/>
      <use transform="translate(708.434907 16.487732)scale(0.996264)" xlink:href="#Nimbus_Roman_No9_L_Regular-119"/>
      <use transform="translate(779.368795 16.487732)scale(0.996264)" xlink:href="#Nimbus_Roman_No9_L_Regular-97"/>
      <use transform="translate(821.610352 16.487732)scale(0.996264)" xlink:href="#Nimbus_Roman_No9_L_Regular-118"/>
      <use transform="translate(869.93016 16.487732)scale(0.996264)" xlink:href="#Nimbus_Roman_No9_L_Regular-101"/>
      <use transform="translate(939.070329 16.487732)scale(0.996264)" xlink:href="#Nimbus_Roman_No9_L_Regular-110"/>
      <use transform="translate(988.883529 16.487732)scale(0.996264)" xlink:href="#Nimbus_Roman_No9_L_Regular-117"/>
      <use transform="translate(1038.69673 16.487732)scale(0.996264)" xlink:href="#Nimbus_Roman_No9_L_Regular-109"/>
      <use transform="translate(1116.2051 16.487732)scale(0.996264)" xlink:href="#Nimbus_Roman_No9_L_Regular-98"/>
      <use transform="translate(1166.018301 16.487732)scale(0.996264)" xlink:href="#Nimbus_Roman_No9_L_Regular-101"/>
      <use transform="translate(1210.251869 16.487732)scale(0.996264)" xlink:href="#Nimbus_Roman_No9_L_Regular-114"/>
      <use transform="translate(1268.333699 16.487732)scale(0.996264)" xlink:href="#Nimbus_Roman_No9_L_Regular-40"/>
      <use transform="translate(1301.508929 16.487732)scale(0.996264)" xlink:href="#Nimbus_Roman_No9_L_Regular_Italic-113"/>
      <use transform="translate(1351.322129 0)scale(0.737241)" xlink:href="#Nimbus_Roman_No9_L_Regular_Italic-115"/>
      <use transform="translate(1380.000079 0)scale(0.737241)" xlink:href="#Nimbus_Roman_No9_L_Regular_Italic-104"/>
      <use transform="translate(1416.862121 0)scale(0.737241)" xlink:href="#Nimbus_Roman_No9_L_Regular_Italic-111"/>
      <use transform="translate(1453.724163 0)scale(0.737241)" xlink:href="#Nimbus_Roman_No9_L_Regular_Italic-114"/>
      <use transform="translate(1482.254519 0)scale(0.737241)" xlink:href="#Nimbus_Roman_No9_L_Regular_Italic-116"/>
      <use transform="translate(1508.259888 16.487732)scale(0.996264)" xlink:href="#Nimbus_Roman_No9_L_Regular-41"/>
     </g>
    </g>
   </g>
   <g id="line2d_10">
    <defs>
     <path d="M 0 3 
C 0.795609 3 1.55874 2.683901 2.12132 2.12132 
C 2.683901 1.55874 3 0.795609 3 0 
C 3 -0.795609 2.683901 -1.55874 2.12132 -2.12132 
C 1.55874 -2.683901 0.795609 -3 0 -3 
C -0.795609 -3 -1.55874 -2.683901 -2.12132 -2.12132 
C -2.683901 -1.55874 -3 -0.795609 -3 0 
C -3 0.795609 -2.683901 1.55874 -2.12132 2.12132 
C -1.55874 2.683901 -0.795609 3 0 3 
z
" id="mfb9381ca64" style="stroke:#000000;"/>
    </defs>
    <g clip-path="url(#pa62b92d63a)">
     <use style="stroke:#000000;" x="54.003635" xlink:href="#mfb9381ca64" y="309.943663"/>
     <use style="stroke:#000000;" x="66.685453" xlink:href="#mfb9381ca64" y="246.362197"/>
     <use style="stroke:#000000;" x="79.367271" xlink:href="#mfb9381ca64" y="197.453377"/>
     <use style="stroke:#000000;" x="92.049089" xlink:href="#mfb9381ca64" y="314.834545"/>
     <use style="stroke:#000000;" x="104.730908" xlink:href="#mfb9381ca64" y="314.834545"/>
     <use style="stroke:#000000;" x="117.412726" xlink:href="#mfb9381ca64" y="314.834545"/>
     <use style="stroke:#000000;" x="130.094544" xlink:href="#mfb9381ca64" y="314.834545"/>
     <use style="stroke:#000000;" x="142.776362" xlink:href="#mfb9381ca64" y="314.834545"/>
     <use style="stroke:#000000;" x="155.45818" xlink:href="#mfb9381ca64" y="314.834545"/>
     <use style="stroke:#000000;" x="168.139998" xlink:href="#mfb9381ca64" y="314.834545"/>
     <use style="stroke:#000000;" x="180.821817" xlink:href="#mfb9381ca64" y="314.834545"/>
     <use style="stroke:#000000;" x="193.503635" xlink:href="#mfb9381ca64" y="314.834545"/>
     <use style="stroke:#000000;" x="206.185453" xlink:href="#mfb9381ca64" y="314.834545"/>
     <use style="stroke:#000000;" x="218.867271" xlink:href="#mfb9381ca64" y="314.834545"/>
     <use style="stroke:#000000;" x="231.549089" xlink:href="#mfb9381ca64" y="314.834545"/>
     <use style="stroke:#000000;" x="244.230908" xlink:href="#mfb9381ca64" y="314.834545"/>
     <use style="stroke:#000000;" x="256.912726" xlink:href="#mfb9381ca64" y="314.834545"/>
     <use style="stroke:#000000;" x="269.594544" xlink:href="#mfb9381ca64" y="314.834545"/>
     <use style="stroke:#000000;" x="282.276362" xlink:href="#mfb9381ca64" y="314.834545"/>
     <use style="stroke:#000000;" x="294.95818" xlink:href="#mfb9381ca64" y="314.834545"/>
     <use style="stroke:#000000;" x="307.639998" xlink:href="#mfb9381ca64" y="314.834545"/>
     <use style="stroke:#000000;" x="320.321817" xlink:href="#mfb9381ca64" y="314.834545"/>
     <use style="stroke:#000000;" x="333.003635" xlink:href="#mfb9381ca64" y="314.834545"/>
     <use style="stroke:#000000;" x="345.685453" xlink:href="#mfb9381ca64" y="314.834545"/>
     <use style="stroke:#000000;" x="358.367271" xlink:href="#mfb9381ca64" y="314.834545"/>
    </g>
   </g>
   <g id="line2d_11">
    <path clip-path="url(#pa62b92d63a)" d="M 54.003635 314.834545 
L 66.685453 254.309881 
L 79.367271 229.239744 
L 92.049089 210.002751 
L 104.730908 193.785216 
L 117.412726 179.497281 
L 130.094544 166.58 
L 142.776362 154.701334 
L 155.45818 143.644942 
L 168.139998 133.260551 
L 180.821817 123.43875 
L 193.503635 114.096942 
L 206.185453 105.170957 
L 218.867271 96.609763 
L 231.549089 88.371987 
L 244.230908 80.423527 
L 256.912726 72.735887 
L 269.594544 65.28496 
L 282.276362 58.05014 
L 294.95818 51.013648 
L 307.639998 44.160016 
L 320.321817 37.475688 
L 333.003635 30.948704 
L 345.685453 24.56845 
L 358.367271 18.325455 
" style="fill:none;stroke:#000000;stroke-dasharray:5.55,2.4;stroke-dashoffset:0;stroke-width:1.5;"/>
   </g>
   <g id="patch_3">
    <path d="M 38.785453 329.66 
L 38.785453 3.5 
" style="fill:none;stroke:#000000;stroke-linecap:square;stroke-linejoin:miter;stroke-width:0.8;"/>
   </g>
   <g id="patch_4">
    <path d="M 373.585453 329.66 
L 373.585453 3.5 
" style="fill:none;stroke:#000000;stroke-linecap:square;stroke-linejoin:miter;stroke-width:0.8;"/>
   </g>
   <g id="patch_5">
    <path d="M 38.785453 329.66 
L 373.585453 329.66 
" style="fill:none;stroke:#000000;stroke-linecap:square;stroke-linejoin:miter;stroke-width:0.8;"/>
   </g>
   <g id="patch_6">
    <path d="M 38.785453 3.5 
L 373.585453 3.5 
" style="fill:none;stroke:#000000;stroke-linecap:square;stroke-linejoin:miter;stroke-width:0.8;"/>
   </g>
   <g id="legend_1">
    <g id="patch_7">
     <path d="M 153.225453 312.049658 
L 365.527916 312.049658 
Q 369.527916 312.049658 369.527916 308.049658 
L 369.527916 253.422342 
Q 369.527916 249.422342 365.527916 249.422342 
L 153.225453 249.422342 
Q 149.225453 249.422342 149.225453 253.422342 
L 149.225453 308.049658 
Q 149.225453 312.049658 153.225453 312.049658 
z
" style="fill:#ffffff;opacity:0.8;stroke:#cccccc;stroke-linejoin:miter;"/>
    </g>
    <g id="line2d_12"/>
    <g id="line2d_13">
     <g>
      <use style="stroke:#000000;" x="177.225453" xlink:href="#mfb9381ca64" y="264.422342"/>
     </g>
    </g>
    <g id="text_12">
     <!-- Numerical -->
     <defs>
      <path d="M 61.203125 -1 
L 61.203125 51.359375 
C 61.203125 57.328125 62.203125 61.015625 64.09375 62.3125 
C 65.5 63.296875 66.90625 63.703125 70.703125 64.09375 
L 70.703125 66 
L 47.203125 66 
L 47.203125 64.09375 
C 51 63.796875 52.40625 63.40625 53.90625 62.5 
C 55.90625 61.109375 56.796875 57.53125 56.796875 51.359375 
L 56.796875 17.8125 
L 18.296875 66 
L 1.203125 66 
L 1.203125 64.09375 
C 5.5 64.09375 6.90625 63.296875 10.90625 58.625 
L 10.90625 14.734375 
C 10.90625 4.390625 9.5 2.5 1.203125 1.890625 
L 1.203125 0 
L 24.703125 0 
L 24.703125 1.890625 
C 17 2.296875 15.296875 4.59375 15.296875 14.6875 
L 15.296875 53.890625 
L 59.5 -1 
z
" id="Nimbus_Roman_No9_L_Regular-78"/>
      <path d="M 17.5 46 
L 2 40.5 
L 2 39 
L 2.796875 39.09375 
C 4 39.296875 5.296875 39.390625 6.203125 39.390625 
C 8.59375 39.390625 9.5 37.796875 9.5 33.390625 
L 9.5 10.1875 
C 9.5 3 8.5 1.890625 1.59375 1.5 
L 1.59375 0 
L 25.296875 0 
L 25.296875 1.5 
C 18.703125 2 17.90625 3 17.90625 10.1875 
L 17.90625 45.6875 
z
M 12.796875 68 
C 10.09375 68 7.796875 65.6875 7.796875 62.890625 
C 7.796875 60.09375 10 57.796875 12.796875 57.796875 
C 15.703125 57.796875 18 59.984375 18 62.890625 
C 18 65.6875 15.703125 68 12.796875 68 
z
" id="Nimbus_Roman_No9_L_Regular-105"/>
      <path d="M 39.796875 15.59375 
C 35 8.59375 31.40625 6.1875 25.703125 6.1875 
C 16.59375 6.1875 10.203125 14.1875 10.203125 25.6875 
C 10.203125 35.984375 15.703125 43.09375 23.796875 43.09375 
C 27.40625 43.09375 28.703125 41.984375 29.703125 38.296875 
L 30.296875 36.09375 
C 31.09375 33.296875 32.90625 31.484375 35 31.484375 
C 37.59375 31.484375 39.796875 33.390625 39.796875 35.6875 
C 39.796875 41.296875 32.796875 46 24.40625 46 
C 19.5 46 14.40625 43.984375 10.296875 40.390625 
C 5.296875 35.984375 2.5 29.1875 2.5 21.296875 
C 2.5 8.296875 10.40625 -1 21.5 -1 
C 26 -1 30 0.59375 33.59375 3.6875 
C 36.296875 6.09375 38.203125 8.796875 41.203125 14.6875 
z
" id="Nimbus_Roman_No9_L_Regular-99"/>
     </defs>
     <g transform="translate(213.225453 271.422342)scale(0.2 -0.2)">
      <use transform="scale(0.996264)" xlink:href="#Nimbus_Roman_No9_L_Regular-78"/>
      <use transform="translate(71.929985 0)scale(0.996264)" xlink:href="#Nimbus_Roman_No9_L_Regular-117"/>
      <use transform="translate(121.743185 0)scale(0.996264)" xlink:href="#Nimbus_Roman_No9_L_Regular-109"/>
      <use transform="translate(199.251555 0)scale(0.996264)" xlink:href="#Nimbus_Roman_No9_L_Regular-101"/>
      <use transform="translate(243.485124 0)scale(0.996264)" xlink:href="#Nimbus_Roman_No9_L_Regular-114"/>
      <use transform="translate(276.660354 0)scale(0.996264)" xlink:href="#Nimbus_Roman_No9_L_Regular-105"/>
      <use transform="translate(304.355523 0)scale(0.996264)" xlink:href="#Nimbus_Roman_No9_L_Regular-99"/>
      <use transform="translate(348.589092 0)scale(0.996264)" xlink:href="#Nimbus_Roman_No9_L_Regular-97"/>
      <use transform="translate(392.822661 0)scale(0.996264)" xlink:href="#Nimbus_Roman_No9_L_Regular-108"/>
     </g>
    </g>
    <g id="line2d_14">
     <path d="M 157.225453 292.736 
L 197.225453 292.736 
" style="fill:none;stroke:#000000;stroke-dasharray:5.55,2.4;stroke-dashoffset:0;stroke-width:1.5;"/>
    </g>
    <g id="line2d_15"/>
    <g id="text_13">
     <!-- Analytical approx. -->
     <defs>
      <path d="M 70.59375 1.890625 
C 66.09375 2.203125 65.09375 3.203125 61.59375 10.71875 
L 36.703125 67 
L 34.703125 67 
L 13.90625 18.546875 
C 7.5 3.71875 6.296875 2.09375 1.5 1.890625 
L 1.5 0 
L 21.296875 0 
L 21.296875 1.890625 
C 16.5 1.890625 14.5 3.203125 14.5 6.046875 
C 14.5 7.265625 14.796875 8.6875 15.296875 10.015625 
L 19.90625 21.890625 
L 46.09375 21.890625 
L 50.203125 12.140625 
C 51.40625 9.40625 52.09375 6.765625 52.09375 5.34375 
C 52.09375 2.796875 50.40625 2 45.09375 1.890625 
L 45.09375 0 
L 70.59375 0 
z
M 21.59375 26 
L 33.09375 53 
L 44.703125 26 
z
" id="Nimbus_Roman_No9_L_Regular-65"/>
      <path d="M 47.5 45 
L 34 45 
L 34 43.484375 
C 37.203125 43.484375 38.796875 42.59375 38.796875 40.984375 
C 38.796875 40.578125 38.703125 39.984375 38.40625 39.28125 
L 28.703125 11.578125 
L 17.203125 36.96875 
C 16.59375 38.375 16.203125 39.6875 16.203125 40.78125 
C 16.203125 42.59375 17.703125 43.296875 22 43.484375 
L 22 45 
L 1.40625 45 
L 1.40625 43.59375 
C 4 43.1875 5.703125 42.09375 6.5 40.390625 
L 17.90625 15.703125 
L 18.203125 14.890625 
L 19.703125 11.890625 
C 22.5 6.859375 24.09375 3.25 24.09375 1.75 
C 24.09375 0.234375 21.796875 -6.078125 20.09375 -9.09375 
C 18.703125 -11.703125 16.5 -13.609375 15.09375 -13.609375 
C 14.5 -13.609375 13.59375 -13.40625 12.59375 -12.90625 
C 10.703125 -12.203125 9 -11.796875 7.296875 -11.796875 
C 5 -11.796875 3 -13.8125 3 -16.203125 
C 3 -19.5 6.203125 -22 10.40625 -22 
C 17.09375 -22 21.90625 -16.40625 27.296875 -1.96875 
L 42.703125 38.984375 
C 44 42.1875 45.09375 43.1875 47.5 43.484375 
z
" id="Nimbus_Roman_No9_L_Regular-121"/>
      <path d="M 0.90625 39.296875 
C 1.796875 39.390625 2.5 39.390625 3.40625 39.390625 
C 6.796875 39.390625 7.5 38.390625 7.5 33.703125 
L 7.5 -13.109375 
C 7.5 -18.3125 6.40625 -19.40625 0.5 -20 
L 0.5 -21.703125 
L 24.703125 -21.703125 
L 24.703125 -20 
C 17.203125 -19.90625 15.90625 -18.796875 15.90625 -12.46875 
L 15.90625 3.296875 
C 19.40625 0 21.796875 -1 26 -1 
C 37.796875 -1 47 10.1875 47 24.6875 
C 47 37.09375 40 46 30.296875 46 
C 24.703125 46 20.296875 43.484375 15.90625 38.09375 
L 15.90625 45.796875 
L 15.296875 46 
C 9.90625 43.890625 6.40625 42.59375 0.90625 40.890625 
z
M 15.90625 33.390625 
C 15.90625 36.390625 21.5 39.984375 26.09375 39.984375 
C 33.5 39.984375 38.40625 32.390625 38.40625 20.796875 
C 38.40625 9.6875 33.5 2.1875 26.296875 2.1875 
C 21.59375 2.1875 15.90625 5.796875 15.90625 8.796875 
z
" id="Nimbus_Roman_No9_L_Regular-112"/>
      <path d="M 27.796875 0 
L 47.90625 0 
L 47.90625 1.5 
C 44.796875 1.5 42.796875 3.09375 39.703125 7.5 
L 26.90625 27.09375 
L 35.203125 39.09375 
C 37.09375 41.796875 40.09375 43.390625 43.296875 43.484375 
L 43.296875 45 
L 27.5 45 
L 27.5 43.484375 
C 30.5 43.296875 31.5 42.6875 31.5 41.296875 
C 31.5 40.09375 30.296875 37.890625 27.796875 34.796875 
C 27.296875 34.1875 26.09375 32.390625 24.796875 30.390625 
L 23.40625 32.390625 
C 20.59375 36.59375 18.796875 40 18.796875 41.296875 
C 18.796875 42.6875 20.09375 43.390625 23.09375 43.484375 
L 23.09375 45 
L 2.40625 45 
L 2.40625 43.484375 
L 3.296875 43.484375 
C 6.296875 43.484375 7.90625 42.1875 11 37.5 
L 20.40625 23.09375 
L 9 6.59375 
C 6 2.5 5 1.796875 1.703125 1.5 
L 1.703125 0 
L 16.203125 0 
L 16.203125 1.5 
C 13.40625 1.5 12.203125 2 12.203125 3.296875 
C 12.203125 3.890625 12.90625 5.390625 14.203125 7.390625 
L 22.09375 19.6875 
L 31.203125 5.6875 
C 31.59375 5.09375 31.796875 4.5 31.796875 3.890625 
C 31.796875 2.09375 31.09375 1.6875 27.796875 1.5 
z
" id="Nimbus_Roman_No9_L_Regular-120"/>
      <path d="M 12.5 10.09375 
C 9.5 10.09375 7 7.5 7 4.390625 
C 7 1.5 9.5 -1 12.40625 -1 
C 15.5 -1 18.09375 1.5 18.09375 4.390625 
C 18.09375 7.5 15.5 10.09375 12.5 10.09375 
z
" id="Nimbus_Roman_No9_L_Regular-46"/>
     </defs>
     <g transform="translate(213.225453 299.736)scale(0.2 -0.2)">
      <use transform="scale(0.996264)" xlink:href="#Nimbus_Roman_No9_L_Regular-65"/>
      <use transform="translate(71.929985 0)scale(0.996264)" xlink:href="#Nimbus_Roman_No9_L_Regular-110"/>
      <use transform="translate(121.743185 0)scale(0.996264)" xlink:href="#Nimbus_Roman_No9_L_Regular-97"/>
      <use transform="translate(165.976754 0)scale(0.996264)" xlink:href="#Nimbus_Roman_No9_L_Regular-108"/>
      <use transform="translate(193.671924 0)scale(0.996264)" xlink:href="#Nimbus_Roman_No9_L_Regular-121"/>
      <use transform="translate(243.485124 0)scale(0.996264)" xlink:href="#Nimbus_Roman_No9_L_Regular-116"/>
      <use transform="translate(271.180294 0)scale(0.996264)" xlink:href="#Nimbus_Roman_No9_L_Regular-105"/>
      <use transform="translate(298.875463 0)scale(0.996264)" xlink:href="#Nimbus_Roman_No9_L_Regular-99"/>
      <use transform="translate(343.109032 0)scale(0.996264)" xlink:href="#Nimbus_Roman_No9_L_Regular-97"/>
      <use transform="translate(387.342601 0)scale(0.996264)" xlink:href="#Nimbus_Roman_No9_L_Regular-108"/>
      <use transform="translate(439.944371 0)scale(0.996264)" xlink:href="#Nimbus_Roman_No9_L_Regular-97"/>
      <use transform="translate(484.177939 0)scale(0.996264)" xlink:href="#Nimbus_Roman_No9_L_Regular-112"/>
      <use transform="translate(533.99114 0)scale(0.996264)" xlink:href="#Nimbus_Roman_No9_L_Regular-112"/>
      <use transform="translate(583.80434 0)scale(0.996264)" xlink:href="#Nimbus_Roman_No9_L_Regular-114"/>
      <use transform="translate(616.97957 0)scale(0.996264)" xlink:href="#Nimbus_Roman_No9_L_Regular-111"/>
      <use transform="translate(666.792771 0)scale(0.996264)" xlink:href="#Nimbus_Roman_No9_L_Regular-120"/>
      <use transform="translate(716.605971 0)scale(0.996264)" xlink:href="#Nimbus_Roman_No9_L_Regular-46"/>
     </g>
    </g>
   </g>
  </g>
 </g>
 <defs>
  <clipPath id="pa62b92d63a">
   <rect height="326.16" width="334.8" x="38.785453" y="3.5"/>
  </clipPath>
 </defs>
</svg>
