<?xml version="1.0" encoding="utf-8" standalone="no"?>
<!DOCTYPE svg PUBLIC "-//W3C//DTD SVG 1.1//EN"
  "http://www.w3.org/Graphics/SVG/1.1/DTD/svg11.dtd">
<!-- Created with matplotlib (http://matplotlib.org/) -->
<svg height="376.305626pt" version="1.1" viewBox="0 0 747.292472 376.305626" width="747.292472pt" xmlns="http://www.w3.org/2000/svg" xmlns:xlink="http://www.w3.org/1999/xlink">
 <defs>
  <style type="text/css">
*{stroke-linecap:butt;stroke-linejoin:round;}
  </style>
 </defs>
 <g id="figure_1">
  <g id="patch_1">
   <path d="M 0 376.305626 
L 747.292472 376.305626 
L 747.292472 0 
L 0 0 
z
" style="fill:#ffffff;"/>
  </g>
  <g id="axes_1">
   <g id="patch_2">
    <path d="M 74.192472 329.66 
L 378.556108 329.66 
L 378.556108 3.5 
L 74.192472 3.5 
z
" style="fill:#ffffff;"/>
   </g>
   <g id="matplotlib.axis_1">
    <g id="xtick_1">
     <g id="line2d_1">
      <defs>
       <path d="M 0 0 
L 0 3.5 
" id="m9c7ac7b49f" style="stroke:#000000;stroke-width:0.8;"/>
      </defs>
      <g>
       <use style="stroke:#000000;stroke-width:0.8;" x="88.027182" xlink:href="#m9c7ac7b49f" y="329.66"/>
      </g>
     </g>
     <g id="text_1">
      <!-- $0$ -->
      <defs>
       <path d="M 25.40625 68 
C 19.90625 68 15.703125 66.296875 12 62.796875 
C 6.203125 57.203125 2.40625 45.6875 2.40625 34 
C 2.40625 23.09375 5.703125 11.390625 10.40625 5.796875 
C 14.09375 1.390625 19.203125 -1 25 -1 
C 30.09375 -1 34.40625 0.6875 38 4.1875 
C 43.796875 9.6875 47.59375 21.296875 47.59375 33.390625 
C 47.59375 53.890625 38.5 68 25.40625 68 
z
M 25.09375 65.390625 
C 33.5 65.390625 38 54.09375 38 33.1875 
C 38 12.296875 33.59375 1.59375 25 1.59375 
C 16.40625 1.59375 12 12.296875 12 33.09375 
C 12 54.296875 16.5 65.390625 25.09375 65.390625 
z
" id="Nimbus_Roman_No9_L_Regular-48"/>
      </defs>
      <g transform="translate(83.045862 350.169155)scale(0.2 -0.2)">
       <use transform="scale(0.996264)" xlink:href="#Nimbus_Roman_No9_L_Regular-48"/>
      </g>
     </g>
    </g>
    <g id="xtick_2">
     <g id="line2d_2">
      <g>
       <use style="stroke:#000000;stroke-width:0.8;" x="157.200736" xlink:href="#m9c7ac7b49f" y="329.66"/>
      </g>
     </g>
     <g id="text_2">
      <!-- $2$ -->
      <defs>
       <path d="M 47.5 13.734375 
L 46.203125 14.25 
C 42.5 8.5 41.203125 7.59375 36.703125 7.59375 
L 12.796875 7.59375 
L 29.59375 25.328125 
C 38.5 34.703125 42.40625 42.359375 42.40625 50.21875 
C 42.40625 60.28125 34.296875 68 23.90625 68 
C 18.40625 68 13.203125 65.796875 9.5 61.796875 
C 6.296875 58.375 4.796875 55.15625 3.09375 48 
L 5.203125 47.484375 
C 9.203125 57.359375 12.796875 60.59375 19.703125 60.59375 
C 28.09375 60.59375 33.796875 54.84375 33.796875 46.390625 
C 33.796875 38.53125 29.203125 29.15625 20.796875 20.1875 
L 3 1.1875 
L 3 0 
L 42 0 
z
" id="Nimbus_Roman_No9_L_Regular-50"/>
      </defs>
      <g transform="translate(152.219416 350.169155)scale(0.2 -0.2)">
       <use transform="scale(0.996264)" xlink:href="#Nimbus_Roman_No9_L_Regular-50"/>
      </g>
     </g>
    </g>
    <g id="xtick_3">
     <g id="line2d_3">
      <g>
       <use style="stroke:#000000;stroke-width:0.8;" x="226.37429" xlink:href="#m9c7ac7b49f" y="329.66"/>
      </g>
     </g>
     <g id="text_3">
      <!-- $4$ -->
      <defs>
       <path d="M 47.203125 23.390625 
L 37 23.390625 
L 37 68 
L 32.59375 68 
L 1.203125 23.390625 
L 1.203125 17 
L 29.296875 17 
L 29.296875 0 
L 37 0 
L 37 17 
L 47.203125 17 
z
M 29.203125 23.390625 
L 5.203125 23.390625 
L 29.203125 57.765625 
z
" id="Nimbus_Roman_No9_L_Regular-52"/>
      </defs>
      <g transform="translate(221.39297 350.169155)scale(0.2 -0.2)">
       <use transform="scale(0.996264)" xlink:href="#Nimbus_Roman_No9_L_Regular-52"/>
      </g>
     </g>
    </g>
    <g id="xtick_4">
     <g id="line2d_4">
      <g>
       <use style="stroke:#000000;stroke-width:0.8;" x="295.547843" xlink:href="#m9c7ac7b49f" y="329.66"/>
      </g>
     </g>
     <g id="text_4">
      <!-- $6$ -->
      <defs>
       <path d="M 44.59375 68.59375 
C 33.203125 67.59375 27.40625 65.6875 20.09375 60.59375 
C 9.296875 52.890625 3.40625 41.484375 3.40625 28.140625 
C 3.40625 19.5 6.09375 10.75 10.40625 5.765625 
C 14.203125 1.390625 19.59375 -1 25.796875 -1 
C 38.203125 -1 46.796875 8.453125 46.796875 22.1875 
C 46.796875 34.90625 39.5 43 28 43 
C 23.59375 43 21.5 42.296875 15.203125 38.484375 
C 17.90625 53.59375 29.09375 64.390625 44.796875 67 
z
M 24.203125 38.390625 
C 32.796875 38.390625 37.796875 31.234375 37.796875 18.796875 
C 37.796875 7.859375 33.90625 1.796875 26.90625 1.796875 
C 18.09375 1.796875 12.703125 11.140625 12.703125 26.5625 
C 12.703125 31.625 13.5 34.421875 15.5 35.90625 
C 17.59375 37.5 20.703125 38.390625 24.203125 38.390625 
z
" id="Nimbus_Roman_No9_L_Regular-54"/>
      </defs>
      <g transform="translate(290.566523 350.169155)scale(0.2 -0.2)">
       <use transform="scale(0.996264)" xlink:href="#Nimbus_Roman_No9_L_Regular-54"/>
      </g>
     </g>
    </g>
    <g id="xtick_5">
     <g id="line2d_5">
      <g>
       <use style="stroke:#000000;stroke-width:0.8;" x="364.721397" xlink:href="#m9c7ac7b49f" y="329.66"/>
      </g>
     </g>
     <g id="text_5">
      <!-- $8$ -->
      <defs>
       <path d="M 29 37.5 
C 38.90625 42.796875 42.40625 47 42.40625 53.796875 
C 42.40625 62 35.203125 68 25.203125 68 
C 14.296875 68 6.203125 61.296875 6.203125 52.203125 
C 6.203125 45.6875 8.09375 42.796875 18.59375 33.59375 
C 7.796875 25.390625 5.59375 22.296875 5.59375 15.5 
C 5.59375 5.796875 13.5 -1 24.796875 -1 
C 36.796875 -1 44.5 5.59375 44.5 15.890625 
C 44.5 23.59375 41.09375 28.5 29 37.5 
z
M 27.203125 27.1875 
C 34.5 22 36.90625 18.390625 36.90625 12.796875 
C 36.90625 6.296875 32.40625 1.796875 25.90625 1.796875 
C 18.296875 1.796875 13.203125 7.59375 13.203125 16.296875 
C 13.203125 22.6875 15.40625 26.890625 21.203125 31.59375 
z
M 26.09375 39.296875 
C 17.203125 45.09375 13.59375 49.6875 13.59375 55.296875 
C 13.59375 61.09375 18.09375 65.1875 24.40625 65.1875 
C 31.203125 65.1875 35.5 60.796875 35.5 53.890625 
C 35.5 48.1875 32.703125 43.6875 27 39.890625 
C 26.5 39.59375 26.5 39.59375 26.09375 39.296875 
z
" id="Nimbus_Roman_No9_L_Regular-56"/>
      </defs>
      <g transform="translate(359.740077 350.169155)scale(0.2 -0.2)">
       <use transform="scale(0.996264)" xlink:href="#Nimbus_Roman_No9_L_Regular-56"/>
      </g>
     </g>
    </g>
    <g id="text_6">
     <!-- Wave number (q) -->
     <defs>
      <path d="M 93.203125 66 
L 73.40625 66 
L 73.40625 64.09375 
C 78.5 63.59375 80.296875 62.5 80.296875 59.8125 
C 80.296875 57.71875 79.703125 55.140625 78.703125 52.34375 
L 66.203125 18.609375 
L 53 52.546875 
C 52.796875 53.046875 51.90625 55.234375 51.796875 55.53125 
C 50.90625 57.625 50.296875 59.515625 50.296875 60.609375 
C 50.296875 63 52.59375 63.984375 58 64.09375 
L 58 66 
L 31.296875 66 
L 31.296875 64.09375 
C 37 63.984375 38 63.09375 41.40625 55.140625 
L 44.703125 46.984375 
L 34 18.90625 
L 19.59375 56.328125 
C 18.90625 58.125 18.5 59.8125 18.5 60.90625 
C 18.5 63.09375 19.90625 63.796875 25 64.09375 
L 25 66 
L 0.5 66 
L 0.5 64.09375 
C 5.59375 63.59375 7.09375 61.8125 10.796875 52.453125 
L 30.09375 -1 
L 31.59375 -1 
L 47 41.109375 
L 63 -1 
L 64.5 -1 
C 73 24.984375 74 27.765625 84.90625 57.03125 
C 86.796875 62.203125 87.90625 63.09375 93.203125 64.09375 
z
" id="Nimbus_Roman_No9_L_Regular-87"/>
      <path d="M 44.203125 6.59375 
C 42.5 5.1875 41.296875 4.6875 39.796875 4.6875 
C 37.5 4.6875 36.796875 6.09375 36.796875 10.5 
L 36.796875 30 
C 36.796875 35.1875 36.296875 38.09375 34.796875 40.5 
C 32.59375 44.09375 28.296875 46 22.40625 46 
C 13 46 5.59375 41.09375 5.59375 34.796875 
C 5.59375 32.5 7.59375 30.5 9.90625 30.5 
C 12.296875 30.5 14.40625 32.5 14.40625 34.6875 
C 14.40625 35.09375 14.296875 35.59375 14.203125 36.296875 
C 14 37.1875 13.90625 38 13.90625 38.6875 
C 13.90625 41.390625 17.09375 43.59375 21.09375 43.59375 
C 26 43.59375 28.703125 40.6875 28.703125 35.296875 
L 28.703125 29.1875 
C 13.296875 23 11.59375 22.1875 7.296875 18.390625 
C 5.09375 16.390625 3.703125 13 3.703125 9.6875 
C 3.703125 3.390625 8.09375 -1 14.203125 -1 
C 18.59375 -1 22.703125 1.09375 28.796875 6.296875 
C 29.296875 1.09375 31.09375 -1 35.203125 -1 
C 38.59375 -1 40.703125 0.1875 44.203125 4 
z
M 28.703125 12.296875 
C 28.703125 9.1875 28.203125 8.296875 26.09375 7.09375 
C 23.703125 5.6875 20.90625 4.796875 18.796875 4.796875 
C 15.296875 4.796875 12.5 8.1875 12.5 12.5 
L 12.5 12.890625 
C 12.5 18.796875 16.59375 22.390625 28.703125 26.796875 
z
" id="Nimbus_Roman_No9_L_Regular-97"/>
      <path d="M 47.703125 45 
L 33.796875 45 
L 33.796875 43.484375 
C 37 43.1875 38.5 42.203125 38.5 40.3125 
C 38.5 39.328125 38.296875 38.34375 37.90625 37.34375 
L 28 11.6875 
L 17.796875 37.046875 
C 17.203125 38.4375 16.90625 39.828125 16.90625 40.71875 
C 16.90625 42.5 18 43.1875 21.5 43.484375 
L 21.5 45 
L 1.90625 45 
L 1.90625 43.484375 
C 5.703125 43.296875 6.40625 42.296875 11 32.09375 
L 23 3.671875 
C 23.203125 3.078125 23.5 2.375 23.796875 1.59375 
C 24.40625 -0.203125 25 -1 25.59375 -1 
C 26.203125 -1 26.90625 0.296875 28.40625 3.96875 
L 41.203125 35.765625 
C 44.09375 42.5 44.703125 43.1875 47.703125 43.484375 
z
" id="Nimbus_Roman_No9_L_Regular-118"/>
      <path d="M 40.796875 16.4375 
C 36 8.8125 31.703125 5.890625 25.296875 5.890625 
C 19.59375 5.890625 15.296875 8.8125 12.40625 14.53125 
C 10.59375 18.34375 9.90625 21.65625 9.703125 27.796875 
L 40.5 27.796875 
C 39.703125 34.265625 38.703125 37.140625 36.203125 40.3125 
C 33.203125 43.890625 28.59375 46 23.40625 46 
C 18.40625 46 13.703125 44.1875 9.90625 40.8125 
C 5.203125 36.734375 2.5 29.6875 2.5 21.46875 
C 2.5 7.59375 9.703125 -1 21.203125 -1 
C 30.703125 -1 38.203125 4.890625 42.40625 15.734375 
z
M 9.90625 31 
C 11 38.71875 14.40625 42.390625 20.5 42.390625 
C 26.59375 42.390625 29 39.609375 30.296875 31 
z
" id="Nimbus_Roman_No9_L_Regular-101"/>
      <path d="M 1.59375 39.796875 
C 2.203125 40.09375 3.203125 40.1875 4.296875 40.1875 
C 7.09375 40.1875 8 38.6875 8 33.796875 
L 8 9 
C 8 3.296875 6.90625 1.890625 1.796875 1.5 
L 1.796875 0 
L 23 0 
L 23 1.5 
C 17.90625 1.890625 16.40625 3.09375 16.40625 6.6875 
L 16.40625 34.796875 
C 21.203125 39.296875 23.40625 40.484375 26.703125 40.484375 
C 31.59375 40.484375 34 37.390625 34 30.796875 
L 34 9.890625 
C 34 3.59375 32.703125 1.890625 27.703125 1.5 
L 27.703125 0 
L 48.5 0 
L 48.5 1.5 
C 43.59375 2 42.40625 3.1875 42.40625 8.09375 
L 42.40625 31 
C 42.40625 40.390625 38 46 30.59375 46 
C 26 46 22.90625 44.296875 16.09375 37.890625 
L 16.09375 45.796875 
L 15.40625 46 
C 10.5 44.1875 7.09375 43.09375 1.59375 41.484375 
z
" id="Nimbus_Roman_No9_L_Regular-110"/>
      <path d="M 47.90625 4.984375 
L 47.40625 4.984375 
C 42.796875 4.984375 41.703125 6.09375 41.703125 10.6875 
L 41.703125 45 
L 25.90625 45 
L 25.90625 43.296875 
C 32.09375 43 33.296875 42 33.296875 37 
L 33.296875 13.5 
C 33.296875 10.6875 32.796875 9.296875 31.40625 8.1875 
C 28.703125 6 25.59375 4.796875 22.59375 4.796875 
C 18.703125 4.796875 15.5 8.1875 15.5 12.390625 
L 15.5 45 
L 0.90625 45 
L 0.90625 43.59375 
C 5.703125 43.296875 7.09375 41.796875 7.09375 37.1875 
L 7.09375 12 
C 7.09375 4.09375 11.90625 -1 19.203125 -1 
C 22.90625 -1 26.796875 0.59375 29.5 3.296875 
L 33.796875 7.59375 
L 33.796875 -0.703125 
L 34.203125 -1 
C 39.203125 1 42.796875 2.09375 47.90625 3.5 
z
" id="Nimbus_Roman_No9_L_Regular-117"/>
      <path d="M 1.90625 39.796875 
C 3.203125 40.09375 4 40.1875 5.09375 40.1875 
C 7.703125 40.1875 8.59375 38.59375 8.59375 33.796875 
L 8.59375 8.5 
C 8.59375 3.09375 7.203125 1.59375 1.59375 1.5 
L 1.59375 0 
L 23.796875 0 
L 23.796875 1.5 
C 18.5 1.6875 17 2.796875 17 6.6875 
L 17 34.890625 
C 17 35.09375 17.796875 36.09375 18.5 36.796875 
C 21 39.09375 25.296875 40.796875 28.796875 40.796875 
C 33.203125 40.796875 35.40625 37.296875 35.40625 30.296875 
L 35.40625 8.59375 
C 35.40625 3 34.296875 1.890625 28.59375 1.5 
L 28.59375 0 
L 51 0 
L 51 1.5 
C 45.296875 1.59375 43.796875 3.296875 43.796875 9.5 
L 43.796875 34.6875 
C 46.796875 39 50.09375 40.796875 54.703125 40.796875 
C 60.40625 40.796875 62.203125 38.09375 62.203125 29.796875 
L 62.203125 8.6875 
C 62.203125 3 61.40625 2.1875 55.59375 1.5 
L 55.59375 0 
L 77.5 0 
L 77.5 1.5 
L 74.90625 1.6875 
C 71.90625 1.890625 70.59375 3.6875 70.59375 7.59375 
L 70.59375 28.1875 
C 70.59375 40 66.703125 46 59 46 
C 53.203125 46 48.09375 43.390625 42.703125 37.59375 
C 40.90625 43.296875 37.5 46 32.09375 46 
C 27.703125 46 24.90625 44.59375 16.59375 38.296875 
L 16.59375 45.796875 
L 15.90625 46 
C 10.796875 44.09375 7.40625 42.984375 1.90625 41.484375 
z
" id="Nimbus_Roman_No9_L_Regular-109"/>
      <path d="M 15.296875 68.09375 
L 14.796875 68.296875 
C 10.59375 66.796875 7.90625 66 3.203125 64.6875 
L 0.296875 63.890625 
L 0.296875 62.296875 
C 0.90625 62.390625 1.296875 62.390625 2 62.390625 
C 6 62.390625 6.90625 61.5 6.90625 57.296875 
L 6.90625 5.390625 
C 6.90625 2.296875 15.40625 -1 23.40625 -1 
C 36.59375 -1 46.796875 9.984375 46.796875 24.296875 
C 46.796875 36.59375 39.203125 46 29.203125 46 
C 23.09375 46 17.296875 42.390625 15.296875 37.484375 
z
M 15.296875 32.1875 
C 15.296875 36.09375 20 39.6875 25.203125 39.6875 
C 33 39.6875 38 31.890625 38 19.6875 
C 38 8.59375 33.203125 2.1875 25 2.1875 
C 19.796875 2.1875 15.296875 4.484375 15.296875 6.984375 
z
" id="Nimbus_Roman_No9_L_Regular-98"/>
      <path d="M 0.703125 39 
C 2.09375 39.296875 3 39.390625 4.203125 39.390625 
C 6.703125 39.390625 7.59375 37.796875 7.59375 33.390625 
L 7.59375 8.390625 
C 7.59375 3.390625 6.90625 2.6875 0.5 1.5 
L 0.5 0 
L 24.5 0 
L 24.5 1.5 
C 17.703125 1.796875 16 3.296875 16 9 
L 16 31.5 
C 16 34.6875 20.296875 39.6875 23 39.6875 
C 23.59375 39.6875 24.5 39.1875 25.59375 38.1875 
C 27.203125 36.796875 28.296875 36.1875 29.59375 36.1875 
C 32 36.1875 33.5 37.890625 33.5 40.6875 
C 33.5 43.984375 31.40625 46 28 46 
C 23.796875 46 20.90625 43.6875 16 36.59375 
L 16 45.796875 
L 15.5 46 
C 10.203125 43.796875 6.59375 42.5 0.703125 40.59375 
z
" id="Nimbus_Roman_No9_L_Regular-114"/>
      <path d="M 29.5 68 
C 22.09375 63.1875 19.09375 60.59375 15.40625 55.984375 
C 8.296875 47.296875 4.796875 37.296875 4.796875 25.59375 
C 4.796875 12.890625 8.5 3.09375 17.296875 -7.109375 
C 21.40625 -11.90625 24 -14.109375 29.203125 -17.3125 
L 30.40625 -15.71875 
C 22.40625 -9.40625 19.59375 -5.90625 16.90625 1.59375 
C 14.5 8.28125 13.40625 15.890625 13.40625 25.890625 
C 13.40625 36.390625 14.703125 44.59375 17.40625 50.796875 
C 20.203125 56.984375 23.203125 60.59375 30.40625 66.390625 
z
" id="Nimbus_Roman_No9_L_Regular-40"/>
      <path d="M 36 42.390625 
C 31.40625 45.09375 28.40625 46 24.5 46 
C 12 46 2.40625 34.8125 2.40625 20.453125 
C 2.40625 7.890625 9 -1 18.40625 -1 
C 24.203125 -1 29.703125 1.59375 34.09375 6.390625 
L 34.09375 -12.40625 
C 34.09375 -18 32.296875 -19.5 25.203125 -20 
L 25.203125 -22 
L 48.796875 -22 
L 48.796875 -20.609375 
C 43.296875 -19.390625 42.5 -18.578125 42.5 -14.3125 
L 42.5 45.59375 
L 41.40625 45.59375 
z
M 34.09375 12.671875 
C 34.09375 10.28125 33.703125 8.984375 32.703125 8.1875 
C 30.5 6.296875 27.203125 5.09375 24.09375 5.09375 
C 21 5.09375 18.296875 6.09375 16.296875 8.078125 
C 13.09375 10.984375 11 17.453125 11 24.046875 
C 11 35.8125 16.296875 43.1875 24.796875 43.1875 
C 31 43.1875 34.09375 39.90625 34.09375 33.21875 
z
" id="Nimbus_Roman_No9_L_Regular-113"/>
      <path d="M 3.796875 -17.3125 
C 11.203125 -12.515625 14.203125 -9.90625 17.90625 -5.3125 
C 25 3.390625 28.5 13.390625 28.5 25.09375 
C 28.5 37.890625 24.796875 47.59375 16 57.796875 
C 11.90625 62.59375 9.296875 64.796875 4.09375 68 
L 2.90625 66.390625 
C 10.90625 60.09375 13.59375 56.59375 16.40625 49.09375 
C 18.796875 42.390625 19.90625 34.796875 19.90625 24.796875 
C 19.90625 14.390625 18.59375 6.09375 15.90625 -0.015625 
C 13.09375 -6.3125 10.09375 -9.90625 2.90625 -15.71875 
z
" id="Nimbus_Roman_No9_L_Regular-41"/>
     </defs>
     <g transform="translate(157.253724 371.991968)scale(0.2 -0.2)">
      <use transform="scale(0.996264)" xlink:href="#Nimbus_Roman_No9_L_Regular-87"/>
      <use transform="translate(86.077326 0)scale(0.996264)" xlink:href="#Nimbus_Roman_No9_L_Regular-97"/>
      <use transform="translate(128.318884 0)scale(0.996264)" xlink:href="#Nimbus_Roman_No9_L_Regular-118"/>
      <use transform="translate(176.638691 0)scale(0.996264)" xlink:href="#Nimbus_Roman_No9_L_Regular-101"/>
      <use transform="translate(245.77886 0)scale(0.996264)" xlink:href="#Nimbus_Roman_No9_L_Regular-110"/>
      <use transform="translate(295.592061 0)scale(0.996264)" xlink:href="#Nimbus_Roman_No9_L_Regular-117"/>
      <use transform="translate(345.405261 0)scale(0.996264)" xlink:href="#Nimbus_Roman_No9_L_Regular-109"/>
      <use transform="translate(422.913631 0)scale(0.996264)" xlink:href="#Nimbus_Roman_No9_L_Regular-98"/>
      <use transform="translate(472.726832 0)scale(0.996264)" xlink:href="#Nimbus_Roman_No9_L_Regular-101"/>
      <use transform="translate(516.960401 0)scale(0.996264)" xlink:href="#Nimbus_Roman_No9_L_Regular-114"/>
      <use transform="translate(575.042231 0)scale(0.996264)" xlink:href="#Nimbus_Roman_No9_L_Regular-40"/>
      <use transform="translate(608.21746 0)scale(0.996264)" xlink:href="#Nimbus_Roman_No9_L_Regular-113"/>
      <use transform="translate(658.030661 0)scale(0.996264)" xlink:href="#Nimbus_Roman_No9_L_Regular-41"/>
     </g>
    </g>
   </g>
   <g id="matplotlib.axis_2">
    <g id="ytick_1">
     <g id="line2d_6">
      <defs>
       <path d="M 0 0 
L -3.5 0 
" id="m5cad40cd5d" style="stroke:#000000;stroke-width:0.8;"/>
      </defs>
      <g>
       <use style="stroke:#000000;stroke-width:0.8;" x="74.192472" xlink:href="#m5cad40cd5d" y="318.659862"/>
      </g>
     </g>
     <g id="text_7">
      <!-- $-350$ -->
      <defs>
       <path d="M 65.90625 23 
C 67.59375 23 69.40625 23 69.40625 25 
C 69.40625 27 67.59375 27 65.90625 27 
L 11.796875 27 
C 10.09375 27 8.296875 27 8.296875 25 
C 8.296875 23 10.09375 23 11.796875 23 
z
" id="CMSY10-0"/>
       <path d="M 15.296875 33.390625 
C 21.203125 33.390625 23.5 33.1875 25.90625 32.296875 
C 32.09375 30.09375 36 24.390625 36 17.5 
C 36 9.09375 30.296875 2.59375 22.90625 2.59375 
C 20.203125 2.59375 18.203125 3.296875 14.5 5.6875 
C 11.5 7.5 9.796875 8.1875 8.09375 8.1875 
C 5.796875 8.1875 4.296875 6.796875 4.296875 4.6875 
C 4.296875 1.1875 8.59375 -1 15.59375 -1 
C 23.296875 -1 31.203125 1.59375 35.90625 5.6875 
C 40.59375 9.796875 43.203125 15.59375 43.203125 22.296875 
C 43.203125 27.390625 41.59375 32.09375 38.703125 35.1875 
C 36.703125 37.390625 34.796875 38.59375 30.40625 40.5 
C 37.296875 45.1875 39.796875 48.890625 39.796875 54.296875 
C 39.796875 62.390625 33.40625 68 24.203125 68 
C 19.203125 68 14.796875 66.296875 11.203125 63.09375 
C 8.203125 60.390625 6.703125 57.796875 4.5 51.796875 
L 6 51.390625 
C 10.09375 58.703125 14.59375 61.984375 20.90625 61.984375 
C 27.40625 61.984375 31.90625 57.59375 31.90625 51.296875 
C 31.90625 47.6875 30.40625 44.09375 27.90625 41.59375 
C 24.90625 38.59375 22.09375 37.09375 15.296875 34.6875 
z
" id="Nimbus_Roman_No9_L_Regular-51"/>
       <path d="M 18.09375 58.09375 
L 37.703125 58.09375 
C 39.296875 58.09375 39.703125 58.296875 40 58.984375 
L 43.796875 67.890625 
L 42.90625 68.59375 
C 41.40625 66.5 40.40625 66 38.296875 66 
L 17.40625 66 
L 6.5 42.453125 
C 6.40625 42.265625 6.40625 42.15625 6.40625 41.96875 
C 6.40625 41.46875 6.796875 41.171875 7.59375 41.171875 
C 10.796875 41.171875 14.796875 40.484375 18.90625 39.1875 
C 30.40625 35.53125 35.703125 29.40625 35.703125 19.609375 
C 35.703125 10.109375 29.59375 2.6875 21.796875 2.6875 
C 19.796875 2.6875 18.09375 3.390625 15.09375 5.5625 
C 11.90625 7.84375 9.59375 8.828125 7.5 8.828125 
C 4.59375 8.828125 3.203125 7.640625 3.203125 5.171875 
C 3.203125 1.390625 7.90625 -1 15.40625 -1 
C 23.796875 -1 31 1.6875 36 6.75 
C 40.59375 11.203125 42.703125 16.84375 42.703125 24.359375 
C 42.703125 31.484375 40.796875 36.03125 35.796875 40.96875 
C 31.40625 45.328125 25.703125 47.609375 13.90625 49.6875 
z
" id="Nimbus_Roman_No9_L_Regular-53"/>
      </defs>
      <g transform="translate(21.822813 325.41444)scale(0.2 -0.2)">
       <use transform="scale(0.996264)" xlink:href="#CMSY10-0"/>
       <use transform="translate(77.408707 0)scale(0.996264)" xlink:href="#Nimbus_Roman_No9_L_Regular-51"/>
       <use transform="translate(127.221908 0)scale(0.996264)" xlink:href="#Nimbus_Roman_No9_L_Regular-53"/>
       <use transform="translate(177.035108 0)scale(0.996264)" xlink:href="#Nimbus_Roman_No9_L_Regular-48"/>
      </g>
     </g>
    </g>
    <g id="ytick_2">
     <g id="line2d_7">
      <g>
       <use style="stroke:#000000;stroke-width:0.8;" x="74.192472" xlink:href="#m5cad40cd5d" y="275.986919"/>
      </g>
     </g>
     <g id="text_8">
      <!-- $-300$ -->
      <g transform="translate(21.822813 282.741496)scale(0.2 -0.2)">
       <use transform="scale(0.996264)" xlink:href="#CMSY10-0"/>
       <use transform="translate(77.408707 0)scale(0.996264)" xlink:href="#Nimbus_Roman_No9_L_Regular-51"/>
       <use transform="translate(127.221908 0)scale(0.996264)" xlink:href="#Nimbus_Roman_No9_L_Regular-48"/>
       <use transform="translate(177.035108 0)scale(0.996264)" xlink:href="#Nimbus_Roman_No9_L_Regular-48"/>
      </g>
     </g>
    </g>
    <g id="ytick_3">
     <g id="line2d_8">
      <g>
       <use style="stroke:#000000;stroke-width:0.8;" x="74.192472" xlink:href="#m5cad40cd5d" y="233.313975"/>
      </g>
     </g>
     <g id="text_9">
      <!-- $-250$ -->
      <g transform="translate(21.822813 240.068553)scale(0.2 -0.2)">
       <use transform="scale(0.996264)" xlink:href="#CMSY10-0"/>
       <use transform="translate(77.408707 0)scale(0.996264)" xlink:href="#Nimbus_Roman_No9_L_Regular-50"/>
       <use transform="translate(127.221908 0)scale(0.996264)" xlink:href="#Nimbus_Roman_No9_L_Regular-53"/>
       <use transform="translate(177.035108 0)scale(0.996264)" xlink:href="#Nimbus_Roman_No9_L_Regular-48"/>
      </g>
     </g>
    </g>
    <g id="ytick_4">
     <g id="line2d_9">
      <g>
       <use style="stroke:#000000;stroke-width:0.8;" x="74.192472" xlink:href="#m5cad40cd5d" y="190.641031"/>
      </g>
     </g>
     <g id="text_10">
      <!-- $-200$ -->
      <g transform="translate(21.822813 197.395609)scale(0.2 -0.2)">
       <use transform="scale(0.996264)" xlink:href="#CMSY10-0"/>
       <use transform="translate(77.408707 0)scale(0.996264)" xlink:href="#Nimbus_Roman_No9_L_Regular-50"/>
       <use transform="translate(127.221908 0)scale(0.996264)" xlink:href="#Nimbus_Roman_No9_L_Regular-48"/>
       <use transform="translate(177.035108 0)scale(0.996264)" xlink:href="#Nimbus_Roman_No9_L_Regular-48"/>
      </g>
     </g>
    </g>
    <g id="ytick_5">
     <g id="line2d_10">
      <g>
       <use style="stroke:#000000;stroke-width:0.8;" x="74.192472" xlink:href="#m5cad40cd5d" y="147.968088"/>
      </g>
     </g>
     <g id="text_11">
      <!-- $-150$ -->
      <defs>
       <path d="M 29.09375 68 
L 11.09375 59 
L 11.09375 57.59375 
C 12.296875 58.09375 13.40625 58.484375 13.796875 58.6875 
C 15.59375 59.390625 17.296875 59.78125 18.296875 59.78125 
C 20.40625 59.78125 21.296875 58.296875 21.296875 55.078125 
L 21.296875 9.359375 
C 21.296875 6.03125 20.5 3.71875 18.90625 2.796875 
C 17.40625 1.890625 16 1.59375 11.796875 1.5 
L 11.796875 0 
L 39.40625 0 
L 39.40625 1.5 
C 31.5 1.59375 29.90625 2.609375 29.90625 7.453125 
L 29.90625 67.796875 
z
" id="Nimbus_Roman_No9_L_Regular-49"/>
      </defs>
      <g transform="translate(21.822813 154.722665)scale(0.2 -0.2)">
       <use transform="scale(0.996264)" xlink:href="#CMSY10-0"/>
       <use transform="translate(77.408707 0)scale(0.996264)" xlink:href="#Nimbus_Roman_No9_L_Regular-49"/>
       <use transform="translate(127.221908 0)scale(0.996264)" xlink:href="#Nimbus_Roman_No9_L_Regular-53"/>
       <use transform="translate(177.035108 0)scale(0.996264)" xlink:href="#Nimbus_Roman_No9_L_Regular-48"/>
      </g>
     </g>
    </g>
    <g id="ytick_6">
     <g id="line2d_11">
      <g>
       <use style="stroke:#000000;stroke-width:0.8;" x="74.192472" xlink:href="#m5cad40cd5d" y="105.295144"/>
      </g>
     </g>
     <g id="text_12">
      <!-- $-100$ -->
      <g transform="translate(21.822813 112.049722)scale(0.2 -0.2)">
       <use transform="scale(0.996264)" xlink:href="#CMSY10-0"/>
       <use transform="translate(77.408707 0)scale(0.996264)" xlink:href="#Nimbus_Roman_No9_L_Regular-49"/>
       <use transform="translate(127.221908 0)scale(0.996264)" xlink:href="#Nimbus_Roman_No9_L_Regular-48"/>
       <use transform="translate(177.035108 0)scale(0.996264)" xlink:href="#Nimbus_Roman_No9_L_Regular-48"/>
      </g>
     </g>
    </g>
    <g id="ytick_7">
     <g id="line2d_12">
      <g>
       <use style="stroke:#000000;stroke-width:0.8;" x="74.192472" xlink:href="#m5cad40cd5d" y="62.6222"/>
      </g>
     </g>
     <g id="text_13">
      <!-- $-50$ -->
      <g transform="translate(31.785453 69.376778)scale(0.2 -0.2)">
       <use transform="scale(0.996264)" xlink:href="#CMSY10-0"/>
       <use transform="translate(77.408707 0)scale(0.996264)" xlink:href="#Nimbus_Roman_No9_L_Regular-53"/>
       <use transform="translate(127.221908 0)scale(0.996264)" xlink:href="#Nimbus_Roman_No9_L_Regular-48"/>
      </g>
     </g>
    </g>
    <g id="ytick_8">
     <g id="line2d_13">
      <g>
       <use style="stroke:#000000;stroke-width:0.8;" x="74.192472" xlink:href="#m5cad40cd5d" y="19.949257"/>
      </g>
     </g>
     <g id="text_14">
      <!-- $0$ -->
      <g transform="translate(57.229831 26.703834)scale(0.2 -0.2)">
       <use transform="scale(0.996264)" xlink:href="#Nimbus_Roman_No9_L_Regular-48"/>
      </g>
     </g>
    </g>
    <g id="text_15">
     <!-- Re($\lambda_{max}$) -->
     <defs>
      <path d="M 65.90625 1.890625 
C 62.09375 2.1875 60.09375 3.1875 57.203125 6.578125 
L 36.59375 31.796875 
C 43.296875 33.09375 46.296875 34.28125 49.59375 36.96875 
C 52.796875 39.5625 54.703125 43.75 54.703125 48.4375 
C 54.703125 52.71875 53.40625 56.40625 50.796875 59.296875 
C 47 63.390625 38.703125 66 29.296875 66 
L 1.703125 66 
L 1.703125 64.09375 
C 9.203125 63.296875 10.203125 62.203125 10.203125 55.125 
L 10.203125 11.953125 
C 10.203125 3.6875 9.203125 2.484375 1.703125 1.890625 
L 1.703125 0 
L 29.40625 0 
L 29.40625 1.890625 
C 21.703125 2.390625 20.40625 3.6875 20.40625 10.859375 
L 20.40625 30.5 
L 26 30.703125 
L 49.796875 0 
L 65.90625 0 
z
M 20.40625 58.6875 
C 20.40625 61.484375 21.5 62.296875 25.5 62.296875 
C 38 62.296875 43.796875 57.984375 43.796875 48.59375 
C 43.796875 43.59375 41.703125 39.390625 38.09375 37.484375 
C 33.5 34.890625 30 34.296875 20.40625 34.09375 
z
" id="Nimbus_Roman_No9_L_Regular-82"/>
      <path d="M 7.5 57.03125 
C 8.203125 62.703125 11.09375 66 15.59375 66 
C 18.796875 66 21.5 63.5 23 59.03125 
C 23.703125 57.03125 24.59375 53.75 25.5 49.96875 
L 2.40625 0.296875 
L 11.796875 0.296875 
L 28.796875 35.953125 
C 32 16.546875 33.59375 9.484375 35.40625 5.59375 
C 37.59375 1.296875 40.796875 -1 44.5 -1 
C 48.40625 -1 51.5 1.390625 53.203125 5.796875 
C 54.296875 8.484375 54.703125 11.171875 54.796875 15.84375 
L 52.703125 15.84375 
C 51.90625 10.671875 49.59375 7.796875 46 7.796875 
C 43 7.796875 40.40625 9.6875 38.796875 13.171875 
C 37.5 15.75 36.796875 18.34375 35.40625 25.703125 
L 32.703125 38.53125 
C 32.59375 38.828125 32.5 39.53125 32.296875 40.53125 
C 30 53.359375 26.40625 65.5 24 69.09375 
C 21.796875 72.296875 18.796875 74 15.5 74 
C 9.40625 74 6.203125 68.796875 5.09375 57.03125 
z
" id="Standard_Symbols_L-108"/>
      <path d="M 68.90625 11.59375 
C 67.90625 10.390625 67.09375 9.390625 66.796875 8.984375 
C 64 5.390625 61.90625 3.6875 60.40625 3.6875 
C 59.59375 3.6875 59.09375 4.296875 59.09375 5.296875 
C 59.09375 5.796875 59.5 7.390625 60.09375 9.796875 
L 66.90625 34.890625 
C 67 35.296875 67.203125 37.09375 67.203125 37.6875 
C 67.203125 41.296875 64.703125 44 61.296875 44 
C 59.40625 44 57.40625 43.296875 55 41.796875 
C 50.09375 38.59375 46 33.796875 39.09375 22.796875 
C 41.59375 30.390625 43.09375 36.09375 43.09375 37.984375 
C 43.09375 41.484375 40.796875 44 37.40625 44 
C 31.296875 44 24.296875 37.390625 15.09375 22.890625 
L 20.90625 43.796875 
L 20.59375 44 
C 15 42.796875 12.90625 42.390625 4.59375 40.890625 
L 4.59375 39.296875 
L 7.09375 39.296875 
C 9.703125 39.296875 11 38.59375 11 37.09375 
C 11 35.984375 8.703125 26.890625 5.09375 14.1875 
C 2.796875 6 2.5 5 1.203125 -0.109375 
L 8.703125 -0.109375 
C 13.5 15.796875 15 19.484375 18.40625 24.6875 
C 24 33.1875 30 38.796875 33.40625 38.796875 
C 34.703125 38.796875 35.40625 37.890625 35.40625 36.296875 
C 35.40625 35.390625 32.203125 23.296875 25.90625 -0.109375 
L 33.40625 -0.109375 
C 37.40625 15.484375 39.40625 20.484375 44.5 27.59375 
C 49.40625 34.390625 54.40625 38.796875 57.296875 38.796875 
C 58.40625 38.796875 59.296875 37.796875 59.296875 36.6875 
C 59.296875 36.1875 59.09375 34.984375 58.59375 33.1875 
L 52.796875 10.1875 
C 51.90625 6.5 51.5 4.59375 51.5 3.59375 
C 51.5 0.59375 52.90625 -1 55.5 -1 
C 60.203125 -1 64.59375 2.296875 69.90625 9.6875 
L 70.40625 10.390625 
z
" id="Nimbus_Roman_No9_L_Regular_Italic-109"/>
      <path d="M 46.40625 11.046875 
C 44.90625 9.5625 44.296875 9.0625 43.59375 8.265625 
C 40.59375 5.1875 39.296875 4.1875 38.40625 4.1875 
C 37.59375 4.1875 37 4.78125 37 5.484375 
C 37 7.46875 41.203125 24.484375 45.90625 41.59375 
C 46.203125 42.59375 46.296875 42.796875 46.5 43.6875 
L 45.796875 44 
L 39.703125 43.296875 
L 39.40625 42.984375 
L 38.296875 38.203125 
C 37.5 41.890625 34.59375 44 30.296875 44 
C 17.09375 44 1.703125 25.78125 1.703125 10.0625 
C 1.703125 3.09375 5.5 -1 11.90625 -1 
C 18.90625 -1 23.203125 2.296875 32 14.640625 
C 30 6.875 29.703125 5.578125 29.703125 3.1875 
C 29.703125 0.1875 30.90625 -1 33.703125 -1 
C 37.703125 -1 40.203125 0.890625 47.59375 10 
z
M 30.90625 42 
C 34.296875 41.796875 36.5 39.390625 36.5 35.890625 
C 36.5 27.5 31.5 15.6875 24.59375 8.296875 
C 22.203125 5.59375 18.796875 3.890625 15.90625 3.890625 
C 12.40625 3.890625 10.09375 6.796875 10.09375 11.390625 
C 10.09375 16.796875 13.90625 27.09375 18.203125 33.296875 
C 22.203125 39.09375 26.90625 42.296875 30.90625 42 
z
" id="Nimbus_Roman_No9_L_Regular_Italic-97"/>
      <path d="M 40.203125 11.15625 
C 39.40625 10.265625 38.90625 9.65625 38 8.46875 
C 35.703125 5.484375 34.5 4.5 33.40625 4.5 
C 31.90625 4.5 31 5.78125 30.296875 8.5625 
C 30.09375 9.359375 30 9.96875 29.90625 10.265625 
C 27.40625 20.296875 26.296875 24.875 26.296875 26.359375 
C 30.703125 34.015625 34.296875 38.390625 36.09375 38.390625 
C 36.703125 38.390625 37.5 38.09375 38.5 37.59375 
C 39.703125 36.90625 40.40625 36.703125 41.203125 36.703125 
C 43.296875 36.703125 44.703125 38.1875 44.703125 40.296875 
C 44.703125 42.390625 43 44 40.59375 44 
C 36.203125 44 32.40625 40.390625 25.5 29.75 
L 24.40625 35.21875 
C 23 41.984375 21.90625 44 19.203125 44 
C 17 44 13.59375 43.09375 7.5 41.09375 
L 6.40625 40.6875 
L 6.796875 39.1875 
C 10.59375 40.09375 11.5 40.296875 12.40625 40.296875 
C 14.90625 40.296875 15.5 39.390625 16.90625 33.421875 
L 19.796875 21.203125 
L 11.59375 9.5625 
C 9.59375 6.578125 7.59375 4.796875 6.5 4.796875 
C 5.90625 4.796875 4.90625 5.09375 3.90625 5.6875 
C 2.59375 6.390625 1.5 6.6875 0.703125 6.6875 
C -1.203125 6.6875 -2.703125 5.1875 -2.703125 3.1875 
C -2.703125 0.59375 -0.703125 -1 2.296875 -1 
C 5.40625 -1 6.59375 -0.109375 11.59375 5.984375 
C 14.296875 9.171875 16.40625 11.84375 20.59375 17.609375 
L 23.59375 5.6875 
C 24.90625 0.59375 26.203125 -1 29.40625 -1 
C 33.203125 -1 35.796875 1.390625 41.59375 10.359375 
z
" id="Nimbus_Roman_No9_L_Regular_Italic-120"/>
     </defs>
     <g transform="translate(13.509155 202.306347)rotate(-90)scale(0.2 -0.2)">
      <use transform="translate(0 14.943915)scale(0.996264)" xlink:href="#Nimbus_Roman_No9_L_Regular-82"/>
      <use transform="translate(66.450031 14.943915)scale(0.996264)" xlink:href="#Nimbus_Roman_No9_L_Regular-101"/>
      <use transform="translate(110.6836 14.943915)scale(0.996264)" xlink:href="#Nimbus_Roman_No9_L_Regular-40"/>
      <use transform="translate(143.85883 14.943915)scale(0.996264)" xlink:href="#Standard_Symbols_L-108"/>
      <use transform="translate(198.553596 0)scale(0.737241)" xlink:href="#Nimbus_Roman_No9_L_Regular_Italic-109"/>
      <use transform="translate(251.782181 0)scale(0.737241)" xlink:href="#Nimbus_Roman_No9_L_Regular_Italic-97"/>
      <use transform="translate(288.644223 0)scale(0.737241)" xlink:href="#Nimbus_Roman_No9_L_Regular_Italic-120"/>
      <use transform="translate(322.095851 14.943915)scale(0.996264)" xlink:href="#Nimbus_Roman_No9_L_Regular-41"/>
     </g>
    </g>
   </g>
   <g id="line2d_14">
    <path clip-path="url(#pfc2a25ad41)" d="M 88.027182 20.802716 
L 90.822073 19.949224 
L 93.616964 19.948729 
L 96.411856 19.946601 
L 99.206747 19.940966 
L 102.001638 19.929443 
L 104.796529 19.909517 
L 107.59142 19.879037 
L 110.386311 19.836662 
L 113.181202 19.782047 
L 115.976093 19.715719 
L 118.770984 19.638807 
L 121.565875 19.552767 
L 124.360766 19.459197 
L 127.155657 19.359746 
L 129.950548 19.256069 
L 132.745439 19.149833 
L 135.54033 19.042715 
L 138.335221 18.936421 
L 141.130112 18.832698 
L 143.925004 18.733344 
L 146.719895 18.640216 
L 149.514786 18.555241 
L 152.309677 18.480417 
L 155.104568 18.417822 
L 157.899459 18.369617 
L 160.69435 18.338049 
L 163.489241 18.325455 
L 166.284132 18.334264 
L 169.079023 18.367004 
L 171.873914 18.426302 
L 174.668805 18.514889 
L 177.463696 18.635608 
L 180.258587 18.791417 
L 183.053478 18.9854 
L 185.848369 19.220779 
L 188.64326 19.500925 
L 191.438152 19.829381 
L 194.233043 20.209889 
L 197.027934 20.646434 
L 199.822825 21.143297 
L 202.617716 21.705153 
L 205.412607 22.337213 
L 208.207498 23.045461 
L 211.002389 23.837078 
L 213.79728 24.721243 
L 216.592171 25.71082 
L 219.387062 26.82649 
L 222.181953 28.109702 
L 224.976844 29.690772 
L 227.771735 31.748377 
L 230.566626 32.685828 
L 233.361517 33.680075 
L 236.156408 34.733368 
L 238.9513 35.847999 
L 241.746191 37.026304 
L 244.541082 38.270664 
L 247.335973 39.583502 
L 250.130864 40.967285 
L 252.925755 42.424525 
L 255.720646 43.957777 
L 258.515537 47.254844 
L 261.310428 50.680346 
L 264.105319 53.881367 
L 266.90021 57.119174 
L 269.695101 60.461426 
L 272.489992 63.939231 
L 275.284883 67.571261 
L 278.079774 71.370778 
L 280.874665 75.348338 
L 283.669556 79.51301 
L 286.464448 83.873007 
L 289.259339 88.436027 
L 292.05423 93.20945 
L 294.849121 98.20047 
L 297.644012 103.416174 
L 300.438903 108.863589 
L 303.233794 114.549727 
L 306.028685 120.481607 
L 308.823576 126.666272 
L 311.618467 133.110808 
L 314.413358 139.822347 
L 317.208249 146.808079 
L 320.00314 154.075257 
L 322.798031 161.631203 
L 325.592922 169.483309 
L 328.387813 177.639039 
L 331.182704 186.105936 
L 333.977596 194.891618 
L 336.772487 204.003786 
L 339.567378 213.450219 
L 342.362269 223.238778 
L 345.15716 233.377405 
L 347.952051 243.874128 
L 350.746942 254.737056 
L 353.541833 265.974385 
L 356.336724 277.594392 
L 359.131615 289.605441 
L 361.926506 302.015981 
L 364.721397 314.834545 
" style="fill:none;stroke:#fee5d8;stroke-linecap:square;stroke-width:3;"/>
   </g>
   <g id="line2d_15">
    <path clip-path="url(#pfc2a25ad41)" d="M 88.027182 20.802716 
L 90.822073 19.966282 
L 93.616964 20.021759 
L 96.411856 20.139329 
L 99.206747 20.376452 
L 102.001638 20.377123 
L 104.796529 20.378344 
L 107.59142 20.380355 
L 110.386311 20.383439 
L 113.181202 20.387925 
L 115.976093 20.394182 
L 118.770984 20.402627 
L 121.565875 20.413717 
L 124.360766 20.427955 
L 127.155657 20.445887 
L 129.950548 20.468103 
L 132.745439 20.495234 
L 135.54033 20.52796 
L 138.335221 20.566999 
L 141.130112 20.613116 
L 143.925004 20.667119 
L 146.719895 20.72986 
L 149.514786 20.802234 
L 152.309677 20.88518 
L 155.104568 20.97968 
L 157.899459 21.086761 
L 160.69435 21.207492 
L 163.489241 21.342987 
L 166.284132 21.494404 
L 169.079023 21.662942 
L 171.873914 21.849848 
L 174.668805 22.056409 
L 177.463696 22.283957 
L 180.258587 22.533867 
L 183.053478 22.80756 
L 185.848369 23.106497 
L 188.64326 23.432186 
L 191.438152 23.786177 
L 194.233043 24.170063 
L 197.027934 24.585483 
L 199.822825 25.034118 
L 202.617716 25.517692 
L 205.412607 26.037974 
L 208.207498 26.596777 
L 211.002389 27.195956 
L 213.79728 27.837412 
L 216.592171 28.523087 
L 219.387062 29.254969 
L 222.181953 30.035088 
L 224.976844 30.865518 
L 227.771735 31.748377 
L 230.566626 32.685828 
L 233.361517 33.680075 
L 236.156408 34.733368 
L 238.9513 35.847999 
L 241.746191 37.026304 
L 244.541082 38.270664 
L 247.335973 39.583502 
L 250.130864 40.967285 
L 252.925755 42.424525 
L 255.720646 43.957777 
L 258.515537 45.569637 
L 261.310428 47.26275 
L 264.105319 49.0398 
L 266.90021 50.903516 
L 269.695101 52.856673 
L 272.489992 59.319537 
L 275.284883 63.883556 
L 278.079774 68.23541 
L 280.874665 72.598542 
L 283.669556 77.054481 
L 286.464448 81.645302 
L 289.259339 86.397303 
L 292.05423 91.32917 
L 294.849121 96.455468 
L 297.644012 101.788343 
L 300.438903 107.338443 
L 303.233794 113.115452 
L 306.028685 119.128411 
L 308.823576 125.385933 
L 311.618467 131.896337 
L 314.413358 138.667748 
L 317.208249 145.708163 
L 320.00314 153.025497 
L 322.798031 160.627621 
L 325.592922 168.52239 
L 328.387813 176.717661 
L 331.182704 185.221308 
L 333.977596 194.04124 
L 336.772487 203.185401 
L 339.567378 212.661788 
L 342.362269 222.47845 
L 345.15716 232.643495 
L 347.952051 243.165096 
L 350.746942 254.051492 
L 353.541833 265.310993 
L 356.336724 276.951979 
L 359.131615 288.982908 
L 361.926506 301.412309 
L 364.721397 314.248792 
" style="fill:none;stroke:#fdc6b0;stroke-linecap:square;stroke-width:3;"/>
   </g>
   <g id="line2d_16">
    <path clip-path="url(#pfc2a25ad41)" d="M 88.027182 20.802716 
L 90.822073 19.984083 
L 93.616964 20.114441 
L 96.411856 20.376134 
L 99.206747 20.376452 
L 102.001638 20.377123 
L 104.796529 20.378344 
L 107.59142 20.380355 
L 110.386311 20.383439 
L 113.181202 20.387925 
L 115.976093 20.394182 
L 118.770984 20.402627 
L 121.565875 20.413717 
L 124.360766 20.427955 
L 127.155657 20.445887 
L 129.950548 20.468103 
L 132.745439 20.495234 
L 135.54033 20.52796 
L 138.335221 20.566999 
L 141.130112 20.613116 
L 143.925004 20.667119 
L 146.719895 20.72986 
L 149.514786 20.802234 
L 152.309677 20.88518 
L 155.104568 20.97968 
L 157.899459 21.086761 
L 160.69435 21.207492 
L 163.489241 21.342987 
L 166.284132 21.494404 
L 169.079023 21.662942 
L 171.873914 21.849848 
L 174.668805 22.056409 
L 177.463696 22.283957 
L 180.258587 22.533867 
L 183.053478 22.80756 
L 185.848369 23.106497 
L 188.64326 23.432186 
L 191.438152 23.786177 
L 194.233043 24.170063 
L 197.027934 24.585483 
L 199.822825 25.034118 
L 202.617716 25.517692 
L 205.412607 26.037974 
L 208.207498 26.596777 
L 211.002389 27.195956 
L 213.79728 27.837412 
L 216.592171 28.523087 
L 219.387062 29.254969 
L 222.181953 30.035088 
L 224.976844 30.865518 
L 227.771735 31.748377 
L 230.566626 32.685828 
L 233.361517 33.680075 
L 236.156408 34.733368 
L 238.9513 35.847999 
L 241.746191 37.026304 
L 244.541082 38.270664 
L 247.335973 39.583502 
L 250.130864 40.967285 
L 252.925755 42.424525 
L 255.720646 43.957777 
L 258.515537 45.569637 
L 261.310428 47.26275 
L 264.105319 49.0398 
L 266.90021 50.903516 
L 269.695101 52.856673 
L 272.489992 54.902085 
L 275.284883 57.042615 
L 278.079774 63.049224 
L 280.874665 68.871771 
L 283.669556 74.005484 
L 286.464448 79.023926 
L 289.259339 84.080454 
L 292.05423 89.244502 
L 294.849121 94.555849 
L 297.644012 100.040891 
L 300.438903 105.719068 
L 303.233794 111.605834 
L 306.028685 117.714212 
L 308.823576 124.055663 
L 311.618467 130.640614 
L 314.413358 137.478786 
L 317.208249 144.579408 
L 320.00314 151.951373 
L 322.798031 159.603334 
L 325.592922 167.54378 
L 328.387813 175.78109 
L 331.182704 184.323575 
L 333.977596 193.179507 
L 336.772487 202.357141 
L 339.567378 211.864737 
L 342.362269 221.710571 
L 345.15716 231.902949 
L 347.952051 242.450215 
L 350.746942 253.360758 
L 353.541833 264.643019 
L 356.336724 276.305496 
L 359.131615 288.356749 
L 361.926506 300.805401 
L 364.721397 313.660144 
" style="fill:none;stroke:#fca285;stroke-linecap:square;stroke-width:3;"/>
   </g>
   <g id="line2d_17">
    <path clip-path="url(#pfc2a25ad41)" d="M 88.027182 20.802716 
L 90.822073 20.002731 
L 93.616964 20.269503 
L 96.411856 20.376134 
L 99.206747 20.376452 
L 102.001638 20.377123 
L 104.796529 20.378344 
L 107.59142 20.380355 
L 110.386311 20.383439 
L 113.181202 20.387925 
L 115.976093 20.394182 
L 118.770984 20.402627 
L 121.565875 20.413717 
L 124.360766 20.427955 
L 127.155657 20.445887 
L 129.950548 20.468103 
L 132.745439 20.495234 
L 135.54033 20.52796 
L 138.335221 20.566999 
L 141.130112 20.613116 
L 143.925004 20.667119 
L 146.719895 20.72986 
L 149.514786 20.802234 
L 152.309677 20.88518 
L 155.104568 20.97968 
L 157.899459 21.086761 
L 160.69435 21.207492 
L 163.489241 21.342987 
L 166.284132 21.494404 
L 169.079023 21.662942 
L 171.873914 21.849848 
L 174.668805 22.056409 
L 177.463696 22.283957 
L 180.258587 22.533867 
L 183.053478 22.80756 
L 185.848369 23.106497 
L 188.64326 23.432186 
L 191.438152 23.786177 
L 194.233043 24.170063 
L 197.027934 24.585483 
L 199.822825 25.034118 
L 202.617716 25.517692 
L 205.412607 26.037974 
L 208.207498 26.596777 
L 211.002389 27.195956 
L 213.79728 27.837412 
L 216.592171 28.523087 
L 219.387062 29.254969 
L 222.181953 30.035088 
L 224.976844 30.865518 
L 227.771735 31.748377 
L 230.566626 32.685828 
L 233.361517 33.680075 
L 236.156408 34.733368 
L 238.9513 35.847999 
L 241.746191 37.026304 
L 244.541082 38.270664 
L 247.335973 39.583502 
L 250.130864 40.967285 
L 252.925755 42.424525 
L 255.720646 43.957777 
L 258.515537 45.569637 
L 261.310428 47.26275 
L 264.105319 49.0398 
L 266.90021 50.903516 
L 269.695101 52.856673 
L 272.489992 54.902085 
L 275.284883 57.042615 
L 278.079774 59.281166 
L 280.874665 61.620685 
L 283.669556 69.44109 
L 286.464448 75.673334 
L 289.259339 81.326121 
L 292.05423 86.869449 
L 294.849121 92.45137 
L 297.644012 98.14279 
L 300.438903 103.985485 
L 303.233794 110.007583 
L 306.028685 116.22993 
L 308.823576 122.669124 
L 311.618467 129.339128 
L 314.413358 136.252194 
L 317.208249 143.41942 
L 320.00314 150.851108 
L 322.798031 158.557006 
L 325.592922 166.546464 
L 328.387813 174.82855 
L 331.182704 183.412136 
L 333.977596 192.305953 
L 336.772487 201.518639 
L 339.567378 211.058776 
L 342.362269 220.934912 
L 345.15716 231.155585 
L 347.952051 241.729339 
L 350.746942 252.664736 
L 353.541833 263.970368 
L 356.336724 275.654864 
L 359.131615 287.726901 
L 361.926506 300.195204 
L 364.721397 313.068556 
" style="fill:none;stroke:#fb7d5d;stroke-linecap:square;stroke-width:3;"/>
   </g>
   <g id="line2d_18">
    <path clip-path="url(#pfc2a25ad41)" d="M 88.027182 20.802716 
L 90.822073 20.022362 
L 93.616964 20.376015 
L 96.411856 20.376134 
L 99.206747 20.376452 
L 102.001638 20.377123 
L 104.796529 20.378344 
L 107.59142 20.380355 
L 110.386311 20.383439 
L 113.181202 20.387925 
L 115.976093 20.394182 
L 118.770984 20.402627 
L 121.565875 20.413717 
L 124.360766 20.427955 
L 127.155657 20.445887 
L 129.950548 20.468103 
L 132.745439 20.495234 
L 135.54033 20.52796 
L 138.335221 20.566999 
L 141.130112 20.613116 
L 143.925004 20.667119 
L 146.719895 20.72986 
L 149.514786 20.802234 
L 152.309677 20.88518 
L 155.104568 20.97968 
L 157.899459 21.086761 
L 160.69435 21.207492 
L 163.489241 21.342987 
L 166.284132 21.494404 
L 169.079023 21.662942 
L 171.873914 21.849848 
L 174.668805 22.056409 
L 177.463696 22.283957 
L 180.258587 22.533867 
L 183.053478 22.80756 
L 185.848369 23.106497 
L 188.64326 23.432186 
L 191.438152 23.786177 
L 194.233043 24.170063 
L 197.027934 24.585483 
L 199.822825 25.034118 
L 202.617716 25.517692 
L 205.412607 26.037974 
L 208.207498 26.596777 
L 211.002389 27.195956 
L 213.79728 27.837412 
L 216.592171 28.523087 
L 219.387062 29.254969 
L 222.181953 30.035088 
L 224.976844 30.865518 
L 227.771735 31.748377 
L 230.566626 32.685828 
L 233.361517 33.680075 
L 236.156408 34.733368 
L 238.9513 35.847999 
L 241.746191 37.026304 
L 244.541082 38.270664 
L 247.335973 39.583502 
L 250.130864 40.967285 
L 252.925755 42.424525 
L 255.720646 43.957777 
L 258.515537 45.569637 
L 261.310428 47.26275 
L 264.105319 49.0398 
L 266.90021 50.903516 
L 269.695101 52.856673 
L 272.489992 54.902085 
L 275.284883 57.042615 
L 278.079774 59.281166 
L 280.874665 61.620685 
L 283.669556 64.064164 
L 286.464448 69.797331 
L 289.259339 77.716401 
L 292.05423 84.032578 
L 294.849121 90.056719 
L 297.644012 96.0467 
L 300.438903 102.109466 
L 303.233794 108.30297 
L 306.028685 114.663981 
L 308.823576 121.218504 
L 311.618467 127.986477 
L 314.413358 134.984158 
L 317.208249 142.225451 
L 320.00314 149.722694 
L 322.798031 157.48715 
L 325.592922 165.529327 
L 328.387813 173.859195 
L 331.182704 182.486343 
L 333.977596 191.420076 
L 336.772487 200.669506 
L 339.567378 210.2436 
L 342.362269 220.151231 
L 345.15716 230.401211 
L 347.952051 241.002315 
L 350.746942 251.963303 
L 353.541833 263.29294 
L 356.336724 275.000003 
L 359.131615 287.093297 
L 361.926506 299.581664 
L 364.721397 312.473985 
" style="fill:none;stroke:#f6583e;stroke-linecap:square;stroke-width:3;"/>
   </g>
   <g id="line2d_19">
    <path clip-path="url(#pfc2a25ad41)" d="M 88.027182 20.802716 
L 90.822073 20.043148 
L 93.616964 20.376015 
L 96.411856 20.376134 
L 99.206747 20.376452 
L 102.001638 20.377123 
L 104.796529 20.378344 
L 107.59142 20.380355 
L 110.386311 20.383439 
L 113.181202 20.387925 
L 115.976093 20.394182 
L 118.770984 20.402627 
L 121.565875 20.413717 
L 124.360766 20.427955 
L 127.155657 20.445887 
L 129.950548 20.468103 
L 132.745439 20.495234 
L 135.54033 20.52796 
L 138.335221 20.566999 
L 141.130112 20.613116 
L 143.925004 20.667119 
L 146.719895 20.72986 
L 149.514786 20.802234 
L 152.309677 20.88518 
L 155.104568 20.97968 
L 157.899459 21.086761 
L 160.69435 21.207492 
L 163.489241 21.342987 
L 166.284132 21.494404 
L 169.079023 21.662942 
L 171.873914 21.849848 
L 174.668805 22.056409 
L 177.463696 22.283957 
L 180.258587 22.533867 
L 183.053478 22.80756 
L 185.848369 23.106497 
L 188.64326 23.432186 
L 191.438152 23.786177 
L 194.233043 24.170063 
L 197.027934 24.585483 
L 199.822825 25.034118 
L 202.617716 25.517692 
L 205.412607 26.037974 
L 208.207498 26.596777 
L 211.002389 27.195956 
L 213.79728 27.837412 
L 216.592171 28.523087 
L 219.387062 29.254969 
L 222.181953 30.035088 
L 224.976844 30.865518 
L 227.771735 31.748377 
L 230.566626 32.685828 
L 233.361517 33.680075 
L 236.156408 34.733368 
L 238.9513 35.847999 
L 241.746191 37.026304 
L 244.541082 38.270664 
L 247.335973 39.583502 
L 250.130864 40.967285 
L 252.925755 42.424525 
L 255.720646 43.957777 
L 258.515537 45.569637 
L 261.310428 47.26275 
L 264.105319 49.0398 
L 266.90021 50.903516 
L 269.695101 52.856673 
L 272.489992 54.902085 
L 275.284883 57.042615 
L 278.079774 59.281166 
L 280.874665 61.620685 
L 283.669556 64.064164 
L 286.464448 66.614638 
L 289.259339 69.275187 
L 292.05423 80.268898 
L 294.849121 87.203082 
L 297.644012 93.673647 
L 300.438903 100.048795 
L 303.233794 106.467429 
L 306.028685 113.001191 
L 308.823576 119.694003 
L 311.618467 126.576105 
L 314.413358 133.670168 
L 317.208249 140.994329 
L 320.00314 148.563854 
L 322.798031 156.392103 
L 325.592922 164.491137 
L 328.387813 172.872102 
L 331.182704 181.545495 
L 333.977596 190.521342 
L 336.772487 199.809326 
L 339.567378 209.418885 
L 342.362269 219.359274 
L 345.15716 229.639625 
L 347.952051 240.268981 
L 350.746942 251.256331 
L 353.541833 262.610631 
L 356.336724 274.340828 
L 359.131615 286.45587 
L 361.926506 298.964725 
L 364.721397 311.876386 
" style="fill:none;stroke:#e43027;stroke-linecap:square;stroke-width:3;"/>
   </g>
   <g id="line2d_20">
    <path clip-path="url(#pfc2a25ad41)" d="M 88.027182 20.802716 
L 90.822073 20.065322 
L 93.616964 20.376015 
L 96.411856 20.376134 
L 99.206747 20.376452 
L 102.001638 20.377123 
L 104.796529 20.378344 
L 107.59142 20.380355 
L 110.386311 20.383439 
L 113.181202 20.387925 
L 115.976093 20.394182 
L 118.770984 20.402627 
L 121.565875 20.413717 
L 124.360766 20.427955 
L 127.155657 20.445887 
L 129.950548 20.468103 
L 132.745439 20.495234 
L 135.54033 20.52796 
L 138.335221 20.566999 
L 141.130112 20.613116 
L 143.925004 20.667119 
L 146.719895 20.72986 
L 149.514786 20.802234 
L 152.309677 20.88518 
L 155.104568 20.97968 
L 157.899459 21.086761 
L 160.69435 21.207492 
L 163.489241 21.342987 
L 166.284132 21.494404 
L 169.079023 21.662942 
L 171.873914 21.849848 
L 174.668805 22.056409 
L 177.463696 22.283957 
L 180.258587 22.533867 
L 183.053478 22.80756 
L 185.848369 23.106497 
L 188.64326 23.432186 
L 191.438152 23.786177 
L 194.233043 24.170063 
L 197.027934 24.585483 
L 199.822825 25.034118 
L 202.617716 25.517692 
L 205.412607 26.037974 
L 208.207498 26.596777 
L 211.002389 27.195956 
L 213.79728 27.837412 
L 216.592171 28.523087 
L 219.387062 29.254969 
L 222.181953 30.035088 
L 224.976844 30.865518 
L 227.771735 31.748377 
L 230.566626 32.685828 
L 233.361517 33.680075 
L 236.156408 34.733368 
L 238.9513 35.847999 
L 241.746191 37.026304 
L 244.541082 38.270664 
L 247.335973 39.583502 
L 250.130864 40.967285 
L 252.925755 42.424525 
L 255.720646 43.957777 
L 258.515537 45.569637 
L 261.310428 47.26275 
L 264.105319 49.0398 
L 266.90021 50.903516 
L 269.695101 52.856673 
L 272.489992 54.902085 
L 275.284883 57.042615 
L 278.079774 59.281166 
L 280.874665 61.620685 
L 283.669556 64.064164 
L 286.464448 66.614638 
L 289.259339 69.275187 
L 292.05423 72.048931 
L 294.849121 83.440173 
L 297.644012 90.871945 
L 300.438903 97.735069 
L 303.233794 104.465167 
L 306.028685 111.221006 
L 308.823576 118.083032 
L 311.618467 125.099926 
L 314.413358 132.304834 
L 317.208249 139.722353 
L 320.00314 147.371984 
L 322.798031 155.269997 
L 325.592922 163.43053 
L 328.387813 171.866259 
L 331.182704 180.588834 
L 333.977596 189.609172 
L 336.772487 198.937658 
L 339.567378 208.584289 
L 342.362269 218.558774 
L 345.15716 228.870617 
L 347.952051 239.529172 
L 350.746942 250.543686 
L 353.541833 261.923335 
L 356.336724 273.677253 
L 359.131615 285.814549 
L 361.926506 298.34433 
L 364.721397 311.27571 
" style="fill:none;stroke:#c3161b;stroke-linecap:square;stroke-width:3;"/>
   </g>
   <g id="line2d_21">
    <path clip-path="url(#pfc2a25ad41)" d="M 88.027182 20.802716 
L 90.822073 20.089206 
L 93.616964 20.376015 
L 96.411856 20.376134 
L 99.206747 20.376452 
L 102.001638 20.377123 
L 104.796529 20.378344 
L 107.59142 20.380355 
L 110.386311 20.383439 
L 113.181202 20.387925 
L 115.976093 20.394182 
L 118.770984 20.402627 
L 121.565875 20.413717 
L 124.360766 20.427955 
L 127.155657 20.445887 
L 129.950548 20.468103 
L 132.745439 20.495234 
L 135.54033 20.52796 
L 138.335221 20.566999 
L 141.130112 20.613116 
L 143.925004 20.667119 
L 146.719895 20.72986 
L 149.514786 20.802234 
L 152.309677 20.88518 
L 155.104568 20.97968 
L 157.899459 21.086761 
L 160.69435 21.207492 
L 163.489241 21.342987 
L 166.284132 21.494404 
L 169.079023 21.662942 
L 171.873914 21.849848 
L 174.668805 22.056409 
L 177.463696 22.283957 
L 180.258587 22.533867 
L 183.053478 22.80756 
L 185.848369 23.106497 
L 188.64326 23.432186 
L 191.438152 23.786177 
L 194.233043 24.170063 
L 197.027934 24.585483 
L 199.822825 25.034118 
L 202.617716 25.517692 
L 205.412607 26.037974 
L 208.207498 26.596777 
L 211.002389 27.195956 
L 213.79728 27.837412 
L 216.592171 28.523087 
L 219.387062 29.254969 
L 222.181953 30.035088 
L 224.976844 30.865518 
L 227.771735 31.748377 
L 230.566626 32.685828 
L 233.361517 33.680075 
L 236.156408 34.733368 
L 238.9513 35.847999 
L 241.746191 37.026304 
L 244.541082 38.270664 
L 247.335973 39.583502 
L 250.130864 40.967285 
L 252.925755 42.424525 
L 255.720646 43.957777 
L 258.515537 45.569637 
L 261.310428 47.26275 
L 264.105319 49.0398 
L 266.90021 50.903516 
L 269.695101 52.856673 
L 272.489992 54.902085 
L 275.284883 57.042615 
L 278.079774 59.281166 
L 280.874665 61.620685 
L 283.669556 64.064164 
L 286.464448 66.614638 
L 289.259339 69.275187 
L 292.05423 72.048931 
L 294.849121 74.939038 
L 297.644012 87.262484 
L 300.438903 95.043041 
L 303.233794 102.240325 
L 306.028685 109.294374 
L 308.823576 116.36896 
L 311.618467 123.547766 
L 314.413358 130.881621 
L 317.208249 138.405164 
L 320.00314 146.144088 
L 322.798031 154.118722 
L 325.592922 162.34599 
L 328.387813 170.840556 
L 331.182704 179.615534 
L 333.977596 188.682946 
L 336.772487 198.054028 
L 339.567378 207.739447 
L 342.362269 217.749447 
L 345.15716 228.093966 
L 347.952051 238.782712 
L 350.746942 249.825229 
L 353.541833 261.230941 
L 356.336724 273.009189 
L 359.131615 285.169263 
L 361.926506 297.720421 
L 364.721397 310.671911 
" style="fill:none;stroke:#9d0d14;stroke-linecap:square;stroke-width:3;"/>
   </g>
   <g id="line2d_22">
    <path clip-path="url(#pfc2a25ad41)" d="M 88.027182 20.802716 
L 90.822073 20.115268 
L 93.616964 20.376015 
L 96.411856 20.376134 
L 99.206747 20.376452 
L 102.001638 20.377123 
L 104.796529 20.378344 
L 107.59142 20.380355 
L 110.386311 20.383439 
L 113.181202 20.387925 
L 115.976093 20.394182 
L 118.770984 20.402627 
L 121.565875 20.413717 
L 124.360766 20.427955 
L 127.155657 20.445887 
L 129.950548 20.468103 
L 132.745439 20.495234 
L 135.54033 20.52796 
L 138.335221 20.566999 
L 141.130112 20.613116 
L 143.925004 20.667119 
L 146.719895 20.72986 
L 149.514786 20.802234 
L 152.309677 20.88518 
L 155.104568 20.97968 
L 157.899459 21.086761 
L 160.69435 21.207492 
L 163.489241 21.342987 
L 166.284132 21.494404 
L 169.079023 21.662942 
L 171.873914 21.849848 
L 174.668805 22.056409 
L 177.463696 22.283957 
L 180.258587 22.533867 
L 183.053478 22.80756 
L 185.848369 23.106497 
L 188.64326 23.432186 
L 191.438152 23.786177 
L 194.233043 24.170063 
L 197.027934 24.585483 
L 199.822825 25.034118 
L 202.617716 25.517692 
L 205.412607 26.037974 
L 208.207498 26.596777 
L 211.002389 27.195956 
L 213.79728 27.837412 
L 216.592171 28.523087 
L 219.387062 29.254969 
L 222.181953 30.035088 
L 224.976844 30.865518 
L 227.771735 31.748377 
L 230.566626 32.685828 
L 233.361517 33.680075 
L 236.156408 34.733368 
L 238.9513 35.847999 
L 241.746191 37.026304 
L 244.541082 38.270664 
L 247.335973 39.583502 
L 250.130864 40.967285 
L 252.925755 42.424525 
L 255.720646 43.957777 
L 258.515537 45.569637 
L 261.310428 47.26275 
L 264.105319 49.0398 
L 266.90021 50.903516 
L 269.695101 52.856673 
L 272.489992 54.902085 
L 275.284883 57.042615 
L 278.079774 59.281166 
L 280.874665 61.620685 
L 283.669556 64.064164 
L 286.464448 66.614638 
L 289.259339 69.275187 
L 292.05423 72.048931 
L 294.849121 74.939038 
L 297.644012 80.494826 
L 300.438903 91.688493 
L 303.233794 99.696465 
L 306.028685 107.177824 
L 308.823576 114.529023 
L 311.618467 121.906525 
L 314.413358 129.392478 
L 317.208249 137.037569 
L 320.00314 144.876688 
L 322.798031 152.935876 
L 325.592922 161.235817 
L 328.387813 169.793767 
L 331.182704 178.624696 
L 333.977596 187.741993 
L 336.772487 197.15793 
L 339.567378 206.883972 
L 342.362269 216.930995 
L 345.15716 227.309438 
L 347.952051 238.029419 
L 350.746942 249.100816 
L 353.541833 260.533333 
L 356.336724 272.336544 
L 359.131615 284.519936 
L 361.926506 297.092937 
L 364.721397 310.064939 
" style="fill:none;stroke:#67000d;stroke-linecap:square;stroke-width:3;"/>
   </g>
   <g id="line2d_23">
    <path clip-path="url(#pfc2a25ad41)" d="M 88.027182 19.949257 
L 90.822073 19.949257 
L 93.616964 19.949257 
L 96.411856 19.949257 
L 99.206747 19.949257 
L 102.001638 19.949257 
L 104.796529 19.949257 
L 107.59142 19.949257 
L 110.386311 19.949257 
L 113.181202 19.949257 
L 115.976093 19.949257 
L 118.770984 19.949257 
L 121.565875 19.949257 
L 124.360766 19.949257 
L 127.155657 19.949257 
L 129.950548 19.949257 
L 132.745439 19.949257 
L 135.54033 19.949257 
L 138.335221 19.949257 
L 141.130112 19.949257 
L 143.925004 19.949257 
L 146.719895 19.949257 
L 149.514786 19.949257 
L 152.309677 19.949257 
L 155.104568 19.949257 
L 157.899459 19.949257 
L 160.69435 19.949257 
L 163.489241 19.949257 
L 166.284132 19.949257 
L 169.079023 19.949257 
L 171.873914 19.949257 
L 174.668805 19.949257 
L 177.463696 19.949257 
L 180.258587 19.949257 
L 183.053478 19.949257 
L 185.848369 19.949257 
L 188.64326 19.949257 
L 191.438152 19.949257 
L 194.233043 19.949257 
L 197.027934 19.949257 
L 199.822825 19.949257 
L 202.617716 19.949257 
L 205.412607 19.949257 
L 208.207498 19.949257 
L 211.002389 19.949257 
L 213.79728 19.949257 
L 216.592171 19.949257 
L 219.387062 19.949257 
L 222.181953 19.949257 
L 224.976844 19.949257 
L 227.771735 19.949257 
L 230.566626 19.949257 
L 233.361517 19.949257 
L 236.156408 19.949257 
L 238.9513 19.949257 
L 241.746191 19.949257 
L 244.541082 19.949257 
L 247.335973 19.949257 
L 250.130864 19.949257 
L 252.925755 19.949257 
L 255.720646 19.949257 
L 258.515537 19.949257 
L 261.310428 19.949257 
L 264.105319 19.949257 
L 266.90021 19.949257 
L 269.695101 19.949257 
L 272.489992 19.949257 
L 275.284883 19.949257 
L 278.079774 19.949257 
L 280.874665 19.949257 
L 283.669556 19.949257 
L 286.464448 19.949257 
L 289.259339 19.949257 
L 292.05423 19.949257 
L 294.849121 19.949257 
L 297.644012 19.949257 
L 300.438903 19.949257 
L 303.233794 19.949257 
L 306.028685 19.949257 
L 308.823576 19.949257 
L 311.618467 19.949257 
L 314.413358 19.949257 
L 317.208249 19.949257 
L 320.00314 19.949257 
L 322.798031 19.949257 
L 325.592922 19.949257 
L 328.387813 19.949257 
L 331.182704 19.949257 
L 333.977596 19.949257 
L 336.772487 19.949257 
L 339.567378 19.949257 
L 342.362269 19.949257 
L 345.15716 19.949257 
L 347.952051 19.949257 
L 350.746942 19.949257 
L 353.541833 19.949257 
L 356.336724 19.949257 
L 359.131615 19.949257 
L 361.926506 19.949257 
L 364.721397 19.949257 
" style="fill:none;stroke:#000000;stroke-dasharray:5.55,2.4;stroke-dashoffset:0;stroke-width:1.5;"/>
   </g>
   <g id="patch_3">
    <path d="M 74.192472 329.66 
L 74.192472 3.5 
" style="fill:none;stroke:#000000;stroke-linecap:square;stroke-linejoin:miter;stroke-width:0.8;"/>
   </g>
   <g id="patch_4">
    <path d="M 378.556108 329.66 
L 378.556108 3.5 
" style="fill:none;stroke:#000000;stroke-linecap:square;stroke-linejoin:miter;stroke-width:0.8;"/>
   </g>
   <g id="patch_5">
    <path d="M 74.192472 329.66 
L 378.556108 329.66 
" style="fill:none;stroke:#000000;stroke-linecap:square;stroke-linejoin:miter;stroke-width:0.8;"/>
   </g>
   <g id="patch_6">
    <path d="M 74.192472 3.5 
L 378.556108 3.5 
" style="fill:none;stroke:#000000;stroke-linecap:square;stroke-linejoin:miter;stroke-width:0.8;"/>
   </g>
  </g>
  <g id="axes_2">
   <g id="patch_7">
    <path d="M 439.428835 329.66 
L 743.792472 329.66 
L 743.792472 3.5 
L 439.428835 3.5 
z
" style="fill:#ffffff;"/>
   </g>
   <g id="matplotlib.axis_3">
    <g id="xtick_6">
     <g id="line2d_24">
      <g>
       <use style="stroke:#000000;stroke-width:0.8;" x="453.263546" xlink:href="#m9c7ac7b49f" y="329.66"/>
      </g>
     </g>
     <g id="text_16">
      <!-- $0$ -->
      <g transform="translate(448.282226 350.169155)scale(0.2 -0.2)">
       <use transform="scale(0.996264)" xlink:href="#Nimbus_Roman_No9_L_Regular-48"/>
      </g>
     </g>
    </g>
    <g id="xtick_7">
     <g id="line2d_25">
      <g>
       <use style="stroke:#000000;stroke-width:0.8;" x="522.4371" xlink:href="#m9c7ac7b49f" y="329.66"/>
      </g>
     </g>
     <g id="text_17">
      <!-- $2$ -->
      <g transform="translate(517.45578 350.169155)scale(0.2 -0.2)">
       <use transform="scale(0.996264)" xlink:href="#Nimbus_Roman_No9_L_Regular-50"/>
      </g>
     </g>
    </g>
    <g id="xtick_8">
     <g id="line2d_26">
      <g>
       <use style="stroke:#000000;stroke-width:0.8;" x="591.610653" xlink:href="#m9c7ac7b49f" y="329.66"/>
      </g>
     </g>
     <g id="text_18">
      <!-- $4$ -->
      <g transform="translate(586.629333 350.169155)scale(0.2 -0.2)">
       <use transform="scale(0.996264)" xlink:href="#Nimbus_Roman_No9_L_Regular-52"/>
      </g>
     </g>
    </g>
    <g id="xtick_9">
     <g id="line2d_27">
      <g>
       <use style="stroke:#000000;stroke-width:0.8;" x="660.784207" xlink:href="#m9c7ac7b49f" y="329.66"/>
      </g>
     </g>
     <g id="text_19">
      <!-- $6$ -->
      <g transform="translate(655.802887 350.169155)scale(0.2 -0.2)">
       <use transform="scale(0.996264)" xlink:href="#Nimbus_Roman_No9_L_Regular-54"/>
      </g>
     </g>
    </g>
    <g id="xtick_10">
     <g id="line2d_28">
      <g>
       <use style="stroke:#000000;stroke-width:0.8;" x="729.957761" xlink:href="#m9c7ac7b49f" y="329.66"/>
      </g>
     </g>
     <g id="text_20">
      <!-- $8$ -->
      <g transform="translate(724.976441 350.169155)scale(0.2 -0.2)">
       <use transform="scale(0.996264)" xlink:href="#Nimbus_Roman_No9_L_Regular-56"/>
      </g>
     </g>
    </g>
    <g id="text_21">
     <!-- Wave number (q) -->
     <g transform="translate(522.490087 371.991968)scale(0.2 -0.2)">
      <use transform="scale(0.996264)" xlink:href="#Nimbus_Roman_No9_L_Regular-87"/>
      <use transform="translate(86.077326 0)scale(0.996264)" xlink:href="#Nimbus_Roman_No9_L_Regular-97"/>
      <use transform="translate(128.318884 0)scale(0.996264)" xlink:href="#Nimbus_Roman_No9_L_Regular-118"/>
      <use transform="translate(176.638691 0)scale(0.996264)" xlink:href="#Nimbus_Roman_No9_L_Regular-101"/>
      <use transform="translate(245.77886 0)scale(0.996264)" xlink:href="#Nimbus_Roman_No9_L_Regular-110"/>
      <use transform="translate(295.592061 0)scale(0.996264)" xlink:href="#Nimbus_Roman_No9_L_Regular-117"/>
      <use transform="translate(345.405261 0)scale(0.996264)" xlink:href="#Nimbus_Roman_No9_L_Regular-109"/>
      <use transform="translate(422.913631 0)scale(0.996264)" xlink:href="#Nimbus_Roman_No9_L_Regular-98"/>
      <use transform="translate(472.726832 0)scale(0.996264)" xlink:href="#Nimbus_Roman_No9_L_Regular-101"/>
      <use transform="translate(516.960401 0)scale(0.996264)" xlink:href="#Nimbus_Roman_No9_L_Regular-114"/>
      <use transform="translate(575.042231 0)scale(0.996264)" xlink:href="#Nimbus_Roman_No9_L_Regular-40"/>
      <use transform="translate(608.21746 0)scale(0.996264)" xlink:href="#Nimbus_Roman_No9_L_Regular-113"/>
      <use transform="translate(658.030661 0)scale(0.996264)" xlink:href="#Nimbus_Roman_No9_L_Regular-41"/>
     </g>
    </g>
   </g>
   <g id="matplotlib.axis_4">
    <g id="ytick_9">
     <g id="line2d_29">
      <g>
       <use style="stroke:#000000;stroke-width:0.8;" x="439.428835" xlink:href="#m5cad40cd5d" y="314.834545"/>
      </g>
     </g>
     <g id="text_22">
      <!-- $0$ -->
      <g transform="translate(422.466195 321.589123)scale(0.2 -0.2)">
       <use transform="scale(0.996264)" xlink:href="#Nimbus_Roman_No9_L_Regular-48"/>
      </g>
     </g>
    </g>
    <g id="ytick_10">
     <g id="line2d_30">
      <g>
       <use style="stroke:#000000;stroke-width:0.8;" x="439.428835" xlink:href="#m5cad40cd5d" y="253.790578"/>
      </g>
     </g>
     <g id="text_23">
      <!-- $5$ -->
      <g transform="translate(422.466195 260.545156)scale(0.2 -0.2)">
       <use transform="scale(0.996264)" xlink:href="#Nimbus_Roman_No9_L_Regular-53"/>
      </g>
     </g>
    </g>
    <g id="ytick_11">
     <g id="line2d_31">
      <g>
       <use style="stroke:#000000;stroke-width:0.8;" x="439.428835" xlink:href="#m5cad40cd5d" y="192.746611"/>
      </g>
     </g>
     <g id="text_24">
      <!-- $10$ -->
      <g transform="translate(412.503555 199.501188)scale(0.2 -0.2)">
       <use transform="scale(0.996264)" xlink:href="#Nimbus_Roman_No9_L_Regular-49"/>
       <use transform="translate(49.8132 0)scale(0.996264)" xlink:href="#Nimbus_Roman_No9_L_Regular-48"/>
      </g>
     </g>
    </g>
    <g id="ytick_12">
     <g id="line2d_32">
      <g>
       <use style="stroke:#000000;stroke-width:0.8;" x="439.428835" xlink:href="#m5cad40cd5d" y="131.702643"/>
      </g>
     </g>
     <g id="text_25">
      <!-- $15$ -->
      <g transform="translate(412.503555 138.457221)scale(0.2 -0.2)">
       <use transform="scale(0.996264)" xlink:href="#Nimbus_Roman_No9_L_Regular-49"/>
       <use transform="translate(49.8132 0)scale(0.996264)" xlink:href="#Nimbus_Roman_No9_L_Regular-53"/>
      </g>
     </g>
    </g>
    <g id="ytick_13">
     <g id="line2d_33">
      <g>
       <use style="stroke:#000000;stroke-width:0.8;" x="439.428835" xlink:href="#m5cad40cd5d" y="70.658676"/>
      </g>
     </g>
     <g id="text_26">
      <!-- $20$ -->
      <g transform="translate(412.503555 77.413253)scale(0.2 -0.2)">
       <use transform="scale(0.996264)" xlink:href="#Nimbus_Roman_No9_L_Regular-50"/>
       <use transform="translate(49.8132 0)scale(0.996264)" xlink:href="#Nimbus_Roman_No9_L_Regular-48"/>
      </g>
     </g>
    </g>
    <g id="ytick_14">
     <g id="line2d_34">
      <g>
       <use style="stroke:#000000;stroke-width:0.8;" x="439.428835" xlink:href="#m5cad40cd5d" y="9.614708"/>
      </g>
     </g>
     <g id="text_27">
      <!-- $25$ -->
      <g transform="translate(412.503555 16.369286)scale(0.2 -0.2)">
       <use transform="scale(0.996264)" xlink:href="#Nimbus_Roman_No9_L_Regular-50"/>
       <use transform="translate(49.8132 0)scale(0.996264)" xlink:href="#Nimbus_Roman_No9_L_Regular-53"/>
      </g>
     </g>
    </g>
    <g id="text_28">
     <!-- Im($\lambda_{max}$) -->
     <defs>
      <path d="M 11.5 10.859375 
C 11.5 3.390625 10.203125 2.1875 1.796875 1.890625 
L 1.796875 0 
L 31.5 0 
L 31.5 1.890625 
C 23.296875 2.1875 21.703125 3.59375 21.703125 10.859375 
L 21.703125 55.125 
C 21.703125 62.40625 23.09375 63.703125 31.5 64.09375 
L 31.5 66 
L 1.796875 66 
L 1.796875 64.09375 
C 10.296875 63.59375 11.5 62.5 11.5 55.125 
z
" id="Nimbus_Roman_No9_L_Regular-73"/>
     </defs>
     <g transform="translate(404.189897 202.306347)rotate(-90)scale(0.2 -0.2)">
      <use transform="translate(0 14.943915)scale(0.996264)" xlink:href="#Nimbus_Roman_No9_L_Regular-73"/>
      <use transform="translate(33.17523 14.943915)scale(0.996264)" xlink:href="#Nimbus_Roman_No9_L_Regular-109"/>
      <use transform="translate(110.6836 14.943915)scale(0.996264)" xlink:href="#Nimbus_Roman_No9_L_Regular-40"/>
      <use transform="translate(143.85883 14.943915)scale(0.996264)" xlink:href="#Standard_Symbols_L-108"/>
      <use transform="translate(198.553596 0)scale(0.737241)" xlink:href="#Nimbus_Roman_No9_L_Regular_Italic-109"/>
      <use transform="translate(251.782181 0)scale(0.737241)" xlink:href="#Nimbus_Roman_No9_L_Regular_Italic-97"/>
      <use transform="translate(288.644223 0)scale(0.737241)" xlink:href="#Nimbus_Roman_No9_L_Regular_Italic-120"/>
      <use transform="translate(322.095851 14.943915)scale(0.996264)" xlink:href="#Nimbus_Roman_No9_L_Regular-41"/>
     </g>
    </g>
   </g>
   <g id="line2d_35">
    <path clip-path="url(#pd35bdbfd40)" d="M 453.263546 314.834545 
L 456.058437 314.834545 
L 458.853328 314.834545 
L 461.648219 314.834545 
L 464.44311 314.834545 
L 467.238001 314.834545 
L 470.032892 314.834545 
L 472.827783 314.834545 
L 475.622674 314.834545 
L 478.417566 314.834545 
L 481.212457 314.834545 
L 484.007348 314.834545 
L 486.802239 314.834545 
L 489.59713 314.834545 
L 492.392021 314.834545 
L 495.186912 314.834545 
L 497.981803 314.834545 
L 500.776694 314.834545 
L 503.571585 314.834545 
L 506.366476 314.834545 
L 509.161367 314.834545 
L 511.956258 314.834545 
L 514.751149 314.834545 
L 517.54604 314.834545 
L 520.340931 314.834545 
L 523.135822 314.834545 
L 525.930714 314.834545 
L 528.725605 314.834545 
L 531.520496 314.834545 
L 534.315387 314.834545 
L 537.110278 314.834545 
L 539.905169 314.834545 
L 542.70006 314.834545 
L 545.494951 314.834545 
L 548.289842 314.834545 
L 551.084733 314.834545 
L 553.879624 314.834545 
L 556.674515 314.834545 
L 559.469406 314.834545 
L 562.264297 314.834545 
L 565.059188 314.834545 
L 567.854079 314.834545 
L 570.64897 314.834545 
L 573.443862 314.834545 
L 576.238753 314.834545 
L 579.033644 314.834545 
L 581.828535 314.834545 
L 584.623426 314.834545 
L 587.418317 314.834545 
L 590.213208 314.834545 
L 593.008099 300.331121 
L 595.80299 288.280792 
L 598.597881 280.428482 
L 601.392772 274.531553 
L 604.187663 270.109997 
L 606.982554 267.082855 
L 609.777445 265.567339 
L 612.572336 265.860594 
L 615.367227 268.529094 
L 618.162118 274.739859 
L 620.95701 287.933014 
L 623.751901 314.834545 
L 626.546792 314.834545 
L 629.341683 314.834545 
L 632.136574 314.834545 
L 634.931465 314.834545 
L 637.726356 314.834545 
L 640.521247 314.834545 
L 643.316138 314.834545 
L 646.111029 314.834545 
L 648.90592 314.834545 
L 651.700811 314.834545 
L 654.495702 314.834545 
L 657.290593 314.834545 
L 660.085484 314.834545 
L 662.880375 314.834545 
L 665.675266 314.834545 
L 668.470158 314.834545 
L 671.265049 314.834545 
L 674.05994 314.834545 
L 676.854831 314.834545 
L 679.649722 314.834545 
L 682.444613 314.834545 
L 685.239504 314.834545 
L 688.034395 314.834545 
L 690.829286 314.834545 
L 693.624177 314.834545 
L 696.419068 314.834545 
L 699.213959 314.834545 
L 702.00885 314.834545 
L 704.803741 314.834545 
L 707.598632 314.834545 
L 710.393523 314.834545 
L 713.188414 314.834545 
L 715.983306 314.834545 
L 718.778197 314.834545 
L 721.573088 314.834545 
L 724.367979 314.834545 
L 727.16287 314.834545 
L 729.957761 314.834545 
" style="fill:none;stroke:#fee5d8;stroke-linecap:square;stroke-width:3;"/>
   </g>
   <g id="line2d_36">
    <path clip-path="url(#pd35bdbfd40)" d="M 453.263546 314.834545 
L 456.058437 314.834545 
L 458.853328 314.834545 
L 461.648219 314.834545 
L 464.44311 312.021964 
L 467.238001 309.178894 
L 470.032892 307.079565 
L 472.827783 305.261203 
L 475.622674 303.623014 
L 478.417566 302.130319 
L 481.212457 300.770422 
L 484.007348 299.539896 
L 486.802239 298.439705 
L 489.59713 297.472977 
L 492.392021 296.64382 
L 495.186912 295.95662 
L 497.981803 295.415545 
L 500.776694 295.024148 
L 503.571585 294.784979 
L 506.366476 294.699162 
L 509.161367 294.765867 
L 511.956258 294.981633 
L 514.751149 295.339423 
L 517.54604 295.827321 
L 520.340931 296.426673 
L 523.135822 297.109498 
L 525.930714 297.834991 
L 528.725605 298.545226 
L 531.520496 299.160989 
L 534.315387 299.580407 
L 537.110278 299.6853 
L 539.905169 299.359753 
L 542.70006 298.517425 
L 545.494951 297.12227 
L 548.289842 295.188335 
L 551.084733 292.76195 
L 553.879624 289.90135 
L 556.674515 286.663581 
L 559.469406 283.099274 
L 562.264297 279.252091 
L 565.059188 275.160082 
L 567.854079 270.857481 
L 570.64897 266.376374 
L 573.443862 261.748096 
L 576.238753 257.004386 
L 579.033644 252.178347 
L 581.828535 247.305302 
L 584.623426 242.423595 
L 587.418317 237.575411 
L 590.213208 232.807644 
L 593.008099 228.172906 
L 595.80299 223.730715 
L 598.597881 219.548981 
L 601.392772 215.705901 
L 604.187663 212.292469 
L 606.982554 209.415897 
L 609.777445 207.204437 
L 612.572336 205.81443 
L 615.367227 205.441093 
L 618.162118 206.335922 
L 620.95701 208.83674 
L 623.751901 213.42444 
L 626.546792 220.844224 
L 629.341683 232.417931 
L 632.136574 251.162084 
L 634.931465 292.422559 
L 637.726356 314.834545 
L 640.521247 314.834545 
L 643.316138 314.834545 
L 646.111029 314.834545 
L 648.90592 314.834545 
L 651.700811 314.834545 
L 654.495702 314.834545 
L 657.290593 314.834545 
L 660.085484 314.834545 
L 662.880375 314.834545 
L 665.675266 314.834545 
L 668.470158 314.834545 
L 671.265049 314.834545 
L 674.05994 314.834545 
L 676.854831 314.834545 
L 679.649722 314.834545 
L 682.444613 314.834545 
L 685.239504 314.834545 
L 688.034395 314.834545 
L 690.829286 314.834545 
L 693.624177 314.834545 
L 696.419068 314.834545 
L 699.213959 314.834545 
L 702.00885 314.834545 
L 704.803741 314.834545 
L 707.598632 314.834545 
L 710.393523 314.834545 
L 713.188414 314.834545 
L 715.983306 314.834545 
L 718.778197 314.834545 
L 721.573088 314.834545 
L 724.367979 314.834545 
L 727.16287 314.834545 
L 729.957761 314.834545 
" style="fill:none;stroke:#fdc6b0;stroke-linecap:square;stroke-width:3;"/>
   </g>
   <g id="line2d_37">
    <path clip-path="url(#pd35bdbfd40)" d="M 453.263546 314.834545 
L 456.058437 314.834545 
L 458.853328 314.834545 
L 461.648219 310.986903 
L 464.44311 307.44334 
L 467.238001 304.588312 
L 470.032892 301.979268 
L 472.827783 299.513751 
L 475.622674 297.154737 
L 478.417566 294.886768 
L 481.212457 292.703229 
L 484.007348 290.601489 
L 486.802239 288.580698 
L 489.59713 286.640634 
L 492.392021 284.781028 
L 495.186912 283.001132 
L 497.981803 281.299394 
L 500.776694 279.673215 
L 503.571585 278.118733 
L 506.366476 276.630647 
L 509.161367 275.202055 
L 511.956258 273.824317 
L 514.751149 272.486953 
L 517.54604 271.177571 
L 520.340931 269.881853 
L 523.135822 268.5836 
L 525.930714 267.264857 
L 528.725605 265.906128 
L 531.520496 264.486695 
L 534.315387 262.985033 
L 537.110278 261.379329 
L 539.905169 259.64807 
L 542.70006 257.77069 
L 545.494951 255.728226 
L 548.289842 253.503942 
L 551.084733 251.083892 
L 553.879624 248.457385 
L 556.674515 245.617328 
L 559.469406 242.560455 
L 562.264297 239.287445 
L 565.059188 235.802951 
L 567.854079 232.115572 
L 570.64897 228.237795 
L 573.443862 224.185938 
L 576.238753 219.980118 
L 579.033644 215.644271 
L 581.828535 211.206238 
L 584.623426 206.697924 
L 587.418317 202.155563 
L 590.213208 197.620095 
L 593.008099 193.137667 
L 595.80299 188.760306 
L 598.597881 184.546786 
L 601.392772 180.563755 
L 604.187663 176.887201 
L 606.982554 173.604383 
L 609.777445 170.816412 
L 612.572336 168.641785 
L 615.367227 167.221335 
L 618.162118 166.725401 
L 620.95701 167.364627 
L 623.751901 169.407016 
L 626.546792 173.206539 
L 629.341683 179.255032 
L 632.136574 188.286835 
L 634.931465 201.52474 
L 637.726356 221.420927 
L 640.521247 255.411738 
L 643.316138 314.834545 
L 646.111029 314.834545 
L 648.90592 314.834545 
L 651.700811 314.834545 
L 654.495702 314.834545 
L 657.290593 314.834545 
L 660.085484 314.834545 
L 662.880375 314.834545 
L 665.675266 314.834545 
L 668.470158 314.834545 
L 671.265049 314.834545 
L 674.05994 314.834545 
L 676.854831 314.834545 
L 679.649722 314.834545 
L 682.444613 314.834545 
L 685.239504 314.834545 
L 688.034395 314.834545 
L 690.829286 314.834545 
L 693.624177 314.834545 
L 696.419068 314.834545 
L 699.213959 314.834545 
L 702.00885 314.834545 
L 704.803741 314.834545 
L 707.598632 314.834545 
L 710.393523 314.834545 
L 713.188414 314.834545 
L 715.983306 314.834545 
L 718.778197 314.834545 
L 721.573088 314.834545 
L 724.367979 314.834545 
L 727.16287 314.834545 
L 729.957761 314.834545 
" style="fill:none;stroke:#fca285;stroke-linecap:square;stroke-width:3;"/>
   </g>
   <g id="line2d_38">
    <path clip-path="url(#pd35bdbfd40)" d="M 453.263546 314.834545 
L 456.058437 314.834545 
L 458.853328 314.834545 
L 461.648219 308.424869 
L 464.44311 304.767311 
L 467.238001 301.493473 
L 470.032892 298.391414 
L 472.827783 295.397349 
L 475.622674 292.486104 
L 478.417566 289.646646 
L 481.212457 286.874023 
L 484.007348 284.166065 
L 486.802239 281.521813 
L 489.59713 278.940684 
L 492.392021 276.421978 
L 495.186912 273.964552 
L 497.981803 271.566599 
L 500.776694 269.225484 
L 503.571585 266.937607 
L 506.366476 264.698311 
L 509.161367 262.501795 
L 511.956258 260.341064 
L 514.751149 258.207896 
L 517.54604 256.092838 
L 520.340931 253.985229 
L 523.135822 251.873267 
L 525.930714 249.744104 
L 528.725605 247.583984 
L 531.520496 245.378432 
L 534.315387 243.112477 
L 537.110278 240.770919 
L 539.905169 238.33863 
L 542.70006 235.80089 
L 545.494951 233.14373 
L 548.289842 230.354298 
L 551.084733 227.421205 
L 553.879624 224.334873 
L 556.674515 221.087848 
L 559.469406 217.675084 
L 562.264297 214.094197 
L 565.059188 210.345681 
L 567.854079 206.433093 
L 570.64897 202.363216 
L 573.443862 198.146204 
L 576.238753 193.795718 
L 579.033644 189.329081 
L 581.828535 184.767434 
L 584.623426 180.135948 
L 587.418317 175.464061 
L 590.213208 170.785796 
L 593.008099 166.140159 
L 595.80299 161.571634 
L 598.597881 157.13083 
L 601.392772 152.875285 
L 604.187663 148.870507 
L 606.982554 145.191313 
L 609.777445 141.92357 
L 612.572336 139.166504 
L 615.367227 137.035804 
L 618.162118 135.667902 
L 620.95701 135.226029 
L 623.751901 135.909077 
L 626.546792 137.965092 
L 629.341683 141.712882 
L 632.136574 147.578863 
L 634.931465 156.165308 
L 637.726356 168.391952 
L 640.521247 185.843254 
L 643.316138 211.895666 
L 646.111029 258.776077 
L 648.90592 314.834545 
L 651.700811 314.834545 
L 654.495702 314.834545 
L 657.290593 314.834545 
L 660.085484 314.834545 
L 662.880375 314.834545 
L 665.675266 314.834545 
L 668.470158 314.834545 
L 671.265049 314.834545 
L 674.05994 314.834545 
L 676.854831 314.834545 
L 679.649722 314.834545 
L 682.444613 314.834545 
L 685.239504 314.834545 
L 688.034395 314.834545 
L 690.829286 314.834545 
L 693.624177 314.834545 
L 696.419068 314.834545 
L 699.213959 314.834545 
L 702.00885 314.834545 
L 704.803741 314.834545 
L 707.598632 314.834545 
L 710.393523 314.834545 
L 713.188414 314.834545 
L 715.983306 314.834545 
L 718.778197 314.834545 
L 721.573088 314.834545 
L 724.367979 314.834545 
L 727.16287 314.834545 
L 729.957761 314.834545 
" style="fill:none;stroke:#fb7d5d;stroke-linecap:square;stroke-width:3;"/>
   </g>
   <g id="line2d_39">
    <path clip-path="url(#pd35bdbfd40)" d="M 453.263546 314.834545 
L 456.058437 314.834545 
L 458.853328 311.775415 
L 461.648219 306.627015 
L 464.44311 302.666205 
L 467.238001 298.992099 
L 470.032892 295.456852 
L 472.827783 292.011696 
L 475.622674 288.636644 
L 478.417566 285.322739 
L 481.212457 282.065865 
L 484.007348 278.864135 
L 486.802239 275.716623 
L 489.59713 272.622677 
L 492.392021 269.581515 
L 495.186912 266.591966 
L 497.981803 263.652284 
L 500.776694 260.760024 
L 503.571585 257.911944 
L 506.366476 255.103932 
L 509.161367 252.330951 
L 511.956258 249.587015 
L 514.751149 246.865169 
L 517.54604 244.157498 
L 520.340931 241.455161 
L 523.135822 238.748442 
L 525.930714 236.02683 
L 528.725605 233.279128 
L 531.520496 230.493587 
L 534.315387 227.658068 
L 537.110278 224.760235 
L 539.905169 221.787767 
L 542.70006 218.728594 
L 545.494951 215.571151 
L 548.289842 212.304639 
L 551.084733 208.919304 
L 553.879624 205.406698 
L 556.674515 201.759954 
L 559.469406 197.97404 
L 562.264297 194.046006 
L 565.059188 189.975214 
L 567.854079 185.763553 
L 570.64897 181.415647 
L 573.443862 176.939049 
L 576.238753 172.344431 
L 579.033644 167.645779 
L 581.828535 162.860598 
L 584.623426 158.010136 
L 587.418317 153.119639 
L 590.213208 148.218649 
L 593.008099 143.341364 
L 595.80299 138.52707 
L 598.597881 133.820669 
L 601.392772 129.273346 
L 604.187663 124.943381 
L 606.982554 120.8972 
L 609.777445 117.21069 
L 612.572336 113.970914 
L 615.367227 111.278349 
L 618.162118 109.249882 
L 620.95701 108.022888 
L 623.751901 107.760935 
L 626.546792 108.662008 
L 629.341683 110.970825 
L 632.136574 114.998102 
L 634.931465 121.152482 
L 637.726356 129.997422 
L 640.521247 142.362992 
L 643.316138 159.598305 
L 646.111029 184.2801 
L 648.90592 223.229359 
L 651.700811 314.834545 
L 654.495702 314.834545 
L 657.290593 314.834545 
L 660.085484 314.834545 
L 662.880375 314.834545 
L 665.675266 314.834545 
L 668.470158 314.834545 
L 671.265049 314.834545 
L 674.05994 314.834545 
L 676.854831 314.834545 
L 679.649722 314.834545 
L 682.444613 314.834545 
L 685.239504 314.834545 
L 688.034395 314.834545 
L 690.829286 314.834545 
L 693.624177 314.834545 
L 696.419068 314.834545 
L 699.213959 314.834545 
L 702.00885 314.834545 
L 704.803741 314.834545 
L 707.598632 314.834545 
L 710.393523 314.834545 
L 713.188414 314.834545 
L 715.983306 314.834545 
L 718.778197 314.834545 
L 721.573088 314.834545 
L 724.367979 314.834545 
L 727.16287 314.834545 
L 729.957761 314.834545 
" style="fill:none;stroke:#f6583e;stroke-linecap:square;stroke-width:3;"/>
   </g>
   <g id="line2d_40">
    <path clip-path="url(#pd35bdbfd40)" d="M 453.263546 314.834545 
L 456.058437 314.834545 
L 458.853328 310.247814 
L 461.648219 305.157605 
L 464.44311 300.877905 
L 467.238001 296.835045 
L 470.032892 292.911648 
L 472.827783 289.067118 
L 475.622674 285.284466 
L 478.417566 281.555976 
L 481.212457 277.878057 
L 484.007348 274.249017 
L 486.802239 270.667979 
L 489.59713 267.134289 
L 492.392021 263.647163 
L 495.186912 260.205463 
L 497.981803 256.807546 
L 500.776694 253.45115 
L 503.571585 250.133322 
L 506.366476 246.850353 
L 509.161367 243.597745 
L 511.956258 240.370186 
L 514.751149 237.161545 
L 517.54604 233.964886 
L 520.340931 230.772492 
L 523.135822 227.57592 
L 525.930714 224.366063 
L 528.725605 221.133243 
L 531.520496 217.867319 
L 534.315387 214.557822 
L 537.110278 211.1941 
L 539.905169 207.765499 
L 542.70006 204.261543 
L 545.494951 200.672144 
L 548.289842 196.987819 
L 551.084733 193.199909 
L 553.879624 189.300817 
L 556.674515 185.284234 
L 559.469406 181.145375 
L 562.264297 176.881204 
L 565.059188 172.490657 
L 567.854079 167.974859 
L 570.64897 163.337333 
L 573.443862 158.584211 
L 576.238753 153.724434 
L 579.033644 148.769967 
L 581.828535 143.736013 
L 584.623426 138.641247 
L 587.418317 133.508072 
L 590.213208 128.362907 
L 593.008099 123.236524 
L 595.80299 118.164436 
L 598.597881 113.187366 
L 601.392772 108.35182 
L 604.187663 103.710775 
L 606.982554 99.324543 
L 609.777445 95.261845 
L 612.572336 91.601178 
L 615.367227 88.432563 
L 618.162118 85.859828 
L 620.95701 84.003647 
L 623.751901 83.005649 
L 626.546792 83.034142 
L 629.341683 84.292309 
L 632.136574 87.030365 
L 634.931465 91.564403 
L 637.726356 98.3072 
L 640.521247 107.822179 
L 643.316138 120.926919 
L 646.111029 138.918728 
L 648.90592 164.171692 
L 651.700811 202.377261 
L 654.495702 291.255809 
L 657.290593 314.834545 
L 660.085484 314.834545 
L 662.880375 314.834545 
L 665.675266 314.834545 
L 668.470158 314.834545 
L 671.265049 314.834545 
L 674.05994 314.834545 
L 676.854831 314.834545 
L 679.649722 314.834545 
L 682.444613 314.834545 
L 685.239504 314.834545 
L 688.034395 314.834545 
L 690.829286 314.834545 
L 693.624177 314.834545 
L 696.419068 314.834545 
L 699.213959 314.834545 
L 702.00885 314.834545 
L 704.803741 314.834545 
L 707.598632 314.834545 
L 710.393523 314.834545 
L 713.188414 314.834545 
L 715.983306 314.834545 
L 718.778197 314.834545 
L 721.573088 314.834545 
L 724.367979 314.834545 
L 727.16287 314.834545 
L 729.957761 314.834545 
" style="fill:none;stroke:#e43027;stroke-linecap:square;stroke-width:3;"/>
   </g>
   <g id="line2d_41">
    <path clip-path="url(#pd35bdbfd40)" d="M 453.263546 314.834545 
L 456.058437 314.834545 
L 458.853328 309.114586 
L 461.648219 303.88362 
L 464.44311 299.294046 
L 467.238001 294.910165 
L 470.032892 290.632648 
L 472.827783 286.426129 
L 475.622674 282.275608 
L 478.417566 278.174218 
L 481.212457 274.11873 
L 484.007348 270.107598 
L 486.802239 266.139995 
L 489.59713 262.21528 
L 492.392021 258.332691 
L 495.186912 254.491138 
L 497.981803 250.689074 
L 500.776694 246.924395 
L 503.571585 243.194374 
L 506.366476 239.495614 
L 509.161367 235.824013 
L 511.956258 232.174751 
L 514.751149 228.542288 
L 517.54604 224.920371 
L 520.340931 221.302072 
L 523.135822 217.679821 
L 525.930714 214.045475 
L 528.725605 210.390387 
L 531.520496 206.705509 
L 534.315387 202.981497 
L 537.110278 199.208846 
L 539.905169 195.378032 
L 542.70006 191.479675 
L 545.494951 187.504713 
L 548.289842 183.44459 
L 551.084733 179.291449 
L 553.879624 175.038336 
L 556.674515 170.679409 
L 559.469406 166.210149 
L 562.264297 161.627568 
L 565.059188 156.930421 
L 567.854079 152.119414 
L 570.64897 147.197414 
L 573.443862 142.16965 
L 576.238753 137.043929 
L 579.033644 131.830842 
L 581.828535 126.543985 
L 584.623426 121.200195 
L 587.418317 115.819799 
L 590.213208 110.426897 
L 593.008099 105.049674 
L 595.80299 99.720766 
L 598.597881 94.477684 
L 601.392772 89.363322 
L 604.187663 84.426562 
L 606.982554 79.723021 
L 609.777445 75.315959 
L 612.572336 71.277419 
L 615.367227 67.689668 
L 618.162118 64.647038 
L 620.95701 62.258327 
L 623.751901 60.649978 
L 626.546792 59.970389 
L 629.341683 60.395891 
L 632.136574 62.139304 
L 634.931465 65.462591 
L 637.726356 70.696428 
L 640.521247 78.272073 
L 643.316138 88.776931 
L 646.111029 103.060406 
L 648.90592 122.4623 
L 651.700811 149.407401 
L 654.495702 189.562802 
L 657.290593 273.197002 
L 660.085484 314.834545 
L 662.880375 314.834545 
L 665.675266 314.834545 
L 668.470158 314.834545 
L 671.265049 314.834545 
L 674.05994 314.834545 
L 676.854831 314.834545 
L 679.649722 314.834545 
L 682.444613 314.834545 
L 685.239504 314.834545 
L 688.034395 314.834545 
L 690.829286 314.834545 
L 693.624177 314.834545 
L 696.419068 314.834545 
L 699.213959 314.834545 
L 702.00885 314.834545 
L 704.803741 314.834545 
L 707.598632 314.834545 
L 710.393523 314.834545 
L 713.188414 314.834545 
L 715.983306 314.834545 
L 718.778197 314.834545 
L 721.573088 314.834545 
L 724.367979 314.834545 
L 727.16287 314.834545 
L 729.957761 314.834545 
" style="fill:none;stroke:#c3161b;stroke-linecap:square;stroke-width:3;"/>
   </g>
   <g id="line2d_42">
    <path clip-path="url(#pd35bdbfd40)" d="M 453.263546 314.834545 
L 456.058437 314.834545 
L 458.853328 308.171381 
L 461.648219 302.743128 
L 464.44311 297.857313 
L 467.238001 293.155527 
L 470.032892 288.550515 
L 472.827783 284.010594 
L 475.622674 279.522202 
L 478.417566 275.079092 
L 481.212457 270.678308 
L 484.007348 266.318419 
L 486.802239 261.99864 
L 489.59713 257.718351 
L 492.392021 253.476816 
L 495.186912 249.272995 
L 497.981803 245.105425 
L 500.776694 240.972134 
L 503.571585 236.87058 
L 506.366476 232.79761 
L 509.161367 228.749432 
L 511.956258 224.721604 
L 514.751149 220.709031 
L 517.54604 216.705979 
L 520.340931 212.706105 
L 523.135822 208.702491 
L 525.930714 204.687702 
L 528.725605 200.653854 
L 531.520496 196.592699 
L 534.315387 192.495722 
L 537.110278 188.354258 
L 539.905169 184.159618 
L 542.70006 179.903232 
L 545.494951 175.576805 
L 548.289842 171.172478 
L 551.084733 166.68301 
L 553.879624 162.101957 
L 556.674515 157.423862 
L 559.469406 152.644448 
L 562.264297 147.760816 
L 565.059188 142.771643 
L 567.854079 137.677383 
L 570.64897 132.480465 
L 573.443862 127.185498 
L 576.238753 121.799475 
L 579.033644 116.331984 
L 581.828535 110.795425 
L 584.623426 105.205242 
L 587.418317 99.580165 
L 590.213208 93.942487 
L 593.008099 88.318359 
L 595.80299 82.738134 
L 598.597881 77.23676 
L 601.392772 71.854238 
L 604.187663 66.636175 
L 606.982554 61.634434 
L 609.777445 56.907936 
L 612.572336 52.523639 
L 615.367227 48.557766 
L 618.162118 45.097347 
L 620.95701 42.242197 
L 623.751901 40.107497 
L 626.546792 38.827209 
L 629.341683 38.558714 
L 632.136574 39.489261 
L 634.931465 41.845193 
L 637.726356 45.905652 
L 640.521247 52.023803 
L 643.316138 60.661528 
L 646.111029 72.450145 
L 648.90592 88.306697 
L 651.700811 109.686698 
L 654.495702 139.24963 
L 657.290593 183.327392 
L 660.085484 280.181402 
L 662.880375 314.834545 
L 665.675266 314.834545 
L 668.470158 314.834545 
L 671.265049 314.834545 
L 674.05994 314.834545 
L 676.854831 314.834545 
L 679.649722 314.834545 
L 682.444613 314.834545 
L 685.239504 314.834545 
L 688.034395 314.834545 
L 690.829286 314.834545 
L 693.624177 314.834545 
L 696.419068 314.834545 
L 699.213959 314.834545 
L 702.00885 314.834545 
L 704.803741 314.834545 
L 707.598632 314.834545 
L 710.393523 314.834545 
L 713.188414 314.834545 
L 715.983306 314.834545 
L 718.778197 314.834545 
L 721.573088 314.834545 
L 724.367979 314.834545 
L 727.16287 314.834545 
L 729.957761 314.834545 
" style="fill:none;stroke:#9d0d14;stroke-linecap:square;stroke-width:3;"/>
   </g>
   <g id="line2d_43">
    <path clip-path="url(#pd35bdbfd40)" d="M 453.263546 314.834545 
L 456.058437 314.834545 
L 458.853328 307.346049 
L 461.648219 301.701306 
L 464.44311 296.533024 
L 467.238001 291.532641 
L 470.032892 286.621628 
L 472.827783 281.771063 
L 475.622674 276.968481 
L 478.417566 272.208116 
L 481.212457 267.487224 
L 484.007348 262.804466 
L 486.802239 258.159095 
L 489.59713 253.550516 
L 492.392021 248.978017 
L 495.186912 244.440603 
L 497.981803 239.936888 
L 500.776694 235.46501 
L 503.571585 231.022579 
L 506.366476 226.606642 
L 509.161367 222.213656 
L 511.956258 217.839479 
L 514.751149 213.479371 
L 517.54604 209.128007 
L 520.340931 204.7795 
L 523.135822 200.427441 
L 525.930714 196.064947 
L 528.725605 191.684725 
L 531.520496 187.279146 
L 534.315387 182.840338 
L 537.110278 178.360286 
L 539.905169 173.830948 
L 542.70006 169.244387 
L 545.494951 164.592904 
L 548.289842 159.869198 
L 551.084733 155.066514 
L 553.879624 150.178824 
L 556.674515 145.200989 
L 559.469406 140.128951 
L 562.264297 134.95991 
L 565.059188 129.692513 
L 567.854079 124.327048 
L 570.64897 118.865636 
L 573.443862 113.312428 
L 576.238753 107.673802 
L 579.033644 101.958577 
L 581.828535 96.178217 
L 584.623426 90.347066 
L 587.418317 84.482581 
L 590.213208 78.605597 
L 593.008099 72.740611 
L 595.80299 66.916111 
L 598.597881 61.164939 
L 601.392772 55.524718 
L 604.187663 50.038354 
L 606.982554 44.754625 
L 609.777445 39.728896 
L 612.572336 35.023986 
L 615.367227 30.711235 
L 618.162118 26.871833 
L 620.95701 23.598506 
L 623.751901 20.997672 
L 626.546792 19.192259 
L 629.341683 18.325455 
L 632.136574 18.565806 
L 634.931465 20.114337 
L 637.726356 23.214795 
L 640.521247 28.168939 
L 643.316138 35.360396 
L 646.111029 45.293994 
L 648.90592 58.66536 
L 651.700811 76.49626 
L 654.495702 100.435116 
L 657.290593 133.576227 
L 660.085484 183.72192 
L 662.880375 314.834545 
L 665.675266 314.834545 
L 668.470158 314.834545 
L 671.265049 314.834545 
L 674.05994 314.834545 
L 676.854831 314.834545 
L 679.649722 314.834545 
L 682.444613 314.834545 
L 685.239504 314.834545 
L 688.034395 314.834545 
L 690.829286 314.834545 
L 693.624177 314.834545 
L 696.419068 314.834545 
L 699.213959 314.834545 
L 702.00885 314.834545 
L 704.803741 314.834545 
L 707.598632 314.834545 
L 710.393523 314.834545 
L 713.188414 314.834545 
L 715.983306 314.834545 
L 718.778197 314.834545 
L 721.573088 314.834545 
L 724.367979 314.834545 
L 727.16287 314.834545 
L 729.957761 314.834545 
" style="fill:none;stroke:#67000d;stroke-linecap:square;stroke-width:3;"/>
   </g>
   <g id="patch_8">
    <path d="M 439.428835 329.66 
L 439.428835 3.5 
" style="fill:none;stroke:#000000;stroke-linecap:square;stroke-linejoin:miter;stroke-width:0.8;"/>
   </g>
   <g id="patch_9">
    <path d="M 743.792472 329.66 
L 743.792472 3.5 
" style="fill:none;stroke:#000000;stroke-linecap:square;stroke-linejoin:miter;stroke-width:0.8;"/>
   </g>
   <g id="patch_10">
    <path d="M 439.428835 329.66 
L 743.792472 329.66 
" style="fill:none;stroke:#000000;stroke-linecap:square;stroke-linejoin:miter;stroke-width:0.8;"/>
   </g>
   <g id="patch_11">
    <path d="M 439.428835 3.5 
L 743.792472 3.5 
" style="fill:none;stroke:#000000;stroke-linecap:square;stroke-linejoin:miter;stroke-width:0.8;"/>
   </g>
  </g>
 </g>
 <defs>
  <clipPath id="pfc2a25ad41">
   <rect height="326.16" width="304.363636" x="74.192472" y="3.5"/>
  </clipPath>
  <clipPath id="pd35bdbfd40">
   <rect height="326.16" width="304.363636" x="439.428835" y="3.5"/>
  </clipPath>
 </defs>
</svg>
