<?xml version="1.0" encoding="utf-8" standalone="no"?>
<!DOCTYPE svg PUBLIC "-//W3C//DTD SVG 1.1//EN"
  "http://www.w3.org/Graphics/SVG/1.1/DTD/svg11.dtd">
<!-- Created with matplotlib (http://matplotlib.org/) -->
<svg height="376.305626pt" version="1.1" viewBox="0 0 504.167191 376.305626" width="504.167191pt" xmlns="http://www.w3.org/2000/svg" xmlns:xlink="http://www.w3.org/1999/xlink">
 <defs>
  <style type="text/css">
*{stroke-linecap:butt;stroke-linejoin:round;}
  </style>
 </defs>
 <g id="figure_1">
  <g id="patch_1">
   <path d="M 0 376.305626 
L 504.167191 376.305626 
L 504.167191 0 
L 0 0 
z
" style="fill:#ffffff;"/>
  </g>
  <g id="axes_1">
   <g id="patch_2">
    <path d="M 54.267191 329.66 
L 500.667191 329.66 
L 500.667191 3.5 
L 54.267191 3.5 
z
" style="fill:#ffffff;"/>
   </g>
   <g id="matplotlib.axis_1">
    <g id="xtick_1">
     <g id="line2d_1">
      <defs>
       <path d="M 0 0 
L 0 3.5 
" id="m610396c50c" style="stroke:#000000;stroke-width:0.8;"/>
      </defs>
      <g>
       <use style="stroke:#000000;stroke-width:0.8;" x="64.098869" xlink:href="#m610396c50c" y="329.66"/>
      </g>
     </g>
     <g id="text_1">
      <!-- $0$ -->
      <defs>
       <path d="M 25.40625 68 
C 19.90625 68 15.703125 66.296875 12 62.796875 
C 6.203125 57.203125 2.40625 45.6875 2.40625 34 
C 2.40625 23.09375 5.703125 11.390625 10.40625 5.796875 
C 14.09375 1.390625 19.203125 -1 25 -1 
C 30.09375 -1 34.40625 0.6875 38 4.1875 
C 43.796875 9.6875 47.59375 21.296875 47.59375 33.390625 
C 47.59375 53.890625 38.5 68 25.40625 68 
z
M 25.09375 65.390625 
C 33.5 65.390625 38 54.09375 38 33.1875 
C 38 12.296875 33.59375 1.59375 25 1.59375 
C 16.40625 1.59375 12 12.296875 12 33.09375 
C 12 54.296875 16.5 65.390625 25.09375 65.390625 
z
" id="Nimbus_Roman_No9_L_Regular-48"/>
      </defs>
      <g transform="translate(59.117549 350.169155)scale(0.2 -0.2)">
       <use transform="scale(0.996264)" xlink:href="#Nimbus_Roman_No9_L_Regular-48"/>
      </g>
     </g>
    </g>
    <g id="xtick_2">
     <g id="line2d_2">
      <g>
       <use style="stroke:#000000;stroke-width:0.8;" x="147.84918" xlink:href="#m610396c50c" y="329.66"/>
      </g>
     </g>
     <g id="text_2">
      <!-- $1$ -->
      <defs>
       <path d="M 29.09375 68 
L 11.09375 59 
L 11.09375 57.59375 
C 12.296875 58.09375 13.40625 58.484375 13.796875 58.6875 
C 15.59375 59.390625 17.296875 59.78125 18.296875 59.78125 
C 20.40625 59.78125 21.296875 58.296875 21.296875 55.078125 
L 21.296875 9.359375 
C 21.296875 6.03125 20.5 3.71875 18.90625 2.796875 
C 17.40625 1.890625 16 1.59375 11.796875 1.5 
L 11.796875 0 
L 39.40625 0 
L 39.40625 1.5 
C 31.5 1.59375 29.90625 2.609375 29.90625 7.453125 
L 29.90625 67.796875 
z
" id="Nimbus_Roman_No9_L_Regular-49"/>
      </defs>
      <g transform="translate(142.86786 350.169155)scale(0.2 -0.2)">
       <use transform="scale(0.996264)" xlink:href="#Nimbus_Roman_No9_L_Regular-49"/>
      </g>
     </g>
    </g>
    <g id="xtick_3">
     <g id="line2d_3">
      <g>
       <use style="stroke:#000000;stroke-width:0.8;" x="231.59949" xlink:href="#m610396c50c" y="329.66"/>
      </g>
     </g>
     <g id="text_3">
      <!-- $2$ -->
      <defs>
       <path d="M 47.5 13.734375 
L 46.203125 14.25 
C 42.5 8.5 41.203125 7.59375 36.703125 7.59375 
L 12.796875 7.59375 
L 29.59375 25.328125 
C 38.5 34.703125 42.40625 42.359375 42.40625 50.21875 
C 42.40625 60.28125 34.296875 68 23.90625 68 
C 18.40625 68 13.203125 65.796875 9.5 61.796875 
C 6.296875 58.375 4.796875 55.15625 3.09375 48 
L 5.203125 47.484375 
C 9.203125 57.359375 12.796875 60.59375 19.703125 60.59375 
C 28.09375 60.59375 33.796875 54.84375 33.796875 46.390625 
C 33.796875 38.53125 29.203125 29.15625 20.796875 20.1875 
L 3 1.1875 
L 3 0 
L 42 0 
z
" id="Nimbus_Roman_No9_L_Regular-50"/>
      </defs>
      <g transform="translate(226.61817 350.169155)scale(0.2 -0.2)">
       <use transform="scale(0.996264)" xlink:href="#Nimbus_Roman_No9_L_Regular-50"/>
      </g>
     </g>
    </g>
    <g id="xtick_4">
     <g id="line2d_4">
      <g>
       <use style="stroke:#000000;stroke-width:0.8;" x="315.349801" xlink:href="#m610396c50c" y="329.66"/>
      </g>
     </g>
     <g id="text_4">
      <!-- $3$ -->
      <defs>
       <path d="M 15.296875 33.390625 
C 21.203125 33.390625 23.5 33.1875 25.90625 32.296875 
C 32.09375 30.09375 36 24.390625 36 17.5 
C 36 9.09375 30.296875 2.59375 22.90625 2.59375 
C 20.203125 2.59375 18.203125 3.296875 14.5 5.6875 
C 11.5 7.5 9.796875 8.1875 8.09375 8.1875 
C 5.796875 8.1875 4.296875 6.796875 4.296875 4.6875 
C 4.296875 1.1875 8.59375 -1 15.59375 -1 
C 23.296875 -1 31.203125 1.59375 35.90625 5.6875 
C 40.59375 9.796875 43.203125 15.59375 43.203125 22.296875 
C 43.203125 27.390625 41.59375 32.09375 38.703125 35.1875 
C 36.703125 37.390625 34.796875 38.59375 30.40625 40.5 
C 37.296875 45.1875 39.796875 48.890625 39.796875 54.296875 
C 39.796875 62.390625 33.40625 68 24.203125 68 
C 19.203125 68 14.796875 66.296875 11.203125 63.09375 
C 8.203125 60.390625 6.703125 57.796875 4.5 51.796875 
L 6 51.390625 
C 10.09375 58.703125 14.59375 61.984375 20.90625 61.984375 
C 27.40625 61.984375 31.90625 57.59375 31.90625 51.296875 
C 31.90625 47.6875 30.40625 44.09375 27.90625 41.59375 
C 24.90625 38.59375 22.09375 37.09375 15.296875 34.6875 
z
" id="Nimbus_Roman_No9_L_Regular-51"/>
      </defs>
      <g transform="translate(310.368481 350.169155)scale(0.2 -0.2)">
       <use transform="scale(0.996264)" xlink:href="#Nimbus_Roman_No9_L_Regular-51"/>
      </g>
     </g>
    </g>
    <g id="xtick_5">
     <g id="line2d_5">
      <g>
       <use style="stroke:#000000;stroke-width:0.8;" x="399.100112" xlink:href="#m610396c50c" y="329.66"/>
      </g>
     </g>
     <g id="text_5">
      <!-- $4$ -->
      <defs>
       <path d="M 47.203125 23.390625 
L 37 23.390625 
L 37 68 
L 32.59375 68 
L 1.203125 23.390625 
L 1.203125 17 
L 29.296875 17 
L 29.296875 0 
L 37 0 
L 37 17 
L 47.203125 17 
z
M 29.203125 23.390625 
L 5.203125 23.390625 
L 29.203125 57.765625 
z
" id="Nimbus_Roman_No9_L_Regular-52"/>
      </defs>
      <g transform="translate(394.118792 350.169155)scale(0.2 -0.2)">
       <use transform="scale(0.996264)" xlink:href="#Nimbus_Roman_No9_L_Regular-52"/>
      </g>
     </g>
    </g>
    <g id="xtick_6">
     <g id="line2d_6">
      <g>
       <use style="stroke:#000000;stroke-width:0.8;" x="482.850422" xlink:href="#m610396c50c" y="329.66"/>
      </g>
     </g>
     <g id="text_6">
      <!-- $5$ -->
      <defs>
       <path d="M 18.09375 58.09375 
L 37.703125 58.09375 
C 39.296875 58.09375 39.703125 58.296875 40 58.984375 
L 43.796875 67.890625 
L 42.90625 68.59375 
C 41.40625 66.5 40.40625 66 38.296875 66 
L 17.40625 66 
L 6.5 42.453125 
C 6.40625 42.265625 6.40625 42.15625 6.40625 41.96875 
C 6.40625 41.46875 6.796875 41.171875 7.59375 41.171875 
C 10.796875 41.171875 14.796875 40.484375 18.90625 39.1875 
C 30.40625 35.53125 35.703125 29.40625 35.703125 19.609375 
C 35.703125 10.109375 29.59375 2.6875 21.796875 2.6875 
C 19.796875 2.6875 18.09375 3.390625 15.09375 5.5625 
C 11.90625 7.84375 9.59375 8.828125 7.5 8.828125 
C 4.59375 8.828125 3.203125 7.640625 3.203125 5.171875 
C 3.203125 1.390625 7.90625 -1 15.40625 -1 
C 23.796875 -1 31 1.6875 36 6.75 
C 40.59375 11.203125 42.703125 16.84375 42.703125 24.359375 
C 42.703125 31.484375 40.796875 36.03125 35.796875 40.96875 
C 31.40625 45.328125 25.703125 47.609375 13.90625 49.6875 
z
" id="Nimbus_Roman_No9_L_Regular-53"/>
      </defs>
      <g transform="translate(477.869102 350.169155)scale(0.2 -0.2)">
       <use transform="scale(0.996264)" xlink:href="#Nimbus_Roman_No9_L_Regular-53"/>
      </g>
     </g>
    </g>
    <g id="text_7">
     <!-- Distance from center -->
     <defs>
      <path d="M 10.40625 10.890625 
C 10.40625 3.6875 9.203125 2.390625 1.59375 1.890625 
L 1.59375 0 
L 30 0 
C 41.59375 0 52.09375 3.296875 58.296875 8.875 
C 64.796875 14.75 68.5 23.625 68.5 33.296875 
C 68.5 42.265625 65.5 50.03125 60 55.515625 
C 53.203125 62.390625 42.296875 66 28.59375 66 
L 1.59375 66 
L 1.59375 64.09375 
C 9.5 63.390625 10.40625 62.484375 10.40625 55.09375 
z
M 20.59375 58.40625 
C 20.59375 61.5 21.703125 62.296875 25.796875 62.296875 
C 34.40625 62.296875 40.90625 60.6875 45.703125 57.3125 
C 53.5 51.921875 57.59375 43.359375 57.59375 32.59375 
C 57.59375 20.828125 53.5 12.46875 45.40625 7.78125 
C 40.296875 4.890625 34.5 3.6875 25.796875 3.6875 
C 21.796875 3.6875 20.59375 4.59375 20.59375 7.78125 
z
" id="Nimbus_Roman_No9_L_Regular-68"/>
      <path d="M 17.5 46 
L 2 40.5 
L 2 39 
L 2.796875 39.09375 
C 4 39.296875 5.296875 39.390625 6.203125 39.390625 
C 8.59375 39.390625 9.5 37.796875 9.5 33.390625 
L 9.5 10.1875 
C 9.5 3 8.5 1.890625 1.59375 1.5 
L 1.59375 0 
L 25.296875 0 
L 25.296875 1.5 
C 18.703125 2 17.90625 3 17.90625 10.1875 
L 17.90625 45.6875 
z
M 12.796875 68 
C 10.09375 68 7.796875 65.6875 7.796875 62.890625 
C 7.796875 60.09375 10 57.796875 12.796875 57.796875 
C 15.703125 57.796875 18 59.984375 18 62.890625 
C 18 65.6875 15.703125 68 12.796875 68 
z
" id="Nimbus_Roman_No9_L_Regular-105"/>
      <path d="M 31.5 31.390625 
L 31.09375 45 
L 30 45 
L 29.796875 44.796875 
C 28.90625 44.09375 28.796875 43.984375 28.40625 43.984375 
C 27.796875 43.984375 26.796875 44.1875 25.703125 44.6875 
C 23.5 45.59375 21.296875 46 18.703125 46 
C 10.796875 46 5.09375 40.890625 5.09375 33.671875 
C 5.09375 28.0625 8.296875 24.046875 16.796875 19.234375 
L 22.59375 15.921875 
C 26.09375 13.921875 27.796875 11.515625 27.796875 8.40625 
C 27.796875 4 24.59375 1.1875 19.5 1.1875 
C 16.09375 1.1875 13 2.5 11.09375 4.703125 
C 9 7.203125 8.09375 9.515625 6.796875 15.21875 
L 5.203125 15.21875 
L 5.203125 -0.40625 
L 6.5 -0.40625 
C 7.203125 0.59375 7.59375 0.796875 8.796875 0.796875 
C 9.703125 0.796875 11.09375 0.59375 13.40625 0 
C 16.203125 -0.609375 18.90625 -1 20.703125 -1 
C 28.40625 -1 34.796875 4.796875 34.796875 11.8125 
C 34.796875 16.828125 32.40625 20.140625 26.40625 23.75 
L 15.59375 30.15625 
C 12.796875 31.765625 11.296875 34.265625 11.296875 36.96875 
C 11.296875 40.984375 14.40625 43.796875 19 43.796875 
C 24.703125 43.796875 27.703125 40.390625 30 31.46875 
z
" id="Nimbus_Roman_No9_L_Regular-115"/>
      <path d="M 25.5 45 
L 15.40625 45 
L 15.40625 56.59375 
C 15.40625 57.59375 15.296875 57.890625 14.703125 57.890625 
C 14 57 13.40625 56.09375 12.703125 55.09375 
C 8.90625 49.59375 4.59375 44.796875 3 44.390625 
C 1.90625 43.6875 1.296875 42.984375 1.296875 42.484375 
C 1.296875 42.1875 1.40625 41.984375 1.703125 41.796875 
L 7 41.796875 
L 7 11.6875 
C 7 3.296875 10 -1 15.90625 -1 
C 20.796875 -1 24.59375 1.390625 27.90625 6.59375 
L 26.59375 7.6875 
C 24.5 5.1875 22.796875 4.1875 20.59375 4.1875 
C 16.90625 4.1875 15.40625 6.890625 15.40625 13.1875 
L 15.40625 41.796875 
L 25.5 41.796875 
z
" id="Nimbus_Roman_No9_L_Regular-116"/>
      <path d="M 44.203125 6.59375 
C 42.5 5.1875 41.296875 4.6875 39.796875 4.6875 
C 37.5 4.6875 36.796875 6.09375 36.796875 10.5 
L 36.796875 30 
C 36.796875 35.1875 36.296875 38.09375 34.796875 40.5 
C 32.59375 44.09375 28.296875 46 22.40625 46 
C 13 46 5.59375 41.09375 5.59375 34.796875 
C 5.59375 32.5 7.59375 30.5 9.90625 30.5 
C 12.296875 30.5 14.40625 32.5 14.40625 34.6875 
C 14.40625 35.09375 14.296875 35.59375 14.203125 36.296875 
C 14 37.1875 13.90625 38 13.90625 38.6875 
C 13.90625 41.390625 17.09375 43.59375 21.09375 43.59375 
C 26 43.59375 28.703125 40.6875 28.703125 35.296875 
L 28.703125 29.1875 
C 13.296875 23 11.59375 22.1875 7.296875 18.390625 
C 5.09375 16.390625 3.703125 13 3.703125 9.6875 
C 3.703125 3.390625 8.09375 -1 14.203125 -1 
C 18.59375 -1 22.703125 1.09375 28.796875 6.296875 
C 29.296875 1.09375 31.09375 -1 35.203125 -1 
C 38.59375 -1 40.703125 0.1875 44.203125 4 
z
M 28.703125 12.296875 
C 28.703125 9.1875 28.203125 8.296875 26.09375 7.09375 
C 23.703125 5.6875 20.90625 4.796875 18.796875 4.796875 
C 15.296875 4.796875 12.5 8.1875 12.5 12.5 
L 12.5 12.890625 
C 12.5 18.796875 16.59375 22.390625 28.703125 26.796875 
z
" id="Nimbus_Roman_No9_L_Regular-97"/>
      <path d="M 1.59375 39.796875 
C 2.203125 40.09375 3.203125 40.1875 4.296875 40.1875 
C 7.09375 40.1875 8 38.6875 8 33.796875 
L 8 9 
C 8 3.296875 6.90625 1.890625 1.796875 1.5 
L 1.796875 0 
L 23 0 
L 23 1.5 
C 17.90625 1.890625 16.40625 3.09375 16.40625 6.6875 
L 16.40625 34.796875 
C 21.203125 39.296875 23.40625 40.484375 26.703125 40.484375 
C 31.59375 40.484375 34 37.390625 34 30.796875 
L 34 9.890625 
C 34 3.59375 32.703125 1.890625 27.703125 1.5 
L 27.703125 0 
L 48.5 0 
L 48.5 1.5 
C 43.59375 2 42.40625 3.1875 42.40625 8.09375 
L 42.40625 31 
C 42.40625 40.390625 38 46 30.59375 46 
C 26 46 22.90625 44.296875 16.09375 37.890625 
L 16.09375 45.796875 
L 15.40625 46 
C 10.5 44.1875 7.09375 43.09375 1.59375 41.484375 
z
" id="Nimbus_Roman_No9_L_Regular-110"/>
      <path d="M 39.796875 15.59375 
C 35 8.59375 31.40625 6.1875 25.703125 6.1875 
C 16.59375 6.1875 10.203125 14.1875 10.203125 25.6875 
C 10.203125 35.984375 15.703125 43.09375 23.796875 43.09375 
C 27.40625 43.09375 28.703125 41.984375 29.703125 38.296875 
L 30.296875 36.09375 
C 31.09375 33.296875 32.90625 31.484375 35 31.484375 
C 37.59375 31.484375 39.796875 33.390625 39.796875 35.6875 
C 39.796875 41.296875 32.796875 46 24.40625 46 
C 19.5 46 14.40625 43.984375 10.296875 40.390625 
C 5.296875 35.984375 2.5 29.1875 2.5 21.296875 
C 2.5 8.296875 10.40625 -1 21.5 -1 
C 26 -1 30 0.59375 33.59375 3.6875 
C 36.296875 6.09375 38.203125 8.796875 41.203125 14.6875 
z
" id="Nimbus_Roman_No9_L_Regular-99"/>
      <path d="M 40.796875 16.4375 
C 36 8.8125 31.703125 5.890625 25.296875 5.890625 
C 19.59375 5.890625 15.296875 8.8125 12.40625 14.53125 
C 10.59375 18.34375 9.90625 21.65625 9.703125 27.796875 
L 40.5 27.796875 
C 39.703125 34.265625 38.703125 37.140625 36.203125 40.3125 
C 33.203125 43.890625 28.59375 46 23.40625 46 
C 18.40625 46 13.703125 44.1875 9.90625 40.8125 
C 5.203125 36.734375 2.5 29.6875 2.5 21.46875 
C 2.5 7.59375 9.703125 -1 21.203125 -1 
C 30.703125 -1 38.203125 4.890625 42.40625 15.734375 
z
M 9.90625 31 
C 11 38.71875 14.40625 42.390625 20.5 42.390625 
C 26.59375 42.390625 29 39.609375 30.296875 31 
z
" id="Nimbus_Roman_No9_L_Regular-101"/>
      <path d="M 30.90625 45 
L 18.59375 45 
L 18.59375 56.421875 
C 18.59375 62.140625 20.5 65.1875 24.296875 65.1875 
C 26.40625 65.1875 27.796875 64.203125 29.59375 61.34375 
C 31.203125 58.78125 32.40625 57.796875 34.09375 57.796875 
C 36.40625 57.796875 38.296875 59.578125 38.296875 61.84375 
C 38.296875 65.390625 33.90625 68 27.90625 68 
C 21.703125 68 16.40625 65.296875 13.796875 60.765625 
C 11.203125 56.421875 10.40625 52.875 10.296875 45 
L 2.09375 45 
L 2.09375 41.796875 
L 10.296875 41.796875 
L 10.296875 10.390625 
C 10.296875 3.09375 9.203125 1.890625 2 1.5 
L 2 0 
L 28 0 
L 28 1.5 
C 19.796875 1.796875 18.703125 2.890625 18.703125 10.390625 
L 18.703125 41.796875 
L 30.90625 41.796875 
z
" id="Nimbus_Roman_No9_L_Regular-102"/>
      <path d="M 0.703125 39 
C 2.09375 39.296875 3 39.390625 4.203125 39.390625 
C 6.703125 39.390625 7.59375 37.796875 7.59375 33.390625 
L 7.59375 8.390625 
C 7.59375 3.390625 6.90625 2.6875 0.5 1.5 
L 0.5 0 
L 24.5 0 
L 24.5 1.5 
C 17.703125 1.796875 16 3.296875 16 9 
L 16 31.5 
C 16 34.6875 20.296875 39.6875 23 39.6875 
C 23.59375 39.6875 24.5 39.1875 25.59375 38.1875 
C 27.203125 36.796875 28.296875 36.1875 29.59375 36.1875 
C 32 36.1875 33.5 37.890625 33.5 40.6875 
C 33.5 43.984375 31.40625 46 28 46 
C 23.796875 46 20.90625 43.6875 16 36.59375 
L 16 45.796875 
L 15.5 46 
C 10.203125 43.796875 6.59375 42.5 0.703125 40.59375 
z
" id="Nimbus_Roman_No9_L_Regular-114"/>
      <path d="M 25 46 
C 12 46 2.90625 36.390625 2.90625 22.59375 
C 2.90625 9.09375 12.203125 -1 24.796875 -1 
C 37.40625 -1 47 9.59375 47 23.390625 
C 47 36.5 37.796875 46 25 46 
z
M 23.703125 43.1875 
C 32.09375 43.1875 38 33.59375 38 19.890625 
C 38 8.59375 33.5 1.796875 26 1.796875 
C 22.09375 1.796875 18.40625 4.1875 16.296875 8.1875 
C 13.5 13.390625 11.90625 20.390625 11.90625 27.5 
C 11.90625 37 16.59375 43.1875 23.703125 43.1875 
z
" id="Nimbus_Roman_No9_L_Regular-111"/>
      <path d="M 1.90625 39.796875 
C 3.203125 40.09375 4 40.1875 5.09375 40.1875 
C 7.703125 40.1875 8.59375 38.59375 8.59375 33.796875 
L 8.59375 8.5 
C 8.59375 3.09375 7.203125 1.59375 1.59375 1.5 
L 1.59375 0 
L 23.796875 0 
L 23.796875 1.5 
C 18.5 1.6875 17 2.796875 17 6.6875 
L 17 34.890625 
C 17 35.09375 17.796875 36.09375 18.5 36.796875 
C 21 39.09375 25.296875 40.796875 28.796875 40.796875 
C 33.203125 40.796875 35.40625 37.296875 35.40625 30.296875 
L 35.40625 8.59375 
C 35.40625 3 34.296875 1.890625 28.59375 1.5 
L 28.59375 0 
L 51 0 
L 51 1.5 
C 45.296875 1.59375 43.796875 3.296875 43.796875 9.5 
L 43.796875 34.6875 
C 46.796875 39 50.09375 40.796875 54.703125 40.796875 
C 60.40625 40.796875 62.203125 38.09375 62.203125 29.796875 
L 62.203125 8.6875 
C 62.203125 3 61.40625 2.1875 55.59375 1.5 
L 55.59375 0 
L 77.5 0 
L 77.5 1.5 
L 74.90625 1.6875 
C 71.90625 1.890625 70.59375 3.6875 70.59375 7.59375 
L 70.59375 28.1875 
C 70.59375 40 66.703125 46 59 46 
C 53.203125 46 48.09375 43.390625 42.703125 37.59375 
C 40.90625 43.296875 37.5 46 32.09375 46 
C 27.703125 46 24.90625 44.59375 16.59375 38.296875 
L 16.59375 45.796875 
L 15.90625 46 
C 10.796875 44.09375 7.40625 42.984375 1.90625 41.484375 
z
" id="Nimbus_Roman_No9_L_Regular-109"/>
     </defs>
     <g transform="translate(193.921479 371.991968)scale(0.2 -0.2)">
      <use transform="scale(0.996264)" xlink:href="#Nimbus_Roman_No9_L_Regular-68"/>
      <use transform="translate(71.929985 0)scale(0.996264)" xlink:href="#Nimbus_Roman_No9_L_Regular-105"/>
      <use transform="translate(99.625154 0)scale(0.996264)" xlink:href="#Nimbus_Roman_No9_L_Regular-115"/>
      <use transform="translate(138.378861 0)scale(0.996264)" xlink:href="#Nimbus_Roman_No9_L_Regular-116"/>
      <use transform="translate(166.07403 0)scale(0.996264)" xlink:href="#Nimbus_Roman_No9_L_Regular-97"/>
      <use transform="translate(210.307599 0)scale(0.996264)" xlink:href="#Nimbus_Roman_No9_L_Regular-110"/>
      <use transform="translate(260.120799 0)scale(0.996264)" xlink:href="#Nimbus_Roman_No9_L_Regular-99"/>
      <use transform="translate(304.354368 0)scale(0.996264)" xlink:href="#Nimbus_Roman_No9_L_Regular-101"/>
      <use transform="translate(373.494537 0)scale(0.996264)" xlink:href="#Nimbus_Roman_No9_L_Regular-102"/>
      <use transform="translate(406.669767 0)scale(0.996264)" xlink:href="#Nimbus_Roman_No9_L_Regular-114"/>
      <use transform="translate(439.844997 0)scale(0.996264)" xlink:href="#Nimbus_Roman_No9_L_Regular-111"/>
      <use transform="translate(489.658197 0)scale(0.996264)" xlink:href="#Nimbus_Roman_No9_L_Regular-109"/>
      <use transform="translate(592.073167 0)scale(0.996264)" xlink:href="#Nimbus_Roman_No9_L_Regular-99"/>
      <use transform="translate(636.306736 0)scale(0.996264)" xlink:href="#Nimbus_Roman_No9_L_Regular-101"/>
      <use transform="translate(680.540305 0)scale(0.996264)" xlink:href="#Nimbus_Roman_No9_L_Regular-110"/>
      <use transform="translate(730.353505 0)scale(0.996264)" xlink:href="#Nimbus_Roman_No9_L_Regular-116"/>
      <use transform="translate(758.048675 0)scale(0.996264)" xlink:href="#Nimbus_Roman_No9_L_Regular-101"/>
      <use transform="translate(802.282244 0)scale(0.996264)" xlink:href="#Nimbus_Roman_No9_L_Regular-114"/>
     </g>
    </g>
   </g>
   <g id="matplotlib.axis_2">
    <g id="ytick_1">
     <g id="line2d_7">
      <defs>
       <path d="M 0 0 
L -3.5 0 
" id="m325e180f12" style="stroke:#000000;stroke-width:0.8;"/>
      </defs>
      <g>
       <use style="stroke:#000000;stroke-width:0.8;" x="54.267191" xlink:href="#m325e180f12" y="289.267082"/>
      </g>
     </g>
     <g id="text_8">
      <!-- $0.0$ -->
      <defs>
       <path d="M 19.203125 5.296875 
C 19.203125 8.1875 16.796875 10.59375 13.90625 10.59375 
C 11 10.59375 8.59375 8.1875 8.59375 5.296875 
C 8.59375 2.390625 11 0 13.90625 0 
C 16.796875 0 19.203125 2.390625 19.203125 5.296875 
z
" id="CMMI10-58"/>
      </defs>
      <g transform="translate(21.822813 296.021659)scale(0.2 -0.2)">
       <use transform="scale(0.996264)" xlink:href="#Nimbus_Roman_No9_L_Regular-48"/>
       <use transform="translate(49.8132 0)scale(0.996264)" xlink:href="#CMMI10-58"/>
       <use transform="translate(77.408707 0)scale(0.996264)" xlink:href="#Nimbus_Roman_No9_L_Regular-48"/>
      </g>
     </g>
    </g>
    <g id="ytick_2">
     <g id="line2d_8">
      <g>
       <use style="stroke:#000000;stroke-width:0.8;" x="54.267191" xlink:href="#m325e180f12" y="215.319722"/>
      </g>
     </g>
     <g id="text_9">
      <!-- $0.5$ -->
      <g transform="translate(21.822813 222.0743)scale(0.2 -0.2)">
       <use transform="scale(0.996264)" xlink:href="#Nimbus_Roman_No9_L_Regular-48"/>
       <use transform="translate(49.8132 0)scale(0.996264)" xlink:href="#CMMI10-58"/>
       <use transform="translate(77.408707 0)scale(0.996264)" xlink:href="#Nimbus_Roman_No9_L_Regular-53"/>
      </g>
     </g>
    </g>
    <g id="ytick_3">
     <g id="line2d_9">
      <g>
       <use style="stroke:#000000;stroke-width:0.8;" x="54.267191" xlink:href="#m325e180f12" y="141.372363"/>
      </g>
     </g>
     <g id="text_10">
      <!-- $1.0$ -->
      <g transform="translate(21.822813 148.12694)scale(0.2 -0.2)">
       <use transform="scale(0.996264)" xlink:href="#Nimbus_Roman_No9_L_Regular-49"/>
       <use transform="translate(49.8132 0)scale(0.996264)" xlink:href="#CMMI10-58"/>
       <use transform="translate(77.408707 0)scale(0.996264)" xlink:href="#Nimbus_Roman_No9_L_Regular-48"/>
      </g>
     </g>
    </g>
    <g id="ytick_4">
     <g id="line2d_10">
      <g>
       <use style="stroke:#000000;stroke-width:0.8;" x="54.267191" xlink:href="#m325e180f12" y="67.425003"/>
      </g>
     </g>
     <g id="text_11">
      <!-- $1.5$ -->
      <g transform="translate(21.822813 74.179581)scale(0.2 -0.2)">
       <use transform="scale(0.996264)" xlink:href="#Nimbus_Roman_No9_L_Regular-49"/>
       <use transform="translate(49.8132 0)scale(0.996264)" xlink:href="#CMMI10-58"/>
       <use transform="translate(77.408707 0)scale(0.996264)" xlink:href="#Nimbus_Roman_No9_L_Regular-53"/>
      </g>
     </g>
    </g>
    <g id="text_12">
     <!-- Radial Distribution Function -->
     <defs>
      <path d="M 65.90625 1.890625 
C 62.09375 2.1875 60.09375 3.1875 57.203125 6.578125 
L 36.59375 31.796875 
C 43.296875 33.09375 46.296875 34.28125 49.59375 36.96875 
C 52.796875 39.5625 54.703125 43.75 54.703125 48.4375 
C 54.703125 52.71875 53.40625 56.40625 50.796875 59.296875 
C 47 63.390625 38.703125 66 29.296875 66 
L 1.703125 66 
L 1.703125 64.09375 
C 9.203125 63.296875 10.203125 62.203125 10.203125 55.125 
L 10.203125 11.953125 
C 10.203125 3.6875 9.203125 2.484375 1.703125 1.890625 
L 1.703125 0 
L 29.40625 0 
L 29.40625 1.890625 
C 21.703125 2.390625 20.40625 3.6875 20.40625 10.859375 
L 20.40625 30.5 
L 26 30.703125 
L 49.796875 0 
L 65.90625 0 
z
M 20.40625 58.6875 
C 20.40625 61.484375 21.5 62.296875 25.5 62.296875 
C 38 62.296875 43.796875 57.984375 43.796875 48.59375 
C 43.796875 43.59375 41.703125 39.390625 38.09375 37.484375 
C 33.5 34.890625 30 34.296875 20.40625 34.09375 
z
" id="Nimbus_Roman_No9_L_Regular-82"/>
      <path d="M 34.40625 -1 
L 49.09375 4.1875 
L 49.09375 5.796875 
C 47.296875 5.6875 47.09375 5.6875 46.796875 5.6875 
C 43.203125 5.6875 42.40625 6.796875 42.40625 11.390625 
L 42.40625 68.09375 
L 41.90625 68.296875 
C 37.09375 66.59375 33.59375 65.59375 27.203125 63.890625 
L 27.203125 62.296875 
C 28 62.390625 28.59375 62.390625 29.40625 62.390625 
C 33.09375 62.390625 34 61.390625 34 57.296875 
L 34 41.6875 
C 30.203125 44.890625 27.5 46 23.5 46 
C 12 46 2.703125 34.6875 2.703125 20.5 
C 2.703125 7.6875 10.203125 -1 21.203125 -1 
C 26.796875 -1 30.59375 1 34 5.6875 
L 34 -0.703125 
z
M 34 10.1875 
C 34 9.5 33.296875 8.296875 32.296875 7.1875 
C 30.5 5.1875 28 4.1875 25.09375 4.1875 
C 16.796875 4.1875 11.296875 12.1875 11.296875 24.5 
C 11.296875 35.796875 16.203125 43.1875 23.796875 43.1875 
C 29.09375 43.1875 34 38.5 34 33.1875 
z
" id="Nimbus_Roman_No9_L_Regular-100"/>
      <path d="M 1.90625 62.296875 
L 2.5 62.296875 
C 3.59375 62.390625 4.796875 62.5 5.59375 62.5 
C 8.796875 62.5 9.796875 61.09375 9.796875 56.390625 
L 9.796875 8.6875 
C 9.796875 3.296875 8.40625 2 2.09375 1.5 
L 2.09375 0 
L 25.703125 0 
L 25.703125 1.5 
C 19.40625 1.890625 18.203125 2.890625 18.203125 8.390625 
L 18.203125 68.09375 
L 17.796875 68.296875 
C 12.59375 66.59375 8.796875 65.59375 1.90625 63.890625 
z
" id="Nimbus_Roman_No9_L_Regular-108"/>
      <path d="M 15.296875 68.09375 
L 14.796875 68.296875 
C 10.59375 66.796875 7.90625 66 3.203125 64.6875 
L 0.296875 63.890625 
L 0.296875 62.296875 
C 0.90625 62.390625 1.296875 62.390625 2 62.390625 
C 6 62.390625 6.90625 61.5 6.90625 57.296875 
L 6.90625 5.390625 
C 6.90625 2.296875 15.40625 -1 23.40625 -1 
C 36.59375 -1 46.796875 9.984375 46.796875 24.296875 
C 46.796875 36.59375 39.203125 46 29.203125 46 
C 23.09375 46 17.296875 42.390625 15.296875 37.484375 
z
M 15.296875 32.1875 
C 15.296875 36.09375 20 39.6875 25.203125 39.6875 
C 33 39.6875 38 31.890625 38 19.6875 
C 38 8.59375 33.203125 2.1875 25 2.1875 
C 19.796875 2.1875 15.296875 4.484375 15.296875 6.984375 
z
" id="Nimbus_Roman_No9_L_Regular-98"/>
      <path d="M 47.90625 4.984375 
L 47.40625 4.984375 
C 42.796875 4.984375 41.703125 6.09375 41.703125 10.6875 
L 41.703125 45 
L 25.90625 45 
L 25.90625 43.296875 
C 32.09375 43 33.296875 42 33.296875 37 
L 33.296875 13.5 
C 33.296875 10.6875 32.796875 9.296875 31.40625 8.1875 
C 28.703125 6 25.59375 4.796875 22.59375 4.796875 
C 18.703125 4.796875 15.5 8.1875 15.5 12.390625 
L 15.5 45 
L 0.90625 45 
L 0.90625 43.59375 
C 5.703125 43.296875 7.09375 41.796875 7.09375 37.1875 
L 7.09375 12 
C 7.09375 4.09375 11.90625 -1 19.203125 -1 
C 22.90625 -1 26.796875 0.59375 29.5 3.296875 
L 33.796875 7.59375 
L 33.796875 -0.703125 
L 34.203125 -1 
C 39.203125 1 42.796875 2.09375 47.90625 3.5 
z
" id="Nimbus_Roman_No9_L_Regular-117"/>
      <path d="M 47.90625 23.296875 
L 47.90625 46.34375 
L 45.59375 46.34375 
C 44.40625 38.46875 42.59375 37 34.59375 37 
L 20.09375 37 
L 20.09375 58.84375 
C 20.09375 61.59375 20.59375 62.1875 23.296875 62.1875 
L 36.90625 62.1875 
C 48.203125 62.1875 50.40625 60.71875 52.09375 51.859375 
L 54.59375 51.859375 
L 54.296875 66 
L 1.203125 66 
L 1.203125 64.09375 
C 8.59375 63.5 9.90625 62.125 9.90625 55.21875 
L 9.90625 12.0625 
C 9.90625 3.703125 8.796875 2.390625 1.203125 1.890625 
L 1.203125 0 
L 29.203125 0 
L 29.203125 1.890625 
C 21.5 2.296875 20.09375 3.703125 20.09375 10.953125 
L 20.09375 32.890625 
L 34.59375 32.890625 
C 42.703125 32.890625 44.40625 31.375 45.59375 23.234375 
z
" id="Nimbus_Roman_No9_L_Regular-70"/>
     </defs>
     <g transform="translate(13.509155 280.959738)rotate(-90)scale(0.2 -0.2)">
      <use transform="scale(0.996264)" xlink:href="#Nimbus_Roman_No9_L_Regular-82"/>
      <use transform="translate(66.450031 0)scale(0.996264)" xlink:href="#Nimbus_Roman_No9_L_Regular-97"/>
      <use transform="translate(110.6836 0)scale(0.996264)" xlink:href="#Nimbus_Roman_No9_L_Regular-100"/>
      <use transform="translate(160.4968 0)scale(0.996264)" xlink:href="#Nimbus_Roman_No9_L_Regular-105"/>
      <use transform="translate(188.19197 0)scale(0.996264)" xlink:href="#Nimbus_Roman_No9_L_Regular-97"/>
      <use transform="translate(232.425539 0)scale(0.996264)" xlink:href="#Nimbus_Roman_No9_L_Regular-108"/>
      <use transform="translate(285.027308 0)scale(0.996264)" xlink:href="#Nimbus_Roman_No9_L_Regular-68"/>
      <use transform="translate(356.957293 0)scale(0.996264)" xlink:href="#Nimbus_Roman_No9_L_Regular-105"/>
      <use transform="translate(384.652463 0)scale(0.996264)" xlink:href="#Nimbus_Roman_No9_L_Regular-115"/>
      <use transform="translate(423.406169 0)scale(0.996264)" xlink:href="#Nimbus_Roman_No9_L_Regular-116"/>
      <use transform="translate(451.101339 0)scale(0.996264)" xlink:href="#Nimbus_Roman_No9_L_Regular-114"/>
      <use transform="translate(484.276568 0)scale(0.996264)" xlink:href="#Nimbus_Roman_No9_L_Regular-105"/>
      <use transform="translate(511.971738 0)scale(0.996264)" xlink:href="#Nimbus_Roman_No9_L_Regular-98"/>
      <use transform="translate(559.792927 0)scale(0.996264)" xlink:href="#Nimbus_Roman_No9_L_Regular-117"/>
      <use transform="translate(609.606128 0)scale(0.996264)" xlink:href="#Nimbus_Roman_No9_L_Regular-116"/>
      <use transform="translate(637.301298 0)scale(0.996264)" xlink:href="#Nimbus_Roman_No9_L_Regular-105"/>
      <use transform="translate(664.996467 0)scale(0.996264)" xlink:href="#Nimbus_Roman_No9_L_Regular-111"/>
      <use transform="translate(714.809668 0)scale(0.996264)" xlink:href="#Nimbus_Roman_No9_L_Regular-110"/>
      <use transform="translate(789.529468 0)scale(0.996264)" xlink:href="#Nimbus_Roman_No9_L_Regular-70"/>
      <use transform="translate(844.921145 0)scale(0.996264)" xlink:href="#Nimbus_Roman_No9_L_Regular-117"/>
      <use transform="translate(894.734346 0)scale(0.996264)" xlink:href="#Nimbus_Roman_No9_L_Regular-110"/>
      <use transform="translate(944.547546 0)scale(0.996264)" xlink:href="#Nimbus_Roman_No9_L_Regular-99"/>
      <use transform="translate(988.781115 0)scale(0.996264)" xlink:href="#Nimbus_Roman_No9_L_Regular-116"/>
      <use transform="translate(1016.476285 0)scale(0.996264)" xlink:href="#Nimbus_Roman_No9_L_Regular-105"/>
      <use transform="translate(1044.171454 0)scale(0.996264)" xlink:href="#Nimbus_Roman_No9_L_Regular-111"/>
      <use transform="translate(1093.984655 0)scale(0.996264)" xlink:href="#Nimbus_Roman_No9_L_Regular-110"/>
     </g>
    </g>
   </g>
   <g id="line2d_11">
    <path clip-path="url(#paf9f81c60d)" d="M 74.5581 40.056061 
L 78.741793 27.927712 
L 82.925486 21.041282 
L 87.109178 18.325455 
L 91.292871 31.15543 
L 95.476563 29.440379 
L 99.660256 31.289694 
L 103.843949 39.706448 
L 108.027641 43.242421 
L 112.211334 43.284971 
L 116.395026 51.503523 
L 120.578719 53.778384 
L 124.762412 56.515579 
L 128.946104 63.28716 
L 133.129797 68.315843 
L 137.313489 69.186225 
L 141.497182 74.170577 
L 145.680875 81.5842 
L 149.864567 85.352006 
L 154.04826 90.112441 
L 158.231952 96.104195 
L 162.415645 100.616961 
L 166.599338 102.788884 
L 170.78303 107.107669 
L 174.966723 113.28624 
L 179.150415 117.321096 
L 183.334108 120.894949 
L 187.517801 127.596636 
L 191.701493 131.177521 
L 195.885186 134.128878 
L 200.068878 139.305547 
L 204.252571 144.627359 
L 208.436264 146.957592 
L 212.619956 151.974095 
L 216.803649 155.467628 
L 220.987341 159.408296 
L 225.171034 163.508428 
L 229.354727 168.267228 
L 233.538419 171.422751 
L 237.722112 176.323762 
L 241.905804 180.999423 
L 246.089497 184.264504 
L 250.27319 188.508535 
L 254.456882 193.598973 
L 258.640575 196.81746 
L 262.824267 199.883307 
L 267.00796 204.269749 
L 271.191652 207.427481 
L 275.375345 210.241172 
L 279.559038 214.128319 
L 283.74273 217.576043 
L 287.926423 220.496898 
L 292.110115 223.874072 
L 296.293808 227.374371 
L 300.477501 230.446619 
L 304.661193 233.705731 
L 308.844886 237.028669 
L 313.028578 240.027967 
L 317.212271 243.023318 
L 321.395964 246.14624 
L 325.579656 248.933087 
L 329.763349 251.810175 
L 333.947041 254.669886 
L 338.130734 257.169353 
L 342.314427 259.5766 
L 346.498119 262.224101 
L 350.681812 264.70789 
L 354.865504 267.119352 
L 359.049197 269.643644 
L 363.23289 272.098172 
L 367.416582 274.337178 
L 371.600275 276.519314 
L 375.783967 278.699485 
L 379.96766 280.783877 
L 384.151353 282.687548 
L 388.335045 284.553919 
L 392.518738 286.307899 
L 396.70243 287.962054 
L 400.886123 289.532496 
L 405.069816 291.065894 
L 409.253508 292.575139 
L 413.437201 294.031393 
L 417.620893 295.419226 
L 421.804586 296.829297 
L 425.988279 298.171842 
L 430.171971 299.434995 
L 434.355664 300.681289 
L 438.539356 301.903563 
L 442.723049 302.884163 
L 446.906742 303.927194 
L 451.090434 304.850024 
L 455.274127 305.635428 
L 459.457819 306.35659 
L 463.641512 307.159796 
L 467.825205 307.648113 
L 472.008897 308.106844 
L 476.19259 308.448442 
L 480.376282 308.728614 
" style="fill:none;stroke:#fee5d8;stroke-linecap:square;stroke-width:1.5;"/>
   </g>
   <g id="line2d_12">
    <path clip-path="url(#paf9f81c60d)" d="M 74.5581 41.796544 
L 78.741793 30.066603 
L 82.925486 23.692091 
L 87.109178 21.413135 
L 91.292871 34.502879 
L 95.476563 33.190382 
L 99.660256 35.338919 
L 103.843949 43.911993 
L 108.027641 47.616161 
L 112.211334 47.854699 
L 116.395026 56.177743 
L 120.578719 58.709443 
L 124.762412 61.671547 
L 128.946104 68.530454 
L 133.129797 73.672658 
L 137.313489 74.717188 
L 141.497182 79.765175 
L 145.680875 87.220422 
L 149.864567 91.198348 
L 154.04826 96.178233 
L 158.231952 102.355828 
L 162.415645 107.099894 
L 166.599338 109.600505 
L 170.78303 114.137889 
L 174.966723 120.428774 
L 179.150415 124.65643 
L 183.334108 128.411486 
L 187.517801 135.121459 
L 191.701493 138.83816 
L 195.885186 141.948982 
L 200.068878 147.21269 
L 204.252571 152.59353 
L 208.436264 155.127321 
L 212.619956 160.21849 
L 216.803649 163.883069 
L 220.987341 167.936943 
L 225.171034 172.15625 
L 229.354727 177.01935 
L 233.538419 180.392187 
L 237.722112 185.389363 
L 241.905804 190.174834 
L 246.089497 193.685958 
L 250.27319 198.071872 
L 254.456882 203.231491 
L 258.640575 206.696241 
L 262.824267 210.031679 
L 267.00796 214.55162 
L 271.191652 217.995112 
L 275.375345 221.155344 
L 279.559038 225.277585 
L 283.74273 229.045082 
L 287.926423 232.378522 
L 292.110115 236.082996 
L 296.293808 239.880225 
L 300.477501 243.316481 
L 304.661193 246.899889 
L 308.844886 250.551375 
L 313.028578 253.975822 
L 317.212271 257.370997 
L 321.395964 260.815355 
L 325.579656 263.991362 
L 329.763349 267.144564 
L 333.947041 270.231958 
L 338.130734 273.057286 
L 342.314427 275.784559 
L 346.498119 278.582344 
L 350.681812 281.227215 
L 354.865504 283.820848 
L 359.049197 286.428735 
L 363.23289 288.876693 
L 367.416582 291.265 
L 371.600275 293.51769 
L 375.783967 295.620433 
L 379.96766 297.607356 
L 384.151353 299.529816 
L 388.335045 301.21868 
L 392.518738 302.898445 
L 396.70243 304.404744 
L 400.886123 305.813799 
L 405.069816 307.036832 
L 409.253508 308.199815 
L 413.437201 309.201103 
L 417.620893 310.086271 
L 421.804586 310.893715 
L 425.988279 311.593079 
L 430.171971 312.170054 
L 434.355664 312.706728 
L 438.539356 313.289756 
L 442.723049 313.555298 
L 446.906742 313.995643 
L 451.090434 314.32316 
L 455.274127 314.473228 
L 459.457819 314.544896 
L 463.641512 314.834545 
L 467.825205 314.730093 
L 472.008897 314.594162 
L 476.19259 314.46533 
L 480.376282 314.025415 
" style="fill:none;stroke:#fdc6b0;stroke-linecap:square;stroke-width:1.5;"/>
   </g>
   <g id="line2d_13">
    <path clip-path="url(#paf9f81c60d)" d="M 74.5581 73.783077 
L 78.741793 65.366893 
L 82.925486 61.853709 
L 87.109178 62.017496 
L 91.292871 75.587489 
L 95.476563 77.166859 
L 99.660256 81.74097 
L 103.843949 91.963523 
L 108.027641 98.274084 
L 112.211334 101.792254 
L 116.395026 111.690447 
L 120.578719 117.057878 
L 124.762412 122.86261 
L 128.946104 131.519204 
L 133.129797 139.01856 
L 137.313489 143.60163 
L 141.497182 150.962409 
L 145.680875 159.849966 
L 149.864567 166.229586 
L 154.04826 173.26965 
L 158.231952 181.084971 
L 162.415645 187.796239 
L 166.599338 193.220556 
L 170.78303 199.792522 
L 174.966723 207.044175 
L 179.150415 213.204196 
L 183.334108 219.15101 
L 187.517801 226.114272 
L 191.701493 231.582792 
L 195.885186 236.610192 
L 200.068878 242.441548 
L 204.252571 247.872043 
L 208.436264 252.242117 
L 212.619956 257.255956 
L 216.803649 261.561734 
L 220.987341 265.618519 
L 225.171034 269.586639 
L 229.354727 273.409192 
L 233.538419 276.653873 
L 237.722112 279.962883 
L 241.905804 282.965168 
L 246.089497 285.531134 
L 250.27319 287.786646 
L 254.456882 289.877988 
L 258.640575 291.524524 
L 262.824267 292.929912 
L 267.00796 294.037417 
L 271.191652 294.770571 
L 275.375345 295.274726 
L 279.559038 295.536084 
L 283.74273 295.491166 
L 287.926423 295.199539 
L 292.110115 294.946883 
L 296.293808 294.384183 
L 300.477501 293.517549 
L 304.661193 292.545728 
L 308.844886 291.770888 
L 313.028578 290.533158 
L 317.212271 289.327742 
L 321.395964 288.334607 
L 325.579656 287.102177 
L 329.763349 285.549867 
L 333.947041 284.213754 
L 338.130734 282.76628 
L 342.314427 281.06013 
L 346.498119 279.572683 
L 350.681812 278.092165 
L 354.865504 276.485587 
L 359.049197 274.905198 
L 363.23289 273.539656 
L 367.416582 271.819303 
L 371.600275 270.303341 
L 375.783967 268.989128 
L 379.96766 267.442047 
L 384.151353 265.874628 
L 388.335045 264.81476 
L 392.518738 263.468445 
L 396.70243 262.252085 
L 400.886123 261.318098 
L 405.069816 260.418773 
L 409.253508 259.350758 
L 413.437201 258.564486 
L 417.620893 257.863986 
L 421.804586 257.066429 
L 425.988279 256.484404 
L 430.171971 256.161844 
L 434.355664 255.787998 
L 438.539356 255.336576 
L 442.723049 255.425289 
L 446.906742 255.212972 
L 451.090434 255.158925 
L 455.274127 255.317952 
L 459.457819 255.528037 
L 463.641512 255.462336 
L 467.825205 255.872625 
L 472.008897 256.243947 
L 476.19259 256.687711 
L 480.376282 257.382803 
" style="fill:none;stroke:#fca285;stroke-linecap:square;stroke-width:1.5;"/>
   </g>
   <g id="line2d_14">
    <path clip-path="url(#paf9f81c60d)" d="M 74.5581 94.604661 
L 78.741793 88.025962 
L 82.925486 85.984003 
L 87.109178 87.298151 
L 91.292871 100.595608 
L 95.476563 103.343224 
L 99.660256 108.739513 
L 103.843949 119.262259 
L 108.027641 126.460201 
L 112.211334 131.432395 
L 116.395026 141.935189 
L 120.578719 148.728357 
L 124.762412 156.045431 
L 128.946104 165.642393 
L 133.129797 174.300496 
L 137.313489 180.57896 
L 141.497182 188.926223 
L 145.680875 198.293778 
L 149.864567 205.647462 
L 154.04826 213.410106 
L 158.231952 221.598047 
L 162.415645 228.7949 
L 166.599338 234.9657 
L 170.78303 241.593789 
L 174.966723 248.309368 
L 179.150415 254.349379 
L 183.334108 259.988807 
L 187.517801 265.708143 
L 191.701493 270.508308 
L 195.885186 274.66778 
L 200.068878 278.701969 
L 204.252571 282.127332 
L 208.436264 284.834842 
L 212.619956 287.183841 
L 216.803649 288.939424 
L 220.987341 290.164112 
L 225.171034 291.068871 
L 229.354727 291.648073 
L 233.538419 291.922452 
L 237.722112 291.875057 
L 241.905804 291.542685 
L 246.089497 290.777295 
L 250.27319 289.616973 
L 254.456882 288.105335 
L 258.640575 286.278594 
L 262.824267 284.216392 
L 267.00796 282.007888 
L 271.191652 279.559535 
L 275.375345 276.928917 
L 279.559038 274.357865 
L 283.74273 271.697696 
L 287.926423 268.885393 
L 292.110115 266.149192 
L 296.293808 263.550573 
L 300.477501 260.920836 
L 304.661193 258.438856 
L 308.844886 256.108423 
L 313.028578 253.797767 
L 317.212271 251.665156 
L 321.395964 249.799833 
L 325.579656 247.798599 
L 329.763349 246.176864 
L 333.947041 244.793515 
L 338.130734 243.251433 
L 342.314427 241.902818 
L 346.498119 241.163989 
L 350.681812 240.476509 
L 354.865504 239.781369 
L 359.049197 239.508299 
L 363.23289 239.616237 
L 367.416582 239.445636 
L 371.600275 239.677702 
L 375.783967 240.476779 
L 379.96766 241.430453 
L 384.151353 242.208053 
L 388.335045 243.725497 
L 392.518738 245.095326 
L 396.70243 246.722244 
L 400.886123 248.385214 
L 405.069816 250.323162 
L 409.253508 252.139747 
L 413.437201 254.10765 
L 417.620893 256.038556 
L 421.804586 258.102957 
L 425.988279 260.187937 
L 430.171971 262.34129 
L 434.355664 264.445208 
L 438.539356 266.390516 
L 442.723049 268.475782 
L 446.906742 270.299088 
L 451.090434 272.07015 
L 455.274127 273.858051 
L 459.457819 275.529568 
L 463.641512 276.941973 
L 467.825205 278.394596 
L 472.008897 279.642684 
L 476.19259 280.910653 
L 480.376282 281.865708 
" style="fill:none;stroke:#fb7d5d;stroke-linecap:square;stroke-width:1.5;"/>
   </g>
   <g id="line2d_15">
    <path clip-path="url(#paf9f81c60d)" d="M 74.5581 114.089975 
L 78.741793 109.018238 
L 82.925486 108.006178 
L 87.109178 110.253429 
L 91.292871 123.412115 
L 95.476563 127.461508 
L 99.660256 133.977275 
L 103.843949 145.210534 
L 108.027641 153.557419 
L 112.211334 159.860864 
L 116.395026 170.623295 
L 120.578719 178.139153 
L 124.762412 185.935338 
L 128.946104 195.339967 
L 133.129797 203.870121 
L 137.313489 210.46085 
L 141.497182 218.534637 
L 145.680875 227.198132 
L 149.864567 234.168758 
L 154.04826 241.279497 
L 158.231952 248.475143 
L 162.415645 254.61066 
L 166.599338 259.767355 
L 170.78303 264.813217 
L 174.966723 269.394624 
L 179.150415 273.130662 
L 183.334108 276.175118 
L 187.517801 278.738159 
L 191.701493 280.349314 
L 195.885186 281.322032 
L 200.068878 281.897419 
L 204.252571 281.793437 
L 208.436264 281.080029 
L 212.619956 280.137258 
L 216.803649 278.598329 
L 220.987341 276.722192 
L 225.171034 274.778153 
L 229.354727 272.644152 
L 233.538419 270.03071 
L 237.722112 267.647929 
L 241.905804 265.248048 
L 246.089497 262.274239 
L 250.27319 259.529887 
L 254.456882 257.141639 
L 258.640575 254.192404 
L 262.824267 251.305602 
L 267.00796 249.053903 
L 271.191652 246.429074 
L 275.375345 243.767389 
L 279.559038 241.924443 
L 283.74273 240.111238 
L 287.926423 238.268676 
L 292.110115 237.121668 
L 296.293808 236.451323 
L 300.477501 235.845494 
L 304.661193 235.794353 
L 308.844886 236.18157 
L 313.028578 236.579224 
L 317.212271 237.36276 
L 321.395964 238.644104 
L 325.579656 239.846511 
L 329.763349 241.49377 
L 333.947041 243.462339 
L 338.130734 245.225448 
L 342.314427 247.031891 
L 346.498119 249.295383 
L 350.681812 251.461014 
L 354.865504 253.54228 
L 359.049197 255.803683 
L 363.23289 258.113255 
L 367.416582 260.103848 
L 371.600275 262.166354 
L 375.783967 264.374607 
L 379.96766 266.486952 
L 384.151353 268.325915 
L 388.335045 270.328402 
L 392.518738 272.081147 
L 396.70243 273.725424 
L 400.886123 275.179605 
L 405.069816 276.525147 
L 409.253508 277.583447 
L 413.437201 278.407968 
L 417.620893 278.95107 
L 421.804586 279.334856 
L 425.988279 279.50445 
L 430.171971 279.509363 
L 434.355664 279.327289 
L 438.539356 278.932911 
L 442.723049 278.476541 
L 446.906742 277.772622 
L 451.090434 276.986562 
L 455.274127 276.15945 
L 459.457819 275.265347 
L 463.641512 274.179679 
L 467.825205 273.215575 
L 472.008897 272.19727 
L 476.19259 271.184083 
L 480.376282 270.196706 
" style="fill:none;stroke:#f6583e;stroke-linecap:square;stroke-width:1.5;"/>
   </g>
   <g id="line2d_16">
    <path clip-path="url(#paf9f81c60d)" d="M 74.5581 134.39024 
L 78.741793 129.925791 
L 82.925486 129.134284 
L 87.109178 131.433077 
L 91.292871 143.534447 
L 95.476563 147.719211 
L 99.660256 154.130005 
L 103.843949 164.726201 
L 108.027641 172.750204 
L 112.211334 178.97706 
L 116.395026 189.009269 
L 120.578719 196.212145 
L 124.762412 203.67858 
L 128.946104 212.384462 
L 133.129797 220.258187 
L 137.313489 226.474128 
L 141.497182 233.749526 
L 145.680875 241.250885 
L 149.864567 247.252709 
L 154.04826 253.18752 
L 158.231952 258.837177 
L 162.415645 263.375946 
L 166.599338 266.896761 
L 170.78303 270.052333 
L 174.966723 272.688065 
L 179.150415 274.5684 
L 183.334108 275.62632 
L 187.517801 276.274728 
L 191.701493 276.066437 
L 195.885186 275.149907 
L 200.068878 273.779747 
L 204.252571 272.140942 
L 208.436264 269.758015 
L 212.619956 267.271865 
L 216.803649 264.340096 
L 220.987341 261.373516 
L 225.171034 258.278831 
L 229.354727 255.2315 
L 233.538419 251.812757 
L 237.722112 248.979428 
L 241.905804 246.306278 
L 246.089497 243.165837 
L 250.27319 240.806754 
L 254.456882 239.150034 
L 258.640575 236.997822 
L 262.824267 235.21863 
L 267.00796 234.660601 
L 271.191652 233.827217 
L 275.375345 233.183209 
L 279.559038 233.688834 
L 283.74273 234.298417 
L 287.926423 234.903325 
L 292.110115 236.232467 
L 296.293808 238.037457 
L 300.477501 239.737983 
L 304.661193 241.933438 
L 308.844886 244.463763 
L 313.028578 246.888767 
L 317.212271 249.543802 
L 321.395964 252.580492 
L 325.579656 255.361417 
L 329.763349 258.306453 
L 333.947041 261.420188 
L 338.130734 264.153929 
L 342.314427 266.712763 
L 346.498119 269.44447 
L 350.681812 271.844997 
L 354.865504 273.799319 
L 359.049197 275.738584 
L 363.23289 277.385801 
L 367.416582 278.448655 
L 371.600275 279.300398 
L 375.783967 280.047813 
L 379.96766 280.252249 
L 384.151353 280.12844 
L 388.335045 279.992573 
L 392.518738 279.475751 
L 396.70243 278.789768 
L 400.886123 277.969014 
L 405.069816 276.974096 
L 409.253508 275.794374 
L 413.437201 274.53846 
L 417.620893 273.118843 
L 421.804586 271.664059 
L 425.988279 270.225333 
L 430.171971 268.781766 
L 434.355664 267.303159 
L 438.539356 265.817035 
L 442.723049 264.627148 
L 446.906742 263.304114 
L 451.090434 262.171137 
L 455.274127 261.283109 
L 459.457819 260.60582 
L 463.641512 259.79729 
L 467.825205 259.469402 
L 472.008897 259.322743 
L 476.19259 259.085894 
L 480.376282 259.593579 
" style="fill:none;stroke:#e43027;stroke-linecap:square;stroke-width:1.5;"/>
   </g>
   <g id="line2d_17">
    <path clip-path="url(#paf9f81c60d)" d="M 74.5581 142.346137 
L 78.741793 138.542448 
L 82.925486 138.154523 
L 87.109178 140.663928 
L 91.292871 152.428509 
L 95.476563 156.70961 
L 99.660256 163.093629 
L 103.843949 173.421503 
L 108.027641 181.402903 
L 112.211334 187.74039 
L 116.395026 197.577641 
L 120.578719 204.777613 
L 124.762412 212.188983 
L 128.946104 220.60768 
L 133.129797 228.197485 
L 137.313489 234.157079 
L 141.497182 240.903085 
L 145.680875 247.700207 
L 149.864567 252.981331 
L 154.04826 257.931383 
L 158.231952 262.47234 
L 162.415645 265.838233 
L 166.599338 268.11582 
L 170.78303 269.975978 
L 174.966723 271.338093 
L 179.150415 271.775306 
L 183.334108 271.484704 
L 187.517801 270.917142 
L 191.701493 269.348254 
L 195.885186 267.232685 
L 200.068878 264.917758 
L 204.252571 262.308182 
L 208.436264 258.965359 
L 212.619956 256.001694 
L 216.803649 252.594375 
L 220.987341 249.345992 
L 225.171034 246.353686 
L 229.354727 243.699556 
L 233.538419 240.616946 
L 237.722112 238.527036 
L 241.905804 236.7602 
L 246.089497 234.533104 
L 250.27319 233.233643 
L 254.456882 232.898927 
L 258.640575 231.999787 
L 262.824267 231.506341 
L 267.00796 232.324682 
L 271.191652 232.854479 
L 275.375345 233.581283 
L 279.559038 235.434449 
L 283.74273 237.35703 
L 287.926423 239.202305 
L 292.110115 241.67816 
L 296.293808 244.453879 
L 300.477501 247.142275 
L 304.661193 250.105405 
L 308.844886 253.294317 
L 313.028578 256.282665 
L 317.212271 259.254824 
L 321.395964 262.226275 
L 325.579656 264.914363 
L 329.763349 267.430057 
L 333.947041 269.731385 
L 338.130734 271.661809 
L 342.314427 273.263927 
L 346.498119 274.713261 
L 350.681812 275.807927 
L 354.865504 276.596395 
L 359.049197 277.044773 
L 363.23289 277.215423 
L 367.416582 276.956877 
L 371.600275 276.430468 
L 375.783967 275.696723 
L 379.96766 274.752771 
L 384.151353 273.471715 
L 388.335045 272.189349 
L 392.518738 270.726547 
L 396.70243 269.270402 
L 400.886123 267.636045 
L 405.069816 266.117486 
L 409.253508 264.574704 
L 413.437201 263.08137 
L 417.620893 261.629238 
L 421.804586 260.392907 
L 425.988279 259.321074 
L 430.171971 258.457069 
L 434.355664 257.754999 
L 438.539356 257.152716 
L 442.723049 257.036148 
L 446.906742 256.822623 
L 451.090434 256.874604 
L 455.274127 257.269989 
L 459.457819 257.866178 
L 463.641512 258.279818 
L 467.825205 259.244898 
L 472.008897 260.320609 
L 476.19259 261.367003 
L 480.376282 262.912584 
" style="fill:none;stroke:#c3161b;stroke-linecap:square;stroke-width:1.5;"/>
   </g>
   <g id="line2d_18">
    <path clip-path="url(#paf9f81c60d)" d="M 74.5581 157.609036 
L 78.741793 154.040873 
L 82.925486 153.703718 
L 87.109178 155.916919 
L 91.292871 166.368784 
L 95.476563 170.152301 
L 99.660256 175.796327 
L 103.843949 184.907786 
L 108.027641 191.7911 
L 112.211334 197.1378 
L 116.395026 205.536426 
L 120.578719 211.414549 
L 124.762412 217.410429 
L 128.946104 224.299829 
L 133.129797 230.297344 
L 137.313489 234.756722 
L 141.497182 239.978389 
L 145.680875 245.222011 
L 149.864567 249.005812 
L 154.04826 252.542097 
L 158.231952 255.645282 
L 162.415645 257.72178 
L 166.599338 258.709039 
L 170.78303 259.395105 
L 174.966723 259.824977 
L 179.150415 259.43592 
L 183.334108 258.241044 
L 187.517801 257.218431 
L 191.701493 255.297842 
L 195.885186 252.84108 
L 200.068878 250.362937 
L 204.252571 248.047212 
L 208.436264 244.791167 
L 212.619956 242.156107 
L 216.803649 239.220203 
L 220.987341 236.717067 
L 225.171034 234.428549 
L 229.354727 232.708684 
L 233.538419 230.643682 
L 237.722112 229.67807 
L 241.905804 229.030083 
L 246.089497 227.978959 
L 250.27319 227.978389 
L 254.456882 228.893878 
L 258.640575 229.213356 
L 262.824267 229.917415 
L 267.00796 231.879408 
L 271.191652 233.393668 
L 275.375345 235.013899 
L 279.559038 237.646282 
L 283.74273 240.185968 
L 287.926423 242.473801 
L 292.110115 245.246365 
L 296.293808 248.118015 
L 300.477501 250.613797 
L 304.661193 253.228267 
L 308.844886 255.964896 
L 313.028578 258.226157 
L 317.212271 260.357774 
L 321.395964 262.491565 
L 325.579656 264.128395 
L 329.763349 265.47524 
L 333.947041 266.690541 
L 338.130734 267.402209 
L 342.314427 267.725861 
L 346.498119 268.034343 
L 350.681812 268.000819 
L 354.865504 267.55418 
L 359.049197 266.909958 
L 363.23289 266.119959 
L 367.416582 264.820142 
L 371.600275 263.403272 
L 375.783967 262.026829 
L 379.96766 260.555207 
L 384.151353 258.769376 
L 388.335045 257.304665 
L 392.518738 255.762755 
L 396.70243 254.476377 
L 400.886123 253.096221 
L 405.069816 252.105599 
L 409.253508 251.231499 
L 413.437201 250.530931 
L 417.620893 249.908632 
L 421.804586 249.720382 
L 425.988279 249.720176 
L 430.171971 249.943226 
L 434.355664 250.376812 
L 438.539356 250.875683 
L 442.723049 251.833962 
L 446.906742 252.669207 
L 451.090434 253.722103 
L 455.274127 255.024529 
L 459.457819 256.457762 
L 463.641512 257.592692 
L 467.825205 259.143172 
L 472.008897 260.641776 
L 476.19259 262.169075 
L 480.376282 263.781918 
" style="fill:none;stroke:#9d0d14;stroke-linecap:square;stroke-width:1.5;"/>
   </g>
   <g id="line2d_19">
    <path clip-path="url(#paf9f81c60d)" d="M 74.5581 169.383474 
L 78.741793 166.216446 
L 82.925486 166.011432 
L 87.109178 168.114713 
L 91.292871 177.797478 
L 95.476563 181.415854 
L 99.660256 186.678947 
L 103.843949 195.135308 
L 108.027641 201.535041 
L 112.211334 206.427009 
L 116.395026 214.087333 
L 120.578719 219.577785 
L 124.762412 225.078635 
L 128.946104 231.362904 
L 133.129797 236.877049 
L 137.313489 240.822783 
L 141.497182 245.342156 
L 145.680875 249.933877 
L 149.864567 253.100396 
L 154.04826 255.905135 
L 158.231952 258.408754 
L 162.415645 259.864109 
L 166.599338 260.269153 
L 170.78303 260.494031 
L 174.966723 260.472467 
L 179.150415 259.473072 
L 183.334108 258.051826 
L 187.517801 256.861655 
L 191.701493 254.575103 
L 195.885186 252.051635 
L 200.068878 249.892772 
L 204.252571 247.579124 
L 208.436264 244.56327 
L 212.619956 242.585291 
L 216.803649 240.236237 
L 220.987341 238.298198 
L 225.171034 236.910889 
L 229.354727 236.104293 
L 233.538419 234.936724 
L 237.722112 235.016055 
L 241.905804 235.463195 
L 246.089497 235.530369 
L 250.27319 236.488279 
L 254.456882 238.329895 
L 258.640575 239.58473 
L 262.824267 241.111186 
L 267.00796 243.662992 
L 271.191652 245.839646 
L 275.375345 248.018885 
L 279.559038 250.885991 
L 283.74273 253.605918 
L 287.926423 256.055721 
L 292.110115 258.659532 
L 296.293808 261.245595 
L 300.477501 263.540692 
L 304.661193 265.753139 
L 308.844886 267.857379 
L 313.028578 269.640857 
L 317.212271 271.136218 
L 321.395964 272.367569 
L 325.579656 273.16187 
L 329.763349 273.653154 
L 333.947041 273.808373 
L 338.130734 273.557918 
L 342.314427 273.023022 
L 346.498119 272.404569 
L 350.681812 271.5404 
L 354.865504 270.423098 
L 359.049197 269.18685 
L 363.23289 267.935883 
L 367.416582 266.337312 
L 371.600275 264.82761 
L 375.783967 263.506285 
L 379.96766 262.192681 
L 384.151353 260.802285 
L 388.335045 259.915268 
L 392.518738 259.009783 
L 396.70243 258.440997 
L 400.886123 258.073533 
L 405.069816 258.027422 
L 409.253508 258.073714 
L 413.437201 258.394547 
L 417.620893 258.844186 
L 421.804586 259.506891 
L 425.988279 260.425543 
L 430.171971 261.565777 
L 434.355664 262.802214 
L 438.539356 264.04091 
L 442.723049 265.602046 
L 446.906742 266.972199 
L 451.090434 268.37808 
L 455.274127 269.915208 
L 459.457819 271.397932 
L 463.641512 272.623554 
L 467.825205 273.965054 
L 472.008897 275.158996 
L 476.19259 276.338267 
L 480.376282 277.298576 
" style="fill:none;stroke:#67000d;stroke-linecap:square;stroke-width:1.5;"/>
   </g>
   <g id="patch_3">
    <path d="M 54.267191 329.66 
L 54.267191 3.5 
" style="fill:none;stroke:#000000;stroke-linecap:square;stroke-linejoin:miter;stroke-width:0.8;"/>
   </g>
   <g id="patch_4">
    <path d="M 500.667191 329.66 
L 500.667191 3.5 
" style="fill:none;stroke:#000000;stroke-linecap:square;stroke-linejoin:miter;stroke-width:0.8;"/>
   </g>
   <g id="patch_5">
    <path d="M 54.267191 329.66 
L 500.667191 329.66 
" style="fill:none;stroke:#000000;stroke-linecap:square;stroke-linejoin:miter;stroke-width:0.8;"/>
   </g>
   <g id="patch_6">
    <path d="M 54.267191 3.5 
L 500.667191 3.5 
" style="fill:none;stroke:#000000;stroke-linecap:square;stroke-linejoin:miter;stroke-width:0.8;"/>
   </g>
   <g id="legend_1">
    <g id="patch_7">
     <path d="M 362.174313 274.32292 
L 486.667191 274.32292 
Q 490.667191 274.32292 490.667191 270.32292 
L 490.667191 17.5 
Q 490.667191 13.5 486.667191 13.5 
L 362.174313 13.5 
Q 358.174313 13.5 358.174313 17.5 
L 358.174313 270.32292 
Q 358.174313 274.32292 362.174313 274.32292 
z
" style="fill:#ffffff;opacity:0.8;stroke:#cccccc;stroke-linejoin:miter;"/>
    </g>
    <g id="line2d_20">
     <path d="M 366.174313 28.5 
L 406.174313 28.5 
" style="fill:none;stroke:#fee5d8;stroke-linecap:square;stroke-width:1.5;"/>
    </g>
    <g id="line2d_21"/>
    <g id="text_13">
     <!-- K = 0.0 -->
     <defs>
      <path d="M 41.296875 64.09375 
C 42.5 64 43.5 64 43.90625 64 
C 46.90625 63.796875 48.09375 63 48.09375 61 
C 48.09375 58.8125 45.796875 55.828125 40.296875 50.734375 
L 22.59375 34.6875 
L 22.59375 55.125 
C 22.59375 62.40625 23.703125 63.5 31.796875 64.09375 
L 31.796875 66 
L 3.40625 66 
L 3.40625 64.09375 
C 11.203125 63.5 12.40625 62.203125 12.40625 55.125 
L 12.40625 11.953125 
C 12.40625 3.6875 11.296875 2.390625 3.40625 1.890625 
L 3.40625 0 
L 31.59375 0 
L 31.59375 1.890625 
C 23.796875 2.390625 22.59375 3.59375 22.59375 10.859375 
L 22.59375 29.5 
L 25.203125 31.59375 
L 35.796875 21.125 
C 43.40625 13.65625 48.796875 6.578125 48.796875 4.1875 
C 48.796875 2.796875 47.40625 2.09375 44.59375 1.984375 
C 44.09375 1.984375 43 1.984375 41.796875 1.890625 
L 41.796875 0 
L 72.296875 0 
L 72.296875 1.890625 
C 67.09375 1.984375 65.703125 2.984375 56.59375 12.65625 
L 33.296875 37.578125 
L 52.296875 56.328125 
C 59.09375 62.796875 60.703125 63.59375 67.5 64.09375 
L 67.5 66 
L 41.296875 66 
z
" id="Nimbus_Roman_No9_L_Regular-75"/>
      <path d="M 53.40625 38.59375 
L 3 38.59375 
L 3 32 
L 53.40625 32 
z
M 53.40625 18.59375 
L 3 18.59375 
L 3 12 
L 53.40625 12 
z
" id="Nimbus_Roman_No9_L_Regular-61"/>
      <path d="M 12.5 10.09375 
C 9.5 10.09375 7 7.5 7 4.390625 
C 7 1.5 9.5 -1 12.40625 -1 
C 15.5 -1 18.09375 1.5 18.09375 4.390625 
C 18.09375 7.5 15.5 10.09375 12.5 10.09375 
z
" id="Nimbus_Roman_No9_L_Regular-46"/>
     </defs>
     <g transform="translate(422.174313 35.5)scale(0.2 -0.2)">
      <use transform="scale(0.996264)" xlink:href="#Nimbus_Roman_No9_L_Regular-75"/>
      <use transform="translate(96.836585 0)scale(0.996264)" xlink:href="#Nimbus_Roman_No9_L_Regular-61"/>
      <use transform="translate(177.931436 0)scale(0.996264)" xlink:href="#Nimbus_Roman_No9_L_Regular-48"/>
      <use transform="translate(227.744636 0)scale(0.996264)" xlink:href="#Nimbus_Roman_No9_L_Regular-46"/>
      <use transform="translate(252.651236 0)scale(0.996264)" xlink:href="#Nimbus_Roman_No9_L_Regular-48"/>
     </g>
    </g>
    <g id="line2d_22">
     <path d="M 366.174313 56.813658 
L 406.174313 56.813658 
" style="fill:none;stroke:#fdc6b0;stroke-linecap:square;stroke-width:1.5;"/>
    </g>
    <g id="line2d_23"/>
    <g id="text_14">
     <!-- K = 0.1 -->
     <g transform="translate(422.174313 63.813658)scale(0.2 -0.2)">
      <use transform="scale(0.996264)" xlink:href="#Nimbus_Roman_No9_L_Regular-75"/>
      <use transform="translate(96.836585 0)scale(0.996264)" xlink:href="#Nimbus_Roman_No9_L_Regular-61"/>
      <use transform="translate(177.931436 0)scale(0.996264)" xlink:href="#Nimbus_Roman_No9_L_Regular-48"/>
      <use transform="translate(227.744636 0)scale(0.996264)" xlink:href="#Nimbus_Roman_No9_L_Regular-46"/>
      <use transform="translate(252.651236 0)scale(0.996264)" xlink:href="#Nimbus_Roman_No9_L_Regular-49"/>
     </g>
    </g>
    <g id="line2d_24">
     <path d="M 366.174313 85.127316 
L 406.174313 85.127316 
" style="fill:none;stroke:#fca285;stroke-linecap:square;stroke-width:1.5;"/>
    </g>
    <g id="line2d_25"/>
    <g id="text_15">
     <!-- K = 0.5 -->
     <g transform="translate(422.174313 92.127316)scale(0.2 -0.2)">
      <use transform="scale(0.996264)" xlink:href="#Nimbus_Roman_No9_L_Regular-75"/>
      <use transform="translate(96.836585 0)scale(0.996264)" xlink:href="#Nimbus_Roman_No9_L_Regular-61"/>
      <use transform="translate(177.931436 0)scale(0.996264)" xlink:href="#Nimbus_Roman_No9_L_Regular-48"/>
      <use transform="translate(227.744636 0)scale(0.996264)" xlink:href="#Nimbus_Roman_No9_L_Regular-46"/>
      <use transform="translate(252.651236 0)scale(0.996264)" xlink:href="#Nimbus_Roman_No9_L_Regular-53"/>
     </g>
    </g>
    <g id="line2d_26">
     <path d="M 366.174313 113.440973 
L 406.174313 113.440973 
" style="fill:none;stroke:#fb7d5d;stroke-linecap:square;stroke-width:1.5;"/>
    </g>
    <g id="line2d_27"/>
    <g id="text_16">
     <!-- K = 1.0 -->
     <g transform="translate(422.174313 120.440973)scale(0.2 -0.2)">
      <use transform="scale(0.996264)" xlink:href="#Nimbus_Roman_No9_L_Regular-75"/>
      <use transform="translate(96.836585 0)scale(0.996264)" xlink:href="#Nimbus_Roman_No9_L_Regular-61"/>
      <use transform="translate(177.931436 0)scale(0.996264)" xlink:href="#Nimbus_Roman_No9_L_Regular-49"/>
      <use transform="translate(227.744636 0)scale(0.996264)" xlink:href="#Nimbus_Roman_No9_L_Regular-46"/>
      <use transform="translate(252.651236 0)scale(0.996264)" xlink:href="#Nimbus_Roman_No9_L_Regular-48"/>
     </g>
    </g>
    <g id="line2d_28">
     <path d="M 366.174313 141.754631 
L 406.174313 141.754631 
" style="fill:none;stroke:#f6583e;stroke-linecap:square;stroke-width:1.5;"/>
    </g>
    <g id="line2d_29"/>
    <g id="text_17">
     <!-- K = 2.0 -->
     <g transform="translate(422.174313 148.754631)scale(0.2 -0.2)">
      <use transform="scale(0.996264)" xlink:href="#Nimbus_Roman_No9_L_Regular-75"/>
      <use transform="translate(96.836585 0)scale(0.996264)" xlink:href="#Nimbus_Roman_No9_L_Regular-61"/>
      <use transform="translate(177.931436 0)scale(0.996264)" xlink:href="#Nimbus_Roman_No9_L_Regular-50"/>
      <use transform="translate(227.744636 0)scale(0.996264)" xlink:href="#Nimbus_Roman_No9_L_Regular-46"/>
      <use transform="translate(252.651236 0)scale(0.996264)" xlink:href="#Nimbus_Roman_No9_L_Regular-48"/>
     </g>
    </g>
    <g id="line2d_30">
     <path d="M 366.174313 170.068289 
L 406.174313 170.068289 
" style="fill:none;stroke:#e43027;stroke-linecap:square;stroke-width:1.5;"/>
    </g>
    <g id="line2d_31"/>
    <g id="text_18">
     <!-- K = 3.0 -->
     <g transform="translate(422.174313 177.068289)scale(0.2 -0.2)">
      <use transform="scale(0.996264)" xlink:href="#Nimbus_Roman_No9_L_Regular-75"/>
      <use transform="translate(96.836585 0)scale(0.996264)" xlink:href="#Nimbus_Roman_No9_L_Regular-61"/>
      <use transform="translate(177.931436 0)scale(0.996264)" xlink:href="#Nimbus_Roman_No9_L_Regular-51"/>
      <use transform="translate(227.744636 0)scale(0.996264)" xlink:href="#Nimbus_Roman_No9_L_Regular-46"/>
      <use transform="translate(252.651236 0)scale(0.996264)" xlink:href="#Nimbus_Roman_No9_L_Regular-48"/>
     </g>
    </g>
    <g id="line2d_32">
     <path d="M 366.174313 198.381947 
L 406.174313 198.381947 
" style="fill:none;stroke:#c3161b;stroke-linecap:square;stroke-width:1.5;"/>
    </g>
    <g id="line2d_33"/>
    <g id="text_19">
     <!-- K = 4.0 -->
     <g transform="translate(422.174313 205.381947)scale(0.2 -0.2)">
      <use transform="scale(0.996264)" xlink:href="#Nimbus_Roman_No9_L_Regular-75"/>
      <use transform="translate(96.836585 0)scale(0.996264)" xlink:href="#Nimbus_Roman_No9_L_Regular-61"/>
      <use transform="translate(177.931436 0)scale(0.996264)" xlink:href="#Nimbus_Roman_No9_L_Regular-52"/>
      <use transform="translate(227.744636 0)scale(0.996264)" xlink:href="#Nimbus_Roman_No9_L_Regular-46"/>
      <use transform="translate(252.651236 0)scale(0.996264)" xlink:href="#Nimbus_Roman_No9_L_Regular-48"/>
     </g>
    </g>
    <g id="line2d_34">
     <path d="M 366.174313 226.695604 
L 406.174313 226.695604 
" style="fill:none;stroke:#9d0d14;stroke-linecap:square;stroke-width:1.5;"/>
    </g>
    <g id="line2d_35"/>
    <g id="text_20">
     <!-- K = 5.0 -->
     <g transform="translate(422.174313 233.695604)scale(0.2 -0.2)">
      <use transform="scale(0.996264)" xlink:href="#Nimbus_Roman_No9_L_Regular-75"/>
      <use transform="translate(96.836585 0)scale(0.996264)" xlink:href="#Nimbus_Roman_No9_L_Regular-61"/>
      <use transform="translate(177.931436 0)scale(0.996264)" xlink:href="#Nimbus_Roman_No9_L_Regular-53"/>
      <use transform="translate(227.744636 0)scale(0.996264)" xlink:href="#Nimbus_Roman_No9_L_Regular-46"/>
      <use transform="translate(252.651236 0)scale(0.996264)" xlink:href="#Nimbus_Roman_No9_L_Regular-48"/>
     </g>
    </g>
    <g id="line2d_36">
     <path d="M 366.174313 255.009262 
L 406.174313 255.009262 
" style="fill:none;stroke:#67000d;stroke-linecap:square;stroke-width:1.5;"/>
    </g>
    <g id="line2d_37"/>
    <g id="text_21">
     <!-- K = 6.0 -->
     <defs>
      <path d="M 44.59375 68.59375 
C 33.203125 67.59375 27.40625 65.6875 20.09375 60.59375 
C 9.296875 52.890625 3.40625 41.484375 3.40625 28.140625 
C 3.40625 19.5 6.09375 10.75 10.40625 5.765625 
C 14.203125 1.390625 19.59375 -1 25.796875 -1 
C 38.203125 -1 46.796875 8.453125 46.796875 22.1875 
C 46.796875 34.90625 39.5 43 28 43 
C 23.59375 43 21.5 42.296875 15.203125 38.484375 
C 17.90625 53.59375 29.09375 64.390625 44.796875 67 
z
M 24.203125 38.390625 
C 32.796875 38.390625 37.796875 31.234375 37.796875 18.796875 
C 37.796875 7.859375 33.90625 1.796875 26.90625 1.796875 
C 18.09375 1.796875 12.703125 11.140625 12.703125 26.5625 
C 12.703125 31.625 13.5 34.421875 15.5 35.90625 
C 17.59375 37.5 20.703125 38.390625 24.203125 38.390625 
z
" id="Nimbus_Roman_No9_L_Regular-54"/>
     </defs>
     <g transform="translate(422.174313 262.009262)scale(0.2 -0.2)">
      <use transform="scale(0.996264)" xlink:href="#Nimbus_Roman_No9_L_Regular-75"/>
      <use transform="translate(96.836585 0)scale(0.996264)" xlink:href="#Nimbus_Roman_No9_L_Regular-61"/>
      <use transform="translate(177.931436 0)scale(0.996264)" xlink:href="#Nimbus_Roman_No9_L_Regular-54"/>
      <use transform="translate(227.744636 0)scale(0.996264)" xlink:href="#Nimbus_Roman_No9_L_Regular-46"/>
      <use transform="translate(252.651236 0)scale(0.996264)" xlink:href="#Nimbus_Roman_No9_L_Regular-48"/>
     </g>
    </g>
   </g>
  </g>
 </g>
 <defs>
  <clipPath id="paf9f81c60d">
   <rect height="326.16" width="446.4" x="54.267191" y="3.5"/>
  </clipPath>
 </defs>
</svg>
